<?xml version="1.0" standalone="no"?>
<!DOCTYPE svg PUBLIC "-//W3C//DTD SVG 1.1//EN" "http://www.w3.org/Graphics/SVG/1.1/DTD/svg11.dtd" >
<svg xmlns="http://www.w3.org/2000/svg">
<metadata>
This is a custom SVG webfont generated by Font Squirrel.
Copyright   : Copyright URW copyright 1999 by URW Design  Development Cyrillic glyphs added by Valek Filippov copyright 20012002 Vietnamese characters were added by Han The Thanh copyright 2006 2008 for TeX Gyre extensions by B Jackowski and JM Nowacki on behalf of TeX users groups This work is released under the GUST Font License   see httptugorgfontslicensesGUSTFONTLICENSEtxt for details
</metadata>
<defs>
<font id="webfont4rWaun2O" horiz-adv-x="1024" >
<font-face units-per-em="2048" ascent="1604" descent="-444" />
<missing-glyph horiz-adv-x="512" />
<glyph unicode="IJ" horiz-adv-x="1611" d="M82 0v39q129 4 164 37t35 147v910q0 113 -34 144.5t-165 39.5v39h608v-39q-129 -6 -165 -39t-36 -145v-910q0 -113 37 -146.5t164 -37.5v-39h-608zM793 119q0 41 29.5 71.5t70.5 30.5q76 0 106 -104q10 -39 22.5 -53.5t33.5 -14.5q78 0 78 135v949q0 113 -33 144.5 t-158 39.5v39h588v-39q-125 -8 -157 -40t-32 -144v-758q0 -193 -90 -298.5t-256 -105.5q-88 0 -145 41t-57 107z" />
<glyph unicode="ij" horiz-adv-x="1095" d="M82 0v31q106 6 134 36.5t28 141.5v475q0 68 -15.5 95.5t-52.5 27.5q-33 0 -70 -6l-16 -2v30l318 113l8 -6v-727q0 -111 25.5 -140.5t125.5 -37.5v-31h-485zM225 1208q0 43 31 74t74 31q45 0 74.5 -31t29.5 -74q0 -45 -29.5 -74.5t-74.5 -29.5q-43 0 -74 29.5t-31 74.5z M475 -334q0 33 24.5 56.5t59.5 23.5q47 0 98 -65q47 -57 86 -58q47 0 70 37q29 51 29 248v776q0 123 -66 123q-33 0 -82 -6l-10 -2v32q164 51 320 111l10 -6v-936q0 -219 -89 -332.5t-259 -113.5q-84 0 -137.5 31.5t-53.5 80.5zM823 1208q0 43 31 74t74 31q45 0 74.5 -31 t29.5 -74q0 -45 -29.5 -74.5t-74.5 -29.5q-43 0 -74 29.5t-31 74.5z" />
<glyph unicode="fk" horiz-adv-x="1619" d="M66 0v31q92 6 116.5 37.5t24.5 146.5v641h-141v66h145q6 135 25.5 208.5t64.5 139.5q43 59 108.5 94t135.5 35q82 0 170 -35q45 -16 61 -16q29 0 86 28q43 20 64 23l10 -4v-860l281 249q47 43 47 72q0 20 -21.5 27.5t-81.5 9.5v29h418v-31q-100 0 -176 -44t-266 -214 l-60 -55l314 -398q63 -78 117.5 -111.5t121.5 -37.5v-31h-446v31h39q43 0 43 30q0 14 -23 43q-12 12 -14 19l-6 8l-287 385v-350q0 -80 23.5 -104.5t107.5 -30.5v-31h-440v31q80 6 108.5 35.5t28.5 105.5v684h-385v-694q0 -70 28.5 -95.5t116.5 -35.5v-31h-458zM379 922h385 v288q-12 -14 -33 -14q-61 0 -113 76q-47 72 -106 71q-133 0 -133 -315v-106z" />
<glyph unicode="&#xfb00;" horiz-adv-x="1228" d="M63 854v68h142q8 123 28.5 190.5t67.5 132.5q111 154 348 154q176 0 238 -78q90 78 231 78q92 0 152.5 -36t60.5 -91q0 -35 -24.5 -59.5t-61.5 -24.5q-49 0 -92 74q-49 80 -109 79q-117 0 -116 -182v-237h252v-68h-250v-641q0 -115 23.5 -144.5t113.5 -37.5v-31h-451v31 q102 8 122 36.5t20 145.5v641h-383v-674q0 -84 27.5 -113.5t113.5 -35.5v-31h-450v31q86 2 111.5 32.5t25.5 129.5v661h-140zM373 922h385q2 172 39 264q-31 16 -62 65q-68 96 -145 97q-55 0 -105.5 -30t-76.5 -77q-35 -63 -35 -219v-12v-88z" />
<glyph unicode="&#xfb01;" horiz-adv-x="1138" d="M63 854v68h142q8 123 28.5 190.5t67.5 132.5q111 154 348 154q119 0 189.5 -39t70.5 -105q0 -35 -20.5 -57t-52.5 -22q-49 0 -101 75q-68 96 -145 97q-55 0 -105.5 -30t-76.5 -77q-41 -76 -35 -219v-12v-88h321q102 0 232 20l8 -6l-4 -201v-536q0 -98 25.5 -129 t111.5 -39v-31h-451v31q94 8 118 35.5t24 132.5v540q0 82 -30 98.5t-177 16.5h-176v-674q0 -84 27.5 -113.5t113.5 -35.5v-31h-450v31q86 2 111.5 32.5t25.5 129.5v661h-140z" />
<glyph unicode="&#xfb02;" horiz-adv-x="1138" d="M66 0v31q92 6 116.5 37.5t24.5 146.5v641h-141v66h145q6 135 25.5 208.5t64.5 139.5q43 59 108.5 94t135.5 35q82 0 170 -35q45 -16 61 -16q29 0 86 28q43 20 64 23l10 -4v-1229q0 -80 23.5 -104.5t107.5 -30.5v-31h-440v31q80 6 108.5 35.5t28.5 105.5v684h-385v-694 q0 -70 28.5 -95.5t116.5 -35.5v-31h-458zM379 922h385v288q-12 -14 -33 -14q-61 0 -113 76q-47 72 -106 71q-133 0 -133 -315v-106z" />
<glyph unicode="&#xfb03;" horiz-adv-x="1693" d="M63 854v68h142q8 123 28.5 190.5t67.5 132.5q111 154 348 154q178 0 238 -78q12 -16 16 -23q109 100 301 101q119 0 189.5 -39t70.5 -105q0 -35 -20.5 -57t-52.5 -22q-49 0 -101 75q-68 96 -145 97q-55 0 -105.5 -30t-76.5 -77q-35 -63 -35 -219v-12v-88h321 q102 0 232 20l8 -6l-4 -201v-536q0 -98 25.5 -129t111.5 -39v-31h-451v31q94 8 118 35.5t24 132.5v540q0 82 -30 98.5t-177 16.5h-176v-674q0 -84 27.5 -113.5t113.5 -35.5v-31h-450v31q86 2 111.5 32.5t25.5 129.5v661h-383v-674q0 -84 27.5 -113.5t113.5 -35.5v-31h-450 v31q86 2 111.5 32.5t25.5 129.5v661h-140zM373 922h387q12 170 55 254q-35 12 -80 75q-68 96 -145 97q-55 0 -105.5 -30t-76.5 -77q-35 -63 -35 -219v-12v-88z" />
<glyph unicode="&#xfb04;" horiz-adv-x="1693" d="M63 854v68h142q8 123 28.5 190.5t67.5 132.5q111 154 348 154q178 0 238 -78l4 -6q90 84 205 84q86 0 174 -35q45 -16 61 -16q29 0 86 28q43 20 64 23l10 -4v-1229q0 -80 23.5 -104.5t107.5 -30.5v-31h-440v31q80 6 108.5 35.5t28.5 105.5v682h-389v-692 q0 -70 28.5 -95.5t116.5 -35.5v-31h-459v31q92 6 117 37.5t25 146.5v639h-383v-674q0 -84 27.5 -113.5t113.5 -35.5v-31h-450v31q86 2 111.5 32.5t25.5 129.5v661h-140zM373 922h389q8 178 41 260q-31 14 -68 69q-68 96 -145 97q-55 0 -105.5 -30t-76.5 -77 q-35 -63 -35 -219v-12v-88zM930 922h389v288q-12 -14 -33 -14q-61 0 -112 76q-47 72 -111 71q-133 0 -133 -315v-106z" />
<glyph unicode=" "  horiz-adv-x="512" />
<glyph unicode="&#x09;" horiz-adv-x="512" />
<glyph unicode="&#xa0;" horiz-adv-x="512" />
<glyph unicode="!" horiz-adv-x="681" d="M266 88q0 47 32 80t77 33t77.5 -33t32.5 -80t-31.5 -76.5t-80.5 -29.5q-45 0 -76 29.5t-31 76.5zM266 1227q0 72 29 114.5t80 42.5q109 0 108 -163q0 -27 -4 -76l-92 -785h-27l-18 222q-8 109 -35 282q-41 269 -41 363z" />
<glyph unicode="&#x22;" horiz-adv-x="835" d="M158 1300q0 35 25.5 59.5t62.5 24.5q35 0 60.5 -24.5t25.5 -56.5q0 -94 -51 -338l-15 -82h-43q-65 345 -65 417zM504 1300q0 35 25.5 59.5t62.5 24.5q35 0 60.5 -24.5t25.5 -56.5q0 -94 -51 -338l-15 -82h-43q-65 345 -65 417z" />
<glyph unicode="#" d="M10 442v113h238l43 274h-225v113h241l64 414h118l-63 -414h272l62 414h119l-62 -414h199v-113h-215l-41 -274h205v-113h-224l-63 -442h-119l64 442h-275l-67 -442h-119l67 442h-219zM367 555h274l41 274h-272z" />
<glyph unicode="$" d="M90 104v267h31q37 -162 121 -237t229 -77v578q-178 100 -250 170q-115 106 -115 243.5t111 225.5q51 39 103.5 57.5t150.5 28.5v129h70v-129q231 -27 329 -109v-227h-30q-27 131 -98.5 197.5t-200.5 83.5v-504q186 -109 250.5 -157t103.5 -112q41 -68 41 -184 q0 -150 -107 -239q-55 -45 -115.5 -68t-172.5 -41v-178h-70v178q-129 4 -209 25.5t-172 78.5zM258 1094q0 -72 42 -123t169 -137v471q-211 -43 -211 -211zM541 57q233 45 233 242q0 94 -45 152.5t-188 148.5v-543z" />
<glyph unicode="%" horiz-adv-x="1705" d="M125 852q0 195 138 349.5t315 154.5q47 0 75.5 -11.5t67.5 -44.5q66 -55 178 -55q96 0 167 31t153 108h79l-788 -1411h-98l718 1282q-106 -61 -225 -61q-80 0 -133 20q14 -51 14 -90q0 -113 -46 -225.5t-126 -193.5q-106 -113 -247 -113q-100 0 -171 77t-71 183zM281 786 q0 -55 33.5 -89.5t86.5 -34.5q125 0 229.5 146t104.5 320q0 39 -18 101q-78 23 -113 53q-14 12 -26 12q-47 0 -101.5 -49t-99.5 -131q-96 -178 -96 -328zM920 264q0 193 138 344.5t312 151.5q100 0 155.5 -57.5t55.5 -161.5q0 -119 -47 -236t-129 -201q-104 -104 -240 -104 q-111 0 -178 72.5t-67 191.5zM1075 193q0 -57 35 -94.5t90 -37.5q104 0 199 117q59 72 94 168t35 184q0 68 -42 116t-102 48q-96 0 -176 -119q-57 -80 -95 -190t-38 -192z" />
<glyph unicode="&#x26;" horiz-adv-x="1593" d="M86 285q0 258 322 442l77 45q-72 199 -71 297q0 131 92 223t223 92q121 0 199 -69.5t78 -177.5q0 -111 -70 -187q-74 -82 -248 -164q123 -240 270 -421q186 248 187 372q0 47 -27.5 65.5t-103.5 26.5v43h442v-43q-78 -10 -117 -33.5t-75 -86.5l-54 -95 q-82 -141 -204 -307q141 -188 315 -188q55 0 95 23.5t89 84.5l31 -22q-45 -109 -128 -170.5t-181 -61.5q-168 0 -348 187q-115 -100 -216.5 -143.5t-226.5 -43.5q-164 0 -257 83.5t-93 228.5zM274 369q0 -119 78 -204t187 -85q121 0 288 133q-152 186 -311 489 q-133 -86 -187.5 -160.5t-54.5 -172.5zM575 1151q0 -127 82 -299q125 68 182.5 137.5t57.5 155.5q0 76 -46 125t-118 49q-70 0 -114 -47t-44 -121z" />
<glyph unicode="'" horiz-adv-x="368" d="M98 1300q0 35 26 59.5t62 24.5q35 0 60.5 -24.5t25.5 -56.5q0 -94 -51 -338l-14 -82h-43q-66 345 -66 417z" />
<glyph unicode="(" horiz-adv-x="681" d="M98 516q0 356 217 623q57 72 117 122t172 123l19 -32q-111 -90 -167.5 -158t-99.5 -162q-82 -188 -82 -510q0 -297 72 -497q41 -115 97.5 -185.5t179.5 -169.5l-25 -32q-137 84 -244 208q-135 156 -195.5 315.5t-60.5 354.5z" />
<glyph unicode=")" horiz-adv-x="681" d="M59 -330q111 90 167.5 158t99.5 164q82 184 82 508q0 297 -72 497q-43 115 -98.5 186.5t-178.5 168.5l25 32q137 -84 244 -208q135 -156 195.5 -315t60.5 -355q0 -356 -217 -623q-57 -72 -117 -122t-172 -123z" />
<glyph unicode="*" d="M141 791q0 39 29 59t98 33q72 14 110 28.5t101 53.5l-22 14q-57 39 -176 61q-139 27 -140 97q0 31 20.5 52t49.5 21q43 0 98 -65q88 -96 185 -150v27q0 84 -31 186q-20 72 -21 105q0 31 20.5 51t51.5 20t52.5 -21.5t21.5 -53.5q0 -29 -21 -95q-35 -98 -35 -170v-53l15 8 q70 39 147 131q72 84 115 84q33 0 53.5 -22.5t20.5 -56.5q0 -39 -23.5 -58.5t-81.5 -27.5q-109 -16 -229 -86l16 -11q84 -51 199 -69q68 -10 94.5 -31t26.5 -59q0 -35 -19.5 -55.5t-52.5 -20.5q-51 0 -123 88q-80 96 -143 123l-15 6v-14q0 -119 41 -230q16 -43 17 -65 q0 -33 -23.5 -57.5t-56.5 -24.5q-29 0 -50.5 22.5t-21.5 52.5q0 37 23 95q41 106 35 172l-2 35v14q-82 -51 -107 -74q-23 -18 -86 -92q-43 -49 -86 -49q-74 0 -74 72z" />
<glyph unicode="+" horiz-adv-x="1155" d="M82 444v136h428v428h135v-428h428v-136h-428v-428h-135v428h-428z" />
<glyph unicode="," horiz-adv-x="512" d="M115 92q0 51 33.5 84t87.5 33q70 0 116.5 -52.5t46.5 -129.5q0 -92 -63.5 -178.5t-165.5 -137.5l-18 39q168 115 167 217q0 29 -28 29l-17 -4q-25 -4 -38 -4q-55 0 -88 27.5t-33 76.5z" />
<glyph unicode="-" horiz-adv-x="681" d="M80 397v129h504v-129h-504z" />
<glyph unicode="." horiz-adv-x="512" d="M143 88q0 47 34 82t79 35q47 0 81 -35t34 -82q0 -45 -35 -78t-82 -33q-45 0 -78 33t-33 78z" />
<glyph unicode="/" horiz-adv-x="569" d="M-18 -29l469 1413h137l-467 -1413h-139z" />
<glyph unicode="0" d="M49 688q0 180 54.5 342t142.5 248q113 106 274 106q201 0 328 -196.5t127 -511.5q0 -186 -54.5 -350t-142.5 -248q-109 -106 -266 -107q-182 0 -299 140q-72 86 -118 247.5t-46 329.5zM246 670q0 -645 266 -645t266 647q0 322 -67.5 490.5t-196.5 168.5q-268 1 -268 -661 z" />
<glyph unicode="1" d="M227 1169v29l369 186l16 -4v-1228q0 -74 37 -96.5t158 -24.5v-31h-565v31q104 2 145 26q49 27 49 133v928q0 96 -61 96q-35 0 -92 -22q-4 -2 -25 -10z" />
<glyph unicode="2" d="M61 0v25l365 387q266 283 266 532q0 129 -80 209t-209 80q-106 0 -170.5 -58.5t-126.5 -207.5l-43 10q45 190 132 280q117 127 294 127q160 0 269.5 -104t109.5 -258q0 -231 -262 -506l-344 -360h490q70 0 103.5 23.5t90.5 111.5l27 -10l-113 -281h-799z" />
<glyph unicode="3" d="M88 88q0 33 21.5 52.5t56.5 19.5q45 0 131 -51q98 -63 172 -64q113 0 190.5 88t77.5 217q0 106 -55 187t-152 116q-59 23 -217 23v26q180 63 258 142q82 82 82 198q0 96 -62.5 158t-162.5 62q-96 0 -169 -52.5t-136 -165.5l-31 9q59 162 137 231q113 100 267 100 q141 0 230 -77.5t89 -202.5q0 -84 -43 -147.5t-149 -135.5q117 -51 170 -108q92 -98 92 -264q0 -209 -150 -340q-72 -63 -184.5 -100.5t-231.5 -37.5q-106 0 -168.5 32t-62.5 85z" />
<glyph unicode="4" d="M25 342v131l643 911h90v-911h209v-131h-209v-342h-158v342h-575zM106 473h492v703z" />
<glyph unicode="5" d="M66 98q0 76 88 76q61 0 155 -68q82 -59 137 -59q121 0 203 101.5t82 248.5q0 152 -84 250t-260 156q-129 41 -231 41q-25 0 -25 16l2 10l223 486h428q33 0 52.5 10t42.5 43l18 -14l-78 -183q-8 -18 -47 -18h-401l-86 -174q180 -33 280.5 -73t167.5 -107 q78 -78 109.5 -156t31.5 -188q0 -229 -137 -365q-156 -160 -422 -160q-115 0 -182 34t-67 93z" />
<glyph unicode="6" d="M70 571q0 422 342 666q113 78 220 113.5t281 50.5l5 -33q-242 -39 -404 -195.5t-203 -388.5q96 57 145.5 75t116.5 18q176 0 280.5 -116t104.5 -312q0 -211 -119.5 -344.5t-310.5 -133.5q-195 0 -315 140q-66 76 -104.5 201.5t-38.5 258.5zM260 539q0 -238 78 -374 t213 -136q109 0 166 91t57 259q0 193 -72.5 298t-205.5 105q-111 0 -179 -51q-57 -42 -57 -192z" />
<glyph unicode="7" d="M41 1055l121 301h758v-33l-435 -1339h-133l406 1220h-445q-84 0 -128 -30.5t-109 -135.5z" />
<glyph unicode="8" d="M115 309q0 104 50 175t216 196q-162 141 -208 211t-46 170q0 139 110.5 231t278.5 92q154 0 253 -81.5t99 -208.5q0 -104 -61.5 -178t-212.5 -156q184 -137 250.5 -230.5t66.5 -212.5q0 -158 -109.5 -252t-293.5 -94q-174 0 -283.5 94t-109.5 244zM270 326 q0 -133 72 -215t188 -82q100 0 163 62.5t63 162.5q0 86 -43 150.5t-156 144.5l-123 90q-90 -72 -127 -143.5t-37 -169.5zM279 1124q0 -86 59 -161.5t197 -165.5q8 6 18 12q174 117 174 287q0 106 -61.5 168.5t-165.5 62.5q-96 0 -158.5 -57.5t-62.5 -145.5z" />
<glyph unicode="9" d="M61 901q0 207 122 345t304 138q199 0 326 -161.5t127 -415.5q0 -207 -89 -388t-249 -298q-104 -76 -206.5 -111t-274.5 -55l-6 41q233 41 396 198.5t226 407.5q-152 -117 -307 -117q-166 0 -267.5 115t-101.5 301zM250 971q0 -182 68.5 -290t185.5 -108q119 0 207 76 q31 25 30 78v80q0 520 -270 520q-92 0 -145 -63q-33 -41 -54.5 -124t-21.5 -169z" />
<glyph unicode=":" horiz-adv-x="569" d="M166 88q0 47 33.5 82t79.5 35q47 0 80.5 -35t33.5 -82q0 -45 -34.5 -78t-82.5 -33q-45 0 -77.5 33t-32.5 78zM166 823q0 47 33.5 82t79.5 35q47 0 80.5 -35t33.5 -82q0 -45 -34.5 -77.5t-82.5 -32.5q-45 0 -77.5 32.5t-32.5 77.5z" />
<glyph unicode=";" horiz-adv-x="569" d="M164 94q0 51 33.5 83t87.5 32q70 0 117 -52.5t47 -129.5q0 -92 -61.5 -178.5t-168.5 -137.5l-18 39q168 115 168 217q0 29 -29 29l-16 -4q-25 -4 -39 -4q-57 0 -89 27.5t-32 78.5zM166 823q0 47 33.5 82t79.5 35q47 0 80.5 -35t33.5 -82q0 -45 -34.5 -77.5t-82.5 -32.5 q-45 0 -77.5 32.5t-32.5 77.5z" />
<glyph unicode="&#x3c;" horiz-adv-x="1155" d="M133 451v122l858 424v-151l-676 -334l676 -334v-151z" />
<glyph unicode="=" horiz-adv-x="1155" d="M82 274v136h991v-136h-991zM82 614v136h991v-136h-991z" />
<glyph unicode="&#x3e;" horiz-adv-x="1155" d="M133 27v151l676 334l-676 334v151l858 -424v-122z" />
<glyph unicode="?" horiz-adv-x="909" d="M139 1087.5q0 126.5 95.5 211.5t236.5 85q84 0 167 -32.5t136 -85.5q74 -74 74 -199q0 -117 -92 -258q-29 -43 -123 -158q-102 -131 -133 -315h-35q4 141 61 291l58 131q76 174 75 319q0 102 -64.5 174t-156.5 72q-76 0 -135 -39t-59 -88q0 -23 35 -63q43 -49 43 -89 q0 -37 -24 -60t-60 -23q-99 0 -99 126.5zM377 88q0 49 30.5 82t77.5 33q45 0 78 -34t33 -79q0 -47 -32 -76.5t-81 -29.5q-45 0 -75.5 29.5t-30.5 74.5z" />
<glyph unicode="@" horiz-adv-x="1886" d="M238 668q0 299 218 507.5t529 208.5q285 0 478.5 -173t193.5 -427q0 -199 -112.5 -345t-264.5 -146q-74 0 -126 41t-60 108q-111 -147 -256 -147q-76 0 -128.5 66.5t-52.5 162.5q0 113 45.5 222.5t126.5 191.5q102 102 230 102q53 0 82.5 -21.5t64.5 -84.5l21 78h141 l-133 -520q-4 -25 -4 -37q0 -94 80 -95q100 0 182 125t82 279q0 229 -173 393t-415 164q-231 0 -387 -156q-88 -90 -139 -225t-51 -278q0 -266 167.5 -438.5t430.5 -172.5q182 0 401 99l25 -62q-150 -68 -243 -92.5t-202 -24.5q-317 0 -534 201t-217 496zM803 557 q0 -80 32.5 -127t90.5 -47q90 0 153 119q86 154 92 315q6 127 -84 133q-82 6 -178 -102q-106 -119 -106 -291z" />
<glyph unicode="A" horiz-adv-x="1478" d="M31 0v39q74 4 114.5 58.5t139.5 277.5l426 1005h41l510 -1163q53 -115 83.5 -144.5t100.5 -33.5v-39h-522v39q84 0 114 18q29 14 29 49q0 49 -39 140l-84 196h-536l-95 -239q-16 -43 -16 -80q0 -84 139 -84v-39h-405zM442 526h473l-237 564z" />
<glyph unicode="B" horiz-adv-x="1366" d="M35 0v39q127 4 161.5 37t34.5 147v910q0 113 -33.5 144.5t-162.5 39.5v39h573q537 0 537 -348q0 -133 -82 -205q-66 -57 -199 -90q100 -25 152.5 -48.5t97.5 -64.5q100 -94 100 -231q0 -154 -114 -256q-123 -113 -381 -113h-684zM440 160q0 -49 27 -66.5t102 -17.5 q190 0 285 53q125 72 125 238q0 188 -172 260q-98 41 -367 41v-508zM440 750h195q143 0 222 64.5t79 184.5q0 137 -92 209t-269 72h-90q-45 0 -45 -61v-469z" />
<glyph unicode="C" horiz-adv-x="1366" d="M57 666q0 358 240 557q197 162 444 161q152 0 301 -49q49 -18 82 -18q66 0 84 67h43l19 -462h-47q-29 100 -57.5 153t-78.5 103q-125 125 -305 125q-223 0 -355 -166t-132 -445q0 -367 188 -522q131 -109 320 -109q242 0 457 207l36 -37q-94 -125 -239.5 -192.5 t-319.5 -67.5q-305 0 -492.5 192t-187.5 503z" />
<glyph unicode="D" horiz-adv-x="1478" d="M33 0v39q117 8 148.5 41t31.5 143v910q0 113 -29.5 143.5t-150.5 40.5v39h553q432 0 643 -215q174 -174 174 -457q0 -311 -209 -502q-94 -86 -247.5 -134t-332.5 -48h-581zM422 160q0 -49 22.5 -66.5t83.5 -17.5q254 0 402 84q250 145 250 510q0 340 -244 508 q-145 102 -408 102q-63 0 -84.5 -16.5t-21.5 -63.5v-1040z" />
<glyph unicode="E" horiz-adv-x="1251" d="M25 0v39q113 8 145.5 42t32.5 142v910q0 109 -32 141.5t-146 42.5v39h1087l6 -293h-51q-27 137 -82 176t-229 39h-277q-41 0 -54 -13.5t-13 -56.5v-454h315q125 0 165 34.5t60 159.5h47v-475h-47q-20 127 -59 162t-166 35h-315v-506q0 -55 16 -66q29 -23 199 -22h55 q219 0 313.5 52t169.5 218h58l-93 -346h-1105z" />
<glyph unicode="F" horiz-adv-x="1138" d="M25 0v39q117 8 147.5 44t30.5 163v887q0 109 -33 142.5t-145 41.5v39h1087l6 -293h-51q-27 137 -82 176t-229 39h-279q-41 0 -53 -13.5t-12 -56.5v-454h297q123 0 164.5 35.5t60.5 158.5h47v-475h-47q-18 125 -59 161t-166 36h-297v-447q0 -111 33.5 -144.5t152.5 -39.5 v-39h-573z" />
<glyph unicode="G" horiz-adv-x="1478" d="M66 666q0 313 197.5 515.5t504.5 202.5q137 0 279 -47q53 -20 90 -20q33 0 57.5 19.5t34.5 47.5h45l16 -432h-47q-68 166 -145 238q-123 113 -295 113q-217 0 -357 -156q-68 -76 -107.5 -206t-39.5 -273q0 -285 144.5 -450t394.5 -165q111 0 191.5 36t80.5 85v332 q0 127 -43 153q-33 20 -137 29v37h522v-37q-90 -8 -116.5 -37.5t-26.5 -120.5v-415q-61 -53 -222 -98.5t-292 -45.5q-346 0 -559 219q-170 179 -170 476z" />
<glyph unicode="H" horiz-adv-x="1478" d="M39 0v39q119 8 149.5 43t30.5 164v887q0 111 -30.5 142.5t-149.5 41.5v39h569v-39q-119 -10 -149.5 -42t-30.5 -142v-398h621v398q0 111 -31 142.5t-150 41.5v39h570v-39q-119 -10 -150 -42t-31 -142v-910q0 -109 33 -141.5t148 -42.5v-39h-570v39q119 8 150 43t31 164 v399h-621v-422q0 -109 33 -141.5t147 -42.5v-39h-569z" />
<glyph unicode="I" horiz-adv-x="681" d="M37 0v39q129 4 164 37t35 147v910q0 113 -34 144.5t-165 39.5v39h608v-39q-129 -6 -165 -39t-36 -145v-910q0 -113 37 -146.5t164 -37.5v-39h-608z" />
<glyph unicode="J" horiz-adv-x="796" d="M20 119q0 41 30 71.5t71 30.5q76 0 106 -104q10 -39 22.5 -53.5t33.5 -14.5q78 0 77 135v949q0 113 -32.5 144.5t-157.5 39.5v39h588v-39q-125 -8 -157 -40t-32 -144v-758q0 -193 -90 -298.5t-256 -105.5q-88 0 -145.5 41t-57.5 107z" />
<glyph unicode="K" horiz-adv-x="1478" d="M70 0v39q121 8 152.5 44t31.5 163v887q0 109 -33 142.5t-151 41.5v39h581v-39q-125 -8 -156.5 -40t-31.5 -144v-420l362 329q160 147 160 211q0 31 -19.5 44.5t-66.5 17.5q-29 0 -53 2v39h536v-39q-104 -8 -155 -34t-156 -126l-389 -385l477 -512q139 -150 190.5 -184.5 t131.5 -36.5v-39h-625v39q25 2 57 2q86 4 86 45q0 37 -74.5 135t-191.5 213l-217 215l-53 -43v-383q0 -113 32.5 -144.5t151.5 -39.5v-39h-577z" />
<glyph unicode="L" horiz-adv-x="1251" d="M25 0v39q113 8 145.5 42t32.5 142v910q0 109 -32 141.5t-146 42.5v39h577v-39q-121 -8 -155.5 -42t-34.5 -142v-969q0 -53 31.5 -68.5t144.5 -15.5h137q256 0 360 125q39 45 89 151h51l-99 -356h-1101z" />
<glyph unicode="M" horiz-adv-x="1820" d="M25 0v39q127 8 162.5 56t35.5 206v832q0 113 -33.5 144.5t-160.5 39.5v39h405l473 -1034l453 1034h407v-39q-115 -10 -146.5 -43t-31.5 -141v-910q0 -109 33 -142.5t145 -41.5v-39h-573v39q121 8 153.5 44t32.5 163v928l-524 -1174h-29l-514 1126v-825q0 -156 37 -206 t156 -56v-39h-481z" />
<glyph unicode="N" horiz-adv-x="1478" d="M25 0v39q127 8 162.5 56t35.5 206v903q-61 72 -97 92.5t-101 20.5v39h350l788 -991v690q0 188 -59 229q-43 25 -137 33v39h481v-39q-98 -10 -135 -37q-59 -41 -60 -225v-1078h-34l-906 1127v-803q0 -156 37 -206t156 -56v-39h-481z" />
<glyph unicode="O" horiz-adv-x="1478" d="M70 678q0 309 188 507.5t481 198.5q301 0 498 -215q172 -188 172 -499q0 -309 -189.5 -504t-492.5 -195q-135 0 -263 56.5t-218 152.5q-82 88 -129 220.5t-47 277.5zM303 674q0 -170 47 -314.5t127 -214.5q113 -100 258 -100q164 0 273 109q74 74 100 149q68 176 68 369 q0 379 -175 536q-115 102 -262 103q-172 0 -293 -133q-66 -72 -104.5 -210t-38.5 -294z" />
<glyph unicode="P" horiz-adv-x="1138" d="M33 0v39q117 10 144.5 44t27.5 163v887q0 111 -29 141.5t-143 42.5v39h540q145 0 268.5 -40t184.5 -108q84 -90 84 -223q0 -102 -52 -189t-145 -137q-125 -70 -358 -69q-61 0 -141 6v-373q0 -113 35.5 -146.5t156.5 -37.5v-39h-573zM414 678q70 -6 116 -6q356 0 357 301 q0 158 -98.5 232.5t-305.5 74.5q-41 0 -55 -14.5t-14 -55.5v-532z" />
<glyph unicode="Q" horiz-adv-x="1478" d="M70 674q0 311 188 510.5t481 199.5t481.5 -198.5t188.5 -507.5q0 -344 -229 -549q-72 -61 -137.5 -92t-170.5 -51q125 -164 257.5 -238t306.5 -74v-36h-13q-23 -2 -71 -3q-498 0 -713 250l-96 113q-109 37 -169.5 74t-121.5 102q-182 199 -182 500zM303 686 q0 -180 46 -324.5t128 -216.5q113 -100 262 -100q176 0 295 131q61 72 101.5 213t40.5 293q0 174 -47.5 313.5t-129.5 212.5q-115 102 -254 103q-174 0 -299 -133q-63 -72 -103 -208.5t-40 -283.5z" />
<glyph unicode="R" horiz-adv-x="1366" d="M35 0v39q115 8 144.5 44t29.5 163v887q0 109 -29.5 140.5t-144.5 43.5v39h565q143 0 262 -37t178 -100q80 -90 80 -224q0 -152 -104 -235q-88 -72 -266 -107l421 -518q43 -51 81 -71.5t98 -24.5v-39h-330l-488 631l-114 -4v-404q0 -111 32.5 -143.5t151.5 -40.5v-39h-567 zM418 702q150 4 221.5 17.5t140.5 52.5q117 61 117 227q0 143 -91 212t-284 69q-61 0 -82.5 -15.5t-21.5 -58.5v-504z" />
<glyph unicode="S" horiz-adv-x="1138" d="M86 408h47q78 -188 177.5 -275.5t236.5 -87.5q113 0 182.5 63.5t69.5 165.5q0 76 -29 121q-76 115 -305 240q-172 90 -246 182t-74 215q0 168 119 266q106 86 232 86q102 0 221 -45q55 -25 90 -24q53 0 65 69h43l46 -436h-52q-41 154 -125 240q-109 113 -249 112 q-96 0 -154.5 -52t-58.5 -136t69.5 -157.5t231.5 -161.5q203 -111 293 -216.5t90 -232.5q0 -158 -120 -265.5t-298 -107.5q-123 0 -242 47q-61 23 -96 23q-23 0 -39 -19.5t-18 -48.5h-46z" />
<glyph unicode="T" horiz-adv-x="1251" d="M35 1008l12 348h1155l12 -348h-49q-35 170 -93 216t-232 46h-111v-1047q0 -113 35 -145.5t162 -38.5v-39h-598v39q127 8 159.5 42t32.5 165v1024h-110q-172 0 -230.5 -47t-95.5 -215h-49z" />
<glyph unicode="U" horiz-adv-x="1478" d="M29 1317v39h579v-39q-123 -10 -154.5 -42t-31.5 -142v-656q0 -180 51 -270q84 -145 301 -146q115 0 207 44.5t133 117.5q47 88 47 279v553q0 154 -37 204t-155 58v39h475v-39q-127 -16 -160 -61.5t-33 -200.5v-535q0 -219 -67 -338q-121 -211 -457 -211q-262 0 -388 128 t-126 395v639q0 113 -31.5 143.5t-152.5 40.5z" />
<glyph unicode="V" horiz-adv-x="1478" d="M33 1317v39h545v-39q-57 -4 -60 -4q-94 -6 -94 -64q0 -41 84 -227l309 -692l301 751q39 98 39 150q0 43 -32.5 62.5t-116.5 23.5v39h419v-39q-74 -4 -105.5 -37t-82.5 -154l-455 -1149h-30l-504 1125q-66 137 -103.5 175t-113.5 40z" />
<glyph unicode="W" horiz-adv-x="1933" d="M10 1317v39h502v-39q-78 -4 -105.5 -17.5t-27.5 -48.5q0 -37 22 -94l295 -770l219 578l-67 168q-53 123 -86 152.5t-121 31.5v39h547v-39q-158 -2 -158 -72q0 -33 31 -104l24 -62l271 -698l256 694q33 92 33 154q0 41 -32 60.5t-110 27.5v39h406v-39q-82 -16 -112 -41 t-58 -105l-418 -1194h-31l-327 867l-316 -867h-31l-395 1100q-57 145 -95 188.5t-116 51.5z" />
<glyph unicode="X" horiz-adv-x="1478" d="M20 0v39q78 6 119 38t178 195l322 396l-223 327q-150 213 -210.5 265.5t-160.5 56.5v39h619v-39l-58 -2q-98 -2 -98 -60q0 -66 174 -307l86 -121l231 283q82 102 82 141q0 35 -29.5 48.5t-113.5 17.5v39h487v-39q-98 -6 -151 -40t-154 -153l-299 -372l393 -562 q66 -90 106 -116.5t122 -34.5v-39h-608v39q49 4 55 4q102 2 102 59q0 45 -104 201l-195 287l-243 -303q-106 -133 -107 -176q0 -35 33 -50.5t123 -21.5v-39h-478z" />
<glyph unicode="Y" horiz-adv-x="1478" d="M45 1317v39h573v-39q-23 -2 -51 -2q-94 -6 -94 -60q0 -39 35 -90l303 -454l293 463q29 47 29 75q0 37 -31 51.5t-111 16.5v39h449v-39q-78 -6 -133.5 -52t-149.5 -182l-303 -462v-398q0 -117 37 -148.5t174 -35.5v-39h-627v39q139 6 173 40t34 167v356l-268 393 q-154 217 -206 268.5t-126 53.5z" />
<glyph unicode="Z" horiz-adv-x="1251" d="M18 0v31l895 1247h-452q-205 0 -275 -88q-47 -57 -69 -184h-54l41 350h1078v-31l-885 -1247h526q180 0 256 80q51 57 97 202h47l-49 -360h-1156z" />
<glyph unicode="[" horiz-adv-x="681" d="M180 -319v1675h432v-51h-184q-49 0 -70.5 -21.5t-21.5 -69.5v-1376q0 -106 100 -106h176v-51h-432z" />
<glyph unicode="\" horiz-adv-x="569" d="M-18 1384h137l469 -1413h-139z" />
<glyph unicode="]" horiz-adv-x="681" d="M70 -268h184q92 0 92 90v1376q0 106 -100 107h-176v51h432v-1675h-432v51z" />
<glyph unicode="^" horiz-adv-x="960" d="M49 608l371 748h123l370 -748h-139l-293 592l-293 -592h-139z" />
<glyph unicode="_" d="M0 -154h1024v-102h-1024v102z" />
<glyph unicode="`" horiz-adv-x="681" d="M33 1317q0 66 71 65q39 0 86 -47l302 -303h-82l-316 199q-61 39 -61 86z" />
<glyph unicode="a" horiz-adv-x="909" d="M76 199q0 111 74 178q66 57 132 91t306 130v125q0 170 -156 170q-61 0 -104 -29.5t-43 -70.5q0 -23 6 -50q4 -29 4 -32q0 -35 -27.5 -60.5t-64.5 -25.5t-62.5 26.5t-25.5 61.5q0 84 84 153q92 76 260 76q190 0 256 -119q39 -63 39 -209v-399q0 -68 13 -93.5t48 -25.5 q43 0 90 39v-53q-53 -59 -93 -80.5t-91 -21.5q-63 0 -93 33.5t-38 115.5q-176 -150 -299 -149q-94 0 -154.5 61.5t-60.5 157.5zM256 256q0 -66 38 -112t91 -46q72 0 150 45q33 20 43 41t10 68v297q-184 -68 -258 -131.5t-74 -153.5v-8z" />
<glyph unicode="b" d="M6 1276v33l60 16q137 39 237 74l10 -4v-627q31 76 111 125t174 49q154 0 257 -128t103 -316q0 -219 -138 -368.5t-341 -149.5q-123 0 -230.5 41.5t-107.5 89.5v1063q0 63 -19.5 83.5t-80.5 20.5q-23 0 -35 -2zM313 143q0 -39 59.5 -68.5t139.5 -29.5q127 0 196.5 94 t69.5 264q0 186 -70.5 298t-191.5 112q-80 0 -141.5 -47t-61.5 -107v-516z" />
<glyph unicode="c" horiz-adv-x="909" d="M51 434q0 260 172 404q127 104 277 104q129 0 222 -62.5t93 -148.5q0 -35 -28.5 -60.5t-67.5 -25.5q-72 0 -98 94l-13 45q-16 57 -40.5 78t-80.5 21q-125 0 -201.5 -98.5t-76.5 -258.5q0 -176 88 -287.5t229 -111.5q88 0 151.5 42t137.5 150l29 -18q-88 -172 -168 -235 q-104 -86 -236 -86q-170 0 -279.5 127.5t-109.5 326.5z" />
<glyph unicode="d" d="M55 420q0 217 125 369.5t301 152.5q111 0 215 -88v320q0 63 -18.5 83.5t-75.5 20.5q-29 0 -45 -2v33q186 49 301 90l10 -4v-1162q0 -72 17.5 -94t72.5 -22q10 0 48 2v-33l-301 -106l-9 6v131q-98 -137 -262 -137q-170 0 -274.5 121.5t-104.5 318.5zM231 502 q0 -188 78 -302t205 -114q92 0 148 61q35 39 34 62v471q0 82 -63.5 143.5t-145.5 61.5q-117 0 -186.5 -104.5t-69.5 -278.5z" />
<glyph unicode="e" horiz-adv-x="909" d="M51 438q0 223 119 363.5t309 140.5q164 0 262 -117q68 -86 88 -258h-630q6 -174 61 -282q88 -164 258 -164q98 0 171 49t147 166l32 -14q-133 -342 -434 -342q-176 0 -279.5 123.5t-103.5 334.5zM203 633h418q-20 133 -63.5 184t-137.5 51q-184 1 -217 -235z" />
<glyph unicode="f" horiz-adv-x="681" d="M41 0v31q111 6 140.5 37.5t29.5 144.5v643h-168v66h168q2 123 16.5 191.5t55.5 137.5q86 147 288 148q92 0 152.5 -36t60.5 -91q0 -35 -24.5 -59.5t-61.5 -24.5q-49 0 -92 74q-49 80 -108 79q-117 0 -117 -182v-237h252v-66h-250v-643q0 -115 33 -146.5t157 -35.5v-31 h-532z" />
<glyph unicode="g" d="M57 -248q0 57 46.5 113.5t154.5 136.5q-63 31 -85.5 53.5t-22.5 55.5q0 59 94 141l88 82q-102 51 -146.5 114.5t-44.5 159.5q0 139 99.5 236.5t242.5 97.5q82 0 164 -31l45 -16q59 -20 113 -21h158v-79h-170q39 -88 38 -172q0 -147 -98 -232q-98 -86 -221 -86 q-20 0 -78 6q-2 0 -39 4q-41 -12 -82 -55t-41 -74q0 -49 160 -55l264 -12q113 -4 180.5 -63.5t67.5 -155.5q0 -115 -113 -207q-172 -139 -419 -139q-145 0 -250 58t-105 140zM201 -180q0 -68 82 -109t217 -41q174 0 280.5 55.5t106.5 143.5q0 55 -57.5 77.5t-196.5 22.5 q-207 0 -332 27q-63 -76 -81.5 -108.5t-18.5 -67.5zM311 686q0 -147 58.5 -238.5t150.5 -91.5q72 0 113 50.5t41 136.5q0 127 -62 245q-51 96 -149 97q-72 0 -112 -51.5t-40 -141.5v-6z" />
<glyph unicode="h" d="M18 0v31q88 12 110 40.5t22 137.5v965q0 66 -19.5 85t-85.5 19q-16 0 -25 -2v33l56 16q139 39 235 74l11 -6v-623q72 92 141 132t160 40q252 0 251 -326v-407q0 -106 19.5 -134t103.5 -44v-31h-434v31q88 8 113.5 40.5t25.5 137.5v405q0 217 -153 217q-59 0 -111.5 -29.5 t-115.5 -99.5v-493q0 -106 24.5 -137t114.5 -41v-31h-443z" />
<glyph unicode="i" horiz-adv-x="569" d="M33 0v31q106 6 134 36.5t28 141.5v475q0 68 -15.5 95.5t-52.5 27.5q-33 0 -70 -6l-16 -2v30l317 113l9 -6v-727q0 -111 25.5 -140.5t125.5 -37.5v-31h-485zM176 1208q0 43 31 74t74 31q45 0 74.5 -31t29.5 -74q0 -45 -29.5 -74.5t-74.5 -29.5q-43 0 -74 29.5t-31 74.5z " />
<glyph unicode="j" horiz-adv-x="569" d="M-143 -334q0 33 24.5 56.5t59.5 23.5q47 0 98 -65q47 -57 86 -58q47 0 70 37q29 51 28 248v776q0 123 -65 123q-33 0 -82 -6l-10 -2v32q164 51 319 111l10 -6v-936q0 -219 -89 -332.5t-259 -113.5q-84 0 -137 31.5t-53 80.5zM205 1208q0 43 30.5 74t73.5 31q45 0 75 -31 t30 -74q0 -45 -30 -74.5t-75 -29.5q-43 0 -73.5 29.5t-30.5 74.5z" />
<glyph unicode="k" d="M14 0v31q111 18 132.5 37.5t21.5 99.5v987q0 74 -18.5 99.5t-69.5 25.5q-12 0 -66 -4v33l62 16l256 74l8 -4v-860l281 249q47 41 47 70q0 20 -21.5 28.5t-81.5 10.5v29h418v-31h-16q-49 0 -95 -12q-96 -27 -331 -246l-60 -55l314 -398q63 -78 117.5 -111.5t121.5 -37.5 v-31h-446v31h39q43 0 43 30q0 14 -23 43q-6 6 -14 19l-6 8l-287 383v-377q0 -53 25.5 -77.5t87.5 -26.5l41 -2v-31h-480z" />
<glyph unicode="l" horiz-adv-x="569" d="M39 1276v33q203 49 326 90l8 -4v-1223q0 -84 27.5 -109.5t125.5 -31.5v-31h-483v31q96 8 127 36.5t31 110.5v977q0 72 -18.5 98.5t-67.5 26.5q-18 0 -64 -4h-12z" />
<glyph unicode="m" horiz-adv-x="1593" d="M33 0v31q86 2 114.5 30.5t28.5 112.5v518q0 74 -15.5 102.5t-56.5 28.5q-31 0 -65 -8v35q147 41 287 92l14 -4v-154q127 96 188.5 127t128.5 31q162 0 217 -172q160 172 334 172q238 0 238 -364v-422q0 -115 88 -121l53 -4v-31h-448v31q90 10 112.5 34.5t22.5 112.5v432 q0 127 -33 176.5t-121 49.5q-135 0 -223 -125v-516q0 -96 29.5 -129t117.5 -35v-31h-458v31q88 6 113.5 32.5t25.5 112.5v445q0 215 -135 215q-53 0 -112.5 -24t-98.5 -58l-31 -39v-578q0 -59 29 -80.5t110 -25.5v-31h-454z" />
<glyph unicode="n" d="M33 815v35q152 45 282 92l15 -4v-162q104 98 164.5 132t132.5 34q113 0 177 -81t64 -226v-469q0 -76 25 -101.5t100 -33.5v-31h-426v31q78 6 103.5 40.5t25.5 131.5v428q0 199 -149 198q-51 0 -94 -23.5t-117 -92.5v-576q0 -55 28.5 -77.5t106.5 -28.5v-31h-434v31 q78 6 102.5 35.5t24.5 117.5v508q0 76 -16.5 103.5t-59.5 27.5q-39 0 -55 -8z" />
<glyph unicode="o" d="M59 463q0 211 126 345t327 134q197 0 324 -131t127 -332q0 -213 -131.5 -356t-324 -143t-320.5 138t-128 345zM244 563q0 -227 90 -395q70 -131 198 -131q115 0 180.5 98t65.5 273q0 211 -82 344t-211 133q-109 0 -175 -88.5t-66 -233.5z" />
<glyph unicode="p" d="M10 -410q90 8 117 35t27 107v958q0 72 -16.5 94.5t-67.5 22.5q-33 0 -52 -2v33q129 39 295 104l13 -4v-158q131 162 295 162q150 0 246 -123t96 -313q0 -223 -124 -374.5t-307 -151.5q-66 0 -109.5 18t-96.5 70v-322q0 -96 32.5 -124t147.5 -30v-36h-496v34zM326 180 q0 -45 70.5 -90t142.5 -45q111 0 179 105.5t68 275.5q0 178 -68.5 285.5t-182.5 107.5q-72 0 -140.5 -45t-68.5 -90v-504z" />
<glyph unicode="q" d="M49 420q0 221 130 372.5t323 151.5q111 0 235 -74l111 66h22v-1225q0 -66 22.5 -87t106.5 -40v-28h-483v34q109 8 145.5 39t36.5 117v385q-139 -152 -321 -151q-143 0 -235.5 122.5t-92.5 317.5zM225 494q0 -102 30 -192.5t79 -135.5q61 -61 160 -62q102 0 176 64 q29 23 28 92v422q0 205 -190 205q-131 0 -207 -105.5t-76 -287.5z" />
<glyph unicode="r" horiz-adv-x="681" d="M10 0v31q98 18 122 40.5t24 100.5v512q0 68 -15.5 95.5t-54.5 27.5q-33 0 -72 -8v32q164 53 303 111l11 -4v-188q76 109 129 150.5t116 41.5q53 0 83 -28.5t30 -79.5q0 -43 -21.5 -68t-58.5 -25q-35 0 -82 41q-33 31 -53 31q-41 0 -92 -59.5t-51 -108.5v-461 q0 -88 34.5 -118.5t139.5 -34.5v-31h-492z" />
<glyph unicode="s" horiz-adv-x="796" d="M104 688q0 113 79 182.5t204 69.5q76 0 139 -25q31 -14 56 -14q8 0 28 17l4 4h23l8 -279h-31q-35 137 -86 194.5t-139 57.5q-72 0 -115 -38t-43 -101q0 -88 88 -140l222 -131q94 -55 133 -110.5t39 -132.5q0 -106 -85 -184t-202 -78q-55 0 -152 20q-66 16 -94 16 q-31 0 -47 -24h-27v319h33q35 -156 94.5 -221t165.5 -65q78 0 124 39.5t46 107.5q0 92 -106 154l-119 67q-131 76 -185.5 142.5t-54.5 152.5z" />
<glyph unicode="t" horiz-adv-x="569" d="M27 870q0 16 34 39q84 49 199 219q29 37 41 58q14 0 14 -27v-237h207v-66h-207v-586q0 -98 25 -141t82 -43q61 0 123 72l26 -23q-98 -156 -247 -155q-180 0 -181 260v616h-108q-8 6 -8 14z" />
<glyph unicode="u" d="M18 893v29h299v-668q0 -63 43 -109.5t103 -46.5q98 0 184 74q35 27 35 104v482q0 76 -27.5 100.5t-124.5 28.5v35h324v-703q0 -72 23.5 -94.5t93.5 -22.5h10v-28q-160 -43 -281 -92l-8 4v170l-88 -88q-88 -88 -211 -88q-113 0 -180.5 72.5t-67.5 193.5v516 q0 72 -26.5 99.5t-100.5 31.5z" />
<glyph unicode="v" d="M39 891v31h401v-31q-53 -4 -73.5 -16.5t-20.5 -40.5q0 -33 19 -76l208 -525l203 531q12 31 12 61q0 57 -96 66v31h285v-31q-47 -4 -67.5 -29.5t-65.5 -130.5l-262 -657q-41 -102 -58 -103q-18 0 -37 54q-2 4 -8 20t-8 23l-246 587q-72 160 -100.5 197t-85.5 39z" />
<glyph unicode="w" horiz-adv-x="1478" d="M43 891v31h369v-31q-53 -6 -74 -20.5t-21 -47.5q0 -31 13 -61l202 -535l187 408l-41 115q-31 82 -57.5 108.5t-83.5 32.5v31h415v-31q-72 -10 -95 -24.5t-23 -49.5q0 -27 34 -121l172 -458l185 454q35 86 35 135q0 27 -18.5 40.5t-72.5 23.5v31h252v-31 q-31 -10 -43 -27.5t-41 -83.5l-282 -708q-41 -100 -57.5 -100.5t-49.5 87.5l-186 484l-230 -492q-37 -80 -51 -80q-16 0 -53 90l-276 701q-35 78 -54.5 102.5t-54.5 26.5z" />
<glyph unicode="x" d="M35 0v31q51 4 76.5 22.5t72.5 81.5l234 338l-193 295q-47 72 -79.5 97.5t-77.5 25.5h-19v31h424v-31q-88 -2 -88 -45q0 -41 94 -182l29 -41q49 74 61 90q76 94 76 133t-82 45v31h324v-31q-104 -4 -166 -90l-170 -246l262 -401q49 -70 85 -96.5t83 -26.5v-31h-412v31 q51 4 66.5 13t15.5 36q0 18 -12 37l-186 286l-162 -251q-41 -63 -41 -84q0 -37 82 -37v-31h-297z" />
<glyph unicode="y" d="M29 893v29h422v-31q-66 -2 -92.5 -14.5t-26.5 -40.5q0 -31 20 -78l236 -518l198 565q8 18 9 35q0 51 -99 51v31h277v-31q-37 -4 -57.5 -23.5t-41.5 -68.5l-315 -836q-82 -221 -163 -315t-183 -94q-66 0 -109 33.5t-43 84.5q0 37 27 63.5t62 26.5q47 0 108 -22 q29 -14 51.5 -14t52 26.5t50.5 65.5q27 45 54.5 121.5t27.5 99.5q0 20 -23 76l-338 712q-24 54 -104 66z" />
<glyph unicode="z" horiz-adv-x="909" d="M55 0v31l545 829h-283q-92 0 -124.5 -33.5t-47.5 -146.5h-36l6 242h710v-31l-551 -830h283q160 0 203 54q35 45 59 170l37 -9l-29 -276h-772z" />
<glyph unicode="{" horiz-adv-x="983" d="M205 512q102 31 138 78t36 153v365q0 178 90 233q78 49 248 52v-23q-106 -27 -146.5 -82t-40.5 -170v-344q0 -127 -38.5 -180t-153.5 -84q115 -29 153.5 -82t38.5 -180v-344q0 -115 40 -170.5t147 -81.5v-23q-172 2 -248 52q-90 57 -90 235v363q0 106 -36 153t-138 80z " />
<glyph unicode="|" horiz-adv-x="409" d="M137 -319v1675h135v-1675h-135z" />
<glyph unicode="}" horiz-adv-x="983" d="M266 -348q106 27 146.5 82t40.5 170v344q0 127 38.5 180t153.5 84q-115 29 -153.5 81t-38.5 181v344q0 115 -40 170t-147 82v23q172 -2 248 -52q90 -57 90 -235v-363q0 -106 36 -153t138 -78q-102 -33 -138 -80t-36 -153v-365q0 -178 -90 -233q-78 -49 -248 -52v23z" />
<glyph unicode="~" horiz-adv-x="1107" d="M82 481q70 98 125 136t127 38q68 0 120 -18.5t191 -91.5q53 -29 121 -29q47 0 79 22.5t73 82.5l110 -66q-70 -98 -125 -136t-127 -38q-68 0 -120 18.5t-191 92.5q-53 29 -121 28q-47 0 -79 -22.5t-72 -81.5z" />
<glyph unicode="&#xa1;" horiz-adv-x="681" d="M197 833.5q0 47.5 31.5 77t80.5 29.5q47 0 77 -29.5t30 -77t-32 -80t-77 -32.5t-77.5 32.5t-32.5 80zM199 -299q0 27 4 76l92 784h27l18 -221q8 -109 35 -283q41 -268 41 -362q0 -72 -29 -115t-80 -43q-108 0 -108 164z" />
<glyph unicode="&#xa2;" d="M109 449q0 207 130 350t320 143q43 0 105 -10l90 254h71l-96 -277q154 -61 154 -172q0 -41 -24.5 -66.5t-63.5 -25.5t-66 23.5t-53 83.5l-207 -596q66 -25 121 -25q90 0 155.5 45t145.5 160l27 -17q-51 -106 -89 -159.5t-92 -100.5q-90 -78 -211 -77q-51 0 -114 18 l-101 -283h-69l104 308q-96 53 -143 120q-94 130 -94 304zM266 532q0 -111 32 -186.5t108 -144.5l235 661q-47 18 -96 19q-125 0 -202 -95.5t-77 -253.5z" />
<glyph unicode="&#xa3;" d="M25 111q0 70 51 112.5t135 42.5q45 0 94 -10q8 23 8 43q0 41 -45 373h-221v92h219q-14 74 -14 141q0 219 108.5 349t290.5 130q115 0 191 -54t76 -136q0 -47 -29 -78t-74 -31t-61.5 28t-18.5 110q-2 106 -114 106q-92 0 -143.5 -74.5t-51.5 -210.5q0 -90 23 -280h256v-92 h-248v-56l2 -57q0 -72 -51 -332q172 -72 305 -71q137 0 231 100q31 33 47 33q12 0 13 -10q0 -27 -28 -82.5t-61 -92.5q-102 -119 -256 -118q-66 0 -128 26.5t-166 98.5q-61 -72 -104.5 -99.5t-96.5 -27.5q-63 0 -101 35t-38 92zM78 117q0 -33 23.5 -54.5t60.5 -21.5 q55 0 94 47q35 41 35 68q0 12 -36 24.5t-73 12.5q-104 0 -104 -76z" />
<glyph unicode="&#xa4;" d="M-45 221l201 197q-84 121 -84 258q0 141 84 258l-201 201l102 98l197 -197q125 80 260 80q141 0 256 -80l201 197l98 -98l-197 -201q80 -119 80 -256q0 -135 -80 -260l197 -197l-98 -102l-201 200q-121 -84 -256 -83q-139 0 -260 83l-197 -200zM211 678q0 -129 89 -220 t214 -91q127 0 213 91t86 222q0 127 -88 216t-215 89q-123 0 -211 -90t-88 -217z" />
<glyph unicode="&#xa5;" d="M-109 1317v39h498v-39q-133 -2 -133 -60q0 -39 27 -92l241 -452l230 450q29 53 28 90q0 29 -28.5 46.5t-75.5 17.5h-29v39h400v-39q-78 -16 -131.5 -64.5t-110.5 -154.5l-189 -377h300v-82h-340l-15 -29v-155h355v-82h-355v-150q0 -109 33 -145.5t131 -38.5v-39h-500v39 q102 4 132 42t30 165v127h-356v82h356v155l-14 29h-342v82h295l-195 354q-84 152 -127 195t-115 47z" />
<glyph unicode="&#xa6;" horiz-adv-x="409" d="M137 -319v669h135v-669h-135zM137 686v670h135v-670h-135z" />
<glyph unicode="&#xa7;" d="M143 586q0 104 68 173.5t168 69.5q31 0 51 -2q-123 100 -164 163t-41 145q0 111 79 180t206 69q113 0 187.5 -57t74.5 -143q0 -51 -27.5 -80t-76.5 -29q-41 0 -69 24.5t-28 63.5q0 49 54 90q16 16 16 23q0 27 -37 46t-90 19q-78 0 -126 -39.5t-48 -105.5q0 -86 70 -145 l280 -232q182 -152 182 -317q0 -109 -66.5 -177.5t-170.5 -68.5h-37q115 -100 154 -160.5t39 -138.5q0 -117 -81 -188.5t-214 -71.5q-119 0 -201 59.5t-82 145.5q0 47 31.5 78.5t79.5 31.5q41 0 69.5 -24.5t28.5 -61.5q0 -43 -47 -84q-23 -18 -23 -30q0 -29 44 -50.5 t102 -21.5q82 0 130 43t48 115q0 59 -42 113.5t-140 121.5q-186 129 -268.5 234.5t-82.5 218.5zM252 647q0 -84 94 -178q170 -170 279 -170q57 0 99 41t42 94q0 82 -109 191q-72 72 -145.5 115.5t-120.5 43.5q-59 0 -99 -39t-40 -98z" />
<glyph unicode="&#xa8;" horiz-adv-x="681" d="M37 1210q0 39 29.5 70t68.5 31q43 0 74 -31t31 -72t-31 -70.5t-74 -29.5q-41 0 -69.5 29.5t-28.5 72.5zM444 1210q0 39 30 70t69 31q43 0 73.5 -31t30.5 -72t-30.5 -70.5t-73.5 -29.5q-41 0 -70 29.5t-29 72.5z" />
<glyph unicode="&#xa9;" horiz-adv-x="1556" d="M61 688q0 297 210 507t507 210t507 -210t210 -507t-210 -507t-507 -210t-507 210t-210 507zM139 688q0 -264 187.5 -451.5t451.5 -187.5t451.5 187.5t187.5 451.5t-187.5 451.5t-451.5 187.5t-451.5 -187.5t-187.5 -451.5zM381 682q0 207 151 319q127 94 287 95 q92 0 191 -29q35 -10 51 -10q39 0 49 39h35l10 -273h-35q-31 100 -84 148q-78 72 -190 71q-137 0 -218 -94t-81 -252q0 -207 119 -297q78 -59 192 -59q154 0 289 119l27 -25q-121 -154 -357 -153q-195 0 -315.5 110.5t-120.5 290.5z" />
<glyph unicode="&#xaa;" horiz-adv-x="565" d="M8 715v57h545v-57h-545zM8 946q0 66 45 105q43 37 87 58t182 71v61q0 86 -74 86q-33 0 -62.5 -15.5t-29.5 -31.5q0 -8 4 -29l2 -16q0 -20 -19.5 -35.5t-44.5 -15.5q-27 0 -46 18.5t-19 44.5q0 59 62.5 98t158.5 39q215 0 215 -196v-236q0 -45 5 -58t22 -13q27 0 57 24 v-37q-61 -61 -121 -61q-41 0 -61.5 20.5t-30.5 69.5q-98 -90 -186 -90q-63 0 -104.5 39t-41.5 100zM137 993q0 -37 22.5 -63.5t55.5 -26.5q39 0 86 23q23 20 23 45v157q-109 -39 -148 -67.5t-39 -67.5z" />
<glyph unicode="&#xab;" d="M117 455l63 55q188 164 348 319q10 12 21 13q20 0 20 -19q0 -20 -65.5 -117.5t-175.5 -230.5l-21 -24l21 -25q242 -289 241 -340q0 -18 -20 -18q-10 0 -21 12q-135 133 -348 319zM506 455l63 55q188 164 349 319q10 12 20 13q20 0 20 -19q0 -20 -65.5 -117.5 t-175.5 -230.5l-21 -24l21 -25q242 -289 241 -340q0 -18 -20 -18q-10 0 -20 12q-135 133 -349 319z" />
<glyph unicode="&#xac;" horiz-adv-x="1155" d="M82 614v136h991v-408h-135v272h-856z" />
<glyph unicode="&#xad;" horiz-adv-x="681" d="M80 397v129h504v-129h-504z" />
<glyph unicode="&#xae;" horiz-adv-x="1556" d="M61 688q0 297 210 507t507 210t507 -210t210 -507t-210 -507t-507 -210t-507 210t-210 507zM139 688q0 -264 187.5 -451.5t451.5 -187.5t451.5 187.5t187.5 451.5t-187.5 451.5t-451.5 187.5t-451.5 -187.5t-187.5 -451.5zM362 297v29q70 4 86.5 23.5t16.5 90.5v508 q0 61 -16.5 78.5t-86.5 24.5v28h359q205 0 285 -80q51 -51 51 -129q0 -88 -68 -137q-53 -39 -164 -61l262 -293q49 -49 107 -53v-29h-215l-307 360l-58 -2v-227q0 -61 19.5 -79.5t89.5 -22.5v-29h-361zM614 707q147 2 213 36q72 35 72 129q0 156 -227 156q-33 0 -45.5 -7 t-12.5 -30v-284z" />
<glyph unicode="&#xaf;" horiz-adv-x="681" d="M23 1153v111h636v-111h-636z" />
<glyph unicode="&#xb0;" horiz-adv-x="819" d="M117 1092q0 123 85 207.5t207.5 84.5t207.5 -85t85 -209q0 -123 -86 -207t-210 -84q-119 0 -204 86t-85 207zM197 1091.5q0 -90.5 62.5 -157t148.5 -66.5q88 0 151.5 65.5t63.5 158.5q0 90 -63.5 156.5t-149.5 66.5q-88 0 -150.5 -66.5t-62.5 -157z" />
<glyph unicode="&#xb1;" horiz-adv-x="1155" d="M82 0v135h991v-135h-991zM82 580v135h428v428h135v-428h428v-135h-428v-324h-135v324h-428z" />
<glyph unicode="&#xb2;" horiz-adv-x="614" d="M2 1141q43 125 96 172q72 72 201 71q119 0 193.5 -60t74.5 -157q0 -76 -39 -145.5t-133 -161.5l-176 -174h248q41 0 61.5 10.5t42.5 44.5l35 -14l-76 -174h-518v47l201 219q166 178 166 281q0 63 -44 109t-106 46q-111 0 -176 -143z" />
<glyph unicode="&#xb3;" horiz-adv-x="614" d="M29 639q0 33 20.5 54.5t51 21.5t83.5 -39q57 -41 107 -41q63 0 101 38t38 101q0 98 -84 146q-63 37 -108 28l-48 -6v59q106 37 150.5 75t44.5 93q0 47 -31.5 74t-87.5 27q-51 0 -88 -25.5t-84 -91.5l-51 37q53 104 117.5 149t158.5 45q92 0 157 -49t65 -121 q0 -80 -123 -167q178 -72 178 -232q0 -119 -113.5 -198.5t-283.5 -79.5t-170 102z" />
<glyph unicode="&#xb4;" horiz-adv-x="681" d="M190 1032l302 303q47 47 86 47q72 0 71 -65q0 -47 -61 -86l-316 -199h-82z" />
<glyph unicode="&#xb5;" d="M74 -303q0 72 24 215q25 147 25 199v811h180v-627q0 -88 46 -138.5t126 -50.5q150 0 225 130v686h181v-734q0 -133 65 -133q39 0 103 58v-17q-51 -66 -93.5 -91t-99.5 -25q-74 0 -110.5 44t-38.5 140q-117 -184 -281 -184q-147 0 -240 151q8 -84 39 -199q37 -147 37 -221 q0 -158 -94 -157.5t-94 143.5z" />
<glyph unicode="&#xb6;" horiz-adv-x="927" d="M-45 977q0 201 101.5 290t326.5 89h539v-39q-119 -10 -150 -42t-31 -142v-1219q0 -109 32 -142.5t149 -41.5v-45h-316v1626h-119v-1626h-315v45q119 8 149.5 42.5t30.5 164.5v622q-96 2 -149 17.5t-105 52.5q-143 98 -143 348zM111 985q0 -195 55 -281t186 -100v707 q-102 -8 -153 -45q-88 -64 -88 -281z" />
<glyph unicode="&#xb7;" horiz-adv-x="512" d="M141 512q0 47 34 81t81 34t81 -34t34 -81t-34 -81t-81 -34t-81 34t-34 81z" />
<glyph unicode="&#xb8;" horiz-adv-x="681" d="M106 -408l29 64q76 -25 133 -25q51 0 82 25t31 65q0 39 -24.5 56.5t-84.5 17.5q-35 0 -57 -8l-14 10l84 213h71l-51 -143q31 6 53 6q82 0 129.5 -38t47.5 -103q0 -80 -69 -126t-187 -46q-93 -1 -173 32z" />
<glyph unicode="&#xb9;" horiz-adv-x="614" d="M117 553v49q66 4 87 17.5t21 48.5v526q0 57 -16 57q-12 0 -88 -26v47l241 112l29 -6v-702q0 -41 23.5 -55.5t93.5 -18.5v-49h-391z" />
<glyph unicode="&#xba;" horiz-adv-x="634" d="M12 715v57h611v-57h-611zM12 1092q0 131 87 211.5t227 80.5q131 0 214 -76.5t83 -197.5q0 -129 -90.5 -216t-223.5 -87q-129 0 -213 81t-84 204zM162 1165q0 -129 51 -221q39 -70 115 -70q145 0 145 179q0 117 -46 190.5t-120 73.5q-66 0 -105.5 -41t-39.5 -111z" />
<glyph unicode="&#xbb;" d="M92 86q0 20 65.5 117.5t176.5 230.5l20 25l-20 24q-242 289 -242 340q0 18 21 19q10 0 20 -13q135 -133 348 -319l64 -55l-64 -56q-188 -164 -348 -319q-10 -12 -20 -12q-21 0 -21 18zM481 86q0 20 65.5 117.5t176.5 230.5l20 25l-20 24q-242 289 -242 340q0 18 21 19 q10 0 20 -13q135 -133 348 -319l64 -55l-64 -56q-188 -164 -348 -319q-10 -12 -20 -12q-21 0 -21 18z" />
<glyph unicode="&#xbc;" horiz-adv-x="1536" d="M76 553v49q66 4 87 17.5t21 48.5v526q0 57 -16 57q-12 0 -88 -26v47l242 112l28 -6v-702q0 -41 23.5 -55.5t93.5 -18.5v-49h-391zM283 -29l927 1413h95l-922 -1413h-100zM846 184v101l416 544h96v-528h112v-117h-112v-184h-144v184h-368zM938 301h276v367z" />
<glyph unicode="&#xbd;" horiz-adv-x="1536" d="M63 553v49q66 4 87.5 17.5t21.5 48.5v526q0 57 -16 57q-12 0 -88 -26v47l241 112l29 -6v-702q0 -41 23.5 -55.5t93.5 -18.5v-49h-392zM207 -29l928 1413h94l-922 -1413h-100zM924 588q43 125 96 172q72 72 201 71q119 0 193.5 -60t74.5 -157q0 -76 -39 -145.5 t-133 -161.5l-176 -174h248q41 0 61 10.5t43 44.5l35 -14l-76 -174h-518v47l201 219q166 178 165 281q0 63 -44 109t-105 46q-111 0 -176 -143z" />
<glyph unicode="&#xbe;" horiz-adv-x="1536" d="M31 639q0 33 20.5 54.5t50.5 21.5q35 0 84 -39q57 -41 107 -41q63 0 101 38t38 101q0 98 -84 146q-63 37 -108 28l-47 -6v59q109 37 152.5 75t43.5 93q0 45 -30.5 73t-84.5 28q-57 0 -94 -24.5t-86 -92.5l-51 37q55 104 119.5 149t161.5 45q92 0 156.5 -49t64.5 -121 q0 -80 -125 -167q178 -72 178 -232q0 -119 -113.5 -198.5t-283.5 -79.5t-170 102zM283 -29l927 1413h95l-922 -1413h-100zM846 184v101l416 544h96v-528h112v-117h-112v-184h-144v184h-368zM938 301h276v367z" />
<glyph unicode="&#xbf;" horiz-adv-x="909" d="M61 -145q0 117 93 258q29 43 122 157q102 131 134 316h34q-4 -141 -61 -291l-57 -131q-76 -174 -76 -320q0 -102 64.5 -173.5t156.5 -71.5q76 0 135.5 38.5t59.5 88.5q0 23 -35 63q-43 49 -43 88q0 37 23.5 60.5t60.5 23.5q98 0 98 -127t-95 -212t-237 -85q-84 0 -167 33 t-136 86q-74 74 -74 199zM313 831q0 47 32 77t81 30q45 0 75.5 -29.5t30.5 -74.5q0 -49 -30.5 -82t-77.5 -33q-45 0 -78 33.5t-33 78.5z" />
<glyph unicode="&#xc0;" horiz-adv-x="1478" d="M31 0v39q74 4 114.5 58.5t139.5 277.5l426 1005h41l510 -1163q53 -115 83.5 -144.5t100.5 -33.5v-39h-522v39q84 0 114 18q29 14 29 49q0 49 -39 140l-84 196h-536l-95 -239q-16 -43 -16 -80q0 -84 139 -84v-39h-405zM416 1690q0 53 78 53q43 0 94 -39l323 -246h-88 l-342 164q-65 27 -65 68zM442 526h473l-237 564z" />
<glyph unicode="&#xc1;" horiz-adv-x="1478" d="M31 0v39q74 4 114.5 58.5t139.5 277.5l426 1005h41l510 -1163q53 -115 83.5 -144.5t100.5 -33.5v-39h-522v39q84 0 114 18q29 14 29 49q0 49 -39 140l-84 196h-536l-95 -239q-16 -43 -16 -80q0 -84 139 -84v-39h-405zM442 526h473l-237 564zM553 1458l324 246 q51 39 94 39q78 0 78 -53q0 -41 -66 -68l-342 -164h-88z" />
<glyph unicode="&#xc2;" horiz-adv-x="1478" d="M31 0v39q74 4 114.5 58.5t139.5 277.5l426 1005h41l510 -1163q53 -115 83.5 -144.5t100.5 -33.5v-39h-522v39q84 0 114 18q29 14 29 49q0 49 -39 140l-84 196h-536l-95 -239q-16 -43 -16 -80q0 -84 139 -84v-39h-405zM379 1470l274 265h158l276 -265h-98l-256 162 l-256 -162h-98zM442 526h473l-237 564z" />
<glyph unicode="&#xc3;" horiz-adv-x="1478" d="M31 0v39q74 4 114.5 58.5t139.5 277.5l426 1005h41l510 -1163q53 -115 83.5 -144.5t100.5 -33.5v-39h-522v39q84 0 114 18q29 14 29 49q0 49 -39 140l-84 196h-536l-95 -239q-16 -43 -16 -80q0 -84 139 -84v-39h-405zM393 1493q23 100 77 153.5t130 53.5q72 0 143 -37 l50 -25q66 -31 108 -30q35 0 58.5 22.5t50.5 79.5h59q-33 -117 -82 -167t-133 -50q-66 0 -166 49l-47 23q-49 23 -84 22q-72 0 -104 -94h-60zM442 526h473l-237 564z" />
<glyph unicode="&#xc4;" horiz-adv-x="1478" d="M31 0v39q74 4 114.5 58.5t139.5 277.5l426 1005h41l510 -1163q53 -115 83.5 -144.5t100.5 -33.5v-39h-522v39q84 0 114 18q29 14 29 49q0 49 -39 140l-84 196h-536l-95 -239q-16 -43 -16 -80q0 -84 139 -84v-39h-405zM428 1604q0 39 29.5 69.5t68.5 30.5q43 0 74 -31 t31 -71.5t-31 -70.5t-74 -30q-41 0 -69.5 30t-28.5 73zM442 526h473l-237 564zM836 1604q0 39 29.5 69.5t68.5 30.5q43 0 73.5 -31t30.5 -71.5t-30.5 -70.5t-73.5 -30q-41 0 -69.5 30t-28.5 73z" />
<glyph unicode="&#xc5;" horiz-adv-x="1478" d="M31 0v39q74 4 114.5 58.5t139.5 277.5l426 1005h41l510 -1163q53 -115 83.5 -144.5t100.5 -33.5v-39h-522v39q84 0 114 18q29 14 29 49q0 49 -39 140l-84 196h-536l-95 -239q-16 -43 -16 -80q0 -84 139 -84v-39h-405zM442 526h473l-237 564zM528 1632q0 84 59.5 143.5 t143.5 59.5t144.5 -60.5t60.5 -144.5t-60.5 -143.5t-144.5 -59.5q-86 0 -144.5 59.5t-58.5 145.5zM598 1632.5q0 -55.5 39 -95.5t92 -40q57 0 97 39t40 94.5t-40 95t-93 39.5q-55 0 -95 -38.5t-40 -94z" />
<glyph unicode="&#xc6;" horiz-adv-x="1820" d="M0 0v39q66 8 97.5 36.5t82.5 123.5l502 991q18 35 18 57q0 33 -42 48.5t-142 19.5v41h1155v-289h-47q-14 98 -45 140t-101.5 58.5t-226.5 16.5h-178q-55 0 -55 -61v-471h227q186 0 234 61q27 39 37 137h43v-479h-43q-12 106 -41 147q-41 57 -160 58h-297v-488 q0 -76 20.5 -92t120.5 -16h156q166 0 240.5 49t162.5 217h49l-90 -344h-1044v39l35 4q92 10 119.5 44t27.5 134v311h-360l-58 -108q-131 -256 -131 -324q0 -49 140 -61h2v-39h-408zM489 612h326v654z" />
<glyph unicode="&#xc7;" horiz-adv-x="1366" d="M57 666q0 358 240 557q197 162 444 161q152 0 301 -49q49 -18 82 -18q66 0 84 67h43l19 -462h-47q-29 100 -57.5 153t-78.5 103q-125 125 -305 125q-223 0 -355 -166t-132 -445q0 -367 188 -522q131 -109 320 -109q242 0 457 207l36 -37q-94 -125 -239.5 -192.5 t-319.5 -67.5q-31 0 -49 2l-41 -106q31 6 53 6q84 0 130.5 -37t46.5 -104q0 -80 -69 -126t-187 -46q-92 0 -172 32l28 64q74 -25 133 -25q51 0 82 25t31 65q0 39 -24.5 56.5t-84.5 17.5q-35 0 -57 -8l-14 10l75 183q-258 37 -409.5 222t-151.5 464z" />
<glyph unicode="&#xc8;" horiz-adv-x="1251" d="M25 0v39q113 8 145.5 42t32.5 142v910q0 109 -32 141.5t-146 42.5v39h1087l6 -293h-51q-27 137 -82 176t-229 39h-277q-41 0 -54 -13.5t-13 -56.5v-454h315q125 0 165 34.5t60 159.5h47v-475h-47q-20 127 -59 162t-166 35h-315v-506q0 -55 16 -66q29 -23 199 -22h55 q219 0 313.5 52t169.5 218h58l-93 -346h-1105zM262 1690q0 53 78 53q43 0 94 -39l324 -246h-88l-342 164q-66 27 -66 68z" />
<glyph unicode="&#xc9;" horiz-adv-x="1251" d="M25 0v39q113 8 145.5 42t32.5 142v910q0 109 -32 141.5t-146 42.5v39h1087l6 -293h-51q-27 137 -82 176t-229 39h-277q-41 0 -54 -13.5t-13 -56.5v-454h315q125 0 165 34.5t60 159.5h47v-475h-47q-20 127 -59 162t-166 35h-315v-506q0 -55 16 -66q29 -23 199 -22h55 q219 0 313.5 52t169.5 218h58l-93 -346h-1105zM399 1458l324 246q51 39 94 39q78 0 78 -53q0 -41 -66 -68l-342 -164h-88z" />
<glyph unicode="&#xca;" horiz-adv-x="1251" d="M25 0v39q113 8 145.5 42t32.5 142v910q0 109 -32 141.5t-146 42.5v39h1087l6 -293h-51q-27 137 -82 176t-229 39h-277q-41 0 -54 -13.5t-13 -56.5v-454h315q125 0 165 34.5t60 159.5h47v-475h-47q-20 127 -59 162t-166 35h-315v-506q0 -55 16 -66q29 -23 199 -22h55 q219 0 313.5 52t169.5 218h58l-93 -346h-1105zM225 1470l275 265h157l277 -265h-98l-256 162l-256 -162h-99z" />
<glyph unicode="&#xcb;" horiz-adv-x="1251" d="M25 0v39q113 8 145.5 42t32.5 142v910q0 109 -32 141.5t-146 42.5v39h1087l6 -293h-51q-27 137 -82 176t-229 39h-277q-41 0 -54 -13.5t-13 -56.5v-454h315q125 0 165 34.5t60 159.5h47v-475h-47q-20 127 -59 162t-166 35h-315v-506q0 -55 16 -66q29 -23 199 -22h55 q219 0 313.5 52t169.5 218h58l-93 -346h-1105zM274 1604q0 39 30 69.5t69 30.5q43 0 73.5 -31t30.5 -71.5t-30.5 -70.5t-73.5 -30q-41 0 -70 30t-29 73zM682 1604q0 39 29.5 69.5t68.5 30.5q43 0 74 -31t31 -71.5t-31 -70.5t-74 -30q-41 0 -69.5 30t-28.5 73z" />
<glyph unicode="&#xcc;" horiz-adv-x="681" d="M25 1690q0 53 77 53q43 0 95 -39l323 -246h-88l-342 164q-65 27 -65 68zM37 0v39q129 4 164 37t35 147v910q0 113 -34 144.5t-165 39.5v39h608v-39q-129 -6 -165 -39t-36 -145v-910q0 -113 37 -146.5t164 -37.5v-39h-608z" />
<glyph unicode="&#xcd;" horiz-adv-x="681" d="M37 0v39q129 4 164 37t35 147v910q0 113 -34 144.5t-165 39.5v39h608v-39q-129 -6 -165 -39t-36 -145v-910q0 -113 37 -146.5t164 -37.5v-39h-608zM162 1458l323 246q51 39 95 39q78 0 77 -53q0 -41 -65 -68l-342 -164h-88z" />
<glyph unicode="&#xce;" horiz-adv-x="681" d="M-12 1470l274 265h158l276 -265h-98l-256 162l-256 -162h-98zM37 0v39q129 4 164 37t35 147v910q0 113 -34 144.5t-165 39.5v39h608v-39q-129 -6 -165 -39t-36 -145v-910q0 -113 37 -146.5t164 -37.5v-39h-608z" />
<glyph unicode="&#xcf;" horiz-adv-x="681" d="M37 0v39q129 4 164 37t35 147v910q0 113 -34 144.5t-165 39.5v39h608v-39q-129 -6 -165 -39t-36 -145v-910q0 -113 37 -146.5t164 -37.5v-39h-608zM37 1604q0 39 29.5 69.5t68.5 30.5q43 0 74 -31t31 -71.5t-31 -70.5t-74 -30q-41 0 -69.5 30t-28.5 73zM444 1604 q0 39 30 69.5t69 30.5q43 0 73.5 -31t30.5 -71.5t-30.5 -70.5t-73.5 -30q-41 0 -70 30t-29 73z" />
<glyph unicode="&#xd0;" horiz-adv-x="1478" d="M33 0v39q117 8 148.5 41t31.5 143v422h-170v90h170v398q0 113 -29.5 143.5t-150.5 40.5v39h553q432 0 643 -215q174 -174 174 -457q0 -311 -209 -502q-94 -86 -247.5 -134t-332.5 -48h-581zM422 160q0 -49 22.5 -66.5t83.5 -17.5q254 0 402 84q250 145 250 510 q0 340 -244 508q-145 102 -412 102q-61 0 -81.5 -16.5t-20.5 -63.5v-465h299v-90h-299v-485z" />
<glyph unicode="&#xd1;" horiz-adv-x="1478" d="M25 0v39q127 8 162.5 56t35.5 206v903q-61 72 -97 92.5t-101 20.5v39h350l788 -991v690q0 188 -59 229q-43 25 -137 33v39h481v-39q-98 -10 -135 -37q-59 -41 -60 -225v-1078h-34l-906 1127v-803q0 -156 37 -206t156 -56v-39h-481zM399 1493q23 100 76 153.5t131 53.5 q74 0 144 -37l49 -25q66 -31 108 -30q35 0 58.5 22.5t50.5 79.5h59q-33 -117 -82 -167t-133 -50q-66 0 -166 49l-47 23q-49 23 -84 22q-72 0 -104 -94h-60z" />
<glyph unicode="&#xd2;" horiz-adv-x="1478" d="M70 678q0 309 188 507.5t481 198.5q301 0 498 -215q172 -188 172 -499q0 -309 -189.5 -504t-492.5 -195q-135 0 -263 56.5t-218 152.5q-82 88 -129 220.5t-47 277.5zM303 674q0 -170 47 -314.5t127 -214.5q113 -100 258 -100q164 0 273 109q74 74 100 149q68 176 68 369 q0 379 -175 536q-115 102 -262 103q-172 0 -293 -133q-66 -72 -104.5 -210t-38.5 -294zM424 1690q0 53 78 53q43 0 94 -39l324 -246h-89l-342 164q-65 27 -65 68z" />
<glyph unicode="&#xd3;" horiz-adv-x="1478" d="M70 678q0 309 188 507.5t481 198.5q301 0 498 -215q172 -188 172 -499q0 -309 -189.5 -504t-492.5 -195q-135 0 -263 56.5t-218 152.5q-82 88 -129 220.5t-47 277.5zM303 674q0 -170 47 -314.5t127 -214.5q113 -100 258 -100q164 0 273 109q74 74 100 149q68 176 68 369 q0 379 -175 536q-115 102 -262 103q-172 0 -293 -133q-66 -72 -104.5 -210t-38.5 -294zM561 1458l324 246q51 39 94 39q78 0 78 -53q0 -41 -66 -68l-342 -164h-88z" />
<glyph unicode="&#xd4;" horiz-adv-x="1478" d="M70 678q0 309 188 507.5t481 198.5q301 0 498 -215q172 -188 172 -499q0 -309 -189.5 -504t-492.5 -195q-135 0 -263 56.5t-218 152.5q-82 88 -129 220.5t-47 277.5zM303 674q0 -170 47 -314.5t127 -214.5q113 -100 258 -100q164 0 273 109q74 74 100 149q68 176 68 369 q0 379 -175 536q-115 102 -262 103q-172 0 -293 -133q-66 -72 -104.5 -210t-38.5 -294zM387 1470l275 265h157l277 -265h-99l-256 162l-256 -162h-98z" />
<glyph unicode="&#xd5;" horiz-adv-x="1478" d="M70 678q0 309 188 507.5t481 198.5q301 0 498 -215q172 -188 172 -499q0 -309 -189.5 -504t-492.5 -195q-135 0 -263 56.5t-218 152.5q-82 88 -129 220.5t-47 277.5zM303 674q0 -170 47 -314.5t127 -214.5q113 -100 258 -100q164 0 273 109q74 74 100 149q68 176 68 369 q0 379 -175 536q-115 102 -262 103q-172 0 -293 -133q-66 -72 -104.5 -210t-38.5 -294zM401 1493q23 100 77 153.5t130 53.5q72 0 144 -37l49 -25q66 -31 108 -30q35 0 58.5 22.5t50.5 79.5h59q-33 -117 -82 -167t-133 -50q-66 0 -166 49l-47 23q-49 23 -84 22 q-72 0 -104 -94h-60z" />
<glyph unicode="&#xd6;" horiz-adv-x="1478" d="M70 678q0 309 188 507.5t481 198.5q301 0 498 -215q172 -188 172 -499q0 -309 -189.5 -504t-492.5 -195q-135 0 -263 56.5t-218 152.5q-82 88 -129 220.5t-47 277.5zM303 674q0 -170 47 -314.5t127 -214.5q113 -100 258 -100q164 0 273 109q74 74 100 149q68 176 68 369 q0 379 -175 536q-115 102 -262 103q-172 0 -293 -133q-66 -72 -104.5 -210t-38.5 -294zM436 1604q0 39 30 69.5t69 30.5q43 0 73.5 -31t30.5 -71.5t-30.5 -70.5t-73.5 -30q-41 0 -70 30t-29 73zM844 1604q0 39 29.5 69.5t68.5 30.5q43 0 74 -31t31 -71.5t-31 -70.5t-74 -30 q-41 0 -69.5 30t-28.5 73z" />
<glyph unicode="&#xd7;" horiz-adv-x="1155" d="M180 209l301 303l-301 303l94 94l304 -301l303 301l94 -94l-301 -303l301 -303l-94 -94l-303 301l-304 -301z" />
<glyph unicode="&#xd8;" horiz-adv-x="1478" d="M70 676q0 311 188 509.5t483 198.5q180 0 359 -100l147 219h101l-181 -266q111 -102 156 -190q86 -160 86 -369q0 -311 -188.5 -509t-485.5 -198q-186 0 -358 103l-162 -238h-100l194 285q-109 98 -155 190q-84 162 -84 365zM303 676q0 -246 94 -424l631 926 q-127 133 -289 133q-201 0 -318.5 -171t-117.5 -464zM449 180q123 -135 290 -135q203 0 320 169t117 462q0 246 -97 430z" />
<glyph unicode="&#xd9;" horiz-adv-x="1478" d="M29 1317v39h579v-39q-123 -10 -154.5 -42t-31.5 -142v-656q0 -180 51 -270q84 -145 301 -146q115 0 207 44.5t133 117.5q47 88 47 279v553q0 154 -37 204t-155 58v39h475v-39q-127 -16 -160 -61.5t-33 -200.5v-535q0 -219 -67 -338q-121 -211 -457 -211q-262 0 -388 128 t-126 395v639q0 113 -31.5 143.5t-152.5 40.5zM475 1690q0 53 78 53q43 0 94 -39l324 -246h-88l-342 164q-66 27 -66 68z" />
<glyph unicode="&#xda;" horiz-adv-x="1478" d="M29 1317v39h579v-39q-123 -10 -154.5 -42t-31.5 -142v-656q0 -180 51 -270q84 -145 301 -146q115 0 207 44.5t133 117.5q47 88 47 279v553q0 154 -37 204t-155 58v39h475v-39q-127 -16 -160 -61.5t-33 -200.5v-535q0 -219 -67 -338q-121 -211 -457 -211q-262 0 -388 128 t-126 395v639q0 113 -31.5 143.5t-152.5 40.5zM612 1458l324 246q51 39 94 39q78 0 78 -53q0 -41 -66 -68l-342 -164h-88z" />
<glyph unicode="&#xdb;" horiz-adv-x="1478" d="M29 1317v39h579v-39q-123 -10 -154.5 -42t-31.5 -142v-656q0 -180 51 -270q84 -145 301 -146q115 0 207 44.5t133 117.5q47 88 47 279v553q0 154 -37 204t-155 58v39h475v-39q-127 -16 -160 -61.5t-33 -200.5v-535q0 -219 -67 -338q-121 -211 -457 -211q-262 0 -388 128 t-126 395v639q0 113 -31.5 143.5t-152.5 40.5zM438 1470l275 265h157l277 -265h-98l-256 162l-256 -162h-99z" />
<glyph unicode="&#xdc;" horiz-adv-x="1478" d="M29 1317v39h579v-39q-123 -10 -154.5 -42t-31.5 -142v-656q0 -180 51 -270q84 -145 301 -146q115 0 207 44.5t133 117.5q47 88 47 279v553q0 154 -37 204t-155 58v39h475v-39q-127 -16 -160 -61.5t-33 -200.5v-535q0 -219 -67 -338q-121 -211 -457 -211q-262 0 -388 128 t-126 395v639q0 113 -31.5 143.5t-152.5 40.5zM487 1604q0 39 30 69.5t69 30.5q43 0 73.5 -31t30.5 -71.5t-30.5 -70.5t-73.5 -30q-41 0 -70 30t-29 73zM895 1604q0 39 29.5 69.5t68.5 30.5q43 0 74 -31t31 -71.5t-31 -70.5t-74 -30q-41 0 -69.5 30t-28.5 73z" />
<glyph unicode="&#xdd;" horiz-adv-x="1478" d="M45 1317v39h573v-39q-23 -2 -51 -2q-94 -6 -94 -60q0 -39 35 -90l303 -454l293 463q29 47 29 75q0 37 -31 51.5t-111 16.5v39h449v-39q-78 -6 -133.5 -52t-149.5 -182l-303 -462v-398q0 -117 37 -148.5t174 -35.5v-39h-627v39q139 6 173 40t34 167v356l-268 393 q-154 217 -206 268.5t-126 53.5zM571 1458l324 246q51 39 94 39q78 0 78 -53q0 -41 -66 -68l-342 -164h-88z" />
<glyph unicode="&#xde;" horiz-adv-x="1138" d="M33 0v39q117 10 144.5 44t27.5 163v887q0 111 -29 141.5t-143 42.5v39h567v-39q-125 -10 -156.5 -49t-29.5 -178h164q246 0 389 -100.5t143 -270.5q0 -100 -53 -188.5t-144 -137.5q-125 -70 -358 -69q-59 0 -141 6v-107q0 -113 35.5 -146.5t156.5 -37.5v-39h-573z M414 412q70 -6 116 -6q356 0 357 301q0 158 -98.5 231.5t-309.5 73.5q-39 0 -52 -14.5t-13 -53.5v-532z" />
<glyph unicode="&#xdf;" d="M25 0v31q78 6 101.5 32.5t23.5 108.5v758q0 203 61 311q90 158 303 158q160 0 254 -85t94 -227q0 -111 -58.5 -175t-221.5 -140q168 -33 249 -104q127 -109 127 -287q0 -168 -106.5 -283.5t-259.5 -115.5q-88 0 -143.5 42t-55.5 107q0 41 26.5 69.5t65.5 28.5 q35 0 59.5 -23.5t26.5 -58.5l4 -45q2 -33 16.5 -47t43.5 -14q131 0 131 266q0 414 -270 424q-66 2 -66 35q0 25 59 31q195 20 195 262q0 133 -49 208.5t-137 75.5q-80 0 -128 -59t-48 -160v-1124h-297z" />
<glyph unicode="&#xe0;" horiz-adv-x="909" d="M76 199q0 111 74 178q66 57 132 91t306 130v125q0 170 -156 170q-61 0 -104 -29.5t-43 -70.5q0 -23 6 -50q4 -29 4 -32q0 -35 -27.5 -60.5t-64.5 -25.5t-62.5 26.5t-25.5 61.5q0 84 84 153q92 76 260 76q190 0 256 -119q39 -63 39 -209v-399q0 -68 13 -93.5t48 -25.5 q43 0 90 39v-53q-53 -59 -93 -80.5t-91 -21.5q-63 0 -93 33.5t-38 115.5q-176 -150 -299 -149q-94 0 -154.5 61.5t-60.5 157.5zM152 1317q0 66 71 65q39 0 86 -47l301 -303h-82l-315 199q-61 39 -61 86zM256 256q0 -66 38 -112t91 -46q72 0 150 45q33 20 43 41t10 68v297 q-184 -68 -258 -131.5t-74 -153.5v-8z" />
<glyph unicode="&#xe1;" horiz-adv-x="909" d="M76 199q0 111 74 178q66 57 132 91t306 130v125q0 170 -156 170q-61 0 -104 -29.5t-43 -70.5q0 -23 6 -50q4 -29 4 -32q0 -35 -27.5 -60.5t-64.5 -25.5t-62.5 26.5t-25.5 61.5q0 84 84 153q92 76 260 76q190 0 256 -119q39 -63 39 -209v-399q0 -68 13 -93.5t48 -25.5 q43 0 90 39v-53q-53 -59 -93 -80.5t-91 -21.5q-63 0 -93 33.5t-38 115.5q-176 -150 -299 -149q-94 0 -154.5 61.5t-60.5 157.5zM256 256q0 -66 38 -112t91 -46q72 0 150 45q33 20 43 41t10 68v297q-184 -68 -258 -131.5t-74 -153.5v-8zM309 1032l301 303q47 47 86 47 q72 0 72 -65q0 -47 -61 -86l-316 -199h-82z" />
<glyph unicode="&#xe2;" horiz-adv-x="909" d="M76 199q0 111 74 178q66 57 132 91t306 130v125q0 170 -156 170q-61 0 -104 -29.5t-43 -70.5q0 -23 6 -50q4 -29 4 -32q0 -35 -27.5 -60.5t-64.5 -25.5t-62.5 26.5t-25.5 61.5q0 84 84 153q92 76 260 76q190 0 256 -119q39 -63 39 -209v-399q0 -68 13 -93.5t48 -25.5 q43 0 90 39v-53q-53 -59 -93 -80.5t-91 -21.5q-63 0 -93 33.5t-38 115.5q-176 -150 -299 -149q-94 0 -154.5 61.5t-60.5 157.5zM141 1038l254 342h127l256 -342h-69l-250 211l-248 -211h-70zM256 256q0 -66 38 -112t91 -46q72 0 150 45q33 20 43 41t10 68v297 q-184 -68 -258 -131.5t-74 -153.5v-8z" />
<glyph unicode="&#xe3;" horiz-adv-x="909" d="M76 199q0 111 74 178q66 57 132 91t306 130v125q0 170 -156 170q-61 0 -104 -29.5t-43 -70.5q0 -23 6 -50q4 -29 4 -32q0 -35 -27.5 -60.5t-64.5 -25.5t-62.5 26.5t-25.5 61.5q0 84 84 153q92 76 260 76q190 0 256 -119q39 -63 39 -209v-399q0 -68 13 -93.5t48 -25.5 q43 0 90 39v-53q-53 -59 -93 -80.5t-91 -21.5q-63 0 -93 33.5t-38 115.5q-176 -150 -299 -149q-94 0 -154.5 61.5t-60.5 157.5zM121 1100q23 100 76 153.5t131 53.5q74 0 143 -37l49 -25q66 -31 109 -31q35 0 58.5 23t49.5 80h60q-33 -117 -82 -167t-133 -50q-66 0 -166 49 l-47 22q-49 23 -84 23q-72 0 -105 -94h-59zM256 256q0 -66 38 -112t91 -46q72 0 150 45q33 20 43 41t10 68v297q-184 -68 -258 -131.5t-74 -153.5v-8z" />
<glyph unicode="&#xe4;" horiz-adv-x="909" d="M76 199q0 111 74 178q66 57 132 91t306 130v125q0 170 -156 170q-61 0 -104 -29.5t-43 -70.5q0 -23 6 -50q4 -29 4 -32q0 -35 -27.5 -60.5t-64.5 -25.5t-62.5 26.5t-25.5 61.5q0 84 84 153q92 76 260 76q190 0 256 -119q39 -63 39 -209v-399q0 -68 13 -93.5t48 -25.5 q43 0 90 39v-53q-53 -59 -93 -80.5t-91 -21.5q-63 0 -93 33.5t-38 115.5q-176 -150 -299 -149q-94 0 -154.5 61.5t-60.5 157.5zM156 1210q0 39 29.5 70t68.5 31q43 0 73.5 -31t30.5 -72t-30.5 -70.5t-73.5 -29.5q-41 0 -69.5 29.5t-28.5 72.5zM256 256q0 -66 38 -112t91 -46 q72 0 150 45q33 20 43 41t10 68v297q-184 -68 -258 -131.5t-74 -153.5v-8zM563 1210q0 39 30 70t69 31q43 0 73.5 -31t30.5 -72t-30.5 -70.5t-73.5 -29.5q-41 0 -70 29.5t-29 72.5z" />
<glyph unicode="&#xe5;" horiz-adv-x="909" d="M76 199q0 111 74 178q66 57 132 91t306 130v125q0 170 -156 170q-61 0 -104 -29.5t-43 -70.5q0 -23 6 -50q4 -29 4 -32q0 -35 -27.5 -60.5t-64.5 -25.5t-62.5 26.5t-25.5 61.5q0 84 84 153q92 76 260 76q190 0 256 -119q39 -63 39 -209v-399q0 -68 13 -93.5t48 -25.5 q43 0 90 39v-53q-53 -59 -93 -80.5t-91 -21.5q-63 0 -93 33.5t-38 115.5q-176 -150 -299 -149q-94 0 -154.5 61.5t-60.5 157.5zM256 256q0 -66 38 -112t91 -46q72 0 150 45q33 20 43 41t10 68v297q-184 -68 -258 -131.5t-74 -153.5v-8zM256 1210q0 84 60.5 143.5t142.5 59.5 q84 0 144.5 -60.5t60.5 -144.5t-60.5 -143t-144.5 -59q-86 0 -144.5 59t-58.5 145zM326 1210.5q0 -55.5 38.5 -95.5t92.5 -40q57 0 97 39t40 94.5t-40 95t-93 39.5q-55 0 -95 -38.5t-40 -94z" />
<glyph unicode="&#xe6;" horiz-adv-x="1366" d="M78 205q0 92 70.5 160.5t234.5 136.5l176 73l4 130q4 88 -24 141q-23 47 -103 47q-63 0 -105 -31t-34 -71l2 -13v-22l2 -35q2 -45 -21.5 -71.5t-66.5 -26.5q-41 0 -65.5 26.5t-24.5 71.5q0 94 94 157.5t234 63.5q133 0 239 -92q70 53 122 72.5t122 19.5q156 0 233.5 -88 t94.5 -287h-537q2 -152 12.5 -220t42.5 -128q27 -47 79 -74.5t116 -27.5q88 0 154.5 45t140.5 153l24 -10q-74 -160 -149 -227q-111 -98 -254 -98q-166 0 -264 149q-104 -86 -170 -117.5t-142 -31.5q-104 0 -170.5 62.5t-66.5 162.5zM256 256q0 -74 40 -126t97.5 -52t133 37 t75.5 65l-2 6q-39 111 -39 226v106q-186 -68 -245.5 -119t-59.5 -143zM727 629h340q-4 133 -42 193.5t-120 60.5q-88 0 -129 -59.5t-49 -194.5z" />
<glyph unicode="&#xe7;" horiz-adv-x="909" d="M51 434q0 262 172 404q127 104 277 104q129 0 222 -62.5t93 -148.5q0 -35 -28.5 -60.5t-67.5 -25.5q-72 0 -98 94l-13 45q-16 57 -40.5 78t-80.5 21q-125 0 -201.5 -98.5t-76.5 -258.5q0 -176 88 -287.5t229 -111.5q88 0 151.5 42t137.5 150l29 -18q-80 -162 -168 -236.5 t-213 -84.5l-43 -113q31 6 53 6q84 0 130 -37t46 -104q0 -80 -68.5 -126t-187.5 -46q-92 0 -172 32l29 64q74 -25 133 -25q51 0 82 25t31 65q0 39 -25 56.5t-84 17.5q-35 0 -57 -8l-15 10l78 187q-156 20 -249 144t-93 306z" />
<glyph unicode="&#xe8;" horiz-adv-x="909" d="M51 438q0 223 119 363.5t309 140.5q164 0 262 -117q68 -86 88 -258h-630q6 -174 61 -282q88 -164 258 -164q98 0 171 49t147 166l32 -14q-133 -342 -434 -342q-176 0 -279.5 123.5t-103.5 334.5zM172 1317q0 66 72 65q39 0 86 -47l301 -303h-82l-316 199q-61 39 -61 86z M203 633h418q-20 133 -63.5 184t-137.5 51q-184 1 -217 -235z" />
<glyph unicode="&#xe9;" horiz-adv-x="909" d="M51 438q0 223 119 363.5t309 140.5q164 0 262 -117q68 -86 88 -258h-630q6 -174 61 -282q88 -164 258 -164q98 0 171 49t147 166l32 -14q-133 -342 -434 -342q-176 0 -279.5 123.5t-103.5 334.5zM203 633h418q-20 133 -63.5 184t-137.5 51q-184 1 -217 -235zM330 1032 l301 303q47 47 86 47q72 0 71 -65q0 -47 -61 -86l-315 -199h-82z" />
<glyph unicode="&#xea;" horiz-adv-x="909" d="M51 438q0 223 119 363.5t309 140.5q164 0 262 -117q68 -86 88 -258h-630q6 -174 61 -282q88 -164 258 -164q98 0 171 49t147 166l32 -14q-133 -342 -434 -342q-176 0 -279.5 123.5t-103.5 334.5zM162 1038l254 342h127l256 -342h-70l-250 211l-248 -211h-69zM203 633h418 q-20 133 -63.5 184t-137.5 51q-184 1 -217 -235z" />
<glyph unicode="&#xeb;" horiz-adv-x="909" d="M51 438q0 223 119 363.5t309 140.5q164 0 262 -117q68 -86 88 -258h-630q6 -174 61 -282q88 -164 258 -164q98 0 171 49t147 166l32 -14q-133 -342 -434 -342q-176 0 -279.5 123.5t-103.5 334.5zM176 1210q0 39 30 70t68 31q43 0 74 -31t31 -72t-31 -70.5t-74 -29.5 q-41 0 -69.5 29.5t-28.5 72.5zM203 633h418q-20 133 -63.5 184t-137.5 51q-184 1 -217 -235zM584 1210q0 39 29.5 70t68.5 31q43 0 73.5 -31t30.5 -72t-30.5 -70.5t-73.5 -29.5q-41 0 -69.5 29.5t-28.5 72.5z" />
<glyph unicode="&#xec;" horiz-adv-x="569" d="M-27 1317q0 66 72 65q39 0 86 -47l301 -303h-82l-315 199q-62 39 -62 86zM33 0v31q106 6 134 36.5t28 141.5v475q0 68 -15.5 95.5t-52.5 27.5q-33 0 -70 -6l-16 -2v30l317 113l9 -6v-727q0 -111 25.5 -140.5t125.5 -37.5v-31h-485z" />
<glyph unicode="&#xed;" horiz-adv-x="569" d="M33 0v31q106 6 134 36.5t28 141.5v475q0 68 -15.5 95.5t-52.5 27.5q-33 0 -70 -6l-16 -2v30l317 113l9 -6v-727q0 -111 25.5 -140.5t125.5 -37.5v-31h-485zM131 1032l301 303q47 47 86 47q72 0 72 -65q0 -47 -62 -86l-315 -199h-82z" />
<glyph unicode="&#xee;" horiz-adv-x="569" d="M-37 1038l254 342h127l256 -342h-70l-249 211l-248 -211h-70zM33 0v31q106 6 134 36.5t28 141.5v475q0 68 -15.5 95.5t-52.5 27.5q-33 0 -70 -6l-16 -2v30l317 113l9 -6v-727q0 -111 25.5 -140.5t125.5 -37.5v-31h-485z" />
<glyph unicode="&#xef;" horiz-adv-x="569" d="M-23 1210q0 39 30 70t69 31q43 0 73.5 -31t30.5 -72t-30.5 -70.5t-73.5 -29.5q-41 0 -70 29.5t-29 72.5zM33 0v31q106 6 134 36.5t28 141.5v475q0 68 -15.5 95.5t-52.5 27.5q-33 0 -70 -6l-16 -2v30l317 113l9 -6v-727q0 -111 25.5 -140.5t125.5 -37.5v-31h-485z M385 1210q0 39 29.5 70t68.5 31q43 0 74 -31t31 -72t-31 -70.5t-74 -29.5q-41 0 -69.5 29.5t-28.5 72.5z" />
<glyph unicode="&#xf0;" d="M59 457q0 207 125 346t310 139q74 0 127 -25.5t131 -97.5q-23 113 -66 189.5t-133 169.5l-252 -134l-68 62l248 131q-127 90 -272 115l86 47q100 -8 166.5 -28.5t144.5 -67.5l195 102l67 -62l-186 -98q129 -123 186 -241q96 -197 97 -420q0 -147 -49.5 -281.5 t-133.5 -214.5q-115 -109 -276 -108q-190 0 -318.5 136t-128.5 341zM244 565q0 -225 90 -395q72 -133 201 -133q117 0 181 99.5t64 275.5q0 209 -82 341t-213 132q-109 0 -175 -88.5t-66 -231.5z" />
<glyph unicode="&#xf1;" d="M33 815v35q152 45 282 92l15 -4v-162q104 98 164.5 132t132.5 34q113 0 177 -81t64 -226v-469q0 -76 25 -101.5t100 -33.5v-31h-426v31q78 6 103.5 40.5t25.5 131.5v428q0 199 -149 198q-51 0 -94 -23.5t-117 -92.5v-576q0 -55 28.5 -77.5t106.5 -28.5v-31h-434v31 q78 6 102.5 35.5t24.5 117.5v508q0 76 -16.5 103.5t-59.5 27.5q-39 0 -55 -8zM178 1100q23 100 76 153.5t131 53.5q74 0 143 -37l50 -25q66 -31 108 -31q35 0 58.5 23t50.5 80h59q-33 -117 -82 -167t-133 -50q-66 0 -166 49l-47 22q-49 23 -84 23q-72 0 -104 -94h-60z" />
<glyph unicode="&#xf2;" d="M59 463q0 211 126 345t327 134q197 0 324 -131t127 -332q0 -213 -131.5 -356t-324 -143t-320.5 138t-128 345zM205 1317q0 66 71 65q39 0 86 -47l302 -303h-82l-316 199q-61 39 -61 86zM244 563q0 -227 90 -395q70 -131 198 -131q115 0 180.5 98t65.5 273q0 211 -82 344 t-211 133q-109 0 -175 -88.5t-66 -233.5z" />
<glyph unicode="&#xf3;" d="M59 463q0 211 126 345t327 134q197 0 324 -131t127 -332q0 -213 -131.5 -356t-324 -143t-320.5 138t-128 345zM244 563q0 -227 90 -395q70 -131 198 -131q115 0 180.5 98t65.5 273q0 211 -82 344t-211 133q-109 0 -175 -88.5t-66 -233.5zM362 1032l302 303q47 47 86 47 q72 0 71 -65q0 -47 -61 -86l-316 -199h-82z" />
<glyph unicode="&#xf4;" d="M59 463q0 211 126 345t327 134q197 0 324 -131t127 -332q0 -213 -131.5 -356t-324 -143t-320.5 138t-128 345zM195 1038l254 342h126l256 -342h-69l-250 211l-248 -211h-69zM244 563q0 -227 90 -395q70 -131 198 -131q115 0 180.5 98t65.5 273q0 211 -82 344t-211 133 q-109 0 -175 -88.5t-66 -233.5z" />
<glyph unicode="&#xf5;" d="M59 463q0 211 126 345t327 134q197 0 324 -131t127 -332q0 -213 -131.5 -356t-324 -143t-320.5 138t-128 345zM174 1100q23 100 76 153.5t131 53.5q74 0 143 -37l49 -25q66 -31 109 -31q35 0 58.5 23t50.5 80h59q-33 -117 -82 -167t-133 -50q-66 0 -166 49l-47 22 q-49 23 -84 23q-72 0 -105 -94h-59zM244 563q0 -227 90 -395q70 -131 198 -131q115 0 180.5 98t65.5 273q0 211 -82 344t-211 133q-109 0 -175 -88.5t-66 -233.5z" />
<glyph unicode="&#xf6;" d="M59 463q0 211 126 345t327 134q197 0 324 -131t127 -332q0 -213 -131.5 -356t-324 -143t-320.5 138t-128 345zM209 1210q0 39 29.5 70t68.5 31q43 0 74 -31t31 -72t-31 -70.5t-74 -29.5q-41 0 -69.5 29.5t-28.5 72.5zM244 563q0 -227 90 -395q70 -131 198 -131 q115 0 180.5 98t65.5 273q0 211 -82 344t-211 133q-109 0 -175 -88.5t-66 -233.5zM616 1210q0 39 30 70t69 31q43 0 73.5 -31t30.5 -72t-30.5 -70.5t-73.5 -29.5q-41 0 -70 29.5t-29 72.5z" />
<glyph unicode="&#xf7;" horiz-adv-x="1155" d="M82 444v136h991v-136h-991zM463 174q0 47 33.5 81t81 34t81 -34t33.5 -81t-33.5 -81t-81 -34t-81 34t-33.5 81zM463 852q0 47 33.5 81t81 34t81 -34t33.5 -81t-33.5 -81t-81 -34t-81 34t-33.5 81z" />
<glyph unicode="&#xf8;" d="M59 465q0 209 126 343t325 134q90 0 188 -37l117 223h80l-133 -256q82 -59 123 -118q78 -123 78 -275q0 -213 -131.5 -356t-325.5 -143q-96 0 -191 43l-133 -252h-76l150 286q-86 68 -129 142q-68 123 -68 266zM244 565q0 -209 80 -377l325 623q-76 74 -164 74 q-109 0 -175 -88.5t-66 -231.5zM367 123q72 -86 168 -86q115 0 179 100.5t64 278.5t-82 334z" />
<glyph unicode="&#xf9;" d="M18 893v29h299v-668q0 -63 43 -109.5t103 -46.5q98 0 184 74q35 27 35 104v482q0 76 -27.5 100.5t-124.5 28.5v35h324v-703q0 -72 23.5 -94.5t93.5 -22.5h10v-28q-160 -43 -281 -92l-8 4v170l-88 -88q-88 -88 -211 -88q-113 0 -180.5 72.5t-67.5 193.5v516 q0 72 -26.5 99.5t-100.5 31.5zM193 1317q0 66 71 65q39 0 86 -47l301 -303h-82l-315 199q-61 39 -61 86z" />
<glyph unicode="&#xfa;" d="M18 893v29h299v-668q0 -63 43 -109.5t103 -46.5q98 0 184 74q35 27 35 104v482q0 76 -27.5 100.5t-124.5 28.5v35h324v-703q0 -72 23.5 -94.5t93.5 -22.5h10v-28q-160 -43 -281 -92l-8 4v170l-88 -88q-88 -88 -211 -88q-113 0 -180.5 72.5t-67.5 193.5v516 q0 72 -26.5 99.5t-100.5 31.5zM350 1032l301 303q47 47 86 47q72 0 72 -65q0 -47 -61 -86l-316 -199h-82z" />
<glyph unicode="&#xfb;" d="M18 893v29h299v-668q0 -63 43 -109.5t103 -46.5q98 0 184 74q35 27 35 104v482q0 76 -27.5 100.5t-124.5 28.5v35h324v-703q0 -72 23.5 -94.5t93.5 -22.5h10v-28q-160 -43 -281 -92l-8 4v170l-88 -88q-88 -88 -211 -88q-113 0 -180.5 72.5t-67.5 193.5v516 q0 72 -26.5 99.5t-100.5 31.5zM182 1038l254 342h127l256 -342h-69l-250 211l-248 -211h-70z" />
<glyph unicode="&#xfc;" d="M18 893v29h299v-668q0 -63 43 -109.5t103 -46.5q98 0 184 74q35 27 35 104v482q0 76 -27.5 100.5t-124.5 28.5v35h324v-703q0 -72 23.5 -94.5t93.5 -22.5h10v-28q-160 -43 -281 -92l-8 4v170l-88 -88q-88 -88 -211 -88q-113 0 -180.5 72.5t-67.5 193.5v516 q0 72 -26.5 99.5t-100.5 31.5zM197 1210q0 39 29.5 70t68.5 31q43 0 73.5 -31t30.5 -72t-30.5 -70.5t-73.5 -29.5q-41 0 -69.5 29.5t-28.5 72.5zM604 1210q0 39 30 70t68 31q43 0 74 -31t31 -72t-31 -70.5t-74 -29.5q-41 0 -69.5 29.5t-28.5 72.5z" />
<glyph unicode="&#xfd;" d="M29 893v29h422v-31q-66 -2 -92.5 -14.5t-26.5 -40.5q0 -31 20 -78l236 -518l198 565q8 18 9 35q0 51 -99 51v31h277v-31q-37 -4 -57.5 -23.5t-41.5 -68.5l-315 -836q-82 -221 -163 -315t-183 -94q-66 0 -109 33.5t-43 84.5q0 37 27 63.5t62 26.5q47 0 108 -22 q29 -14 51.5 -14t52 26.5t50.5 65.5q27 45 54.5 121.5t27.5 99.5q0 20 -23 76l-338 712q-24 54 -104 66zM424 1032l301 303q47 47 86 47q72 0 72 -65q0 -47 -62 -86l-315 -199h-82z" />
<glyph unicode="&#xfe;" d="M10 -408q90 8 117 34t27 106v1442q0 63 -19.5 83.5t-81.5 20.5q-23 0 -35 -2v33q190 53 297 90l11 -6v-611q133 160 295 160q150 0 246 -123t96 -313q0 -223 -124 -374.5t-307 -151.5q-66 0 -109.5 18t-96.5 70v-322q0 -96 32.5 -124t147.5 -30v-36h-496v36zM326 180 q0 -45 70.5 -90t142.5 -45q111 0 179 105.5t68 275.5q0 178 -68.5 285.5t-182.5 107.5q-72 0 -140.5 -45t-68.5 -90v-504z" />
<glyph unicode="&#xff;" d="M29 893v29h422v-31q-66 -2 -92.5 -14.5t-26.5 -40.5q0 -31 20 -78l236 -518l198 565q8 18 9 35q0 51 -99 51v31h277v-31q-37 -4 -57.5 -23.5t-41.5 -68.5l-315 -836q-82 -221 -163 -315t-183 -94q-66 0 -109 33.5t-43 84.5q0 37 27 63.5t62 26.5q47 0 108 -22 q29 -14 51.5 -14t52 26.5t50.5 65.5q27 45 54.5 121.5t27.5 99.5q0 20 -23 76l-338 712q-24 54 -104 66zM270 1210q0 39 30 70t69 31q43 0 73.5 -31t30.5 -72t-30.5 -70.5t-73.5 -29.5q-41 0 -70 29.5t-29 72.5zM678 1210q0 39 29.5 70t68.5 31q43 0 74 -31t31 -72 t-31 -70.5t-74 -29.5q-41 0 -69.5 29.5t-28.5 72.5z" />
<glyph unicode="&#x100;" horiz-adv-x="1478" d="M31 0v39q74 4 114.5 58.5t139.5 277.5l426 1005h41l510 -1163q53 -115 83.5 -144.5t100.5 -33.5v-39h-522v39q84 0 114 18q29 14 29 49q0 49 -39 140l-84 196h-536l-95 -239q-16 -43 -16 -80q0 -84 139 -84v-39h-405zM414 1546v111h637v-111h-637zM442 526h473l-237 564z " />
<glyph unicode="&#x101;" horiz-adv-x="909" d="M76 199q0 111 74 178q66 57 132 91t306 130v125q0 170 -156 170q-61 0 -104 -29.5t-43 -70.5q0 -23 6 -50q4 -29 4 -32q0 -35 -27.5 -60.5t-64.5 -25.5t-62.5 26.5t-25.5 61.5q0 84 84 153q92 76 260 76q190 0 256 -119q39 -63 39 -209v-399q0 -68 13 -93.5t48 -25.5 q43 0 90 39v-53q-53 -59 -93 -80.5t-91 -21.5q-63 0 -93 33.5t-38 115.5q-176 -150 -299 -149q-94 0 -154.5 61.5t-60.5 157.5zM141 1153v111h637v-111h-637zM256 256q0 -66 38 -112t91 -46q72 0 150 45q33 20 43 41t10 68v297q-184 -68 -258 -131.5t-74 -153.5v-8z" />
<glyph unicode="&#x102;" horiz-adv-x="1478" d="M31 0v39q74 4 114.5 58.5t139.5 277.5l426 1005h41l510 -1163q53 -115 83.5 -144.5t100.5 -33.5v-39h-522v39q84 0 114 18q29 14 29 49q0 49 -39 140l-84 196h-536l-95 -239q-16 -43 -16 -80q0 -84 139 -84v-39h-405zM414 1743h53q47 -168 266 -168t266 168h54 q0 -113 -90.5 -198t-229.5 -85t-229 85t-90 198zM442 526h473l-237 564z" />
<glyph unicode="&#x103;" horiz-adv-x="909" d="M76 199q0 111 74 178q66 57 132 91t306 130v125q0 170 -156 170q-61 0 -104 -29.5t-43 -70.5q0 -23 6 -50q4 -29 4 -32q0 -35 -27.5 -60.5t-64.5 -25.5t-62.5 26.5t-25.5 61.5q0 84 84 153q92 76 260 76q190 0 256 -119q39 -63 39 -209v-399q0 -68 13 -93.5t48 -25.5 q43 0 90 39v-53q-53 -59 -93 -80.5t-91 -21.5q-63 0 -93 33.5t-38 115.5q-176 -150 -299 -149q-94 0 -154.5 61.5t-60.5 157.5zM172 1370h59q23 -102 77 -150.5t153 -48.5q90 0 137 41t90 158h60q-37 -322 -291 -321q-150 0 -230 110q-53 78 -55 211zM256 256q0 -66 38 -112 t91 -46q72 0 150 45q33 20 43 41t10 68v297q-184 -68 -258 -131.5t-74 -153.5v-8z" />
<glyph unicode="&#x104;" horiz-adv-x="1478" d="M31 0v39q74 4 114.5 58.5t139.5 277.5l426 1005h41l510 -1163q53 -115 83.5 -144.5t100.5 -33.5v-39q-137 0 -195 -100q-49 -78 -49 -170q0 -57 24.5 -91t69.5 -34q57 0 111 88l39 -29q-76 -166 -211 -166q-66 0 -112 51.5t-46 124.5q0 117 74 213q43 59 113 113h-340v39 q84 0 114 18q29 14 29 49q0 49 -39 140l-84 196h-536l-95 -239q-16 -43 -16 -80q0 -84 139 -84v-39h-405zM442 526h473l-237 564z" />
<glyph unicode="&#x105;" horiz-adv-x="909" d="M76 199q0 111 74 178q66 57 132 91t306 130v125q0 170 -156 170q-61 0 -104 -29.5t-43 -70.5q0 -23 6 -50q4 -29 4 -32q0 -35 -27.5 -60.5t-64.5 -25.5t-62.5 26.5t-25.5 61.5q0 84 84 153q92 76 260 76q190 0 256 -119q39 -63 39 -209v-399q0 -68 13 -93.5t48 -25.5 q43 0 90 39v-53q-49 -55 -92 -80q-102 -57 -139 -182q-12 -41 -12 -90q0 -57 24.5 -91t69.5 -34q57 0 110 88l39 -29q-76 -166 -211 -166q-66 0 -111.5 51.5t-45.5 124.5q0 117 73 213q31 45 88 95q-51 4 -75.5 38.5t-32.5 108.5q-176 -150 -299 -149q-94 0 -154.5 61.5 t-60.5 157.5zM256 256q0 -66 38 -112t91 -46q72 0 150 45q33 20 43 41t10 68v297q-184 -68 -258 -131.5t-74 -153.5v-8z" />
<glyph unicode="&#x106;" horiz-adv-x="1366" d="M57 666q0 358 240 557q197 162 444 161q152 0 301 -49q49 -18 82 -18q66 0 84 67h43l19 -462h-47q-29 100 -57.5 153t-78.5 103q-125 125 -305 125q-223 0 -355 -166t-132 -445q0 -367 188 -522q131 -109 320 -109q242 0 457 207l36 -37q-94 -125 -239.5 -192.5 t-319.5 -67.5q-305 0 -492.5 192t-187.5 503zM563 1458l324 246q51 39 94 39q78 0 78 -53q0 -41 -66 -68l-342 -164h-88z" />
<glyph unicode="&#x107;" horiz-adv-x="909" d="M51 434q0 260 172 404q127 104 277 104q129 0 222 -62.5t93 -148.5q0 -35 -28.5 -60.5t-67.5 -25.5q-72 0 -98 94l-13 45q-16 57 -40.5 78t-80.5 21q-125 0 -201.5 -98.5t-76.5 -258.5q0 -176 88 -287.5t229 -111.5q88 0 151.5 42t137.5 150l29 -18q-88 -172 -168 -235 q-104 -86 -236 -86q-170 0 -279.5 127.5t-109.5 326.5zM350 1032l301 303q47 47 86 47q72 0 72 -65q0 -47 -61 -86l-316 -199h-82z" />
<glyph unicode="&#x108;" horiz-adv-x="1366" d="M57 666q0 358 240 557q197 162 444 161q152 0 301 -49q49 -18 82 -18q66 0 84 67h43l19 -462h-47q-29 100 -57.5 153t-78.5 103q-125 125 -305 125q-223 0 -355 -166t-132 -445q0 -367 188 -522q131 -109 320 -109q242 0 457 207l36 -37q-94 -125 -239.5 -192.5 t-319.5 -67.5q-305 0 -492.5 192t-187.5 503zM389 1470l275 265h157l277 -265h-99l-256 162l-256 -162h-98z" />
<glyph unicode="&#x109;" horiz-adv-x="909" d="M51 434q0 260 172 404q127 104 277 104q129 0 222 -62.5t93 -148.5q0 -35 -28.5 -60.5t-67.5 -25.5q-72 0 -98 94l-13 45q-16 57 -40.5 78t-80.5 21q-125 0 -201.5 -98.5t-76.5 -258.5q0 -176 88 -287.5t229 -111.5q88 0 151.5 42t137.5 150l29 -18q-88 -172 -168 -235 q-104 -86 -236 -86q-170 0 -279.5 127.5t-109.5 326.5zM182 1038l254 342h127l256 -342h-69l-250 211l-248 -211h-70z" />
<glyph unicode="&#x10a;" horiz-adv-x="1366" d="M57 666q0 358 240 557q197 162 444 161q152 0 301 -49q49 -18 82 -18q66 0 84 67h43l19 -462h-47q-29 100 -57.5 153t-78.5 103q-125 125 -305 125q-223 0 -355 -166t-132 -445q0 -367 188 -522q131 -109 320 -109q242 0 457 207l36 -37q-94 -125 -239.5 -192.5 t-319.5 -67.5q-305 0 -492.5 192t-187.5 503zM637 1602q0 43 30.5 73.5t73.5 30.5q45 0 75 -30.5t30 -73.5q0 -45 -30 -75t-75 -30q-43 0 -73.5 30t-30.5 75z" />
<glyph unicode="&#x10b;" horiz-adv-x="909" d="M51 434q0 260 172 404q127 104 277 104q129 0 222 -62.5t93 -148.5q0 -35 -28.5 -60.5t-67.5 -25.5q-72 0 -98 94l-13 45q-16 57 -40.5 78t-80.5 21q-125 0 -201.5 -98.5t-76.5 -258.5q0 -176 88 -287.5t229 -111.5q88 0 151.5 42t137.5 150l29 -18q-88 -172 -168 -235 q-104 -86 -236 -86q-170 0 -279.5 127.5t-109.5 326.5zM395 1208q0 43 31 74t74 31q45 0 74.5 -31t29.5 -74q0 -45 -29.5 -74.5t-74.5 -29.5q-43 0 -74 29.5t-31 74.5z" />
<glyph unicode="&#x10c;" horiz-adv-x="1366" d="M57 666q0 358 240 557q197 162 444 161q152 0 301 -49q49 -18 82 -18q66 0 84 67h43l19 -462h-47q-29 100 -57.5 153t-78.5 103q-125 125 -305 125q-223 0 -355 -166t-132 -445q0 -367 188 -522q131 -109 320 -109q242 0 457 207l36 -37q-94 -125 -239.5 -192.5 t-319.5 -67.5q-305 0 -492.5 192t-187.5 503zM387 1735h98l256 -162l256 162h99l-275 -265h-157z" />
<glyph unicode="&#x10d;" horiz-adv-x="909" d="M51 434q0 260 172 404q127 104 277 104q129 0 222 -62.5t93 -148.5q0 -35 -28.5 -60.5t-67.5 -25.5q-72 0 -98 94l-13 45q-16 57 -40.5 78t-80.5 21q-125 0 -201.5 -98.5t-76.5 -258.5q0 -176 88 -287.5t229 -111.5q88 0 151.5 42t137.5 150l29 -18q-88 -172 -168 -235 q-104 -86 -236 -86q-170 0 -279.5 127.5t-109.5 326.5zM182 1380h70l248 -211l250 211h69l-256 -342h-127z" />
<glyph unicode="&#x10e;" horiz-adv-x="1478" d="M33 0v39q117 8 148.5 41t31.5 143v910q0 113 -29.5 143.5t-150.5 40.5v39h553q432 0 643 -215q174 -174 174 -457q0 -311 -209 -502q-94 -86 -247.5 -134t-332.5 -48h-581zM260 1735h98l256 -162l256 162h99l-275 -265h-157zM422 160q0 -49 22.5 -66.5t83.5 -17.5 q254 0 402 84q250 145 250 510q0 340 -244 508q-145 102 -408 102q-63 0 -84.5 -16.5t-21.5 -63.5v-1040z" />
<glyph unicode="&#x10f;" d="M55 420q0 217 125 369.5t301 152.5q111 0 215 -88v320q0 63 -18.5 83.5t-75.5 20.5q-29 0 -45 -2v33q186 49 301 90l10 -4v-1162q0 -72 17.5 -94t72.5 -22q10 0 48 2v-33l-301 -106l-9 6v131q-98 -137 -262 -137q-170 0 -274.5 121.5t-104.5 318.5zM231 502 q0 -188 78 -302t205 -114q92 0 148 61q35 39 34 62v471q0 82 -63.5 143.5t-145.5 61.5q-117 0 -186.5 -104.5t-69.5 -278.5zM950 1282q0 51 34 84t87 33q70 0 117 -52.5t47 -129.5q0 -92 -63.5 -178.5t-165.5 -137.5l-19 39q168 115 168 217q0 29 -29 29l-16 -4 q-25 -4 -39 -4q-55 0 -88 27.5t-33 76.5z" />
<glyph unicode="&#x110;" horiz-adv-x="1478" d="M33 0v39q117 8 148.5 41t31.5 143v422h-170v90h170v398q0 113 -29.5 143.5t-150.5 40.5v39h553q432 0 643 -215q174 -174 174 -457q0 -311 -209 -502q-94 -86 -247.5 -134t-332.5 -48h-581zM422 160q0 -49 22.5 -66.5t83.5 -17.5q254 0 402 84q250 145 250 510 q0 340 -244 508q-145 102 -412 102q-61 0 -81.5 -16.5t-20.5 -63.5v-465h299v-90h-299v-485z" />
<glyph unicode="&#x111;" d="M55 420q0 217 125 369.5t301 152.5q111 0 215 -88v225h-247v70h247v25q0 63 -18.5 83.5t-75.5 20.5q-29 0 -45 -2v33q186 49 301 90l10 -4v-246h156v-70h-156v-846q0 -72 17.5 -94t72.5 -22q10 0 48 2v-33l-301 -106l-9 6v131q-98 -137 -262 -137q-170 0 -274.5 121.5 t-104.5 318.5zM231 502q0 -188 78 -302t205 -114q92 0 148 61q35 39 34 62v471q0 82 -63.5 143.5t-145.5 61.5q-117 0 -186.5 -104.5t-69.5 -278.5z" />
<glyph unicode="&#x112;" horiz-adv-x="1251" d="M25 0v39q113 8 145.5 42t32.5 142v910q0 109 -32 141.5t-146 42.5v39h1087l6 -293h-51q-27 137 -82 176t-229 39h-277q-41 0 -54 -13.5t-13 -56.5v-454h315q125 0 165 34.5t60 159.5h47v-475h-47q-20 127 -59 162t-166 35h-315v-506q0 -55 16 -66q29 -23 199 -22h55 q219 0 313.5 52t169.5 218h58l-93 -346h-1105zM260 1546v111h637v-111h-637z" />
<glyph unicode="&#x113;" horiz-adv-x="909" d="M51 438q0 223 119 363.5t309 140.5q164 0 262 -117q68 -86 88 -258h-630q6 -174 61 -282q88 -164 258 -164q98 0 171 49t147 166l32 -14q-133 -342 -434 -342q-176 0 -279.5 123.5t-103.5 334.5zM162 1153v111h637v-111h-637zM203 633h418q-20 133 -63.5 184t-137.5 51 q-184 1 -217 -235z" />
<glyph unicode="&#x114;" horiz-adv-x="1251" d="M25 0v39q113 8 145.5 42t32.5 142v910q0 109 -32 141.5t-146 42.5v39h1087l6 -293h-51q-27 137 -82 176t-229 39h-277q-41 0 -54 -13.5t-13 -56.5v-454h315q125 0 165 34.5t60 159.5h47v-475h-47q-20 127 -59 162t-166 35h-315v-506q0 -55 16 -66q29 -23 199 -22h55 q219 0 313.5 52t169.5 218h58l-93 -346h-1105zM260 1743h53q47 -168 266.5 -168t266.5 168h53q0 -113 -90 -198t-229.5 -85t-229.5 85t-90 198z" />
<glyph unicode="&#x115;" horiz-adv-x="909" d="M51 438q0 223 119 363.5t309 140.5q164 0 262 -117q68 -86 88 -258h-630q6 -174 61 -282q88 -164 258 -164q98 0 171 49t147 166l32 -14q-133 -342 -434 -342q-176 0 -279.5 123.5t-103.5 334.5zM193 1370h59q23 -102 77 -150.5t152 -48.5q90 0 137.5 41t90.5 158h59 q-37 -322 -291 -321q-150 0 -229 110q-53 78 -55 211zM203 633h418q-20 133 -63.5 184t-137.5 51q-184 1 -217 -235z" />
<glyph unicode="&#x116;" horiz-adv-x="1251" d="M25 0v39q113 8 145.5 42t32.5 142v910q0 109 -32 141.5t-146 42.5v39h1087l6 -293h-51q-27 137 -82 176t-229 39h-277q-41 0 -54 -13.5t-13 -56.5v-454h315q125 0 165 34.5t60 159.5h47v-475h-47q-20 127 -59 162t-166 35h-315v-506q0 -55 16 -66q29 -23 199 -22h55 q219 0 313.5 52t169.5 218h58l-93 -346h-1105zM473 1602q0 43 31 73.5t74 30.5q45 0 74.5 -30.5t29.5 -73.5q0 -45 -29.5 -75t-74.5 -30q-43 0 -74 30t-31 75z" />
<glyph unicode="&#x117;" horiz-adv-x="909" d="M51 438q0 223 119 363.5t309 140.5q164 0 262 -117q68 -86 88 -258h-630q6 -174 61 -282q88 -164 258 -164q98 0 171 49t147 166l32 -14q-133 -342 -434 -342q-176 0 -279.5 123.5t-103.5 334.5zM203 633h418q-20 133 -63.5 184t-137.5 51q-184 1 -217 -235zM375 1208 q0 43 30.5 74t73.5 31q45 0 75 -31t30 -74q0 -45 -30 -74.5t-75 -29.5q-43 0 -73.5 29.5t-30.5 74.5z" />
<glyph unicode="&#x118;" horiz-adv-x="1251" d="M25 0v39q113 8 145.5 42t32.5 142v910q0 109 -32 141.5t-146 42.5v39h1087l6 -293h-51q-27 137 -82 176t-229 39h-277q-41 0 -54 -13.5t-13 -56.5v-454h315q125 0 165 34.5t60 159.5h47v-475h-47q-20 127 -59 162t-166 35h-315v-506q0 -55 16 -66q29 -23 199 -22h55 q219 0 313.5 52t169.5 218h58l-93 -346q-137 0 -194 -100q-49 -78 -49 -170q0 -57 24.5 -91t69.5 -34q57 0 111 88l38 -29q-76 -166 -210 -166q-66 0 -112 51.5t-46 124.5q0 117 74 213q43 59 112 113h-923z" />
<glyph unicode="&#x119;" horiz-adv-x="909" d="M51 438q0 223 119 363.5t309 140.5q164 0 262 -117q68 -86 88 -258h-630q6 -174 61 -282q88 -164 258 -164q98 0 171 49t147 166l32 -14q-53 -135 -133 -216q-160 -164 -184 -206q-49 -78 -49 -170q0 -57 24.5 -91t69.5 -34q57 0 111 88l38 -29q-76 -166 -210 -166 q-66 0 -112 51.5t-46 124.5q0 117 74 213q37 53 108 111q-59 -18 -125 -18q-176 0 -279.5 123.5t-103.5 334.5zM203 633h418q-20 133 -63.5 184t-137.5 51q-184 1 -217 -235z" />
<glyph unicode="&#x11a;" horiz-adv-x="1251" d="M25 0v39q113 8 145.5 42t32.5 142v910q0 109 -32 141.5t-146 42.5v39h1087l6 -293h-51q-27 137 -82 176t-229 39h-277q-41 0 -54 -13.5t-13 -56.5v-454h315q125 0 165 34.5t60 159.5h47v-475h-47q-20 127 -59 162t-166 35h-315v-506q0 -55 16 -66q29 -23 199 -22h55 q219 0 313.5 52t169.5 218h58l-93 -346h-1105zM223 1735h99l256 -162l256 162h98l-275 -265h-157z" />
<glyph unicode="&#x11b;" horiz-adv-x="909" d="M51 438q0 223 119 363.5t309 140.5q164 0 262 -117q68 -86 88 -258h-630q6 -174 61 -282q88 -164 258 -164q98 0 171 49t147 166l32 -14q-133 -342 -434 -342q-176 0 -279.5 123.5t-103.5 334.5zM162 1380h69l248 -211l250 211h70l-256 -342h-127zM203 633h418 q-20 133 -63.5 184t-137.5 51q-184 1 -217 -235z" />
<glyph unicode="&#x11c;" horiz-adv-x="1478" d="M66 666q0 313 197.5 515.5t504.5 202.5q137 0 279 -47q53 -20 90 -20q33 0 57.5 19.5t34.5 47.5h45l16 -432h-47q-68 166 -145 238q-123 113 -295 113q-217 0 -357 -156q-68 -76 -107.5 -206t-39.5 -273q0 -285 144.5 -450t394.5 -165q111 0 191.5 36t80.5 85v332 q0 127 -43 153q-33 20 -137 29v37h522v-37q-90 -8 -116.5 -37.5t-26.5 -120.5v-415q-61 -53 -222 -98.5t-292 -45.5q-346 0 -559 219q-170 179 -170 476zM416 1470l274 265h158l276 -265h-98l-256 162l-256 -162h-98z" />
<glyph unicode="&#x11d;" d="M57 -248q0 57 46.5 113.5t154.5 136.5q-63 31 -85.5 53.5t-22.5 55.5q0 59 94 141l88 82q-102 51 -146.5 114.5t-44.5 159.5q0 139 99.5 236.5t242.5 97.5q82 0 164 -31l45 -16q59 -20 113 -21h158v-79h-170q39 -88 38 -172q0 -147 -98 -232q-98 -86 -221 -86 q-20 0 -78 6q-2 0 -39 4q-41 -12 -82 -55t-41 -74q0 -49 160 -55l264 -12q113 -4 180.5 -63.5t67.5 -155.5q0 -115 -113 -207q-172 -139 -419 -139q-145 0 -250 58t-105 140zM166 1038l254 342h127l256 -342h-70l-250 211l-247 -211h-70zM201 -180q0 -68 82 -109t217 -41 q174 0 280.5 55.5t106.5 143.5q0 55 -57.5 77.5t-196.5 22.5q-207 0 -332 27q-63 -76 -81.5 -108.5t-18.5 -67.5zM311 686q0 -147 58.5 -238.5t150.5 -91.5q72 0 113 50.5t41 136.5q0 127 -62 245q-51 96 -149 97q-72 0 -112 -51.5t-40 -141.5v-6z" />
<glyph unicode="&#x11e;" horiz-adv-x="1478" d="M66 666q0 313 197.5 515.5t504.5 202.5q137 0 279 -47q53 -20 90 -20q33 0 57.5 19.5t34.5 47.5h45l16 -432h-47q-68 166 -145 238q-123 113 -295 113q-217 0 -357 -156q-68 -76 -107.5 -206t-39.5 -273q0 -285 144.5 -450t394.5 -165q111 0 191.5 36t80.5 85v332 q0 127 -43 153q-33 20 -137 29v37h522v-37q-90 -8 -116.5 -37.5t-26.5 -120.5v-415q-61 -53 -222 -98.5t-292 -45.5q-346 0 -559 219q-170 179 -170 476zM451 1743h53q47 -168 266 -168t266 168h54q0 -113 -90.5 -198t-229.5 -85t-229 85t-90 198z" />
<glyph unicode="&#x11f;" d="M57 -248q0 57 46.5 113.5t154.5 136.5q-63 31 -85.5 53.5t-22.5 55.5q0 59 94 141l88 82q-102 51 -146.5 114.5t-44.5 159.5q0 139 99.5 236.5t242.5 97.5q82 0 164 -31l45 -16q59 -20 113 -21h158v-79h-170q39 -88 38 -172q0 -147 -98 -232q-98 -86 -221 -86 q-20 0 -78 6q-2 0 -39 4q-41 -12 -82 -55t-41 -74q0 -49 160 -55l264 -12q113 -4 180.5 -63.5t67.5 -155.5q0 -115 -113 -207q-172 -139 -419 -139q-145 0 -250 58t-105 140zM197 1370h59q23 -102 77 -150.5t152 -48.5q90 0 137.5 41t90.5 158h59q-37 -322 -291 -321 q-150 0 -229 110q-53 78 -55 211zM201 -180q0 -68 82 -109t217 -41q174 0 280.5 55.5t106.5 143.5q0 55 -57.5 77.5t-196.5 22.5q-207 0 -332 27q-63 -76 -81.5 -108.5t-18.5 -67.5zM311 686q0 -147 58.5 -238.5t150.5 -91.5q72 0 113 50.5t41 136.5q0 127 -62 245 q-51 96 -149 97q-72 0 -112 -51.5t-40 -141.5v-6z" />
<glyph unicode="&#x120;" horiz-adv-x="1478" d="M66 666q0 313 197.5 515.5t504.5 202.5q137 0 279 -47q53 -20 90 -20q33 0 57.5 19.5t34.5 47.5h45l16 -432h-47q-68 166 -145 238q-123 113 -295 113q-217 0 -357 -156q-68 -76 -107.5 -206t-39.5 -273q0 -285 144.5 -450t394.5 -165q111 0 191.5 36t80.5 85v332 q0 127 -43 153q-33 20 -137 29v37h522v-37q-90 -8 -116.5 -37.5t-26.5 -120.5v-415q-61 -53 -222 -98.5t-292 -45.5q-346 0 -559 219q-170 179 -170 476zM664 1602q0 43 30.5 73.5t73.5 30.5q45 0 74.5 -30.5t29.5 -73.5q0 -45 -29.5 -75t-74.5 -30q-43 0 -73.5 30t-30.5 75 z" />
<glyph unicode="&#x121;" d="M57 -248q0 57 46.5 113.5t154.5 136.5q-63 31 -85.5 53.5t-22.5 55.5q0 59 94 141l88 82q-102 51 -146.5 114.5t-44.5 159.5q0 139 99.5 236.5t242.5 97.5q82 0 164 -31l45 -16q59 -20 113 -21h158v-79h-170q39 -88 38 -172q0 -147 -98 -232q-98 -86 -221 -86 q-20 0 -78 6q-2 0 -39 4q-41 -12 -82 -55t-41 -74q0 -49 160 -55l264 -12q113 -4 180.5 -63.5t67.5 -155.5q0 -115 -113 -207q-172 -139 -419 -139q-145 0 -250 58t-105 140zM201 -180q0 -68 82 -109t217 -41q174 0 280.5 55.5t106.5 143.5q0 55 -57.5 77.5t-196.5 22.5 q-207 0 -332 27q-63 -76 -81.5 -108.5t-18.5 -67.5zM311 686q0 -147 58.5 -238.5t150.5 -91.5q72 0 113 50.5t41 136.5q0 127 -62 245q-51 96 -149 97q-72 0 -112 -51.5t-40 -141.5v-6zM379 1208q0 43 30.5 74t73.5 31q45 0 75 -31t30 -74q0 -45 -30 -74.5t-75 -29.5 q-43 0 -73.5 29.5t-30.5 74.5z" />
<glyph unicode="&#x122;" horiz-adv-x="1478" d="M66 666q0 313 197.5 515.5t504.5 202.5q137 0 279 -47q53 -20 90 -20q33 0 57.5 19.5t34.5 47.5h45l16 -432h-47q-68 166 -145 238q-123 113 -295 113q-217 0 -357 -156q-68 -76 -107.5 -206t-39.5 -273q0 -285 144.5 -450t394.5 -165q111 0 191.5 36t80.5 85v332 q0 127 -43 153q-33 20 -137 29v37h522v-37q-90 -8 -116.5 -37.5t-26.5 -120.5v-415q-61 -53 -222 -98.5t-292 -45.5q-346 0 -559 219q-170 179 -170 476zM627 -195q0 51 33.5 84t87.5 33q70 0 116.5 -52t46.5 -130q0 -92 -63.5 -178t-165.5 -137l-18 38q168 115 167 218 q0 29 -28 28l-17 -4q-25 -4 -38 -4q-55 0 -88 27.5t-33 76.5z" />
<glyph unicode="&#x123;" d="M57 -248q0 57 46.5 113.5t154.5 136.5q-63 31 -85.5 53.5t-22.5 55.5q0 59 94 141l88 82q-102 51 -146.5 114.5t-44.5 159.5q0 139 99.5 236.5t242.5 97.5q82 0 164 -31l45 -16q59 -20 113 -21h158v-79h-170q39 -88 38 -172q0 -147 -98 -232q-98 -86 -221 -86 q-20 0 -78 6q-2 0 -39 4q-41 -12 -82 -55t-41 -74q0 -49 160 -55l264 -12q113 -4 180.5 -63.5t67.5 -155.5q0 -115 -113 -207q-172 -139 -419 -139q-145 0 -250 58t-105 140zM201 -180q0 -68 82 -109t217 -41q174 0 280.5 55.5t106.5 143.5q0 55 -57.5 77.5t-196.5 22.5 q-207 0 -332 27q-63 -76 -81.5 -108.5t-18.5 -67.5zM311 686q0 -147 58.5 -238.5t150.5 -91.5q72 0 113 50.5t41 136.5q0 127 -62 245q-51 96 -149 97q-72 0 -112 -51.5t-40 -141.5v-6zM342 1184q0 92 63.5 178t165.5 137l19 -39q-168 -115 -168 -217q0 -29 29 -29l16 5 q25 4 39 4q55 0 88 -28t33 -77q0 -51 -34 -84t-87 -33q-70 0 -117 52.5t-47 130.5z" />
<glyph unicode="&#x124;" horiz-adv-x="1478" d="M39 0v39q119 8 149.5 43t30.5 164v887q0 111 -30.5 142.5t-149.5 41.5v39h569v-39q-119 -10 -149.5 -42t-30.5 -142v-398h621v398q0 111 -31 142.5t-150 41.5v39h570v-39q-119 -10 -150 -42t-31 -142v-910q0 -109 33 -141.5t148 -42.5v-39h-570v39q119 8 150 43t31 164 v399h-621v-422q0 -109 33 -141.5t147 -42.5v-39h-569zM385 1470l274 265h158l277 -265h-99l-256 162l-256 -162h-98z" />
<glyph unicode="&#x125;" d="M18 0v31q88 12 110 40.5t22 137.5v965q0 66 -19.5 85t-85.5 19q-16 0 -25 -2v33l56 16q139 39 235 74l11 -6v-623q72 92 141 132t160 40q252 0 251 -326v-407q0 -106 19.5 -134t103.5 -44v-31h-434v31q88 8 113.5 40.5t25.5 137.5v405q0 217 -153 217q-59 0 -111.5 -29.5 t-115.5 -99.5v-493q0 -106 24.5 -137t114.5 -41v-31h-443zM160 1513l274 265h158l276 -265h-98l-256 162l-256 -162h-98z" />
<glyph unicode="&#x126;" horiz-adv-x="1478" d="M39 0v39q119 8 149.5 43t30.5 164v743h-180v58h180v86q0 111 -30.5 142.5t-149.5 41.5v39h569v-39q-119 -10 -149.5 -42t-30.5 -142v-86h621v86q0 111 -31 142.5t-150 41.5v39h570v-39q-119 -10 -150 -42t-31 -142v-86h181v-58h-181v-766q0 -109 33 -141.5t148 -42.5v-39 h-570v39q119 8 150 43t31 164v399h-621v-422q0 -109 33 -141.5t147 -42.5v-39h-569zM428 735h621v254h-621v-254z" />
<glyph unicode="&#x127;" horiz-adv-x="1142" d="M82 0v31q88 12 109.5 40.5t21.5 137.5v901h-131v57h131v7q0 66 -19.5 85t-84.5 19q-16 0 -25 -2v33l55 16q139 39 236 74l10 -6v-226h190v-57h-190v-340q70 92 140.5 132t160.5 40q252 0 252 -326v-407q0 -106 19.5 -134t103.5 -44v-31h-434v31q88 8 113.5 40.5 t25.5 137.5v405q0 217 -154 217q-59 0 -111 -29.5t-116 -99.5v-493q0 -106 24.5 -137t114.5 -41v-31h-442z" />
<glyph unicode="&#x128;" horiz-adv-x="681" d="M2 1493q23 100 76 153.5t131 53.5q74 0 143 -37l49 -25q66 -31 109 -30q35 0 58.5 22.5t49.5 79.5h60q-33 -117 -82 -167t-133 -50q-66 0 -166 49l-47 23q-49 23 -84 22q-72 0 -105 -94h-59zM37 0v39q129 4 164 37t35 147v910q0 113 -34 144.5t-165 39.5v39h608v-39 q-129 -6 -165 -39t-36 -145v-910q0 -113 37 -146.5t164 -37.5v-39h-608z" />
<glyph unicode="&#x129;" horiz-adv-x="569" d="M-57 1100q23 100 77 153.5t130 53.5q72 0 143 -37l49 -25q66 -31 109 -31q35 0 58 23t50 80h59q-33 -117 -82 -167t-133 -50q-66 0 -165 49l-48 22q-49 23 -84 23q-72 0 -104 -94h-59zM33 0v31q106 6 134 36.5t28 141.5v475q0 68 -15.5 95.5t-52.5 27.5q-33 0 -70 -6 l-16 -2v30l317 113l9 -6v-727q0 -111 25.5 -140.5t125.5 -37.5v-31h-485z" />
<glyph unicode="&#x12a;" horiz-adv-x="681" d="M23 1546v111h636v-111h-636zM37 0v39q129 4 164 37t35 147v910q0 113 -34 144.5t-165 39.5v39h608v-39q-129 -6 -165 -39t-36 -145v-910q0 -113 37 -146.5t164 -37.5v-39h-608z" />
<glyph unicode="&#x12b;" horiz-adv-x="569" d="M-37 1153v111h637v-111h-637zM33 0v31q106 6 134 36.5t28 141.5v475q0 68 -15.5 95.5t-52.5 27.5q-33 0 -70 -6l-16 -2v30l317 113l9 -6v-727q0 -111 25.5 -140.5t125.5 -37.5v-31h-485z" />
<glyph unicode="&#x12c;" horiz-adv-x="681" d="M23 1743h53q47 -168 266 -168t266 168h54q0 -113 -90.5 -198t-229.5 -85t-229 85t-90 198zM37 0v39q129 4 164 37t35 147v910q0 113 -34 144.5t-165 39.5v39h608v-39q-129 -6 -165 -39t-36 -145v-910q0 -113 37 -146.5t164 -37.5v-39h-608z" />
<glyph unicode="&#x12d;" horiz-adv-x="569" d="M-6 1370h59q23 -102 77 -150.5t153 -48.5q90 0 137 41t90 158h59q-37 -322 -290 -321q-150 0 -230 110q-53 78 -55 211zM33 0v31q106 6 134 36.5t28 141.5v475q0 68 -15.5 95.5t-52.5 27.5q-33 0 -70 -6l-16 -2v30l317 113l9 -6v-727q0 -111 25.5 -140.5t125.5 -37.5v-31 h-485z" />
<glyph unicode="&#x12e;" horiz-adv-x="681" d="M37 0v39q129 4 164 37t35 147v910q0 113 -34 144.5t-165 39.5v39h608v-39q-129 -6 -165 -39t-36 -145v-910q0 -113 37 -146.5t164 -37.5v-39q-137 0 -194 -100q-49 -78 -50 -170q0 -57 25 -91t70 -34q57 0 110 88l39 -29q-76 -166 -211 -166q-66 0 -112 51.5t-46 124.5 q0 117 74 213q43 59 113 113h-426z" />
<glyph unicode="&#x12f;" horiz-adv-x="569" d="M33 0v31q106 6 134 36.5t28 141.5v475q0 68 -15.5 95.5t-52.5 27.5q-33 0 -70 -6l-16 -2v30l317 113l9 -6v-727q0 -111 25.5 -140.5t125.5 -37.5v-31q-63 10 -121.5 -17.5t-93.5 -82.5q-49 -78 -49 -170q0 -57 24.5 -91t69.5 -34q57 0 111 88l39 -29q-76 -166 -211 -166 q-66 0 -112 51.5t-46 124.5q0 117 74 213q43 59 112 113h-282zM180 1208q0 43 31 74t74 31q45 0 74.5 -31t29.5 -74q0 -45 -29.5 -74.5t-74.5 -29.5q-43 0 -74 29.5t-31 74.5z" />
<glyph unicode="&#x130;" horiz-adv-x="681" d="M37 0v39q129 4 164 37t35 147v910q0 113 -34 144.5t-165 39.5v39h608v-39q-129 -6 -165 -39t-36 -145v-910q0 -113 37 -146.5t164 -37.5v-39h-608zM236 1602q0 43 30.5 73.5t73.5 30.5q45 0 74.5 -30.5t29.5 -73.5q0 -45 -29.5 -75t-74.5 -30q-43 0 -73.5 30t-30.5 75z " />
<glyph unicode="&#x131;" horiz-adv-x="569" d="M33 0v31q106 6 134 36.5t28 141.5v475q0 68 -15.5 95.5t-52.5 27.5q-33 0 -70 -6l-16 -2v30l317 113l9 -6v-727q0 -111 25.5 -140.5t125.5 -37.5v-31h-485z" />
<glyph unicode="&#x134;" horiz-adv-x="796" d="M20 119q0 41 30 71.5t71 30.5q76 0 106 -104q10 -39 22.5 -53.5t33.5 -14.5q78 0 77 135v949q0 113 -32.5 144.5t-157.5 39.5v39h588v-39q-125 -8 -157 -40t-32 -144v-758q0 -193 -90 -298.5t-256 -105.5q-88 0 -145.5 41t-57.5 107zM113 1470l274 265h158l276 -265h-98 l-256 162l-256 -162h-98z" />
<glyph unicode="&#x135;" horiz-adv-x="569" d="M-143 -334q0 33 24.5 56.5t59.5 23.5q47 0 98 -65q47 -57 86 -58q47 0 70 37q29 51 28 248v776q0 123 -65 123q-33 0 -82 -6l-10 -2v32q164 51 319 111l10 -6v-936q0 -219 -89 -332.5t-259 -113.5q-84 0 -137 31.5t-53 80.5zM-8 1038l254 342h127l256 -342h-70l-250 211 l-248 -211h-69z" />
<glyph unicode="&#x136;" horiz-adv-x="1478" d="M70 0v39q121 8 152.5 44t31.5 163v887q0 109 -33 142.5t-151 41.5v39h581v-39q-125 -8 -156.5 -40t-31.5 -144v-420l362 329q160 147 160 211q0 31 -19.5 44.5t-66.5 17.5q-29 0 -53 2v39h536v-39q-104 -8 -155 -34t-156 -126l-389 -385l477 -512q139 -150 190.5 -184.5 t131.5 -36.5v-39h-625v39q25 2 57 2q86 4 86 45q0 37 -74.5 135t-191.5 213l-217 215l-53 -43v-383q0 -113 32.5 -144.5t151.5 -39.5v-39h-577zM610 -195q0 51 34 84t87 33q70 0 117 -52t47 -130q0 -92 -63.5 -178t-165.5 -137l-19 38q168 115 168 218q0 29 -29 28l-16 -4 q-25 -4 -39 -4q-55 0 -88 27.5t-33 76.5z" />
<glyph unicode="&#x137;" d="M14 0v31q111 18 132.5 37.5t21.5 99.5v987q0 74 -18.5 99.5t-69.5 25.5q-12 0 -66 -4v33l62 16l256 74l8 -4v-860l281 249q47 41 47 70q0 20 -21.5 28.5t-81.5 10.5v29h418v-31h-16q-49 0 -95 -12q-96 -27 -331 -246l-60 -55l314 -398q63 -78 117.5 -111.5t121.5 -37.5 v-31h-446v31h39q43 0 43 30q0 14 -23 43q-6 6 -14 19l-6 8l-287 383v-377q0 -53 25.5 -77.5t87.5 -26.5l41 -2v-31h-480zM399 -195q0 51 34 84t87 33q70 0 117 -52t47 -130q0 -92 -63.5 -178t-165.5 -137l-19 38q168 115 168 218q0 29 -29 28l-16 -4q-25 -4 -39 -4 q-55 0 -88 27.5t-33 76.5z" />
<glyph unicode="&#x139;" horiz-adv-x="1251" d="M25 0v39q113 8 145.5 42t32.5 142v910q0 109 -32 141.5t-146 42.5v39h577v-39q-121 -8 -155.5 -42t-34.5 -142v-969q0 -53 31.5 -68.5t144.5 -15.5h137q256 0 360 125q39 45 89 151h51l-99 -356h-1101zM135 1458l324 246q51 39 94 39q78 0 78 -53q0 -41 -66 -68 l-342 -164h-88z" />
<glyph unicode="&#x13a;" horiz-adv-x="569" d="M39 1276v33q203 49 326 90l8 -4v-1223q0 -84 27.5 -109.5t125.5 -31.5v-31h-483v31q96 8 127 36.5t31 110.5v977q0 72 -18.5 98.5t-67.5 26.5q-18 0 -64 -4h-12zM84 1501l324 246q51 39 94 39q78 0 78 -53q0 -41 -66 -68l-342 -164h-88z" />
<glyph unicode="&#x13b;" horiz-adv-x="1251" d="M25 0v39q113 8 145.5 42t32.5 142v910q0 109 -32 141.5t-146 42.5v39h577v-39q-121 -8 -155.5 -42t-34.5 -142v-969q0 -53 31.5 -68.5t144.5 -15.5h137q256 0 360 125q39 45 89 151h51l-99 -356h-1101zM483 -195q0 51 34 84t87 33q70 0 117 -52t47 -130q0 -92 -63.5 -178 t-165.5 -137l-19 38q168 115 168 218q0 29 -29 28l-16 -4q-25 -4 -39 -4q-55 0 -88 27.5t-33 76.5z" />
<glyph unicode="&#x13c;" horiz-adv-x="569" d="M39 1276v33q203 49 326 90l8 -4v-1223q0 -84 27.5 -109.5t125.5 -31.5v-31h-483v31q96 8 127 36.5t31 110.5v977q0 72 -18.5 98.5t-67.5 26.5q-18 0 -64 -4h-12zM145 -195q0 51 34 84t87 33q70 0 117 -52t47 -130q0 -92 -63.5 -178t-165.5 -137l-19 38q168 115 168 218 q0 29 -28 28l-17 -4q-25 -4 -39 -4q-55 0 -88 27.5t-33 76.5z" />
<glyph unicode="&#x13d;" horiz-adv-x="1251" d="M25 0v39q113 8 145.5 42t32.5 142v910q0 109 -32 141.5t-146 42.5v39h577v-39q-121 -8 -155.5 -42t-34.5 -142v-969q0 -53 31.5 -68.5t144.5 -15.5h137q256 0 360 125q39 45 89 151h51l-99 -356h-1101zM684 1239q0 51 34 84t87 33q70 0 117 -52.5t47 -129.5 q0 -92 -63.5 -178.5t-166.5 -137.5l-18 39q168 115 168 217q0 29 -29 29l-16 -4q-25 -4 -39 -4q-55 0 -88 27.5t-33 76.5z" />
<glyph unicode="&#x13e;" horiz-adv-x="569" d="M39 1276v33q203 49 326 90l8 -4v-1223q0 -84 27.5 -109.5t125.5 -31.5v-31h-483v31q96 8 127 36.5t31 110.5v977q0 72 -18.5 98.5t-67.5 26.5q-18 0 -64 -4h-12zM455 1282q0 51 33.5 84t86.5 33q70 0 117 -52.5t47 -129.5q0 -92 -63.5 -178.5t-165.5 -137.5l-18 39 q168 115 167 217q0 29 -28 29l-17 -4q-25 -4 -39 -4q-55 0 -87.5 27.5t-32.5 76.5z" />
<glyph unicode="&#x13f;" horiz-adv-x="1251" d="M25 0v39q113 8 145.5 42t32.5 142v910q0 109 -32 141.5t-146 42.5v39h577v-39q-121 -8 -155.5 -42t-34.5 -142v-969q0 -53 31.5 -68.5t144.5 -15.5h137q256 0 360 125q39 45 89 151h51l-99 -356h-1101zM829 729q0 43 31 74t74 31q45 0 74.5 -31t29.5 -74 q0 -45 -29.5 -74.5t-74.5 -29.5q-43 0 -74 29.5t-31 74.5z" />
<glyph unicode="&#x140;" horiz-adv-x="569" d="M39 1276v33q203 49 326 90l8 -4v-1223q0 -84 27.5 -109.5t125.5 -31.5v-31h-483v31q96 8 127 36.5t31 110.5v977q0 72 -18.5 98.5t-67.5 26.5q-18 0 -64 -4h-12zM467 729q0 43 30.5 74t73.5 31q45 0 75 -31t30 -74q0 -45 -30 -74.5t-75 -29.5q-43 0 -73.5 29.5 t-30.5 74.5z" />
<glyph unicode="&#x141;" horiz-adv-x="1251" d="M25 0v39q113 8 145.5 42t32.5 142v297l-127 -117v105l127 117v508q0 109 -32 141.5t-146 42.5v39h577v-39q-121 -8 -155.5 -42t-34.5 -142v-357l256 236v-105l-256 -235v-508q0 -53 31.5 -68.5t144.5 -15.5h137q256 0 360 125q39 45 89 151h51l-99 -356h-1101z" />
<glyph unicode="&#x142;" horiz-adv-x="569" d="M31 537v94l170 160v364q0 72 -18.5 98.5t-67.5 26.5q-18 0 -64 -4h-12v33q203 49 326 90l8 -4v-463l168 158v-95l-168 -157v-666q0 -84 27.5 -109.5t125.5 -31.5v-31h-483v31q96 8 127 36.5t31 110.5v518z" />
<glyph unicode="&#x143;" horiz-adv-x="1478" d="M25 0v39q127 8 162.5 56t35.5 206v903q-61 72 -97 92.5t-101 20.5v39h350l788 -991v690q0 188 -59 229q-43 25 -137 33v39h481v-39q-98 -10 -135 -37q-59 -41 -60 -225v-1078h-34l-906 1127v-803q0 -156 37 -206t156 -56v-39h-481zM559 1458l324 246q51 39 94 39 q78 0 78 -53q0 -41 -66 -68l-342 -164h-88z" />
<glyph unicode="&#x144;" d="M33 815v35q152 45 282 92l15 -4v-162q104 98 164.5 132t132.5 34q113 0 177 -81t64 -226v-469q0 -76 25 -101.5t100 -33.5v-31h-426v31q78 6 103.5 40.5t25.5 131.5v428q0 199 -149 198q-51 0 -94 -23.5t-117 -92.5v-576q0 -55 28.5 -77.5t106.5 -28.5v-31h-434v31 q78 6 102.5 35.5t24.5 117.5v508q0 76 -16.5 103.5t-59.5 27.5q-39 0 -55 -8zM367 1032l301 303q47 47 86 47q72 0 71 -65q0 -47 -61 -86l-315 -199h-82z" />
<glyph unicode="&#x145;" horiz-adv-x="1478" d="M25 0v39q127 8 162.5 56t35.5 206v903q-61 72 -97 92.5t-101 20.5v39h350l788 -991v690q0 188 -59 229q-43 25 -137 33v39h481v-39q-98 -10 -135 -37q-59 -41 -60 -225v-1078h-34l-906 1127v-803q0 -156 37 -206t156 -56v-39h-481zM596 -195q0 51 34 84t87 33 q70 0 117 -52t47 -130q0 -92 -63.5 -178t-166.5 -137l-18 38q168 115 168 218q0 29 -29 28l-16 -4q-25 -4 -39 -4q-55 0 -88 27.5t-33 76.5z" />
<glyph unicode="&#x146;" d="M33 815v35q152 45 282 92l15 -4v-162q104 98 164.5 132t132.5 34q113 0 177 -81t64 -226v-469q0 -76 25 -101.5t100 -33.5v-31h-426v31q78 6 103.5 40.5t25.5 131.5v428q0 199 -149 198q-51 0 -94 -23.5t-117 -92.5v-576q0 -55 28.5 -77.5t106.5 -28.5v-31h-434v31 q78 6 102.5 35.5t24.5 117.5v508q0 76 -16.5 103.5t-59.5 27.5q-39 0 -55 -8zM375 -195q0 51 33.5 84t87.5 33q70 0 116.5 -52t46.5 -130q0 -92 -63.5 -178t-165.5 -137l-18 38q168 115 168 218q0 29 -29 28l-16 -4q-25 -4 -39 -4q-55 0 -88 27.5t-33 76.5z" />
<glyph unicode="&#x147;" horiz-adv-x="1478" d="M25 0v39q127 8 162.5 56t35.5 206v903q-61 72 -97 92.5t-101 20.5v39h350l788 -991v690q0 188 -59 229q-43 25 -137 33v39h481v-39q-98 -10 -135 -37q-59 -41 -60 -225v-1078h-34l-906 1127v-803q0 -156 37 -206t156 -56v-39h-481zM383 1735h98l256 -162l256 162h99 l-275 -265h-158z" />
<glyph unicode="&#x148;" d="M33 815v35q152 45 282 92l15 -4v-162q104 98 164.5 132t132.5 34q113 0 177 -81t64 -226v-469q0 -76 25 -101.5t100 -33.5v-31h-426v31q78 6 103.5 40.5t25.5 131.5v428q0 199 -149 198q-51 0 -94 -23.5t-117 -92.5v-576q0 -55 28.5 -77.5t106.5 -28.5v-31h-434v31 q78 6 102.5 35.5t24.5 117.5v508q0 76 -16.5 103.5t-59.5 27.5q-39 0 -55 -8zM199 1380h69l248 -211l250 211h70l-256 -342h-127z" />
<glyph unicode="&#x14a;" horiz-adv-x="1478" d="M25 0v39q127 8 162.5 56t35.5 206v903q-61 72 -97 92.5t-101 20.5v39h350l788 -991v690q0 188 -59 229q-43 25 -137 33v39h481v-39q-98 -10 -135 -37q-59 -41 -60 -225v-1055q0 -238 -53 -342t-213 -104q-84 0 -138 31.5t-54 80.5q0 33 24.5 56.5t59.5 23.5q47 0 98 -65 q47 -57 86 -58q47 0 70 37q29 51 28 248v137l-848 1059v-803q0 -156 37 -206t156 -56v-39h-481z" />
<glyph unicode="&#x14b;" d="M33 815v35q152 45 282 92l15 -4v-162q104 98 164.5 132t132.5 34q113 0 177 -81t64 -226v-635q0 -217 -88 -331.5t-258 -114.5q-84 0 -138 31.5t-54 80.5q0 33 24.5 56.5t59.5 23.5q47 0 98 -65q47 -57 86 -58q47 0 70 37q29 51 28 248v723q0 199 -149 198 q-51 0 -94 -23.5t-117 -92.5v-576q0 -55 28.5 -77.5t106.5 -28.5v-31h-434v31q78 6 102.5 35.5t24.5 117.5v508q0 76 -16.5 103.5t-59.5 27.5q-39 0 -55 -8z" />
<glyph unicode="&#x14c;" horiz-adv-x="1478" d="M70 678q0 309 188 507.5t481 198.5q301 0 498 -215q172 -188 172 -499q0 -309 -189.5 -504t-492.5 -195q-135 0 -263 56.5t-218 152.5q-82 88 -129 220.5t-47 277.5zM303 674q0 -170 47 -314.5t127 -214.5q113 -100 258 -100q164 0 273 109q74 74 100 149q68 176 68 369 q0 379 -175 536q-115 102 -262 103q-172 0 -293 -133q-66 -72 -104.5 -210t-38.5 -294zM422 1546v111h637v-111h-637z" />
<glyph unicode="&#x14d;" d="M59 463q0 211 126 345t327 134q197 0 324 -131t127 -332q0 -213 -131.5 -356t-324 -143t-320.5 138t-128 345zM195 1153v111h636v-111h-636zM244 563q0 -227 90 -395q70 -131 198 -131q115 0 180.5 98t65.5 273q0 211 -82 344t-211 133q-109 0 -175 -88.5t-66 -233.5z " />
<glyph unicode="&#x14e;" horiz-adv-x="1478" d="M70 678q0 309 188 507.5t481 198.5q301 0 498 -215q172 -188 172 -499q0 -309 -189.5 -504t-492.5 -195q-135 0 -263 56.5t-218 152.5q-82 88 -129 220.5t-47 277.5zM303 674q0 -170 47 -314.5t127 -214.5q113 -100 258 -100q164 0 273 109q74 74 100 149q68 176 68 369 q0 379 -175 536q-115 102 -262 103q-172 0 -293 -133q-66 -72 -104.5 -210t-38.5 -294zM422 1743h53q47 -168 266.5 -168t266.5 168h53q0 -113 -90 -198t-229.5 -85t-229.5 85t-90 198z" />
<glyph unicode="&#x14f;" d="M59 463q0 211 126 345t327 134q197 0 324 -131t127 -332q0 -213 -131.5 -356t-324 -143t-320.5 138t-128 345zM225 1370h60q23 -102 77 -150.5t152 -48.5q90 0 137 41t90 158h60q-37 -322 -291 -321q-150 0 -229 110q-54 78 -56 211zM244 563q0 -227 90 -395 q70 -131 198 -131q115 0 180.5 98t65.5 273q0 211 -82 344t-211 133q-109 0 -175 -88.5t-66 -233.5z" />
<glyph unicode="&#x150;" horiz-adv-x="1478" d="M70 678q0 309 188 507.5t481 198.5q301 0 498 -215q172 -188 172 -499q0 -309 -189.5 -504t-492.5 -195q-135 0 -263 56.5t-218 152.5q-82 88 -129 220.5t-47 277.5zM303 674q0 -170 47 -314.5t127 -214.5q113 -100 258 -100q164 0 273 109q74 74 100 149q68 176 68 369 q0 379 -175 536q-115 102 -262 103q-172 0 -293 -133q-66 -72 -104.5 -210t-38.5 -294zM541 1458l323 246q51 39 94 39q78 0 78 -53q0 -41 -65 -68l-342 -164h-88zM868 1458l324 246q51 39 94 39q78 0 78 -53q0 -41 -66 -68l-342 -164h-88z" />
<glyph unicode="&#x151;" d="M59 463q0 211 126 345t327 134q197 0 324 -131t127 -332q0 -213 -131.5 -356t-324 -143t-320.5 138t-128 345zM244 563q0 -227 90 -395q70 -131 198 -131q115 0 180.5 98t65.5 273q0 211 -82 344t-211 133q-109 0 -175 -88.5t-66 -233.5zM248 1034l301 303q47 47 86 47 q72 0 72 -65q0 -47 -62 -86l-315 -199h-82zM588 1034l301 303q47 47 86 47q72 0 72 -65q0 -47 -62 -86l-315 -199h-82z" />
<glyph unicode="&#x152;" horiz-adv-x="1820" d="M61 659q0 176 54.5 322.5t152.5 232.5q172 154 432 154q35 0 134 -6l215 -6h667v-289h-47q-18 137 -80.5 176t-263.5 39h-104q-86 0 -110 -8t-24 -41v-483h213q186 0 232 63q31 43 39 137h43v-479h-43q-14 121 -54 162t-147 41h-283v-502q0 -57 24 -76.5t91 -17.5l254 4 q96 2 163 59.5t144 202.5h49l-90 -344h-716l-248 -8l-119 -4q-236 0 -393 157q-185 180 -185 514zM291 666q0 -291 99 -447t288 -156q109 0 157 48.5t48 156.5v811q0 113 -48.5 164t-154.5 51q-186 0 -287.5 -163.5t-101.5 -464.5z" />
<glyph unicode="&#x153;" horiz-adv-x="1478" d="M61 446q0 117 41 223.5t113 174.5q109 98 260 98q94 0 165 -35t146 -121q63 86 123 121t144 35q166 0 258 -127q61 -82 69 -248h-520q6 -133 22.5 -204.5t57.5 -143.5q61 -102 184 -102q74 0 134.5 41t132.5 139l22 -12q-80 -166 -164 -235.5t-202 -69.5q-94 0 -155 45 t-108 149q-59 -104 -127.5 -149t-173.5 -45q-186 0 -304 130.5t-118 335.5zM246 555q0 -522 246 -522q211 0 210 375q0 229 -60 352t-173 123q-86 0 -154 -68q-31 -33 -50 -106.5t-19 -153.5zM858 629h328v55q0 86 -46 142.5t-116 56.5q-164 0 -166 -254z" />
<glyph unicode="&#x154;" horiz-adv-x="1366" d="M35 0v39q115 8 144.5 44t29.5 163v887q0 109 -29.5 140.5t-144.5 43.5v39h565q143 0 262 -37t178 -100q80 -90 80 -224q0 -152 -104 -235q-88 -72 -266 -107l421 -518q43 -51 81 -71.5t98 -24.5v-39h-330l-488 631l-114 -4v-404q0 -111 32.5 -143.5t151.5 -40.5v-39h-567 zM418 702q150 4 221.5 17.5t140.5 52.5q117 61 117 227q0 143 -91 212t-284 69q-61 0 -82.5 -15.5t-21.5 -58.5v-504zM424 1458l324 246q51 39 94 39q78 0 78 -53q0 -41 -66 -68l-342 -164h-88z" />
<glyph unicode="&#x155;" horiz-adv-x="681" d="M10 0v31q98 18 122 40.5t24 100.5v512q0 68 -15.5 95.5t-54.5 27.5q-33 0 -72 -8v32q164 53 303 111l11 -4v-188q76 109 129 150.5t116 41.5q53 0 83 -28.5t30 -79.5q0 -43 -21.5 -68t-58.5 -25q-35 0 -82 41q-33 31 -53 31q-41 0 -92 -59.5t-51 -108.5v-461 q0 -88 34.5 -118.5t139.5 -34.5v-31h-492zM178 1032l301 303q47 47 86 47q72 0 72 -65q0 -47 -62 -86l-315 -199h-82z" />
<glyph unicode="&#x156;" horiz-adv-x="1366" d="M35 0v39q115 8 144.5 44t29.5 163v887q0 109 -29.5 140.5t-144.5 43.5v39h565q143 0 262 -37t178 -100q80 -90 80 -224q0 -152 -104 -235q-88 -72 -266 -107l421 -518q43 -51 81 -71.5t98 -24.5v-39h-330l-488 631l-114 -4v-404q0 -111 32.5 -143.5t151.5 -40.5v-39h-567 zM418 702q150 4 221.5 17.5t140.5 52.5q117 61 117 227q0 143 -91 212t-284 69q-61 0 -82.5 -15.5t-21.5 -58.5v-504zM461 -195q0 51 33.5 84t87.5 33q70 0 116.5 -52t46.5 -130q0 -92 -63.5 -178t-165.5 -137l-18 38q168 115 168 218q0 29 -29 28l-16 -4q-25 -4 -39 -4 q-55 0 -88 27.5t-33 76.5z" />
<glyph unicode="&#x157;" horiz-adv-x="681" d="M10 0v31q98 18 122 40.5t24 100.5v512q0 68 -15.5 95.5t-54.5 27.5q-33 0 -72 -8v32q164 53 303 111l11 -4v-188q76 109 129 150.5t116 41.5q53 0 83 -28.5t30 -79.5q0 -43 -21.5 -68t-58.5 -25q-35 0 -82 41q-33 31 -53 31q-41 0 -92 -59.5t-51 -108.5v-461 q0 -88 34.5 -118.5t139.5 -34.5v-31h-492zM115 -195q0 51 33.5 84t87.5 33q70 0 116.5 -52t46.5 -130q0 -92 -63.5 -178t-165.5 -137l-18 38q168 115 167 218q0 29 -28 28l-17 -4q-25 -4 -38 -4q-55 0 -88 27.5t-33 76.5z" />
<glyph unicode="&#x158;" horiz-adv-x="1366" d="M35 0v39q115 8 144.5 44t29.5 163v887q0 109 -29.5 140.5t-144.5 43.5v39h565q143 0 262 -37t178 -100q80 -90 80 -224q0 -152 -104 -235q-88 -72 -266 -107l421 -518q43 -51 81 -71.5t98 -24.5v-39h-330l-488 631l-114 -4v-404q0 -111 32.5 -143.5t151.5 -40.5v-39h-567 zM248 1735h98l256 -162l256 162h98l-274 -265h-158zM418 702q150 4 221.5 17.5t140.5 52.5q117 61 117 227q0 143 -91 212t-284 69q-61 0 -82.5 -15.5t-21.5 -58.5v-504z" />
<glyph unicode="&#x159;" horiz-adv-x="681" d="M10 0v31q98 18 122 40.5t24 100.5v512q0 68 -15.5 95.5t-54.5 27.5q-33 0 -72 -8v32q164 53 303 111l11 -4v-188q76 109 129 150.5t116 41.5q53 0 83 -28.5t30 -79.5q0 -43 -21.5 -68t-58.5 -25q-35 0 -82 41q-33 31 -53 31q-41 0 -92 -59.5t-51 -108.5v-461 q0 -88 34.5 -118.5t139.5 -34.5v-31h-492zM10 1380h70l248 -211l250 211h69l-256 -342h-127z" />
<glyph unicode="&#x15a;" horiz-adv-x="1138" d="M86 408h47q78 -188 177.5 -275.5t236.5 -87.5q113 0 182.5 63.5t69.5 165.5q0 76 -29 121q-76 115 -305 240q-172 90 -246 182t-74 215q0 168 119 266q106 86 232 86q102 0 221 -45q55 -25 90 -24q53 0 65 69h43l46 -436h-52q-41 154 -125 240q-109 113 -249 112 q-96 0 -154.5 -52t-58.5 -136t69.5 -157.5t231.5 -161.5q203 -111 293 -216.5t90 -232.5q0 -158 -120 -265.5t-298 -107.5q-123 0 -242 47q-61 23 -96 23q-23 0 -39 -19.5t-18 -48.5h-46zM356 1458l324 246q51 39 94 39q78 0 78 -53q0 -41 -66 -68l-342 -164h-88z" />
<glyph unicode="&#x15b;" horiz-adv-x="796" d="M104 688q0 113 79 182.5t204 69.5q76 0 139 -25q31 -14 56 -14q8 0 28 17l4 4h23l8 -279h-31q-35 137 -86 194.5t-139 57.5q-72 0 -115 -38t-43 -101q0 -88 88 -140l222 -131q94 -55 133 -110.5t39 -132.5q0 -106 -85 -184t-202 -78q-55 0 -152 20q-66 16 -94 16 q-31 0 -47 -24h-27v319h33q35 -156 94.5 -221t165.5 -65q78 0 124 39.5t46 107.5q0 92 -106 154l-119 67q-131 76 -185.5 142.5t-54.5 152.5zM238 1032l301 303q47 47 86 47q72 0 71 -65q0 -47 -61 -86l-316 -199h-81z" />
<glyph unicode="&#x15c;" horiz-adv-x="1138" d="M86 408h47q78 -188 177.5 -275.5t236.5 -87.5q113 0 182.5 63.5t69.5 165.5q0 76 -29 121q-76 115 -305 240q-172 90 -246 182t-74 215q0 168 119 266q106 86 232 86q102 0 221 -45q55 -25 90 -24q53 0 65 69h43l46 -436h-52q-41 154 -125 240q-109 113 -249 112 q-96 0 -154.5 -52t-58.5 -136t69.5 -157.5t231.5 -161.5q203 -111 293 -216.5t90 -232.5q0 -158 -120 -265.5t-298 -107.5q-123 0 -242 47q-61 23 -96 23q-23 0 -39 -19.5t-18 -48.5h-46zM182 1470l275 265h157l277 -265h-98l-256 162l-256 -162h-99z" />
<glyph unicode="&#x15d;" horiz-adv-x="796" d="M70 1038l254 342h127l256 -342h-70l-250 211l-248 -211h-69zM104 688q0 113 79 182.5t204 69.5q76 0 139 -25q31 -14 56 -14q8 0 28 17l4 4h23l8 -279h-31q-35 137 -86 194.5t-139 57.5q-72 0 -115 -38t-43 -101q0 -88 88 -140l222 -131q94 -55 133 -110.5t39 -132.5 q0 -106 -85 -184t-202 -78q-55 0 -152 20q-66 16 -94 16q-31 0 -47 -24h-27v319h33q35 -156 94.5 -221t165.5 -65q78 0 124 39.5t46 107.5q0 92 -106 154l-119 67q-131 76 -185.5 142.5t-54.5 152.5z" />
<glyph unicode="&#x15e;" horiz-adv-x="1138" d="M86 408h47q78 -188 177.5 -275.5t236.5 -87.5q113 0 182.5 63.5t69.5 165.5q0 76 -29 121q-76 115 -305 240q-172 90 -246 182t-74 215q0 168 119 266q106 86 232 86q102 0 221 -45q55 -25 90 -24q53 0 65 69h43l46 -436h-52q-41 154 -125 240q-109 113 -249 112 q-96 0 -154.5 -52t-58.5 -136t69.5 -157.5t231.5 -161.5q203 -111 293 -216.5t90 -232.5q0 -147 -106.5 -251.5t-268.5 -119.5l-49 -127q31 6 53 7q84 0 130 -37t46 -105q0 -80 -68.5 -126t-187.5 -46q-92 0 -172 33l29 63q74 -25 133 -24q51 0 81.5 24.5t30.5 65.5 q0 39 -24.5 56.5t-83.5 17.5q-35 0 -57 -8l-15 10l80 194q-106 6 -211 47q-61 23 -96 23q-23 0 -39 -19.5t-18 -48.5h-46z" />
<glyph unicode="&#x15f;" horiz-adv-x="796" d="M104 688q0 113 79 182.5t204 69.5q76 0 139 -25q31 -14 56 -14q8 0 28 17l4 4h23l8 -279h-31q-35 137 -86 194.5t-139 57.5q-72 0 -115 -38t-43 -101q0 -88 88 -140l222 -131q94 -55 133 -110.5t39 -132.5q0 -106 -85 -184t-202 -78l-39 -113q31 6 53 6q82 0 129 -38 t47 -103q0 -80 -68.5 -126t-187.5 -46q-92 0 -172 32l29 64q76 -25 133 -25q51 0 82 25t31 65q0 39 -24.5 56.5t-84.5 17.5q-35 0 -57 -8l-14 10l73 189q-23 2 -82 14q-66 16 -94 16q-31 0 -47 -24h-27v319h33q35 -156 94.5 -221t165.5 -65q78 0 124 39.5t46 107.5 q0 92 -106 154l-119 67q-131 76 -185.5 142.5t-54.5 152.5z" />
<glyph unicode="&#x160;" horiz-adv-x="1138" d="M86 408h47q78 -188 177.5 -275.5t236.5 -87.5q113 0 182.5 63.5t69.5 165.5q0 76 -29 121q-76 115 -305 240q-172 90 -246 182t-74 215q0 168 119 266q106 86 232 86q102 0 221 -45q55 -25 90 -24q53 0 65 69h43l46 -436h-52q-41 154 -125 240q-109 113 -249 112 q-96 0 -154.5 -52t-58.5 -136t69.5 -157.5t231.5 -161.5q203 -111 293 -216.5t90 -232.5q0 -158 -120 -265.5t-298 -107.5q-123 0 -242 47q-61 23 -96 23q-23 0 -39 -19.5t-18 -48.5h-46zM180 1735h99l256 -162l256 162h98l-275 -265h-157z" />
<glyph unicode="&#x161;" horiz-adv-x="796" d="M70 1380h69l248 -211l250 211h70l-256 -342h-127zM104 688q0 113 79 182.5t204 69.5q76 0 139 -25q31 -14 56 -14q8 0 28 17l4 4h23l8 -279h-31q-35 137 -86 194.5t-139 57.5q-72 0 -115 -38t-43 -101q0 -88 88 -140l222 -131q94 -55 133 -110.5t39 -132.5 q0 -106 -85 -184t-202 -78q-55 0 -152 20q-66 16 -94 16q-31 0 -47 -24h-27v319h33q35 -156 94.5 -221t165.5 -65q78 0 124 39.5t46 107.5q0 92 -106 154l-119 67q-131 76 -185.5 142.5t-54.5 152.5z" />
<glyph unicode="&#x162;" horiz-adv-x="1251" d="M35 1008l12 348h1155l12 -348h-49q-35 170 -93 216t-232 46h-111v-1047q0 -113 35 -145.5t162 -38.5v-39h-254l-60 -154q31 6 54 7q84 0 130 -37t46 -105q0 -80 -68.5 -126t-187.5 -46q-92 0 -172 33l28 63q74 -25 133 -24q51 0 82 24.5t31 65.5q0 39 -24.5 56.5 t-83.5 17.5q-35 0 -58 -8l-14 10l92 223h-272v39q127 8 159.5 42t32.5 165v1024h-110q-172 0 -230.5 -47t-95.5 -215h-49z" />
<glyph unicode="&#x163;" horiz-adv-x="569" d="M27 870q0 16 34 39q84 49 199 219q29 37 41 58q14 0 14 -27v-237h207v-66h-207v-586q0 -98 25 -141t82 -43q61 0 123 72l26 -23q-86 -133 -200 -151l-45 -117q31 6 53 6q84 0 130 -37t46 -104q0 -80 -68.5 -126t-187.5 -46q-92 0 -172 32l29 64q74 -25 133 -25 q51 0 81.5 25t30.5 65q0 39 -24.5 56.5t-83.5 17.5q-35 0 -57 -8l-15 10l76 185q-154 18 -154 258v616h-108q-8 6 -8 14z" />
<glyph unicode="&#x164;" horiz-adv-x="1251" d="M35 1008l12 348h1155l12 -348h-49q-35 170 -93 216t-232 46h-111v-1047q0 -113 35 -145.5t162 -38.5v-39h-598v39q127 8 159.5 42t32.5 165v1024h-110q-172 0 -230.5 -47t-95.5 -215h-49zM270 1735h99l256 -162l256 162h98l-274 -265h-158z" />
<glyph unicode="&#x165;" horiz-adv-x="569" d="M27 870q0 16 34 39q84 49 199 219q29 37 41 58q14 0 14 -27v-237h207v-66h-207v-586q0 -98 25 -141t82 -43q61 0 123 72l26 -23q-98 -156 -247 -155q-180 0 -181 260v616h-108q-8 6 -8 14zM356 1343q0 51 34 84t87 33q70 0 117 -52t47 -130q0 -92 -63.5 -178t-165.5 -137 l-19 38q168 115 168 218q0 29 -29 28l-16 -4q-25 -4 -39 -4q-55 0 -88 27.5t-33 76.5z" />
<glyph unicode="&#x168;" horiz-adv-x="1478" d="M29 1317v39h579v-39q-123 -10 -154.5 -42t-31.5 -142v-656q0 -180 51 -270q84 -145 301 -146q115 0 207 44.5t133 117.5q47 88 47 279v553q0 154 -37 204t-155 58v39h475v-39q-127 -16 -160 -61.5t-33 -200.5v-535q0 -219 -67 -338q-121 -211 -457 -211q-262 0 -388 128 t-126 395v639q0 113 -31.5 143.5t-152.5 40.5zM453 1493q23 100 76 153.5t130 53.5q74 0 144 -37l49 -25q66 -31 109 -30q35 0 58 22.5t50 79.5h59q-33 -117 -82 -167t-133 -50q-66 0 -165 49l-48 23q-49 23 -84 22q-72 0 -104 -94h-59z" />
<glyph unicode="&#x169;" d="M18 893v29h299v-668q0 -63 43 -109.5t103 -46.5q98 0 184 74q35 27 35 104v482q0 76 -27.5 100.5t-124.5 28.5v35h324v-703q0 -72 23.5 -94.5t93.5 -22.5h10v-28q-160 -43 -281 -92l-8 4v170l-88 -88q-88 -88 -211 -88q-113 0 -180.5 72.5t-67.5 193.5v516 q0 72 -26.5 99.5t-100.5 31.5zM162 1100q23 100 76 153.5t131 53.5q74 0 143 -37l49 -25q66 -31 109 -31q35 0 58.5 23t49.5 80h60q-33 -117 -82 -167t-133 -50q-66 0 -166 49l-47 22q-49 23 -84 23q-72 0 -105 -94h-59z" />
<glyph unicode="&#x16a;" horiz-adv-x="1478" d="M29 1317v39h579v-39q-123 -10 -154.5 -42t-31.5 -142v-656q0 -180 51 -270q84 -145 301 -146q115 0 207 44.5t133 117.5q47 88 47 279v553q0 154 -37 204t-155 58v39h475v-39q-127 -16 -160 -61.5t-33 -200.5v-535q0 -219 -67 -338q-121 -211 -457 -211q-262 0 -388 128 t-126 395v639q0 113 -31.5 143.5t-152.5 40.5zM473 1546v111h637v-111h-637z" />
<glyph unicode="&#x16b;" d="M18 893v29h299v-668q0 -63 43 -109.5t103 -46.5q98 0 184 74q35 27 35 104v482q0 76 -27.5 100.5t-124.5 28.5v35h324v-703q0 -72 23.5 -94.5t93.5 -22.5h10v-28q-160 -43 -281 -92l-8 4v170l-88 -88q-88 -88 -211 -88q-113 0 -180.5 72.5t-67.5 193.5v516 q0 72 -26.5 99.5t-100.5 31.5zM182 1153v111h637v-111h-637z" />
<glyph unicode="&#x16c;" horiz-adv-x="1478" d="M29 1317v39h579v-39q-123 -10 -154.5 -42t-31.5 -142v-656q0 -180 51 -270q84 -145 301 -146q115 0 207 44.5t133 117.5q47 88 47 279v553q0 154 -37 204t-155 58v39h475v-39q-127 -16 -160 -61.5t-33 -200.5v-535q0 -219 -67 -338q-121 -211 -457 -211q-262 0 -388 128 t-126 395v639q0 113 -31.5 143.5t-152.5 40.5zM473 1743h53q47 -168 266.5 -168t266.5 168h53q0 -113 -90 -198t-229.5 -85t-229.5 85t-90 198z" />
<glyph unicode="&#x16d;" d="M18 893v29h299v-668q0 -63 43 -109.5t103 -46.5q98 0 184 74q35 27 35 104v482q0 76 -27.5 100.5t-124.5 28.5v35h324v-703q0 -72 23.5 -94.5t93.5 -22.5h10v-28q-160 -43 -281 -92l-8 4v170l-88 -88q-88 -88 -211 -88q-113 0 -180.5 72.5t-67.5 193.5v516 q0 72 -26.5 99.5t-100.5 31.5zM213 1370h59q23 -102 77 -150.5t153 -48.5q90 0 137 41t90 158h59q-37 -322 -290 -321q-150 0 -230 110q-53 78 -55 211z" />
<glyph unicode="&#x16e;" horiz-adv-x="1478" d="M29 1317v39h579v-39q-123 -10 -154.5 -42t-31.5 -142v-656q0 -180 51 -270q84 -145 301 -146q115 0 207 44.5t133 117.5q47 88 47 279v553q0 154 -37 204t-155 58v39h475v-39q-127 -16 -160 -61.5t-33 -200.5v-535q0 -219 -67 -338q-121 -211 -457 -211q-262 0 -388 128 t-126 395v639q0 113 -31.5 143.5t-152.5 40.5zM588 1632q0 84 60.5 143.5t142.5 59.5q84 0 144 -60.5t60 -144.5t-60.5 -143.5t-143.5 -59.5q-86 0 -144.5 59.5t-58.5 145.5zM657 1632.5q0 -55.5 39 -95.5t92 -40q57 0 97.5 39t40.5 94.5t-40 95t-93 39.5q-55 0 -95.5 -38.5 t-40.5 -94z" />
<glyph unicode="&#x16f;" d="M18 893v29h299v-668q0 -63 43 -109.5t103 -46.5q98 0 184 74q35 27 35 104v482q0 76 -27.5 100.5t-124.5 28.5v35h324v-703q0 -72 23.5 -94.5t93.5 -22.5h10v-28q-160 -43 -281 -92l-8 4v170l-88 -88q-88 -88 -211 -88q-113 0 -180.5 72.5t-67.5 193.5v516 q0 72 -26.5 99.5t-100.5 31.5zM297 1210q0 84 60.5 143.5t142.5 59.5q84 0 144.5 -60.5t60.5 -144.5t-60.5 -143t-144.5 -59q-86 0 -144.5 59t-58.5 145zM367 1210.5q0 -55.5 38.5 -95.5t92.5 -40q57 0 97 39t40 94.5t-40 95t-93 39.5q-55 0 -95 -38.5t-40 -94z" />
<glyph unicode="&#x170;" horiz-adv-x="1478" d="M29 1317v39h579v-39q-123 -10 -154.5 -42t-31.5 -142v-656q0 -180 51 -270q84 -145 301 -146q115 0 207 44.5t133 117.5q47 88 47 279v553q0 154 -37 204t-155 58v39h475v-39q-127 -16 -160 -61.5t-33 -200.5v-535q0 -219 -67 -338q-121 -211 -457 -211q-262 0 -388 128 t-126 395v639q0 113 -31.5 143.5t-152.5 40.5zM592 1458l323 246q51 39 95 39q78 0 77 -53q0 -41 -65 -68l-342 -164h-88zM920 1458l323 246q51 39 94 39q78 0 78 -53q0 -41 -65 -68l-342 -164h-88z" />
<glyph unicode="&#x171;" d="M18 893v29h299v-668q0 -63 43 -109.5t103 -46.5q98 0 184 74q35 27 35 104v482q0 76 -27.5 100.5t-124.5 28.5v35h324v-703q0 -72 23.5 -94.5t93.5 -22.5h10v-28q-160 -43 -281 -92l-8 4v170l-88 -88q-88 -88 -211 -88q-113 0 -180.5 72.5t-67.5 193.5v516 q0 72 -26.5 99.5t-100.5 31.5zM236 1034l301 303q47 47 86 47q72 0 71 -65q0 -47 -61 -86l-316 -199h-81zM575 1034l302 303q47 47 86 47q72 0 71 -65q0 -47 -61 -86l-316 -199h-82z" />
<glyph unicode="&#x172;" horiz-adv-x="1478" d="M29 1317v39h579v-39q-123 -10 -154.5 -42t-31.5 -142v-656q0 -180 51 -270q84 -145 301 -146q115 0 207 44.5t133 117.5q47 88 47 279v553q0 154 -37 204t-155 58v39h475v-39q-127 -16 -160 -61.5t-33 -200.5v-535q0 -219 -67 -338q-72 -127 -223 -176q-51 -18 -72 -26.5 t-55.5 -31t-51.5 -48.5q-47 -80 -47 -170q0 -57 24.5 -91t69.5 -34q57 0 111 88l39 -29q-76 -166 -211 -166q-66 0 -112 51.5t-46 124.5q0 117 74 213q27 41 78 84h-35q-262 0 -388 128t-126 395v639q0 113 -31.5 143.5t-152.5 40.5z" />
<glyph unicode="&#x173;" d="M18 893v29h299v-668q0 -63 43 -109.5t103 -46.5q98 0 184 74q35 27 35 104v482q0 76 -27.5 100.5t-124.5 28.5v35h324v-703q0 -72 23.5 -94.5t93.5 -22.5h10v-28l-59 -17q-125 -37 -197 -157q-49 -78 -49 -170q0 -57 24.5 -91t69.5 -34q57 0 111 88l39 -29 q-76 -166 -211 -166q-66 0 -112 51.5t-46 124.5q0 117 74 213q37 49 67 99v170l-88 -88q-88 -88 -211 -88q-113 0 -180.5 72.5t-67.5 193.5v516q0 72 -26.5 99.5t-100.5 31.5z" />
<glyph unicode="&#x174;" horiz-adv-x="1933" d="M10 1317v39h502v-39q-78 -4 -105.5 -17.5t-27.5 -48.5q0 -37 22 -94l295 -770l219 578l-67 168q-53 123 -86 152.5t-121 31.5v39h547v-39q-158 -2 -158 -72q0 -33 31 -104l24 -62l271 -698l256 694q33 92 33 154q0 41 -32 60.5t-110 27.5v39h406v-39q-82 -16 -112 -41 t-58 -105l-418 -1194h-31l-327 867l-316 -867h-31l-395 1100q-57 145 -95 188.5t-116 51.5zM610 1470l275 265h157l277 -265h-98l-256 162l-256 -162h-99z" />
<glyph unicode="&#x175;" horiz-adv-x="1478" d="M43 891v31h369v-31q-53 -6 -74 -20.5t-21 -47.5q0 -31 13 -61l202 -535l187 408l-41 115q-31 82 -57.5 108.5t-83.5 32.5v31h415v-31q-72 -10 -95 -24.5t-23 -49.5q0 -27 34 -121l172 -458l185 454q35 86 35 135q0 27 -18.5 40.5t-72.5 23.5v31h252v-31 q-31 -10 -43 -27.5t-41 -83.5l-282 -708q-41 -100 -57.5 -100.5t-49.5 87.5l-186 484l-230 -492q-37 -80 -51 -80q-16 0 -53 90l-276 701q-35 78 -54.5 102.5t-54.5 26.5zM426 1038l254 342h127l256 -342h-70l-250 211l-247 -211h-70z" />
<glyph unicode="&#x176;" horiz-adv-x="1478" d="M45 1317v39h573v-39q-23 -2 -51 -2q-94 -6 -94 -60q0 -39 35 -90l303 -454l293 463q29 47 29 75q0 37 -31 51.5t-111 16.5v39h449v-39q-78 -6 -133.5 -52t-149.5 -182l-303 -462v-398q0 -117 37 -148.5t174 -35.5v-39h-627v39q139 6 173 40t34 167v356l-268 393 q-154 217 -206 268.5t-126 53.5zM397 1470l275 265h157l277 -265h-98l-256 162l-256 -162h-99z" />
<glyph unicode="&#x177;" d="M29 893v29h422v-31q-66 -2 -92.5 -14.5t-26.5 -40.5q0 -31 20 -78l236 -518l198 565q8 18 9 35q0 51 -99 51v31h277v-31q-37 -4 -57.5 -23.5t-41.5 -68.5l-315 -836q-82 -221 -163 -315t-183 -94q-66 0 -109 33.5t-43 84.5q0 37 27 63.5t62 26.5q47 0 108 -22 q29 -14 51.5 -14t52 26.5t50.5 65.5q27 45 54.5 121.5t27.5 99.5q0 20 -23 76l-338 712q-24 54 -104 66zM256 1038l254 342h127l256 -342h-70l-250 211l-247 -211h-70z" />
<glyph unicode="&#x178;" horiz-adv-x="1478" d="M45 1317v39h573v-39q-23 -2 -51 -2q-94 -6 -94 -60q0 -39 35 -90l303 -454l293 463q29 47 29 75q0 37 -31 51.5t-111 16.5v39h449v-39q-78 -6 -133.5 -52t-149.5 -182l-303 -462v-398q0 -117 37 -148.5t174 -35.5v-39h-627v39q139 6 173 40t34 167v356l-268 393 q-154 217 -206 268.5t-126 53.5zM446 1604q0 39 30 69.5t69 30.5q43 0 73.5 -31t30.5 -71.5t-30.5 -70.5t-73.5 -30q-41 0 -70 30t-29 73zM854 1604q0 39 29.5 69.5t68.5 30.5q43 0 74 -31t31 -71.5t-31 -70.5t-74 -30q-41 0 -69.5 30t-28.5 73z" />
<glyph unicode="&#x179;" horiz-adv-x="1251" d="M18 0v31l895 1247h-452q-205 0 -275 -88q-47 -57 -69 -184h-54l41 350h1078v-31l-885 -1247h526q180 0 256 80q51 57 97 202h47l-49 -360h-1156zM465 1458l323 246q51 39 95 39q78 0 78 -53q0 -41 -66 -68l-342 -164h-88z" />
<glyph unicode="&#x17a;" horiz-adv-x="909" d="M55 0v31l545 829h-283q-92 0 -124.5 -33.5t-47.5 -146.5h-36l6 242h710v-31l-551 -830h283q160 0 203 54q35 45 59 170l37 -9l-29 -276h-772zM319 1032l302 303q47 47 86 47q72 0 71 -65q0 -47 -61 -86l-316 -199h-82z" />
<glyph unicode="&#x17b;" horiz-adv-x="1251" d="M18 0v31l895 1247h-452q-205 0 -275 -88q-47 -57 -69 -184h-54l41 350h1078v-31l-885 -1247h526q180 0 256 80q51 57 97 202h47l-49 -360h-1156zM539 1602q0 43 30.5 73.5t73.5 30.5q45 0 75 -30.5t30 -73.5q0 -45 -30 -75t-75 -30q-43 0 -73.5 30t-30.5 75z" />
<glyph unicode="&#x17c;" horiz-adv-x="909" d="M55 0v31l545 829h-283q-92 0 -124.5 -33.5t-47.5 -146.5h-36l6 242h710v-31l-551 -830h283q160 0 203 54q35 45 59 170l37 -9l-29 -276h-772zM365 1208q0 43 30.5 74t73.5 31q45 0 74.5 -31t29.5 -74q0 -45 -29.5 -74.5t-74.5 -29.5q-43 0 -73.5 29.5t-30.5 74.5z" />
<glyph unicode="&#x17d;" horiz-adv-x="1251" d="M18 0v31l895 1247h-452q-205 0 -275 -88q-47 -57 -69 -184h-54l41 350h1078v-31l-885 -1247h526q180 0 256 80q51 57 97 202h47l-49 -360h-1156zM289 1735h98l256 -162l256 162h98l-274 -265h-158z" />
<glyph unicode="&#x17e;" horiz-adv-x="909" d="M55 0v31l545 829h-283q-92 0 -124.5 -33.5t-47.5 -146.5h-36l6 242h710v-31l-551 -830h283q160 0 203 54q35 45 59 170l37 -9l-29 -276h-772zM152 1380h69l248 -211l250 211h69l-256 -342h-126z" />
<glyph unicode="&#x17f;" horiz-adv-x="681" d="M41 0v31q111 6 140.5 37.5t29.5 144.5v643h-107v66h107q2 123 16.5 191.5t55.5 135.5q39 70 115.5 110t172.5 40q92 0 152.5 -36t60.5 -91q0 -35 -25.5 -59.5t-60.5 -24.5q-47 0 -92 74q-49 80 -108 79q-115 0 -115 -182v-946q0 -115 33 -146.5t157 -35.5v-31h-532z" />
<glyph unicode="&#x18e;" horiz-adv-x="1251" d="M25 346h57q76 -166 170 -218t313 -52h56q170 0 198 22q16 10 17 66v506h-316q-127 0 -166 -35t-59 -162h-47v475h47q20 -125 60 -159.5t165 -34.5h316v454q0 43 -13.5 56.5t-54.5 13.5h-276q-174 0 -229.5 -39t-82.5 -176h-51l6 293h1088v-39q-115 -10 -147 -43t-32 -141 v-910q0 -109 33 -142.5t146 -41.5v-39h-1106z" />
<glyph unicode="&#x192;" d="M14 -246q0 41 27 66.5t68 25.5q35 0 54 -19.5t19 -53.5q0 -23 -18 -56q-12 -20 -12 -28q0 -27 43 -27q137 0 167 356l31 353q20 213 25 231l22 137l4 31h-227l21 64h219q25 158 55.5 249t89.5 177q86 125 227 124q72 0 123.5 -40.5t51.5 -98.5q0 -39 -28 -65.5t-67 -26.5 q-31 0 -54.5 21.5t-23.5 48.5q0 20 17 49q10 20 10 28q0 25 -41 25q-49 0 -84 -35q-29 -31 -54.5 -118t-35.5 -183l-16 -155h258l-21 -64h-246l-32 -256q-37 -285 -69 -432.5t-79 -253.5q-98 -215 -260 -215q-72 0 -118 40t-46 101z" />
<glyph unicode="&#x1a0;" horiz-adv-x="1478" d="M70 678q0 309 188 507.5t481 198.5q199 0 351 -94q27 4 53 25.5t26 38.5q0 14 -44 50t-44 77q0 37 32 67.5t69 30.5q49 0 85 -42t36 -93q0 -61 -46.5 -111.5t-119.5 -72.5q49 -35 100 -91q172 -188 172 -499q0 -309 -189.5 -504t-492.5 -195q-135 0 -263 56.5t-218 152.5 q-82 88 -129 220.5t-47 277.5zM303 674q0 -170 47 -314.5t127 -214.5q113 -100 258 -100q164 0 273 109q74 74 100 149q68 176 68 369q0 379 -175 536q-115 102 -262 103q-172 0 -293 -133q-66 -72 -104.5 -210t-38.5 -294z" />
<glyph unicode="&#x1a1;" d="M59 463q0 211 126 345t327 134q147 0 260 -78v4q63 25 64 52q0 14 -44 50t-44 77q0 37 31.5 67.5t68.5 30.5q49 0 85 -42t36 -93q0 -59 -42 -108.5t-110 -72.5q145 -135 146 -350q0 -213 -131.5 -356t-324 -143t-320.5 138t-128 345zM244 563q0 -227 90 -395 q70 -131 198 -131q115 0 180.5 98t65.5 273q0 211 -82 344t-211 133q-109 0 -175 -88.5t-66 -233.5z" />
<glyph unicode="&#x1af;" horiz-adv-x="1445" d="M29 1317v39h579v-39q-123 -10 -154.5 -42t-31.5 -142v-656q0 -223 85 -319.5t267 -96.5q115 0 207 44.5t133 117.5q47 86 47 279v553q0 154 -37 204t-155 58v39h282v-53q61 27 62 51q0 14 -44 51t-44 76q0 37 31.5 67.5t68.5 30.5q49 0 85 -42t36 -93q0 -68 -56.5 -122 t-138.5 -71v-731q0 -287 -127 -418t-397 -131q-262 0 -388 128t-126 395v639q0 113 -31.5 143.5t-152.5 40.5z" />
<glyph unicode="&#x1b0;" horiz-adv-x="1050" d="M18 893v29h299v-668q0 -63 43 -109.5t103 -46.5q80 0 149.5 43t69.5 135v482q0 76 -27.5 100.5t-124.5 28.5v35h324v-52q63 25 64 52q0 14 -44.5 50t-44.5 77q0 37 32 67.5t69 30.5q49 0 85 -42t36 -93q0 -68 -56.5 -122t-140.5 -71v-600q0 -72 23.5 -94.5t93.5 -22.5h10 v-28q-160 -43 -281 -92l-8 4v170l-88 -88q-88 -88 -211 -88q-113 0 -180.5 72.5t-67.5 193.5v516q0 72 -26.5 99.5t-100.5 31.5z" />
<glyph unicode="&#x1dd;" horiz-adv-x="909" d="M51 600q133 342 434 342q176 0 279.5 -124t103.5 -335q0 -223 -118.5 -363t-309.5 -140q-166 0 -262 116q-68 86 -88 258h631q-6 174 -62 283q-88 164 -258 164q-98 0 -170.5 -49.5t-146.5 -165.5zM299 289q20 -133 63.5 -184.5t137.5 -51.5q184 0 217 236h-418z" />
<glyph unicode="&#x1e6;" horiz-adv-x="1478" d="M66 666q0 313 197.5 515.5t504.5 202.5q137 0 279 -47q53 -20 90 -20q33 0 57.5 19.5t34.5 47.5h45l16 -432h-47q-68 166 -145 238q-123 113 -295 113q-217 0 -357 -156q-68 -76 -107.5 -206t-39.5 -273q0 -285 144.5 -450t394.5 -165q111 0 191.5 36t80.5 85v332 q0 127 -43 153q-33 20 -137 29v37h522v-37q-90 -8 -116.5 -37.5t-26.5 -120.5v-415q-61 -53 -222 -98.5t-292 -45.5q-346 0 -559 219q-170 179 -170 476zM414 1735h98l256 -162l256 162h98l-274 -265h-158z" />
<glyph unicode="&#x1e7;" d="M57 -248q0 57 46.5 113.5t154.5 136.5q-63 31 -85.5 53.5t-22.5 55.5q0 59 94 141l88 82q-102 51 -146.5 114.5t-44.5 159.5q0 139 99.5 236.5t242.5 97.5q82 0 164 -31l45 -16q59 -20 113 -21h158v-79h-170q39 -88 38 -172q0 -147 -98 -232q-98 -86 -221 -86 q-20 0 -78 6q-2 0 -39 4q-41 -12 -82 -55t-41 -74q0 -49 160 -55l264 -12q113 -4 180.5 -63.5t67.5 -155.5q0 -115 -113 -207q-172 -139 -419 -139q-145 0 -250 58t-105 140zM166 1380h70l247 -211l250 211h70l-256 -342h-127zM201 -180q0 -68 82 -109t217 -41 q174 0 280.5 55.5t106.5 143.5q0 55 -57.5 77.5t-196.5 22.5q-207 0 -332 27q-63 -76 -81.5 -108.5t-18.5 -67.5zM311 686q0 -147 58.5 -238.5t150.5 -91.5q72 0 113 50.5t41 136.5q0 127 -62 245q-51 96 -149 97q-72 0 -112 -51.5t-40 -141.5v-6z" />
<glyph unicode="&#x1ea;" horiz-adv-x="1478" d="M70 678q0 309 188 507.5t481 198.5q301 0 498 -215q172 -188 172 -499q0 -246 -123 -423t-334 -243q-131 -41 -170 -104q-47 -80 -47 -170q0 -57 24.5 -91t69.5 -34q57 0 111 88l39 -29q-76 -166 -211 -166q-66 0 -112 51.5t-46 124.5q0 117 74 213q27 41 78 84h-35 q-135 0 -263 56.5t-218 152.5q-82 88 -129 220.5t-47 277.5zM303 674q0 -170 47 -314.5t127 -214.5q113 -100 258 -100q164 0 273 109q74 74 100 149q68 176 68 369q0 379 -175 536q-115 102 -262 103q-172 0 -293 -133q-66 -72 -104.5 -210t-38.5 -294z" />
<glyph unicode="&#x1eb;" d="M59 463q0 211 126 345t327 134q197 0 324 -131t127 -332q0 -150 -70 -270.5t-186 -181.5q-154 -78 -183 -127q-49 -78 -49 -170q0 -57 24.5 -91t69.5 -34q57 0 111 88l39 -29q-76 -166 -211 -166q-66 0 -112 51.5t-46 124.5q0 117 74 213q25 35 86 93h-2q-193 0 -321 138 t-128 345zM244 563q0 -227 90 -395q70 -131 198 -131q115 0 180.5 98t65.5 273q0 211 -82 344t-211 133q-109 0 -175 -88.5t-66 -233.5z" />
<glyph unicode="&#x1f4;" horiz-adv-x="1478" d="M66 666q0 313 197.5 515.5t504.5 202.5q137 0 279 -47q53 -20 90 -20q33 0 57.5 19.5t34.5 47.5h45l16 -432h-47q-68 166 -145 238q-123 113 -295 113q-217 0 -357 -156q-68 -76 -107.5 -206t-39.5 -273q0 -285 144.5 -450t394.5 -165q111 0 191.5 36t80.5 85v332 q0 127 -43 153q-33 20 -137 29v37h522v-37q-90 -8 -116.5 -37.5t-26.5 -120.5v-415q-61 -53 -222 -98.5t-292 -45.5q-346 0 -559 219q-170 179 -170 476zM590 1458l323 246q51 39 95 39q78 0 77 -53q0 -41 -65 -68l-342 -164h-88z" />
<glyph unicode="&#x1f5;" d="M57 -248q0 57 46.5 113.5t154.5 136.5q-63 31 -85.5 53.5t-22.5 55.5q0 59 94 141l88 82q-102 51 -146.5 114.5t-44.5 159.5q0 139 99.5 236.5t242.5 97.5q82 0 164 -31l45 -16q59 -20 113 -21h158v-79h-170q39 -88 38 -172q0 -147 -98 -232q-98 -86 -221 -86 q-20 0 -78 6q-2 0 -39 4q-41 -12 -82 -55t-41 -74q0 -49 160 -55l264 -12q113 -4 180.5 -63.5t67.5 -155.5q0 -115 -113 -207q-172 -139 -419 -139q-145 0 -250 58t-105 140zM201 -180q0 -68 82 -109t217 -41q174 0 280.5 55.5t106.5 143.5q0 55 -57.5 77.5t-196.5 22.5 q-207 0 -332 27q-63 -76 -81.5 -108.5t-18.5 -67.5zM311 686q0 -147 58.5 -238.5t150.5 -91.5q72 0 113 50.5t41 136.5q0 127 -62 245q-51 96 -149 97q-72 0 -112 -51.5t-40 -141.5v-6zM334 1032l301 303q47 47 86 47q72 0 72 -65q0 -47 -62 -86l-315 -199h-82z" />
<glyph unicode="&#x1fa;" horiz-adv-x="1478" d="M31 0v39q74 4 114.5 58.5t139.5 277.5l426 1005h41l510 -1163q53 -115 83.5 -144.5t100.5 -33.5v-39h-522v39q84 0 114 18q29 14 29 49q0 49 -39 140l-84 196h-536l-95 -239q-16 -43 -16 -80q0 -84 139 -84v-39h-405zM442 526h473l-237 564zM528 1632q0 84 59.5 143.5 t143.5 59.5t144.5 -60.5t60.5 -144.5t-60.5 -143.5t-144.5 -59.5q-86 0 -144.5 59.5t-58.5 145.5zM553 1876l324 246q51 39 94 39q78 0 78 -54q0 -41 -66 -67l-342 -164h-88zM598 1632.5q0 -55.5 39 -95.5t92 -40q57 0 97 39t40 94.5t-40 95t-93 39.5q-55 0 -95 -38.5 t-40 -94z" />
<glyph unicode="&#x1fb;" horiz-adv-x="909" d="M76 199q0 111 74 178q66 57 132 91t306 130v125q0 170 -156 170q-61 0 -104 -29.5t-43 -70.5q0 -23 6 -50q4 -29 4 -32q0 -35 -27.5 -60.5t-64.5 -25.5t-62.5 26.5t-25.5 61.5q0 84 84 153q92 76 260 76q190 0 256 -119q39 -63 39 -209v-399q0 -68 13 -93.5t48 -25.5 q43 0 90 39v-53q-53 -59 -93 -80.5t-91 -21.5q-63 0 -93 33.5t-38 115.5q-176 -150 -299 -149q-94 0 -154.5 61.5t-60.5 157.5zM256 256q0 -66 38 -112t91 -46q72 0 150 45q33 20 43 41t10 68v297q-184 -68 -258 -131.5t-74 -153.5v-8zM256 1198q0 84 60.5 143.5t142.5 59.5 q84 0 144.5 -60.5t60.5 -144.5t-60.5 -143.5t-144.5 -59.5q-86 0 -144.5 59.5t-58.5 145.5zM281 1442l323 246q51 39 94 38q78 0 78 -53q0 -41 -65 -67l-342 -164h-88zM326 1198q0 -55 38.5 -95t92.5 -40q57 0 97 39t40 94t-40 95t-93 40q-55 0 -95 -39t-40 -94z" />
<glyph unicode="&#x1fc;" horiz-adv-x="1820" d="M0 0v39q66 8 97.5 36.5t82.5 123.5l502 991q18 35 18 57q0 33 -42 48.5t-142 19.5v41h1155v-289h-47q-14 98 -45 140t-101.5 58.5t-226.5 16.5h-178q-55 0 -55 -61v-471h227q186 0 234 61q27 39 37 137h43v-479h-43q-12 106 -41 147q-41 57 -160 58h-297v-488 q0 -76 20.5 -92t120.5 -16h156q166 0 240.5 49t162.5 217h49l-90 -344h-1044v39l35 4q92 10 119.5 44t27.5 134v311h-360l-58 -108q-131 -256 -131 -324q0 -49 140 -61h2v-39h-408zM489 612h326v654zM731 1458l324 246q51 39 94 39q78 0 78 -53q0 -41 -66 -68l-342 -164h-88 z" />
<glyph unicode="&#x1fd;" horiz-adv-x="1366" d="M78 205q0 92 70.5 160.5t234.5 136.5l176 73l4 130q4 88 -24 141q-23 47 -103 47q-63 0 -105 -31t-34 -71l2 -13v-22l2 -35q2 -45 -21.5 -71.5t-66.5 -26.5q-41 0 -65.5 26.5t-24.5 71.5q0 94 94 157.5t234 63.5q133 0 239 -92q70 53 122 72.5t122 19.5q156 0 233.5 -88 t94.5 -287h-537q2 -152 12.5 -220t42.5 -128q27 -47 79 -74.5t116 -27.5q88 0 154.5 45t140.5 153l24 -10q-74 -160 -149 -227q-111 -98 -254 -98q-166 0 -264 149q-104 -86 -170 -117.5t-142 -31.5q-104 0 -170.5 62.5t-66.5 162.5zM256 256q0 -74 40 -126t97.5 -52t133 37 t75.5 65l-2 6q-39 111 -39 226v106q-186 -68 -245.5 -119t-59.5 -143zM532 1032l302 303q47 47 86 47q72 0 71 -65q0 -47 -61 -86l-316 -199h-82zM727 629h340q-4 133 -42 193.5t-120 60.5q-88 0 -129 -59.5t-49 -194.5z" />
<glyph unicode="&#x1fe;" horiz-adv-x="1478" d="M70 676q0 311 188 509.5t483 198.5q180 0 359 -100l147 219h101l-181 -266q111 -102 156 -190q86 -160 86 -369q0 -311 -188.5 -509t-485.5 -198q-186 0 -358 103l-162 -238h-100l194 285q-109 98 -155 190q-84 162 -84 365zM303 676q0 -246 94 -424l631 926 q-127 133 -289 133q-201 0 -318.5 -171t-117.5 -464zM449 180q123 -135 290 -135q203 0 320 169t117 462q0 246 -97 430zM563 1458l324 246q51 39 94 39q78 0 78 -53q0 -41 -66 -68l-342 -164h-88z" />
<glyph unicode="&#x1ff;" d="M59 465q0 209 126 343t325 134q90 0 188 -37l117 223h80l-133 -256q82 -59 123 -118q78 -123 78 -275q0 -213 -131.5 -356t-325.5 -143q-96 0 -191 43l-133 -252h-76l150 286q-86 68 -129 142q-68 123 -68 266zM244 565q0 -209 80 -377l325 623q-76 74 -164 74 q-109 0 -175 -88.5t-66 -231.5zM303 1032l301 303q47 47 86 47q72 0 72 -65q0 -47 -62 -86l-315 -199h-82zM367 123q72 -86 168 -86q115 0 179 100.5t64 278.5t-82 334z" />
<glyph unicode="&#x200;" horiz-adv-x="1478" d="M31 0v39q74 4 114.5 58.5t139.5 277.5l426 1005h41l510 -1163q53 -115 83.5 -144.5t100.5 -33.5v-39h-522v39q84 0 114 18q29 14 29 49q0 49 -39 140l-84 196h-536l-95 -239q-16 -43 -16 -80q0 -84 139 -84v-39h-405zM109 1690q0 53 77 53q43 0 95 -39l323 -246h-88 l-342 164q-65 27 -65 68zM436 1690q0 53 78 53q43 0 94 -39l324 -246h-88l-342 164q-66 27 -66 68zM442 526h473l-237 564z" />
<glyph unicode="&#x201;" horiz-adv-x="909" d="M-74 1319q0 66 72 65q39 0 86 -47l301 -303h-82l-315 199q-62 39 -62 86zM76 199q0 111 74 178q66 57 132 91t306 130v125q0 170 -156 170q-61 0 -104 -29.5t-43 -70.5q0 -23 6 -50q4 -29 4 -32q0 -35 -27.5 -60.5t-64.5 -25.5t-62.5 26.5t-25.5 61.5q0 84 84 153 q92 76 260 76q190 0 256 -119q39 -63 39 -209v-399q0 -68 13 -93.5t48 -25.5q43 0 90 39v-53q-53 -59 -93 -80.5t-91 -21.5q-63 0 -93 33.5t-38 115.5q-176 -150 -299 -149q-94 0 -154.5 61.5t-60.5 157.5zM256 256q0 -66 38 -112t91 -46q72 0 150 45q33 20 43 41t10 68v297 q-184 -68 -258 -131.5t-74 -153.5v-8zM266 1319q0 66 72 65q39 0 86 -47l301 -303h-82l-315 199q-62 39 -62 86z" />
<glyph unicode="&#x204;" horiz-adv-x="1251" d="M-45 1690q0 53 78 53q43 0 94 -39l324 -246h-89l-342 164q-65 27 -65 68zM25 0v39q113 8 145.5 42t32.5 142v910q0 109 -32 141.5t-146 42.5v39h1087l6 -293h-51q-27 137 -82 176t-229 39h-277q-41 0 -54 -13.5t-13 -56.5v-454h315q125 0 165 34.5t60 159.5h47v-475h-47 q-20 127 -59 162t-166 35h-315v-506q0 -55 16 -66q29 -23 199 -22h55q219 0 313.5 52t169.5 218h58l-93 -346h-1105zM283 1690q0 53 77 53q43 0 95 -39l323 -246h-88l-342 164q-65 27 -65 68z" />
<glyph unicode="&#x205;" horiz-adv-x="909" d="M-53 1319q0 66 71 65q39 0 86 -47l302 -303h-82l-316 199q-61 39 -61 86zM51 438q0 223 119 363.5t309 140.5q164 0 262 -117q68 -86 88 -258h-630q6 -174 61 -282q88 -164 258 -164q98 0 171 49t147 166l32 -14q-133 -342 -434 -342q-176 0 -279.5 123.5t-103.5 334.5z M203 633h418q-20 133 -63.5 184t-137.5 51q-184 1 -217 -235zM287 1319q0 66 71 65q39 0 86 -47l301 -303h-81l-316 199q-61 39 -61 86z" />
<glyph unicode="&#x208;" horiz-adv-x="681" d="M-283 1690q0 53 78 53q43 0 94 -39l324 -246h-88l-342 164q-66 27 -66 68zM37 0v39q129 4 164 37t35 147v910q0 113 -34 144.5t-165 39.5v39h608v-39q-129 -6 -165 -39t-36 -145v-910q0 -113 37 -146.5t164 -37.5v-39h-608zM45 1690q0 53 78 53q43 0 94 -39l324 -246h-88 l-342 164q-66 27 -66 68z" />
<glyph unicode="&#x209;" horiz-adv-x="569" d="M-252 1319q0 66 72 65q39 0 86 -47l301 -303h-82l-315 199q-62 39 -62 86zM33 0v31q106 6 134 36.5t28 141.5v475q0 68 -15.5 95.5t-52.5 27.5q-33 0 -70 -6l-16 -2v30l317 113l9 -6v-727q0 -111 25.5 -140.5t125.5 -37.5v-31h-485zM88 1319q0 66 72 65q39 0 86 -47 l301 -303h-82l-315 199q-62 39 -62 86z" />
<glyph unicode="&#x20c;" horiz-adv-x="1478" d="M70 678q0 309 188 507.5t481 198.5q301 0 498 -215q172 -188 172 -499q0 -309 -189.5 -504t-492.5 -195q-135 0 -263 56.5t-218 152.5q-82 88 -129 220.5t-47 277.5zM117 1690q0 53 78 53q43 0 94 -39l323 -246h-88l-342 164q-65 27 -65 68zM303 674q0 -170 47 -314.5 t127 -214.5q113 -100 258 -100q164 0 273 109q74 74 100 149q68 176 68 369q0 379 -175 536q-115 102 -262 103q-172 0 -293 -133q-66 -72 -104.5 -210t-38.5 -294zM444 1690q0 53 78 53q43 0 94 -39l324 -246h-88l-342 164q-66 27 -66 68z" />
<glyph unicode="&#x20d;" d="M-20 1319q0 66 71 65q39 0 86 -47l301 -303h-82l-315 199q-61 39 -61 86zM59 463q0 211 126 345t327 134q197 0 324 -131t127 -332q0 -213 -131.5 -356t-324 -143t-320.5 138t-128 345zM244 563q0 -227 90 -395q70 -131 198 -131q115 0 180.5 98t65.5 273q0 211 -82 344 t-211 133q-109 0 -175 -88.5t-66 -233.5zM319 1319q0 66 72 65q39 0 86 -47l301 -303h-82l-315 199q-62 39 -62 86z" />
<glyph unicode="&#x210;" horiz-adv-x="1366" d="M-20 1690q0 53 77 53q43 0 95 -39l323 -246h-88l-342 164q-65 27 -65 68zM35 0v39q115 8 144.5 44t29.5 163v887q0 109 -29.5 140.5t-144.5 43.5v39h565q143 0 262 -37t178 -100q80 -90 80 -224q0 -152 -104 -235q-88 -72 -266 -107l421 -518q43 -51 81 -71.5t98 -24.5 v-39h-330l-488 631l-114 -4v-404q0 -111 32.5 -143.5t151.5 -40.5v-39h-567zM307 1690q0 53 78 53q43 0 94 -39l324 -246h-88l-342 164q-66 27 -66 68zM418 702q150 4 221.5 17.5t140.5 52.5q117 61 117 227q0 143 -91 212t-284 69q-61 0 -82.5 -15.5t-21.5 -58.5v-504z" />
<glyph unicode="&#x211;" horiz-adv-x="681" d="M-205 1319q0 66 72 65q39 0 86 -47l301 -303h-82l-315 199q-62 39 -62 86zM10 0v31q98 18 122 40.5t24 100.5v512q0 68 -15.5 95.5t-54.5 27.5q-33 0 -72 -8v32q164 53 303 111l11 -4v-188q76 109 129 150.5t116 41.5q53 0 83 -28.5t30 -79.5q0 -43 -21.5 -68t-58.5 -25 q-35 0 -82 41q-33 31 -53 31q-41 0 -92 -59.5t-51 -108.5v-461q0 -88 34.5 -118.5t139.5 -34.5v-31h-492zM135 1319q0 66 72 65q39 0 86 -47l301 -303h-82l-315 199q-62 39 -62 86z" />
<glyph unicode="&#x214;" horiz-adv-x="1478" d="M29 1317v39h579v-39q-123 -10 -154.5 -42t-31.5 -142v-656q0 -180 51 -270q84 -145 301 -146q115 0 207 44.5t133 117.5q47 88 47 279v553q0 154 -37 204t-155 58v39h475v-39q-127 -16 -160 -61.5t-33 -200.5v-535q0 -219 -67 -338q-121 -211 -457 -211q-262 0 -388 128 t-126 395v639q0 113 -31.5 143.5t-152.5 40.5zM168 1690q0 53 78 53q43 0 94 -39l324 -246h-89l-342 164q-65 27 -65 68zM496 1690q0 53 77 53q43 0 95 -39l323 -246h-88l-342 164q-65 27 -65 68z" />
<glyph unicode="&#x215;" d="M-33 1319q0 66 72 65q39 0 86 -47l301 -303h-82l-315 199q-62 39 -62 86zM18 893v29h299v-668q0 -63 43 -109.5t103 -46.5q98 0 184 74q35 27 35 104v482q0 76 -27.5 100.5t-124.5 28.5v35h324v-703q0 -72 23.5 -94.5t93.5 -22.5h10v-28q-160 -43 -281 -92l-8 4v170 l-88 -88q-88 -88 -211 -88q-113 0 -180.5 72.5t-67.5 193.5v516q0 72 -26.5 99.5t-100.5 31.5zM307 1319q0 66 72 65q39 0 86 -47l301 -303h-82l-315 199q-62 39 -62 86z" />
<glyph unicode="&#x218;" horiz-adv-x="1138" d="M86 408h47q78 -188 177.5 -275.5t236.5 -87.5q113 0 182.5 63.5t69.5 165.5q0 76 -29 121q-76 115 -305 240q-172 90 -246 182t-74 215q0 168 119 266q106 86 232 86q102 0 221 -45q55 -25 90 -24q53 0 65 69h43l46 -436h-52q-41 154 -125 240q-109 113 -249 112 q-96 0 -154.5 -52t-58.5 -136t69.5 -157.5t231.5 -161.5q203 -111 293 -216.5t90 -232.5q0 -158 -120 -265.5t-298 -107.5q-123 0 -242 47q-61 23 -96 23q-23 0 -39 -19.5t-18 -48.5h-46zM393 -195q0 51 34 84t87 33q70 0 117 -52t47 -130q0 -92 -63.5 -178t-165.5 -137 l-19 38q168 115 168 218q0 29 -29 28l-16 -4q-25 -4 -39 -4q-55 0 -88 27.5t-33 76.5z" />
<glyph unicode="&#x219;" horiz-adv-x="796" d="M104 688q0 113 79 182.5t204 69.5q76 0 139 -25q31 -14 56 -14q8 0 28 17l4 4h23l8 -279h-31q-35 137 -86 194.5t-139 57.5q-72 0 -115 -38t-43 -101q0 -88 88 -140l222 -131q94 -55 133 -110.5t39 -132.5q0 -106 -85 -184t-202 -78q-55 0 -152 20q-66 16 -94 16 q-31 0 -47 -24h-27v319h33q35 -156 94.5 -221t165.5 -65q78 0 124 39.5t46 107.5q0 92 -106 154l-119 67q-131 76 -185.5 142.5t-54.5 152.5zM246 -195q0 51 33.5 84t87.5 33q70 0 116.5 -52t46.5 -130q0 -92 -63.5 -178t-165.5 -137l-18 38q168 115 168 218q0 29 -29 28 l-16 -4q-25 -4 -39 -4q-55 0 -88 27.5t-33 76.5z" />
<glyph unicode="&#x21a;" horiz-adv-x="1251" d="M35 1008l12 348h1155l12 -348h-49q-35 170 -93 216t-232 46h-111v-1047q0 -113 35 -145.5t162 -38.5v-39h-598v39q127 8 159.5 42t32.5 165v1024h-110q-172 0 -230.5 -47t-95.5 -215h-49zM483 -195q0 51 34 84t87 33q70 0 117 -52t47 -130q0 -92 -63.5 -178t-165.5 -137 l-19 38q168 115 168 218q0 29 -29 28l-16 -4q-25 -4 -39 -4q-55 0 -88 27.5t-33 76.5z" />
<glyph unicode="&#x21b;" horiz-adv-x="569" d="M27 870q0 16 34 39q84 49 199 219q29 37 41 58q14 0 14 -27v-237h207v-66h-207v-586q0 -98 25 -141t82 -43q61 0 123 72l26 -23q-98 -156 -247 -155q-180 0 -181 260v616h-108q-8 6 -8 14zM174 -195q0 51 34 84t87 33q70 0 117 -52t47 -130q0 -92 -63.5 -178t-166.5 -137 l-18 38q168 115 168 218q0 29 -29 28l-16 -4q-25 -4 -39 -4q-55 0 -88 27.5t-33 76.5z" />
<glyph unicode="&#x258;" horiz-adv-x="909" d="M51 322l33 14q74 -117 146.5 -166t170.5 -49q170 0 258 164q55 109 62 282h-631q20 172 88 258q96 117 262 117q190 0 309 -140t119 -364q0 -211 -103 -334.5t-280 -123.5q-301 0 -434 342zM299 633h418q-33 236 -217 235q-94 0 -137.5 -51t-63.5 -184z" />
<glyph unicode="&#x259;" horiz-adv-x="909" d="M51 600q133 342 434 342q176 0 279.5 -124t103.5 -335q0 -223 -118.5 -363t-309.5 -140q-166 0 -262 116q-68 86 -88 258h631q-6 174 -62 283q-88 164 -258 164q-98 0 -170.5 -49.5t-146.5 -165.5zM299 289q20 -133 63.5 -184.5t137.5 -51.5q184 0 217 236h-418z" />
<glyph unicode="&#x2be;" horiz-adv-x="724" d="M84 1108q61 119 117 164q76 59 166 59q121 0 198.5 -90t77.5 -229q0 -182 -121 -281q-90 -74 -194 -74q-92 0 -160 47.5t-68 110.5q0 29 25 51.5t57 22.5q61 0 80 -76l8 -31q10 -31 23.5 -42t42.5 -11q76 0 123 61.5t47 159.5q0 111 -54.5 180.5t-142.5 69.5 q-53 0 -92 -26.5t-86 -94.5q-10 -10 -22 -4l-19 12q-14 9 -6 21z" />
<glyph unicode="&#x2bf;" horiz-adv-x="724" d="M82 977q0 182 121 280q90 74 194 74q92 0 160 -47t68 -110q0 -29 -25 -51.5t-57 -22.5q-61 0 -80 76l-8 30q-10 31 -23.5 42.5t-42.5 11.5q-76 0 -123 -61.5t-47 -160.5q0 -111 54.5 -180.5t142.5 -69.5q53 0 92 27t86 94q10 10 22 4l19 -12q14 -8 6 -20 q-61 -119 -117 -164q-76 -59 -166 -60q-121 0 -198.5 90.5t-77.5 229.5z" />
<glyph unicode="&#x2c6;" horiz-adv-x="681" d="M23 1038l253 342h127l256 -342h-69l-250 211l-248 -211h-69z" />
<glyph unicode="&#x2c7;" horiz-adv-x="681" d="M23 1380h69l248 -211l250 211h69l-256 -342h-127z" />
<glyph unicode="&#x2d8;" horiz-adv-x="681" d="M53 1370h60q23 -102 77 -150.5t152 -48.5q90 0 137 41t90 158h60q-37 -322 -291 -321q-150 0 -229 110q-54 78 -56 211z" />
<glyph unicode="&#x2d9;" horiz-adv-x="681" d="M236 1208q0 43 30.5 74t73.5 31q45 0 74.5 -31t29.5 -74q0 -45 -29.5 -74.5t-74.5 -29.5q-43 0 -73.5 29.5t-30.5 74.5z" />
<glyph unicode="&#x2da;" horiz-adv-x="681" d="M137 1210q0 84 60.5 143.5t142.5 59.5q84 0 144.5 -60.5t60.5 -144.5t-60.5 -143t-144.5 -59q-86 0 -144.5 59t-58.5 145zM207 1210.5q0 -55.5 39 -95.5t92 -40q57 0 97 39t40 94.5t-40 95t-93 39.5q-55 0 -95 -38.5t-40 -94z" />
<glyph unicode="&#x2db;" horiz-adv-x="681" d="M166 -326q0 117 74 213q51 72 157 148h60q-166 -152 -166 -305q0 -57 24.5 -91t69.5 -34q57 0 111 88l39 -29q-76 -166 -211 -166q-66 0 -112 51t-46 125z" />
<glyph unicode="&#x2dc;" horiz-adv-x="681" d="M2 1100q23 100 76 153.5t131 53.5q74 0 143 -37l49 -25q66 -31 109 -31q35 0 58.5 23t49.5 80h60q-33 -117 -82 -167t-133 -50q-66 0 -166 49l-47 22q-49 23 -84 23q-72 0 -105 -94h-59z" />
<glyph unicode="&#x2dd;" horiz-adv-x="681" d="M76 1034l301 303q47 47 86 47q72 0 72 -65q0 -47 -62 -86l-315 -199h-82zM416 1034l301 303q47 47 86 47q72 0 71 -65q0 -47 -61 -86l-315 -199h-82z" />
<glyph unicode="&#x300;" horiz-adv-x="0" d="M-762 1317q0 66 72 65q39 0 86 -47l301 -303h-82l-315 199q-62 39 -62 86z" />
<glyph unicode="&#x301;" horiz-adv-x="0" d="M-604 1032l301 303q47 47 86 47q72 0 72 -65q0 -47 -62 -86l-315 -199h-82z" />
<glyph unicode="&#x302;" horiz-adv-x="0" d="M-772 1038l254 342h127l256 -342h-70l-250 211l-247 -211h-70z" />
<glyph unicode="&#x303;" horiz-adv-x="0" d="M-793 1100q23 100 76 153.5t131 53.5q74 0 144 -37l49 -25q66 -31 108 -31q35 0 58.5 23t50.5 80h59q-33 -117 -82 -167t-133 -50q-66 0 -166 49l-47 22q-49 23 -84 23q-72 0 -104 -94h-60z" />
<glyph unicode="&#x304;" horiz-adv-x="0" d="M-772 1153v111h637v-111h-637z" />
<glyph unicode="&#x306;" horiz-adv-x="0" d="M-741 1370h59q23 -102 77 -150.5t152 -48.5q90 0 137.5 41t90.5 158h59q-37 -322 -291 -321q-150 0 -229 110q-53 78 -55 211z" />
<glyph unicode="&#x307;" horiz-adv-x="0" d="M-559 1208q0 43 30.5 74t73.5 31q45 0 75 -31t30 -74q0 -45 -30 -74.5t-75 -29.5q-43 0 -73.5 29.5t-30.5 74.5z" />
<glyph unicode="&#x308;" horiz-adv-x="0" d="M-758 1210q0 39 30 70t69 31q43 0 73.5 -31t30.5 -72t-30.5 -70.5t-73.5 -29.5q-41 0 -70 29.5t-29 72.5zM-350 1210q0 39 29.5 70t68.5 31q43 0 74 -31t31 -72t-31 -70.5t-74 -29.5q-41 0 -69.5 29.5t-28.5 72.5z" />
<glyph unicode="&#x309;" horiz-adv-x="0" d="M-655 1292q0 47 56 78t142 31q111 0 164 -45q41 -37 41 -74q0 -53 -86 -121q-76 -59 -86 -82q-12 -20 -20 -61h-48q2 70 68 162q47 53 47 96q0 86 -102 86q-47 0 -72 -21q-12 -6 -12 -16q0 -2 17.5 -26.5t17.5 -32.5q0 -39 -58 -39q-69 -1 -69 65z" />
<glyph unicode="&#x30a;" horiz-adv-x="0" d="M-657 1210q0 84 60 143.5t142 59.5q84 0 144.5 -60.5t60.5 -144.5t-60.5 -143t-144.5 -59q-86 0 -144 59t-58 145zM-588 1210.5q0 -55.5 39 -95.5t92 -40q57 0 97.5 39t40.5 94.5t-40 95t-94 39.5q-55 0 -95 -38.5t-40 -94z" />
<glyph unicode="&#x30b;" horiz-adv-x="0" d="M-719 1034l301 303q47 47 86 47q72 0 72 -65q0 -47 -62 -86l-315 -199h-82zM-379 1034l301 303q47 47 86 47q72 0 72 -65q0 -47 -62 -86l-315 -199h-82z" />
<glyph unicode="&#x30c;" horiz-adv-x="0" d="M-772 1380h70l247 -211l250 211h70l-256 -342h-127z" />
<glyph unicode="&#x30f;" horiz-adv-x="0" d="M-987 1319q0 66 72 65q39 0 86 -47l301 -303h-82l-316 199q-61 39 -61 86zM-647 1319q0 66 72 65q39 0 86 -47l301 -303h-82l-316 199q-61 39 -61 86z" />
<glyph unicode="&#x311;" horiz-adv-x="0" d="M-741 1049q37 322 290 321q150 0 230 -110q53 -78 55 -211h-59q-23 102 -77 150t-153 48q-90 0 -137 -41t-90 -157h-59z" />
<glyph unicode="&#x323;" horiz-adv-x="0" d="M-559 -287q0 43 30.5 74t73.5 31q45 0 75 -31t30 -74q0 -45 -30 -74.5t-75 -29.5q-43 0 -73.5 29.5t-30.5 74.5z" />
<glyph unicode="&#x326;" horiz-adv-x="0" d="M-596 -195q0 51 34 84t87 33q70 0 117 -52t47 -130q0 -92 -63.5 -178t-166.5 -137l-18 38q168 115 168 218q0 29 -29 28l-16 -4q-25 -4 -39 -4q-55 0 -88 27.5t-33 76.5z" />
<glyph unicode="&#x32e;" horiz-adv-x="0" d="M-772 -145h53q47 -168 266.5 -168t266.5 168h53q0 -113 -90 -198t-229.5 -85t-229.5 85t-90 198z" />
<glyph unicode="&#x32f;" horiz-adv-x="0" d="M-772 -428q0 113 90 198t229.5 85t229.5 -85t90 -198h-53q-47 168 -266.5 168t-266.5 -168h-53z" />
<glyph unicode="&#x330;" horiz-adv-x="0" d="M-793 -395q23 100 76 153.5t131 53.5q74 0 144 -37l49 -25q66 -31 108 -31q35 0 58.5 22.5t50.5 80.5h59q-33 -117 -82 -167t-133 -50q-66 0 -166 49l-47 22q-49 23 -84 23q-72 0 -104 -94h-60z" />
<glyph unicode="&#x331;" horiz-adv-x="0" d="M-772 -231h637v-111h-637v111z" />
<glyph unicode="&#x332;" horiz-adv-x="0" d="M-772 -231h637v-111h-637v111z" />
<glyph unicode="&#x391;" horiz-adv-x="1478" d="M31 0v39q74 4 114.5 58.5t139.5 277.5l426 1005h41l510 -1163q53 -115 83.5 -144.5t100.5 -33.5v-39h-522v39q84 0 114 18q29 14 29 49q0 49 -39 140l-84 196h-536l-95 -239q-16 -43 -16 -80q0 -84 139 -84v-39h-405zM442 526h473l-237 564z" />
<glyph unicode="&#x392;" horiz-adv-x="1366" d="M35 0v39q127 4 161.5 37t34.5 147v910q0 113 -33.5 144.5t-162.5 39.5v39h573q537 0 537 -348q0 -133 -82 -205q-66 -57 -199 -90q100 -25 152.5 -48.5t97.5 -64.5q100 -94 100 -231q0 -154 -114 -256q-123 -113 -381 -113h-684zM440 160q0 -49 27 -66.5t102 -17.5 q190 0 285 53q125 72 125 238q0 188 -172 260q-98 41 -367 41v-508zM440 750h195q143 0 222 64.5t79 184.5q0 137 -92 209t-269 72h-90q-45 0 -45 -61v-469z" />
<glyph unicode="&#x393;" horiz-adv-x="1138" d="M25 0v39q117 8 147.5 44t30.5 163v887q0 109 -33 142.5t-145 41.5v39h1087l6 -293h-51q-27 137 -82 176t-229 39h-279q-41 0 -53 -13.5t-12 -56.5v-985q0 -111 33.5 -144.5t152.5 -39.5v-39h-573z" />
<glyph unicode="&#x394;" horiz-adv-x="1349" d="M53 0l613 1497h30l600 -1497h-1243zM213 217h768l-379 957z" />
<glyph unicode="&#x395;" horiz-adv-x="1251" d="M25 0v39q113 8 145.5 42t32.5 142v910q0 109 -32 141.5t-146 42.5v39h1087l6 -293h-51q-27 137 -82 176t-229 39h-277q-41 0 -54 -13.5t-13 -56.5v-454h315q125 0 165 34.5t60 159.5h47v-475h-47q-20 127 -59 162t-166 35h-315v-506q0 -55 16 -66q29 -23 199 -22h55 q219 0 313.5 52t169.5 218h58l-93 -346h-1105z" />
<glyph unicode="&#x396;" horiz-adv-x="1251" d="M18 0v31l895 1247h-452q-205 0 -275 -88q-47 -57 -69 -184h-54l41 350h1078v-31l-885 -1247h526q180 0 256 80q51 57 97 202h47l-49 -360h-1156z" />
<glyph unicode="&#x397;" horiz-adv-x="1478" d="M39 0v39q119 8 149.5 43t30.5 164v887q0 111 -30.5 142.5t-149.5 41.5v39h569v-39q-119 -10 -149.5 -42t-30.5 -142v-398h621v398q0 111 -31 142.5t-150 41.5v39h570v-39q-119 -10 -150 -42t-31 -142v-910q0 -109 33 -141.5t148 -42.5v-39h-570v39q119 8 150 43t31 164 v399h-621v-422q0 -109 33 -141.5t147 -42.5v-39h-569z" />
<glyph unicode="&#x398;" horiz-adv-x="1478" d="M70 678q0 309 188 507.5t481 198.5q301 0 498 -215q172 -188 172 -499q0 -309 -189.5 -504t-492.5 -195q-135 0 -263 56.5t-218 152.5q-82 88 -129 220.5t-47 277.5zM303 674q0 -170 47 -314.5t127 -214.5q113 -100 258 -100q164 0 273 109q74 74 100 149q68 176 68 369 q0 379 -175 536q-115 102 -262 103q-172 0 -293 -133q-66 -72 -104.5 -210t-38.5 -294zM500 436h37q0 86 35.5 123t123.5 37h84q90 0 126 -36t36 -124h39v484h-39q0 -86 -36 -123t-124 -37h-82q-92 0 -125.5 34.5t-37.5 125.5h-37v-484z" />
<glyph unicode="&#x399;" horiz-adv-x="681" d="M37 0v39q129 4 164 37t35 147v910q0 113 -34 144.5t-165 39.5v39h608v-39q-129 -6 -165 -39t-36 -145v-910q0 -113 37 -146.5t164 -37.5v-39h-608z" />
<glyph unicode="&#x39a;" horiz-adv-x="1478" d="M70 0v39q121 8 152.5 44t31.5 163v887q0 109 -33 142.5t-151 41.5v39h581v-39q-125 -8 -156.5 -40t-31.5 -144v-420l362 329q160 147 160 211q0 31 -19.5 44.5t-66.5 17.5q-29 0 -53 2v39h536v-39q-104 -8 -155 -34t-156 -126l-389 -385l477 -512q139 -150 190.5 -184.5 t131.5 -36.5v-39h-625v39q25 2 57 2q86 4 86 45q0 37 -74.5 135t-191.5 213l-217 215l-53 -43v-383q0 -113 32.5 -144.5t151.5 -39.5v-39h-577z" />
<glyph unicode="&#x39b;" horiz-adv-x="1478" d="M31 0v39q74 4 114.5 58.5t139.5 277.5l426 1005h41l510 -1163q53 -115 83.5 -144.5t100.5 -33.5v-39h-522v39q84 0 114 18q29 14 29 49q0 49 -39 140l-350 844l-365 -887q-16 -43 -16 -80q0 -84 139 -84v-39h-405z" />
<glyph unicode="&#x39c;" horiz-adv-x="1820" d="M25 0v39q127 8 162.5 56t35.5 206v832q0 113 -33.5 144.5t-160.5 39.5v39h405l473 -1034l453 1034h407v-39q-115 -10 -146.5 -43t-31.5 -141v-910q0 -109 33 -142.5t145 -41.5v-39h-573v39q121 8 153.5 44t32.5 163v928l-524 -1174h-29l-514 1126v-825q0 -156 37 -206 t156 -56v-39h-481z" />
<glyph unicode="&#x39d;" horiz-adv-x="1478" d="M25 0v39q127 8 162.5 56t35.5 206v903q-61 72 -97 92.5t-101 20.5v39h350l788 -991v690q0 188 -59 229q-43 25 -137 33v39h481v-39q-98 -10 -135 -37q-59 -41 -60 -225v-1078h-34l-906 1127v-803q0 -156 37 -206t156 -56v-39h-481z" />
<glyph unicode="&#x39e;" horiz-adv-x="1316" d="M80 0v381h37v-25q0 -90 64.5 -134t154.5 -44h657q111 0 159 37t48 141v25h39v-381h-1159zM121 1026v330h1075v-330h-39q0 82 -50 119t-155 37h-594q-199 0 -198 -156h-39zM305 451v448h37q0 -92 42 -118.5t144 -26.5h260q102 0 144.5 27.5t42.5 117.5h37v-448h-37 q-2 90 -41 118.5t-146 28.5h-260q-106 0 -146 -29.5t-40 -117.5h-37z" />
<glyph unicode="&#x39f;" horiz-adv-x="1478" d="M70 678q0 309 188 507.5t481 198.5q301 0 498 -215q172 -188 172 -499q0 -309 -189.5 -504t-492.5 -195q-135 0 -263 56.5t-218 152.5q-82 88 -129 220.5t-47 277.5zM303 674q0 -170 47 -314.5t127 -214.5q113 -100 258 -100q164 0 273 109q74 74 100 149q68 176 68 369 q0 379 -175 536q-115 102 -262 103q-172 0 -293 -133q-66 -72 -104.5 -210t-38.5 -294z" />
<glyph unicode="&#x3a0;" horiz-adv-x="1478" d="M39 0v39q119 8 149.5 43t30.5 164v887q0 111 -30.5 142.5t-149.5 41.5v39h1399v-39q-119 -10 -150 -42t-31 -142v-910q0 -109 33 -141.5t148 -42.5v-39h-570v39q119 8 150 43t31 164v887q0 111 -31 142.5t-150 41.5h-260q-119 -10 -149.5 -42t-30.5 -142v-910 q0 -109 33 -141.5t147 -42.5v-39h-569z" />
<glyph unicode="&#x3a1;" horiz-adv-x="1138" d="M33 0v39q117 10 144.5 44t27.5 163v887q0 111 -29 141.5t-143 42.5v39h540q145 0 268.5 -40t184.5 -108q84 -90 84 -223q0 -102 -52 -189t-145 -137q-125 -70 -358 -69q-61 0 -141 6v-373q0 -113 35.5 -146.5t156.5 -37.5v-39h-573zM414 678q70 -6 116 -6q356 0 357 301 q0 158 -98.5 232.5t-305.5 74.5q-41 0 -55 -14.5t-14 -55.5v-532z" />
<glyph unicode="&#x3a3;" horiz-adv-x="1337" d="M41 0l444 633l-428 723h1104l19 -256h-50q-23 100 -57 139q-55 53 -239 53h-496l348 -573l-371 -545h605q158 0 220 28.5t107 123.5h47l-98 -326h-1155z" />
<glyph unicode="&#x3a4;" horiz-adv-x="1251" d="M35 1008l12 348h1155l12 -348h-49q-35 170 -93 216t-232 46h-111v-1047q0 -113 35 -145.5t162 -38.5v-39h-598v39q127 8 159.5 42t32.5 165v1024h-110q-172 0 -230.5 -47t-95.5 -215h-49z" />
<glyph unicode="&#x3a5;" horiz-adv-x="1478" d="M29 1018q0 135 64.5 236.5t174.5 101.5q127 0 221.5 -73t145.5 -197.5t75.5 -267t24.5 -306.5h29q0 164 22.5 305t71.5 267t141.5 199t217.5 73q109 0 171 -100.5t62 -237.5h-57q0 70 -52.5 118t-123.5 48q-100 0 -174 -57.5t-113 -158t-57.5 -213t-18.5 -243.5v-289 q0 -117 37 -148.5t174 -35.5v-39h-627v39q139 6 173 40t34 167v266q0 131 -19.5 244.5t-61.5 213t-117.5 157t-178.5 57.5q-74 0 -128 -48.5t-54 -117.5h-57z" />
<glyph unicode="&#x3a6;" horiz-adv-x="1357" d="M82 678q0 160 140 252t351 110v93q0 113 -33.5 144.5t-164.5 39.5v39h608v-39q-129 -6 -165 -39t-36 -145v-93q211 -18 352.5 -110t141.5 -252t-141.5 -252t-352.5 -111v-92q0 -113 37 -146.5t164 -37.5v-39h-608v39q129 4 163.5 37t34.5 147v92q-211 18 -351 110.5 t-140 252.5zM266 678q0 -115 87 -195t220 -106v602q-133 -27 -220 -106.5t-87 -194.5zM782 377q133 25 221.5 104.5t88.5 196.5t-88.5 196.5t-221.5 104.5v-602z" />
<glyph unicode="&#x3a7;" horiz-adv-x="1478" d="M20 0v39q78 6 119 38t178 195l322 396l-223 327q-150 213 -210.5 265.5t-160.5 56.5v39h619v-39l-58 -2q-98 -2 -98 -60q0 -66 174 -307l86 -121l231 283q82 102 82 141q0 35 -29.5 48.5t-113.5 17.5v39h487v-39q-98 -6 -151 -40t-154 -153l-299 -372l393 -562 q66 -90 106 -116.5t122 -34.5v-39h-608v39q49 4 55 4q102 2 102 59q0 45 -104 201l-195 287l-243 -303q-106 -133 -107 -176q0 -35 33 -50.5t123 -21.5v-39h-478z" />
<glyph unicode="&#x3a8;" horiz-adv-x="1333" d="M82 1057v57q127 0 207 -108.5t80 -255.5q0 -119 52 -218.5t140 -140.5v742q0 113 -33.5 144.5t-165.5 39.5v39h609v-39q-129 -6 -165 -39t-36 -145v-744q90 41 142.5 140.5t52.5 220.5q0 147 79.5 255.5t206.5 108.5v-57q-37 0 -59.5 -25.5t-30.5 -80t-10 -92.5t-2 -109 q0 -160 -107.5 -279t-271.5 -152v-96q0 -113 37 -146.5t164 -37.5v-39h-609v39q129 4 164 37t35 147v99q-162 33 -269.5 150.5t-107.5 277.5q0 72 -2 109.5t-10 92t-30.5 80t-59.5 25.5z" />
<glyph unicode="&#x3a9;" horiz-adv-x="1568" d="M51 313h49q4 -74 43 -110.5t121 -36.5h268l-2 88q-156 31 -288 176q-131 143 -131 367q0 244 182 415q180 174 475 174q283 0 467 -165q176 -158 176 -416q0 -207 -109.5 -351.5t-302.5 -199.5l-10 -88h275q154 0 157 147h49l-12 -313h-557l27 301q250 80 250 477 q0 264 -119 396q-127 139 -295 139q-182 0 -301 -146q-119 -143 -119 -374q0 -160 53 -301q53 -135 203 -191l21 -301h-558z" />
<glyph unicode="&#x3b1;" horiz-adv-x="1290" d="M82 461q0 201 127 345t315 144q119 0 214.5 -68.5t148.5 -183.5q51 158 135 242l96 -94q-131 -131 -192 -264q12 -59 12 -121q0 -63 1 -101t4 -96.5t12.5 -93.5t22.5 -71t37.5 -53t55.5 -17q80 0 80 155h57q0 -86 -35.5 -149.5t-101.5 -63.5q-188 0 -266 236 q-102 -236 -281 -236q-188 0 -315 144.5t-127 345.5zM266 461q0 -178 64.5 -305t193.5 -127q98 0 157.5 72.5t98.5 199.5q-14 72 -14 160q0 180 -58.5 306t-183.5 126q-129 0 -193.5 -127t-64.5 -305z" />
<glyph unicode="&#x3b2;" horiz-adv-x="1085" d="M23 -483q59 254 59 483v922q0 190 132 326t318 136q160 0 276 -95t116 -238q0 -113 -90.5 -192t-223.5 -111q170 -39 285 -136.5t115 -238.5q0 -174 -141.5 -288t-336.5 -114q-154 0 -278 84v-55q0 -260 -55 -483h-176zM254 125q123 -96 278 -96q127 0 210 102t83 242 q0 158 -144 251t-341 93v57q162 0 280.5 74t118.5 203q0 113 -57 194.5t-150 81.5q-129 0 -203.5 -121t-74.5 -284v-797z" />
<glyph unicode="&#x3b3;" horiz-adv-x="1130" d="M82 508q0 86 12 160.5t40 140t77 103.5t117 38q100 0 170.5 -58t108.5 -170t55.5 -232.5t23.5 -282.5l25 39q203 311 202 676h136q0 -121 -48.5 -256.5t-98.5 -222.5t-144 -228l-70 -104l2 -238q0 -70 -1 -111t-9 -100t-21.5 -92t-42 -57.5t-69.5 -24.5q-76 0 -116 61.5 t-31.5 155.5t65.5 182l164 240q-4 141 -17.5 245.5t-45 203t-91 150.5t-147.5 52t-138.5 -81t-50.5 -189h-57zM450.5 -353.5q10.5 -101.5 96.5 -101.5q25 0 41 21.5t25.5 50.5t13.5 79t5 85t1 92l-2 156l-119 -172q-72 -109 -61.5 -210.5z" />
<glyph unicode="&#x3b4;" horiz-adv-x="1046" d="M82 414q0 150 127 236.5t321 109.5q-207 176 -206 364q0 104 65.5 182t163.5 78q117 0 209 -57t117 -158l-131 -32q-20 80 -72.5 135t-122.5 55q-61 0 -91 -59.5t-30 -143.5q0 -55 41 -115.5t80 -95t113 -90.5q72 -55 110.5 -88t90 -88t75 -112.5t23.5 -120.5 q0 -182 -129 -312.5t-312 -130.5q-184 0 -313 130.5t-129 312.5zM266 414q0 -156 67.5 -270.5t190.5 -114.5q121 0 188.5 114.5t67.5 270.5q0 147 -184 293q-139 -16 -234.5 -95t-95.5 -198z" />
<glyph unicode="&#x3b5;" horiz-adv-x="989" d="M82 299q0 158 188 211q-131 61 -131 188q0 115 109.5 176.5t263.5 61.5q190 0 334 -131l-41 -43q-123 117 -293 117q-82 0 -141.5 -52.5t-59.5 -128.5q0 -115 140 -159q106 6 217 6v-92q-152 0 -242 14q-172 -39 -172 -168q0 -113 93 -184.5t222 -71.5q88 0 166 46 t123 124l49 -27q-51 -92 -142 -146t-196 -54q-199 0 -343 81.5t-144 231.5z" />
<glyph unicode="&#x3b6;" horiz-adv-x="890" d="M82 340q0 281 87 511t255 318q-88 74 -76 187h135q-10 -90 39 -152q51 10 99 10q35 0 54 -1t46 -6t39 -17t12 -32.5t-12 -34t-39 -18.5t-46.5 -6t-53.5 -1q-76 0 -134 30q-74 -37 -121 -116.5t-67 -199.5t-26.5 -222.5t-6.5 -249.5q0 -133 39 -222t127 -89q170 0 294 -78 t124 -213q0 -250 -129 -250q-45 0 -80 26.5t-47 67.5l53 17q18 -53 74 -54q25 0 41 15.5t22.5 49.5t7.5 58.5t1 69.5q0 111 -106.5 172t-254 61t-249 108.5t-101.5 260.5z" />
<glyph unicode="&#x3b7;" horiz-adv-x="1222" d="M82 692q0 258 131 258q76 0 132 -48t85 -126q39 78 112.5 126t164.5 48q176 0 305 -86t129 -229q0 -106 -32 -317.5t-32 -317.5q0 -229 60 -483h-176q-55 223 -56 483q0 106 25.5 317t25.5 317.5t-72.5 182.5t-177 76t-178 -76t-73.5 -182v-635h-172v635q0 59 -1 91 t-7.5 78t-21.5 67.5t-40 21.5q-35 0 -52.5 -35t-19.5 -68.5t-2 -97.5h-57z" />
<glyph unicode="&#x3b8;" horiz-adv-x="995" d="M82 678q0 184 39 337.5t136 261t240.5 107.5t241 -107.5t136 -261t38.5 -337.5t-38.5 -338t-136 -261.5t-241 -107.5t-240.5 107.5t-136 261.5t-39 338zM266 649q0 -78 1 -128t6.5 -121.5t13.5 -119t25.5 -99.5t42 -81.5t60.5 -50t83 -20.5t82.5 20.5t60.5 50t42 81.5 t25.5 99.5t13.5 119t6 121.5t1 128h-463zM266 707h463q0 78 -1 128t-6 121.5t-13.5 118.5t-25.5 99.5t-42 82t-60.5 50t-82.5 20.5t-83 -20.5t-60.5 -50t-42 -82t-25.5 -99.5t-13.5 -118.5t-6.5 -121.5t-1 -128z" />
<glyph unicode="&#x3b9;" horiz-adv-x="659" d="M164 231v691h172v-691q0 -203 94 -202q90 0 90 202h58q0 -109 -36 -184.5t-112 -75.5q-111 0 -188.5 75.5t-77.5 184.5z" />
<glyph unicode="&#x3ba;" horiz-adv-x="1034" d="M82 0v922h172v-365q68 37 160 174q68 100 137.5 159.5t157.5 59.5q74 0 122 -57t35 -129l-57 8q8 47 -22.5 84t-77.5 37q-51 0 -100.5 -32t-78 -67.5t-67.5 -95.5q-84 -119 -148 -168q143 -12 241.5 -66t98.5 -157q0 -51 1 -78.5t5.5 -72.5t13.5 -67.5t27.5 -41 t45.5 -18.5q66 0 106.5 60.5t40.5 141.5h57q0 -106 -57 -183t-147 -77q-117 0 -191 99.5t-74 236.5q0 143 -229 166v-473h-172z" />
<glyph unicode="&#x3bb;" horiz-adv-x="1200" d="M82 29l473 862l-47 153q-16 49 -25.5 74t-29 60.5t-46 52t-59.5 16.5q-43 0 -68.5 -39t-25.5 -90h-57q0 109 36.5 186.5t114.5 77.5q53 0 97 -56t65.5 -113.5t50.5 -151.5l225 -723q23 -72 38.5 -111t51 -78.5t82.5 -39.5q45 0 74 37.5t29 91.5h57q0 -109 -40 -187 t-120 -78q-41 0 -75.5 30t-63 89.5t-46 105.5t-40.5 121l-106 343l-348 -633h-197z" />
<glyph unicode="&#x3bc;" horiz-adv-x="1208" d="M164 -512q29 385 29 743v691h172v-691q0 -82 48 -142t122 -60q119 0 184 118q-14 35 -14 84v691h172v-691q0 -203 98 -202q94 0 94 202h57q0 -109 -36.5 -184.5t-114.5 -75.5q-150 0 -225 117q-86 -117 -215 -117q-150 0 -252 80q18 -293 82 -563h-201z" />
<glyph unicode="&#x3bd;" horiz-adv-x="1114" d="M82 709q0 102 30.5 171.5t100.5 69.5q80 0 141.5 -57t89.5 -143l220 -639l69 39q115 66 178.5 181t63.5 251q0 131 -199 268l98 143q158 -113 158 -411q0 -150 -71.5 -279t-198.5 -203l-227 -131l-242 699q-78 225 -80 225q-35 0 -52.5 -32t-19.5 -62.5t-2 -89.5h-57z " />
<glyph unicode="&#x3be;" horiz-adv-x="993" d="M82 233q0 231 289 326q-244 63 -244 252q0 137 99.5 233.5t256.5 139.5q-80 74 -94 172h135q16 -96 74 -150q55 8 125 8q39 0 61.5 -1t52 -6t44 -17t14.5 -33q0 -39 -45 -49t-127 -10q-84 0 -158 35q-113 -39 -183.5 -125t-70.5 -197q0 -164 238 -211q121 16 231 16v-92 q-113 0 -221 6q-133 -35 -213 -109.5t-80 -187.5q0 -86 47 -152.5t125 -80.5q96 -18 144.5 -29.5t132.5 -36t126 -48t76.5 -62.5t34.5 -86q0 -250 -129 -250q-45 0 -79.5 26.5t-49.5 67.5l56 17q18 -53 73 -54q25 0 41.5 15.5t22.5 49.5t7 58.5t1 69.5q0 39 -41 72.5 t-122 59.5t-142.5 39l-163.5 34q-145 29 -244.5 102t-99.5 188z" />
<glyph unicode="&#x3bf;" d="M59 463q0 211 126 345t327 134q197 0 324 -131t127 -332q0 -213 -131.5 -356t-324 -143t-320.5 138t-128 345zM244 563q0 -227 90 -395q70 -131 198 -131q115 0 180.5 98t65.5 273q0 211 -82 344t-211 133q-109 0 -175 -88.5t-66 -233.5z" />
<glyph unicode="&#x3c0;" horiz-adv-x="1220" d="M82 692q0 111 65.5 192t165.5 81q84 0 252 -29t254 -29q129 0 254 51l66 -159q-113 -47 -234 -60v-563q0 -61 42 -104t102 -43v-58q-129 0 -222.5 53.5t-93.5 151.5v563q-53 4 -149.5 21.5t-130.5 21.5v-342q0 -201 -91.5 -347t-250.5 -146v135q125 0 204.5 106.5 t79.5 251.5v348q-57 4 -82 5q-72 0 -123 -26t-51 -75h-57z" />
<glyph unicode="&#x3c1;" horiz-adv-x="1200" d="M82 461q0 205 152.5 347t365.5 142t365.5 -142t152.5 -347t-152.5 -347.5t-365.5 -142.5q-158 0 -297 72q14 -125 14 -213q0 -162 -63 -317l-160 65q51 117 51 252q0 104 -31.5 314.5t-31.5 316.5zM266 461q0 -76 29 -348q139 -84 305 -84q147 0 240.5 129t93.5 303 t-93 303t-240.5 129t-241 -129t-93.5 -303z" />
<glyph unicode="&#x3c2;" horiz-adv-x="878" d="M82 553q0 168 134 282.5t319 114.5q193 0 262 -73l-99 -95q-102 111 -163 111q-121 0 -201 -101.5t-80 -238.5q0 -102 51 -193.5t139 -150.5q141 -94 195 -141q109 -94 109 -195q0 -63 -36 -110.5t-91 -47.5q-104 0 -191 64l35 45q70 -51 156 -51q33 0 51 29.5t18 70.5 q0 72 -88 152q-49 41 -188 135l-95 65.5t-86.5 68.5t-80 80t-49 84t-21.5 95z" />
<glyph unicode="&#x3c3;" horiz-adv-x="1116" d="M82 463q0 211 126 345t327 134q23 0 59 -4q160 12 407 109l33 -78q-131 -53 -299 -70q115 -55 182.5 -165.5t67.5 -254.5q0 -213 -131 -356t-323.5 -143t-320.5 138t-128 345zM266 563q0 -227 90 -395q70 -131 199 -131q115 0 180.5 98t65.5 273q0 211 -82 344t-211 133 q-109 0 -175.5 -88.5t-66.5 -233.5z" />
<glyph unicode="&#x3c4;" horiz-adv-x="1034" d="M82 692q0 111 65.5 192t165.5 81q43 0 209 -64q82 -29 170 -16.5t158 63.5l102 -139q-158 -115 -350 -98v-480q0 -203 94 -202q90 0 90 202h58q0 -109 -36 -184.5t-112 -75.5q-111 0 -188.5 76t-77.5 184v521q-109 41 -117 41q-72 0 -123 -26t-51 -75h-57z" />
<glyph unicode="&#x3c5;" horiz-adv-x="1142" d="M82 692q0 258 131 258q102 0 172 -75.5t70 -182.5q0 -66 -11.5 -192.5t-11.5 -192.5q0 -113 65.5 -195.5t166.5 -82.5q156 0 248 144t92 339q0 94 -53.5 174t-149.5 174l119 123q141 -137 141 -471q0 -219 -108.5 -380t-288.5 -161q-168 0 -292 94.5t-124 241.5 q0 66 17.5 193t17.5 192q0 47 -1 71.5t-7.5 60.5t-21.5 52.5t-40 16.5q-35 0 -52.5 -35t-19.5 -68.5t-2 -97.5h-57z" />
<glyph unicode="&#x3c6;" horiz-adv-x="1404" d="M82 461q0 147 95 271t247 214l29 -49q-186 -111 -187 -436q0 -162 106.5 -284t266.5 -144q-23 440 -23 479q0 176 98.5 307t252.5 131q162 0 259 -145.5t97 -343.5q0 -190 -146.5 -320.5t-363.5 -160.5l4 -150q0 -182 -100 -332l-144 94q72 106 72 238l-4 143 q-231 18 -395 152.5t-164 335.5zM788 512q0 -41 23 -469q143 35 235.5 151.5t92.5 266.5q0 68 -1 103.5t-5.5 96t-15.5 93t-29.5 69.5t-49 53.5t-71.5 16.5q-179 0 -179 -381z" />
<glyph unicode="&#x3c7;" horiz-adv-x="1105" d="M82 662q0 121 38 203.5t122 82.5q37 0 70.5 -27.5t63.5 -83t48 -98.5t43 -112l115 -314q127 164 196.5 306.5t69.5 302.5h172q0 -86 -22.5 -171t-60.5 -157t-87 -147.5t-104 -141.5l-109 -139l137 -375q61 -166 172 -166q47 0 75 45t28 107h57q0 -121 -38 -204t-122 -83 q-43 0 -77.5 23.5t-63.5 71.5t-45.5 86t-38.5 102l-125 338q-121 -158 -188.5 -298.5t-67.5 -295.5h-172q0 61 11 120.5t30.5 113.5t47.5 108.5t60 103.5l70 100q37 51 76 99l78 98l-127 346q-23 66 -39.5 100.5t-52 70.5t-80.5 36q-47 0 -75 -45t-28 -106h-57z" />
<glyph unicode="&#x3c8;" horiz-adv-x="1296" d="M82 692q0 258 131 258q102 0 172 -75.5t70 -182.5q0 -66 -11.5 -192.5t-11.5 -192.5q0 -104 76 -180t186 -94v428q0 457 -57 895h172q-57 -463 -57 -895v-432h4q174 0 287.5 143t113.5 340q0 94 -53 174t-150 174l119 123q141 -137 141 -471q0 -219 -130 -380t-328 -161 h-4v-483h-58v485q-188 12 -317 99.5t-129 234.5q0 66 17.5 193t17.5 192q0 47 -1 71.5t-7.5 60.5t-21.5 52.5t-40 16.5q-35 0 -52.5 -35t-19.5 -68.5t-2 -97.5h-57z" />
<glyph unicode="&#x3c9;" horiz-adv-x="1421" d="M82 461q0 125 62.5 238.5t172.5 240.5l45 -37q-70 -80 -89 -184.5t-19 -257.5q0 -432 215 -432q160 0 199 264q-25 133 -25 321h135v-116q0 -41 4 -114t10.5 -113t18.5 -93t30.5 -80.5t47.5 -48t65 -20.5q213 0 213 432q0 100 -4 162.5t-29.5 143.5t-74.5 136l45 37 q111 -127 173 -240.5t62 -238.5q0 -199 -107.5 -344.5t-277.5 -145.5q-180 0 -256 209q-68 -209 -229 -209q-170 0 -278.5 145.5t-108.5 344.5z" />
<glyph unicode="&#x3d1;" horiz-adv-x="1171" d="M82 692q0 109 35 183.5t110 74.5q96 0 162 -76.5t66 -181.5q0 -66 -26 -193.5t-26 -191.5q0 -113 57.5 -195.5t151.5 -82.5q43 0 77 22.5t55.5 54t36 91t22.5 105.5t11 128t4 128t1 134l-2 201q-145 8 -252.5 66.5t-138.5 170.5q-25 96 25.5 175t140.5 79 q154 0 250 -117.5t135 -308.5q35 4 100 21l13 -57q-49 -12 -103 -19q16 -92 17 -211q0 -139 -19.5 -261t-62.5 -229.5t-123 -169t-187 -61.5q-160 0 -276.5 96.5t-116.5 239.5q0 66 32 193t32 192q0 47 -1 71.5t-6.5 60.5t-16.5 52.5t-32 16.5q-39 0 -59.5 -34t-24.5 -70.5 t-4 -96.5h-57zM483 1147q25 -94 116 -142.5t214 -52.5q-12 174 -61.5 274.5t-159.5 100.5q-61 0 -94 -56t-15 -124z" />
<glyph unicode="&#x3d5;" horiz-adv-x="1067" d="M82 463q0 201 113.5 332t298.5 145l-27 416h135l-29 -416q182 -14 297 -142t115 -319q0 -203 -120 -344t-302 -153v-494h-57v492q-184 10 -304 147t-120 336zM266 563q0 -227 90 -395q55 -100 150 -125v418l-10 424q-104 -4 -167 -92.5t-63 -229.5zM563 37 q111 4 174.5 102.5t63.5 268.5q0 182 -62.5 309t-167.5 160l-8 -416v-424z" />
<glyph unicode="&#x3d6;" horiz-adv-x="1421" d="M82 461q0 125 62.5 238.5t172.5 240.5l45 -37q-70 -80 -89 -184.5t-19 -257.5q0 -432 215 -432q160 0 199 264q-25 133 -25 321h135v-116q0 -41 4 -114t10.5 -113t18.5 -93t30.5 -80.5t47.5 -48t65 -20.5q213 0 213 432q0 170 -38.5 311t-130 239.5t-224.5 98.5 q-246 0 -475 -57l-14 57q248 57 489 57q248 0 406.5 -211t158.5 -495q0 -199 -107.5 -344.5t-277.5 -145.5q-180 0 -256 209q-68 -209 -229 -209q-170 0 -278.5 145.5t-108.5 344.5z" />
<glyph unicode="&#x3f5;" horiz-adv-x="954" d="M82 487q0 207 182 335t430 128h121v-57h-121q-174 0 -300 -115.5t-128 -281.5q47 -2 113.5 15t116 34.5t115 23.5t112.5 -20l-57 -121q-53 25 -122 26t-149 -9.5t-127 -8.5q12 -172 91 -289.5t214 -117.5q94 0 185 139l114 -74q-82 -123 -299 -123q-205 0 -348 151.5 t-143 364.5z" />
<glyph unicode="&#x400;" horiz-adv-x="1251" d="M25 0v39q113 8 145.5 42t32.5 142v910q0 109 -33 142.5t-145 41.5v39h1087l6 -293h-51q-27 137 -82 176t-229 39h-277q-41 0 -54 -13.5t-13 -56.5v-454h315q141 0 180 51q27 33 45 143h47v-475h-47q-20 127 -59 162t-166 35h-315v-506q0 -55 14 -64q25 -25 201 -24h55 q219 0 313.5 52t169.5 218h58l-93 -346h-1105zM395 1745q0 63 70 63q39 0 86 -47l301 -303h-82l-315 199q-60 39 -60 88z" />
<glyph unicode="&#x401;" horiz-adv-x="1251" d="M25 0v39q113 8 145.5 42t32.5 142v910q0 109 -33 142.5t-145 41.5v39h1087l6 -293h-51q-27 137 -82 176t-229 39h-277q-41 0 -54 -13.5t-13 -56.5v-454h315q141 0 180 51q27 33 45 143h47v-475h-47q-20 127 -59 162t-166 35h-315v-506q0 -55 14 -64q25 -25 201 -24h55 q219 0 313.5 52t169.5 218h58l-93 -346h-1105zM319 1606q0 39 30 69.5t69 30.5q43 0 73.5 -30.5t30.5 -71.5t-30.5 -71t-73.5 -30q-41 0 -70 30t-29 73zM727 1606q0 39 29.5 69.5t68.5 30.5q43 0 74 -30.5t31 -71.5t-31 -71t-74 -30q-41 0 -69.5 30t-28.5 73z" />
<glyph unicode="&#x402;" horiz-adv-x="1572" d="M35 1008l12 348h1155l12 -348h-49q-35 170 -93 216t-232 46h-111v-527q125 158 305 158q100 0 190.5 -21.5t161 -80t70.5 -146.5v-567q0 -160 -129 -272.5t-303 -112.5q-72 0 -132.5 33t-60.5 80q0 33 25 56.5t59 23.5q47 0 99 -66q47 -57 86 -57q47 0 69 36 q49 92 50 285v547q0 76 -77 112.5t-179 36.5q-86 0 -160 -49t-74 -84v-432q0 -113 35 -145.5t162 -38.5v-39h-598v39q127 8 159.5 42t32.5 165v1024h-110q-172 0 -230.5 -47t-95.5 -215h-49z" />
<glyph unicode="&#x403;" horiz-adv-x="1138" d="M25 0v39q117 8 147.5 44t30.5 163v887q0 109 -33 142.5t-145 41.5v39h1087l6 -293h-51q-27 137 -82 176t-229 39h-279q-41 0 -53 -13.5t-12 -56.5v-985q0 -111 33.5 -144.5t152.5 -39.5v-39h-573zM342 1458l301 303q47 47 86 47q72 0 72 -65q0 -47 -62 -86l-315 -199h-82 z" />
<glyph unicode="&#x404;" horiz-adv-x="1366" d="M57 666q0 346 222 542q199 176 464 176q147 0 299 -49q45 -18 80 -18q68 0 86 67h43l19 -462h-47q-29 100 -57.5 153t-78.5 103q-125 125 -305 125q-213 0 -344 -154t-141 -414h621v-90h-623q12 -317 176 -465q135 -119 332 -119q242 0 457 207l36 -37 q-94 -125 -239.5 -192.5t-319.5 -67.5q-152 0 -287 55.5t-227 155.5q-166 187 -166 484z" />
<glyph unicode="&#x405;" horiz-adv-x="1138" d="M86 408h47q76 -186 176.5 -274.5t237.5 -88.5q113 0 182.5 64.5t69.5 166.5q0 78 -29 119q-80 121 -305 240q-172 90 -246 183t-74 216q0 160 109 256q106 94 246 94q98 0 217 -45q51 -25 90 -24q53 0 65 69h43l46 -436h-52q-41 154 -125 240q-109 113 -249 112 q-94 0 -153.5 -53t-59.5 -137q0 -82 69.5 -155.5t231.5 -163.5q203 -109 293 -214.5t90 -232.5q0 -158 -121 -265.5t-297 -107.5q-123 0 -242 47q-61 23 -96 23q-23 0 -39 -19.5t-18 -48.5h-46z" />
<glyph unicode="&#x406;" horiz-adv-x="681" d="M25 0v39q129 4 163.5 37t34.5 147v910q0 113 -33.5 144.5t-164.5 39.5v39h608v-39q-129 -6 -165 -39t-36 -145v-910q0 -113 37 -146.5t164 -37.5v-39h-608z" />
<glyph unicode="&#x407;" horiz-adv-x="681" d="M25 0v39q129 4 163.5 37t34.5 147v910q0 113 -33.5 144.5t-164.5 39.5v39h608v-39q-129 -6 -165 -39t-36 -145v-910q0 -113 37 -146.5t164 -37.5v-39h-608zM25 1561q0 39 29.5 69.5t68.5 30.5q43 0 73.5 -31t30.5 -71.5t-30.5 -70.5t-73.5 -30q-41 0 -69.5 30t-28.5 73z M432 1561q0 39 30 69.5t68 30.5q43 0 74 -31t31 -71.5t-31 -70.5t-74 -30q-41 0 -69.5 30t-28.5 73z" />
<glyph unicode="&#x408;" horiz-adv-x="796" d="M20 119q0 41 30 71.5t71 30.5q76 0 106 -104q10 -39 22.5 -53.5t33.5 -14.5q78 0 77 135v949q0 113 -32.5 144.5t-157.5 39.5v39h588v-39q-125 -8 -157 -40t-32 -144v-758q0 -193 -90 -298.5t-256 -105.5q-88 0 -145.5 41t-57.5 107z" />
<glyph unicode="&#x409;" horiz-adv-x="1984" d="M53 84q0 51 30 88t77 37q49 0 82.5 -36t66.5 -36q45 -2 71 16.5t48 69.5q90 201 90 488v422q0 111 -30.5 142.5t-149.5 41.5v39h1100v-39q-121 -4 -157 -38t-36 -146v-367h141q233 0 359 -70q92 -49 144.5 -136t52.5 -189q0 -133 -84 -224q-61 -68 -184.5 -107.5 t-268.5 -39.5h-537v39q119 8 150 43t31 164v1020h-443v-555q0 -106 -17.5 -224t-55 -238t-108.5 -198t-165 -78q-84 0 -145.5 27t-61.5 84zM1245 145q0 -41 14.5 -55t55.5 -14q207 0 305 74.5t98 232.5q0 301 -356 301q-47 0 -117 -6v-533z" />
<glyph unicode="&#x40a;" horiz-adv-x="2007" d="M39 0v39q119 8 149.5 43t30.5 164v887q0 111 -30.5 142.5t-149.5 41.5v39h569v-39q-119 -10 -149.5 -42t-30.5 -142v-367h621v367q0 111 -31 142.5t-150 41.5v39h570v-39q-121 -4 -157 -38t-36 -146v-367h141q233 0 359 -70q92 -49 144.5 -136t52.5 -189q0 -133 -84 -224 q-61 -68 -184.5 -107.5t-268.5 -39.5h-537v39q119 8 150 43t31 164v430h-621v-453q0 -109 33 -141.5t147 -42.5v-39h-569zM1245 145q0 -41 14.5 -55t55.5 -14q207 0 305 74.5t98 232.5q0 301 -356 301q-47 0 -117 -6v-533z" />
<glyph unicode="&#x40b;" horiz-adv-x="1779" d="M35 1008l12 348h1155l12 -348h-49q-35 170 -93 216t-232 46h-111v-520q147 125 318 124q217 0 364.5 -109.5t147.5 -283.5v-258q0 -111 30.5 -142.5t149.5 -41.5v-39h-570v39q119 10 150 42t31 142v260q0 125 -85 213t-212 88q-168 0 -324 -125v-436q0 -113 35 -145.5 t162 -38.5v-39h-598v39q127 8 159.5 42t32.5 165v1024h-110q-172 0 -230.5 -47t-95.5 -215h-49z" />
<glyph unicode="&#x40c;" horiz-adv-x="1478" d="M70 0v39q121 8 152.5 44t31.5 163v887q0 109 -33 142.5t-151 41.5v39h581v-39q-125 -8 -156.5 -40t-31.5 -144v-388h65q113 0 204 91.5t128 228.5q49 182 124 242.5t175 60.5q80 0 131 -28.5t49 -102.5q2 -47 -26.5 -72.5t-63.5 -25.5q-74 0 -137 34.5t-82 34.5 q-49 0 -86 -164q-29 -129 -97.5 -224t-123.5 -109q55 -8 95 -44t87 -110l180 -297q35 -57 64 -97t52.5 -63.5t44 -37t41 -17.5t43 -5t48.5 -1v-39h-336l-280 455q-31 51 -57.5 90t-50 66.5t-54.5 42t-72 14.5h-65v-445q0 -113 32.5 -144.5t151.5 -39.5v-39h-577zM496 1458 l301 303q47 47 86 47q72 0 71 -65q0 -47 -61 -86l-315 -199h-82z" />
<glyph unicode="&#x40d;" horiz-adv-x="1478" d="M39 0v39q119 8 149.5 43t30.5 164v887q0 111 -30.5 142.5t-149.5 41.5v39h569v-39q-119 -10 -149.5 -42t-30.5 -142v-703l621 623v80q0 111 -31 142.5t-150 41.5v39h570v-39q-119 -10 -150 -42t-31 -142v-910q0 -109 33 -141.5t148 -42.5v-39h-570v39q119 8 150 43 t31 164v676l-621 -623v-76q0 -109 33 -141.5t147 -42.5v-39h-569zM510 1745q0 63 70 63q39 0 86 -47l301 -303h-82l-316 199q-59 39 -59 88z" />
<glyph unicode="&#x40e;" horiz-adv-x="1527" d="M41 1317v39h586v-39l-58 -2q-98 -2 -98 -60q0 -74 49 -190l240 -565l313 610q57 113 57 141q0 35 -29.5 48.5t-113.5 17.5v39h502v-39q-111 -6 -162 -37t-119 -156l-428 -837q-88 -170 -164.5 -241t-214.5 -71q-82 0 -138 36t-56 93q0 63 29.5 93t72.5 30q119 -2 127 -94 q4 -59 51 -59q18 0 34 8t30 24.5t29.5 40t32 55l38.5 70.5l-307 727q-41 113 -72.5 176.5t-70.5 94t-70 38t-90 9.5zM477 1780h60q23 -102 77 -150.5t152 -48.5q90 0 137 41t90 158h60q-37 -322 -291 -322q-150 0 -230 111q-53 78 -55 211z" />
<glyph unicode="&#x40f;" horiz-adv-x="1478" d="M39 0v39q119 10 149.5 42t30.5 142v887q0 129 -30.5 164t-149.5 43v39h569v-39q-115 -10 -147.5 -43t-32.5 -141v-1043h621v1020q0 129 -31 164t-150 43v39h570v-39q-115 -10 -148 -43t-33 -141v-910q0 -111 31 -142.5t150 -41.5v-39h-570q-33 -25 -50 -118t-19 -175v-82 h-115v80q0 80 -18.5 174t-55.5 121h-571z" />
<glyph unicode="&#x410;" horiz-adv-x="1478" d="M31 0v39q74 2 114.5 56.5t139.5 279.5l426 1005h41l510 -1163q53 -115 83.5 -144.5t100.5 -33.5v-39h-522v39q82 2 112.5 16.5t30.5 53.5q0 49 -39 137l-84 196h-536l-95 -239q-16 -43 -16 -80q0 -84 139 -84v-39h-405zM442 526h473l-237 564z" />
<glyph unicode="&#x411;" horiz-adv-x="1331" d="M25 0v39q127 4 161.5 37t34.5 147v910q0 113 -33.5 144.5t-162.5 39.5v39h1105l7 -293h-52q-27 137 -82 176t-229 39h-278q-41 0 -53.5 -13.5t-12.5 -56.5v-374q18 12 100 22t160 10q133 0 226.5 -30.5t185.5 -112.5q102 -92 102 -305q0 -80 -30.5 -169t-83.5 -136 q-123 -113 -381 -113h-684zM430 160q0 -49 26.5 -66.5t102.5 -17.5q190 0 285 53q59 33 92 116t33 171q0 104 -44 194t-128 125q-100 41 -226 41q-86 0 -141 -24v-592z" />
<glyph unicode="&#x412;" horiz-adv-x="1263" d="M25 0v39q127 4 161.5 37t34.5 147v910q0 113 -33.5 144.5t-162.5 39.5v39h573q537 0 537 -348q0 -133 -82 -205q-66 -57 -199 -90q100 -25 152.5 -48.5t97.5 -64.5q100 -94 100 -231q0 -154 -114 -256q-123 -113 -381 -113h-684zM430 160q0 -49 26.5 -66.5t102.5 -17.5 q190 0 285 53q125 72 125 238q0 188 -172 260q-98 41 -367 41v-508zM430 750h195q143 0 222 64.5t79 184.5q0 137 -92.5 209t-268.5 72h-90q-45 0 -45 -61v-469z" />
<glyph unicode="&#x413;" horiz-adv-x="1097" d="M25 0v39q117 8 147.5 44t30.5 163v887q0 109 -33 142.5t-145 41.5v39h1046l6 -293h-51q-27 137 -82 176t-229 39h-238q-41 0 -53 -13.5t-12 -56.5v-985q0 -111 33.5 -144.5t152.5 -39.5v-39h-573z" />
<glyph unicode="&#x414;" horiz-adv-x="1376" d="M47 -348l16 426q43 0 75 4t53.5 12t36 20.5t24.5 28t20.5 36t20.5 44.5q33 70 61.5 218.5t28.5 269.5v422q0 111 -30.5 142.5t-149.5 41.5v39h1100v-39q-119 -10 -150 -42t-31 -142v-871q0 -111 31 -142.5t150 -41.5l16 -426h-51q-31 164 -102.5 256t-229.5 92h-508 q-158 0 -228.5 -91t-101.5 -257h-51zM366.5 112.5q8.5 -20.5 26.5 -22.5h19h321q119 8 149.5 43t30.5 164v969h-442v-535q0 -328 -96 -553q-17 -45 -8.5 -65.5z" />
<glyph unicode="&#x415;" horiz-adv-x="1251" d="M25 0v39q113 8 145.5 42t32.5 142v910q0 109 -33 142.5t-145 41.5v39h1087l6 -293h-51q-27 137 -82 176t-229 39h-277q-41 0 -54 -13.5t-13 -56.5v-454h315q141 0 180 51q27 33 45 143h47v-475h-47q-20 127 -59 162t-166 35h-315v-506q0 -55 14 -64q25 -25 201 -24h55 q219 0 313.5 52t169.5 218h58l-93 -346h-1105z" />
<glyph unicode="&#x416;" horiz-adv-x="1941" d="M23 0v39q27 0 49 1t42.5 5t41 17.5t44 37t52.5 63.5t63 97l181 297q47 74 87 109.5t95 44.5q-51 12 -105.5 105t-85.5 228q-37 164 -86 164q-23 0 -35 -17t-38.5 -34.5t-83.5 -17.5q-33 0 -61.5 29.5t-28.5 68.5q0 131 149 131q94 0 156.5 -58.5t111.5 -244.5 q41 -156 98.5 -238t161.5 -82h25v388q0 113 -31.5 144.5t-156.5 39.5v39h585v-39q-125 -8 -156.5 -40t-31.5 -144v-388h25q104 0 161.5 82t98.5 238q49 186 111.5 244.5t156.5 58.5q150 0 149 -131q0 -39 -28.5 -68.5t-61.5 -29.5q-45 0 -71.5 11t-34.5 23.5t-20.5 23.5 t-30.5 11q-49 0 -86 -164q-31 -135 -85.5 -228t-105.5 -105q55 -8 95 -44t87 -110l181 -297q35 -57 63.5 -97t52 -63.5t44 -37t41 -17.5t43 -5t48.5 -1v-39h-335l-281 455q-25 37 -50.5 88t-37.5 71.5t-39 37t-65 16.5h-25v-445q0 -113 32.5 -144.5t151.5 -39.5v-39h-577v39 q121 8 152.5 40t31.5 144v445h-25q-39 0 -65.5 -16.5t-38.5 -37t-37.5 -71.5t-50.5 -88l-281 -455h-335z" />
<glyph unicode="&#x417;" horiz-adv-x="1040" d="M20 371l70 16q39 -158 125 -231.5t234 -73.5q47 0 93 13.5t92 44t73.5 90t27.5 139.5q0 152 -88 238.5t-231 86.5h-119v74h113q297 0 297 268q0 121 -80 201t-189 80q-152 0 -226.5 -85t-102.5 -286h-48l13 410h35l4 -6q25 -23 43 -23q41 0 82 21q92 35 211 34 q199 0 337 -90t138 -270q0 -123 -53.5 -198.5t-147.5 -94.5q258 -57 258 -338q0 -178 -126 -299t-400 -121q-121 0 -205 34t-129 98.5t-66 124t-35 143.5z" />
<glyph unicode="&#x418;" horiz-adv-x="1464" d="M25 0v39q119 8 149.5 43t30.5 164v887q0 111 -31 142.5t-149 41.5v39h569v-39q-119 -10 -149.5 -42t-30.5 -142v-703l620 623v80q0 111 -30.5 142.5t-149.5 41.5v39h569v-39q-119 -10 -149.5 -42t-30.5 -142v-910q0 -109 33 -141.5t147 -42.5v-39h-569v39q119 8 149.5 43 t30.5 164v676l-620 -623v-76q0 -109 32.5 -141.5t147.5 -42.5v-39h-569z" />
<glyph unicode="&#x419;" horiz-adv-x="1464" d="M25 0v39q119 8 149.5 43t30.5 164v887q0 111 -31 142.5t-149 41.5v39h569v-39q-119 -10 -149.5 -42t-30.5 -142v-703l620 623v80q0 111 -30.5 142.5t-149.5 41.5v39h569v-39q-119 -10 -149.5 -42t-30.5 -142v-910q0 -109 33 -141.5t147 -42.5v-39h-569v39q119 8 149.5 43 t30.5 164v676l-620 -623v-76q0 -109 32.5 -141.5t147.5 -42.5v-39h-569zM436 1792h60q23 -102 77 -150.5t152 -48.5q90 0 137 41t90 158h60q-37 -322 -291 -322q-150 0 -229 111q-54 78 -56 211z" />
<glyph unicode="&#x41a;" horiz-adv-x="1413" d="M25 0v39q121 8 152.5 44t31.5 163v887q0 109 -33 142.5t-151 41.5v39h581v-39q-125 -8 -156.5 -40t-31.5 -144v-388h65q109 0 187 88.5t114 231.5q49 186 111.5 244.5t157.5 58.5q150 0 149 -131q0 -39 -28.5 -68.5t-61.5 -29.5q-45 0 -71.5 11t-35 23.5t-20.5 23.5 t-31 11q-49 0 -86 -164q-31 -135 -85 -228t-105 -105q55 -8 95 -44t87 -110l180 -297q35 -57 64 -97t52.5 -63.5t44 -37t41 -17.5t43 -5t48.5 -1v-39h-336l-280 455q-31 51 -57.5 90t-50 66.5t-54.5 42t-72 14.5h-65v-445q0 -113 32.5 -144.5t151.5 -39.5v-39h-577z" />
<glyph unicode="&#x41b;" horiz-adv-x="1437" d="M53 84q0 51 30 88t77 37q49 0 82.5 -36t66.5 -36q45 -2 71 16.5t48 69.5q90 201 90 506v404q0 111 -30.5 142.5t-149.5 41.5v39h1059v-39q-119 -10 -149.5 -42t-30.5 -142v-910q0 -109 32.5 -141.5t147.5 -42.5v-39h-570v39q119 8 150 43t31 164v1020h-402v-469 q0 -143 -17.5 -279.5t-55 -262.5t-108.5 -204t-165 -78q-84 0 -145.5 27t-61.5 84z" />
<glyph unicode="&#x41c;" horiz-adv-x="1808" d="M25 0v39q127 8 162.5 56t35.5 206v832q0 113 -33.5 144.5t-160.5 39.5v39h405l473 -1034l453 1034h407v-39q-115 -10 -146.5 -43t-31.5 -141v-910q0 -109 33 -142.5t145 -41.5v-39h-573v39q121 8 153.5 44t32.5 163v928l-524 -1174h-29l-514 1126v-825q0 -156 37 -206 t156 -56v-39h-481z" />
<glyph unicode="&#x41d;" horiz-adv-x="1464" d="M25 0v39q119 8 149.5 43t30.5 164v887q0 111 -31 142.5t-149 41.5v39h569v-39q-119 -10 -149.5 -42t-30.5 -142v-398h620v398q0 111 -30.5 142.5t-149.5 41.5v39h569v-39q-119 -10 -149.5 -42t-30.5 -142v-910q0 -109 33 -141.5t147 -42.5v-39h-569v39q119 8 149.5 43 t30.5 164v399h-620v-422q0 -109 32.5 -141.5t147.5 -42.5v-39h-569z" />
<glyph unicode="&#x41e;" horiz-adv-x="1478" d="M70 678q0 309 188 507.5t481 198.5q301 0 498 -215q172 -188 172 -499q0 -309 -189.5 -504t-492.5 -195q-135 0 -263 56.5t-218 152.5q-82 88 -129 220.5t-47 277.5zM303 674q0 -170 47 -314.5t127 -214.5q113 -100 258 -100q164 0 273 109q74 74 100 149q68 176 68 369 q0 379 -175 536q-115 102 -262 103q-172 0 -293 -133q-66 -72 -104.5 -210t-38.5 -294z" />
<glyph unicode="&#x41f;" horiz-adv-x="1464" d="M25 0v39q119 8 149.5 43t30.5 164v887q0 111 -31 142.5t-149 41.5v39h1398v-39q-119 -10 -149.5 -42t-30.5 -142v-910q0 -109 33 -141.5t147 -42.5v-39h-569v39q119 8 149.5 43t30.5 164v1020h-620v-1043q0 -109 32.5 -141.5t147.5 -42.5v-39h-569z" />
<glyph unicode="&#x420;" horiz-adv-x="1130" d="M25 0v39q117 10 144.5 44t27.5 163v887q0 111 -29 141.5t-143 42.5v39h540q145 0 268 -40t185 -108q84 -90 84 -223q0 -102 -52.5 -189t-144.5 -137q-125 -70 -358 -69q-61 0 -141 6v-373q0 -113 35.5 -146.5t156.5 -37.5v-39h-573zM406 678q70 -6 116 -6q356 0 357 301 q0 158 -98.5 232.5t-305.5 74.5q-41 0 -55 -14.5t-14 -55.5v-532z" />
<glyph unicode="&#x421;" horiz-adv-x="1366" d="M57 666q0 346 222 542q199 176 464 176q147 0 299 -49q45 -18 80 -18q68 0 86 67h43l19 -462h-47q-29 100 -57.5 153t-78.5 103q-125 125 -305 125q-223 0 -355 -166t-132 -445q0 -354 176 -512q135 -119 332 -119q242 0 457 207l36 -37q-94 -125 -239.5 -192.5 t-319.5 -67.5q-152 0 -287 55.5t-227 155.5q-166 187 -166 484z" />
<glyph unicode="&#x422;" horiz-adv-x="1251" d="M35 1008l12 348h1155l12 -348h-49q-35 170 -93 216t-232 46h-111v-1047q0 -113 35 -145.5t162 -38.5v-39h-598v39q127 8 159.5 42t32.5 165v1024h-110q-172 0 -230.5 -47t-95.5 -215h-49z" />
<glyph unicode="&#x423;" horiz-adv-x="1466" d="M41 1317v39h586v-39l-58 -2q-98 -2 -98 -60q0 -74 49 -190l240 -565l260 610q23 55 27 91t0 50q0 35 -30 48.5t-114 17.5v39h502v-39q-104 -6 -147.5 -36t-112.5 -157l-365 -837q-80 -184 -156.5 -248t-222.5 -64q-80 0 -129 35t-49 94q0 61 32 92t71 31q55 0 82.5 -27.5 t27.5 -66.5q0 -59 51 -59q18 0 34 8t30 24.5t29.5 40t32 55l38.5 70.5l-307 727q-84 199 -141.5 256.5t-161.5 61.5z" />
<glyph unicode="&#x424;" horiz-adv-x="1499" d="M20 678q0 121 41 213t102.5 144t148.5 85t166 44.5t167 11.5q0 41 -3 60t-20.5 44t-60.5 33t-115 4v39h609v-39q-72 2 -115 -5t-60.5 -31t-21.5 -44t-4 -61q88 0 167 -11.5t166 -44.5t148.5 -85t102.5 -144t41 -213q0 -117 -40 -207t-101.5 -143.5t-147.5 -87t-167 -45 t-169 -11.5q0 -39 4 -60.5t22.5 -46t61.5 -33.5t113 -5v-39h-609v39q72 -2 115 6t59.5 32.5t20.5 45t4 61.5q-88 0 -169 11.5t-167 45t-147.5 87t-101.5 143.5t-40 207zM209 678q0 -96 28.5 -170t72.5 -118t104.5 -71.5t116 -38t114.5 -10.5v820q-74 0 -142.5 -17.5 t-139 -59.5t-112.5 -128t-42 -207zM854 270q59 0 114.5 10.5t116 38t104.5 71.5t72.5 118t28.5 170q0 121 -42 207t-112.5 128t-139 59.5t-142.5 17.5v-820z" />
<glyph unicode="&#x425;" horiz-adv-x="1478" d="M20 0v39q78 6 119 38t178 195l322 396l-223 327q-150 213 -210.5 265.5t-160.5 56.5v39h619v-39l-58 -2q-98 -2 -98 -60q0 -66 174 -307l86 -121l231 283q82 102 82 141q0 35 -29.5 48.5t-113.5 17.5v39h487v-39q-98 -6 -151 -40t-154 -153l-299 -372l393 -562 q66 -90 106 -116.5t122 -34.5v-39h-608v39q49 4 55 4q102 2 102 59q0 45 -104 201l-195 287l-243 -303q-106 -133 -107 -176q0 -35 33 -50.5t123 -21.5v-39h-478z" />
<glyph unicode="&#x426;" horiz-adv-x="1464" d="M25 0v39q119 10 149.5 42t30.5 142v910q0 109 -33 141.5t-147 42.5v39h569v-39q-119 -8 -149.5 -43t-30.5 -164v-1020h579v1043q0 109 -32.5 141.5t-147.5 42.5v39h569v-39q-119 -8 -149.5 -43t-30.5 -164v-848q0 -111 31 -142.5t149 -41.5l17 -426h-51q-14 80 -33 134 t-53.5 107.5t-93 80t-142.5 26.5h-1001z" />
<glyph unicode="&#x427;" horiz-adv-x="1435" d="M39 1317v39h569v-39q-119 -10 -149.5 -42t-30.5 -142v-261q0 -131 65.5 -216t188.5 -85q168 0 324 125v437q0 111 -31 142.5t-150 41.5v39h570v-39q-119 -10 -150 -42t-31 -142v-910q0 -109 33 -141.5t148 -42.5v-39h-570v39q119 8 150 43t31 164v360 q-147 -125 -318 -125q-213 0 -341 107.5t-128 285.5v259q0 111 -30.5 142.5t-149.5 41.5z" />
<glyph unicode="&#x428;" horiz-adv-x="1990" d="M25 0v39q119 10 149.5 42t30.5 142v910q0 109 -33 141.5t-147 42.5v39h569v-39q-119 -8 -149.5 -43t-30.5 -164v-1020h469v1043q0 109 -33 141.5t-148 42.5v39h570v-39q-123 -8 -151.5 -36t-28.5 -155l2 -1036h467v1043q0 109 -33 141.5t-148 42.5v39h570v-39 q-119 -8 -150 -43t-31 -164v-887q0 -111 31 -142.5t150 -41.5v-39h-1925z" />
<glyph unicode="&#x429;" horiz-adv-x="1994" d="M25 0v39q119 10 149.5 42t30.5 142v910q0 109 -33 141.5t-147 42.5v39h569v-39q-119 -8 -149.5 -43t-30.5 -164v-1020h469v1043q0 109 -33 141.5t-148 42.5v39h570v-39q-123 -8 -151.5 -36t-28.5 -155l2 -1036h467v1043q0 109 -33 141.5t-148 42.5v39h570v-39 q-119 -8 -150 -43t-31 -164v-848q0 -111 31 -142.5t150 -41.5l16 -426h-51q-14 80 -32.5 134t-53.5 107.5t-93.5 80t-142.5 26.5h-1568z" />
<glyph unicode="&#x42a;" horiz-adv-x="1454" d="M35 1008l12 348h875v-39q-121 -4 -157 -38t-36 -146v-332q80 6 141 6q233 0 359 -70q90 -47 143 -144t53 -202q0 -154 -84 -244q-61 -68 -184 -107.5t-268 -39.5h-541v39q115 12 143.5 43t28.5 141v1047h-110q-172 0 -230.5 -47t-95.5 -215h-49zM725 145q0 -41 14.5 -55 t55.5 -14q403 0 403 327q0 152 -91 237t-265 85q-47 0 -117 -6v-574z" />
<glyph unicode="&#x42b;" horiz-adv-x="1751" d="M25 0v39q115 12 143.5 43t28.5 141v887q0 129 -28 163t-144 44v39h573v-39q-121 -4 -156.5 -38t-35.5 -146v-332q80 6 141 6q233 0 358 -70q90 -47 143.5 -144t53.5 -202q0 -154 -84 -244q-61 -68 -184 -107.5t-269 -39.5h-540zM406 145q0 -41 14 -55t55 -14 q403 0 404 327q0 152 -91.5 237t-265.5 85q-47 0 -116 -6v-574zM1102 0v39q129 4 163.5 37t34.5 147v910q0 113 -33.5 144.5t-164.5 39.5v39h608v-39q-129 -6 -165 -39t-36 -145v-910q0 -113 37 -146.5t164 -37.5v-39h-608z" />
<glyph unicode="&#x42c;" horiz-adv-x="1138" d="M33 0v39q115 12 143.5 43t28.5 141v887q0 129 -27.5 163t-144.5 44v39h573v-39q-121 -4 -156.5 -38t-35.5 -146v-326h141q233 0 358 -70q90 -47 143.5 -144t53.5 -202q0 -154 -84 -244q-61 -68 -184 -107.5t-269 -39.5h-540zM414 145q0 -41 14 -55t55 -14q403 0 404 327 q0 152 -91 237t-266 85q-47 0 -116 -6v-574z" />
<glyph unicode="&#x42d;" horiz-adv-x="1329" d="M20 231l37 37q215 -207 457 -207q197 0 332 119q164 147 176 465h-623v90h621q-10 260 -141 414t-344 154q-180 0 -306 -125q-49 -49 -77.5 -102.5t-57.5 -153.5h-47l19 462h43q18 -68 86 -67q35 0 79 18q152 49 299 49q266 0 465 -176q221 -197 222 -542 q0 -297 -166 -484q-92 -100 -227.5 -155.5t-286.5 -55.5q-174 0 -320 67.5t-240 192.5z" />
<glyph unicode="&#x42e;" horiz-adv-x="1961" d="M25 0v39q119 8 149.5 43t30.5 164v887q0 111 -31 142.5t-149 41.5v39h569v-39q-119 -10 -149.5 -42t-30.5 -142v-398h223q18 291 185 470t442 179q143 0 249.5 -52t206.5 -163q172 -188 172 -499q0 -313 -171 -506t-470 -193q-248 0 -440 209q-162 174 -172 465h-225 v-422q0 -109 32.5 -141.5t147.5 -42.5v-39h-569zM868 674q0 -170 47.5 -314.5t126.5 -214.5q61 -53 106.5 -76.5t111.5 -23.5q76 0 124 24.5t107 84.5q74 74 100 149q68 176 68 369q0 379 -174 536q-61 55 -108.5 79t-112.5 24q-80 0 -133.5 -31t-119 -102.5t-104.5 -209.5 t-39 -294z" />
<glyph unicode="&#x42f;" horiz-adv-x="1390" d="M35 0v39q59 4 97 24.5t81 71.5l422 518q-178 35 -266 107q-104 84 -105 235q0 135 80 224q59 63 178 100t262 37h566v-39q-115 -12 -144.5 -44t-29.5 -140v-887q0 -127 29.5 -163t144.5 -44v-39h-568v39q119 8 152 41t33 143v404l-115 4l-487 -631h-330zM487 999 q0 -166 117 -227q70 -39 141.5 -52t221.5 -18v504q0 43 -21.5 58.5t-83.5 15.5q-193 0 -284 -69t-91 -212z" />
<glyph unicode="&#x430;" horiz-adv-x="909" d="M76 199q0 111 74 178q66 57 132 91t306 130v125q0 170 -156 170q-61 0 -104 -29.5t-43 -70.5q0 -23 6 -50q4 -29 4 -32q0 -35 -27.5 -60.5t-64.5 -25.5q-35 0 -61.5 26.5t-26.5 61.5q0 96 99 162.5t245 66.5q184 0 254 -113q41 -66 41 -215v-399q0 -68 13 -93.5t48 -25.5 q43 0 90 39v-53q-53 -59 -93 -80.5t-91 -21.5q-63 0 -93 34.5t-38 114.5q-176 -150 -299 -149q-94 0 -154.5 61.5t-60.5 157.5zM256 256q0 -66 38 -112t91 -46q70 0 150 47q33 18 43 39t10 68v297q-184 -68 -258 -131.5t-74 -153.5v-8z" />
<glyph unicode="&#x431;" d="M59 586q2 242 51.5 407.5t174.5 286.5q45 43 124.5 69.5t122.5 26.5h199q53 0 75.5 1t45 9.5t35.5 24.5h47q-18 -43 -27.5 -59.5t-33 -48t-50 -44t-74 -23.5t-110.5 -11h-107q-156 -2 -272 -119q-49 -49 -79.5 -136t-36 -160t-15.5 -134q61 145 154.5 205.5t228.5 60.5 q197 0 324 -131t127 -332q0 -213 -131.5 -356t-323.5 -143q-205 0 -328 150.5t-121 455.5zM244 563q0 -227 90 -395q70 -131 198 -131q115 0 180.5 98t65.5 273q0 211 -82 344t-211 133q-109 0 -175 -88.5t-66 -233.5z" />
<glyph unicode="&#x432;" horiz-adv-x="942" d="M31 0v31q70 4 99.5 33.5t29.5 107.5v510v44q0 22 -2 42t-6.5 38.5t-13.5 33t-22.5 26t-35 17.5t-49.5 6v33h379q254 0 343 -55.5t89 -182.5q0 -90 -82 -139q-27 -20 -58.5 -34.5t-101.5 -25.5q98 -16 131 -27.5t80 -39.5q84 -53 84 -168q0 -127 -98 -187 q-102 -63 -342 -63h-424zM329 115.5q-3 -19.5 14 -30.5t65 -11q168 0 219 32q88 59 88 144q0 57 -44 111.5t-116 74.5q-39 10 -133 10h-90v-288q0 -23 -3 -42.5zM332 520h104q117 0 175.5 45t60.5 115q2 80 -56.5 123t-181.5 43h-59q-43 0 -43 -43v-283z" />
<glyph unicode="&#x433;" horiz-adv-x="819" d="M31 0v31q78 6 103.5 40.5t25.5 131.5v516q0 96 -25.5 131t-103.5 41v31h712l9 -256h-37q-14 113 -47 146.5t-125 33.5h-211v-680q0 -76 24.5 -101.5t100.5 -33.5v-31h-426z" />
<glyph unicode="&#x434;" horiz-adv-x="1060" d="M74 -256l6 315q70 2 113 22.5t67 78.5q74 182 74 329v230q0 96 -25.5 131t-103.5 41v31h809v-31q-76 -8 -100.5 -34t-24.5 -101v-553q0 -92 23.5 -114.5t105.5 -29.5l6 -315h-37q-31 256 -203 256h-471q-172 0 -202 -256h-37zM327 88q5 -12 31 -12h230q76 0 102.5 37 t26.5 135v598h-299v-357q0 -160 -78 -342q-18 -47 -13 -59z" />
<glyph unicode="&#x435;" horiz-adv-x="909" d="M51 438q0 264 152 398q119 106 276 106q164 0 262 -117q68 -86 88 -258h-630q6 -166 55 -270q90 -176 264 -176q98 0 171 49t147 166l32 -14q-63 -166 -175.5 -254t-258.5 -88q-176 0 -279.5 123.5t-103.5 334.5zM203 633h418q-20 133 -63.5 184t-137.5 51 q-184 1 -217 -235z" />
<glyph unicode="&#x436;" horiz-adv-x="1370" d="M29 0v31q68 4 91 16t68 68q33 45 68 117l57 123q23 50 66 93.5t102 53.5q-41 16 -76.5 93l-64.5 144.5t-53.5 67.5t-48 -26.5t-56.5 -26.5q-37 0 -63.5 20.5t-26.5 56.5q0 111 123 111q45 0 77 -16.5t53.5 -54t30.5 -66.5l25 -84q25 -82 73 -143.5t108 -61.5h18v268 q0 53 -25.5 78t-87.5 27l-41 2v31h480v-31l-41 -2q-61 -2 -87 -26.5t-26 -78.5v-268h19q59 0 107 61.5t73 143.5q14 55 24.5 84t32 66.5t53 54t76.5 16.5q123 0 123 -111q0 -37 -26.5 -57t-63.5 -20q-33 0 -56.5 26.5t-48 26.5t-53 -67.5t-64.5 -144.5t-77 -93 q59 -10 102 -53t66 -94l57 -123q35 -73 68 -117q45 -55 68.5 -67.5t90.5 -16.5v-31h-282l-205 410q-12 20 -22.5 31.5t-18.5 14.5t-18 3h-25v-322q0 -53 25.5 -77.5t87.5 -26.5l41 -2v-31h-480v31l41 2q61 2 87 26.5t26 77.5v322h-25q-10 0 -18 -3t-18.5 -14.5t-22.5 -31.5 l-205 -410h-282z" />
<glyph unicode="&#x437;" horiz-adv-x="743" d="M70 252l47 10q51 -207 243 -207q74 0 134.5 46t60.5 148.5t-60.5 162t-156.5 59.5h-80v51h76q203 0 203 183q0 82 -54.5 136t-128.5 54q-102 0 -153 -58.5t-72 -193.5h-31l8 279h23l4 -4q16 -16 29 -17q25 0 55 14q68 25 143 25q135 0 229.5 -61.5t94.5 -184.5 q0 -172 -137 -198q176 -39 176 -230q0 -123 -85 -204.5t-273 -81.5q-82 0 -139.5 23.5t-88.5 66.5t-45 84t-22 98z" />
<glyph unicode="&#x438;" horiz-adv-x="1048" d="M31 0v31q78 6 103.5 40.5t25.5 131.5v516q0 96 -25.5 131t-103.5 41v31h426v-31q-76 -8 -100.5 -34t-24.5 -101v-414l389 360v17q0 96 -25.5 131t-103.5 41v31h426v-31q-76 -8 -100.5 -34t-24.5 -101v-590q0 -76 24.5 -101.5t100.5 -33.5v-31h-426v31q78 6 103.5 40.5 t25.5 131.5v385l-389 -361v-61q0 -76 24.5 -101.5t100.5 -33.5v-31h-426z" />
<glyph unicode="&#x439;" horiz-adv-x="1048" d="M31 0v31q78 6 103.5 40.5t25.5 131.5v516q0 96 -25.5 131t-103.5 41v31h426v-31q-76 -8 -100.5 -34t-24.5 -101v-414l389 360v17q0 96 -25.5 131t-103.5 41v31h426v-31q-76 -8 -100.5 -34t-24.5 -101v-590q0 -76 24.5 -101.5t100.5 -33.5v-31h-426v31q78 6 103.5 40.5 t25.5 131.5v385l-389 -361v-61q0 -76 24.5 -101.5t100.5 -33.5v-31h-426zM238 1366h59q23 -102 77 -150.5t152 -48.5q90 0 137.5 41t90.5 158h59q-37 -322 -291 -322q-150 0 -229 111q-53 78 -55 211z" />
<glyph unicode="&#x43a;" horiz-adv-x="1040" d="M31 0v31q111 18 132 37.5t21 99.5v586q0 80 -21.5 99t-131.5 38v31h479v-31l-41 -2q-61 -2 -87 -26.5t-26 -78.5v-268h60q59 0 108 61.5t72 143.5q14 55 24.5 84t32 66.5t53 54t76.5 16.5q123 0 123 -111q0 -37 -26.5 -57t-63.5 -20q-33 0 -56.5 26.5t-48 26.5t-53 -67.5 t-64.5 -144.5t-77 -93q76 -14 131 -69.5t121 -168t92 -149.5q45 -55 68.5 -67.5t91.5 -16.5v-31h-283l-256 410q-12 20 -28.5 31.5t-33 14.5t-33.5 4t-30 -1v-322q0 -53 26 -77.5t87 -26.5l41 -2v-31h-479z" />
<glyph unicode="&#x43b;" horiz-adv-x="1013" d="M29 66q0 86 67 88q29 2 65 -25t62 -27q51 0 81 114t30 228v275q0 96 -25.5 131t-103.5 41v31h778v-31q-76 -8 -100.5 -34t-24.5 -101v-590q0 -76 24.5 -101.5t100.5 -33.5v-31h-426v31q78 6 103.5 40.5t25.5 131.5v643h-268v-393q0 -246 -77 -358.5t-177 -112.5 q-135 0 -135 84z" />
<glyph unicode="&#x43c;" horiz-adv-x="1282" d="M31 0v31q78 6 103.5 40.5t25.5 131.5v516q0 96 -25.5 131t-103.5 41v31h344l274 -689l264 689h338v-31q-76 -8 -100.5 -34t-24.5 -101v-590q0 -76 25 -101.5t100 -33.5v-31h-426v31q78 6 103.5 40.5t25.5 131.5v618l-297 -747q-41 -102 -57 -103q-18 0 -37 54q-2 4 -8 20 t-8 23l-316 753v-655q0 -76 25 -101.5t100 -33.5v-31h-325z" />
<glyph unicode="&#x43d;" horiz-adv-x="1017" d="M31 0v31q78 6 103.5 40.5t25.5 131.5v516q0 96 -25.5 131t-103.5 41v31h426v-31q-76 -8 -100.5 -34t-24.5 -101v-238h358v201q0 96 -25.5 131t-103.5 41v31h426v-31q-76 -8 -100.5 -34t-24.5 -101v-590q0 -76 24.5 -101.5t100.5 -33.5v-31h-426v31q78 6 103.5 40.5 t25.5 131.5v239h-358v-276q0 -76 24.5 -101.5t100.5 -33.5v-31h-426z" />
<glyph unicode="&#x43e;" d="M59 463q0 211 126 345t327 134q197 0 324 -131t127 -332q0 -213 -131.5 -356t-324 -143t-320.5 138t-128 345zM244 563q0 -227 90 -395q70 -131 198 -131q115 0 180.5 98t65.5 273q0 211 -82 344t-211 133q-109 0 -175 -88.5t-66 -233.5z" />
<glyph unicode="&#x43f;" horiz-adv-x="1058" d="M31 0v31q78 6 103.5 40.5t25.5 131.5v516q0 96 -25.5 131t-103.5 41v31h997v-31q-76 -8 -100.5 -34t-24.5 -101v-590q0 -76 24.5 -101.5t100.5 -33.5v-31h-426v31q78 6 103.5 40.5t25.5 131.5v643h-399v-680q0 -76 24.5 -101.5t100.5 -33.5v-31h-426z" />
<glyph unicode="&#x440;" d="M10 -410q90 8 117 35t27 107v958q0 72 -16.5 94.5t-67.5 22.5q-33 0 -52 -2v33q129 39 295 104l13 -4v-158q131 162 295 162q150 0 246 -123t96 -313q0 -223 -124 -374.5t-307 -151.5q-66 0 -109.5 18t-96.5 70v-322q0 -96 32.5 -124t147.5 -30v-36h-496v34zM326 180 q0 -45 70.5 -90t142.5 -45q111 0 179 105.5t68 275.5q0 178 -68.5 285.5t-182.5 107.5q-72 0 -140.5 -45t-68.5 -90v-504z" />
<glyph unicode="&#x441;" horiz-adv-x="909" d="M51 436q0 250 160 391q131 115 289 115q129 0 222 -62.5t93 -148.5q0 -35 -28.5 -60.5t-69.5 -25.5q-70 0 -96 94l-13 45q-16 57 -40.5 78t-80.5 21q-125 0 -201.5 -99.5t-76.5 -257.5q0 -176 89 -287.5t228 -111.5q88 0 151.5 42t137.5 150l29 -18q-80 -158 -156 -225 q-113 -96 -248 -96q-170 0 -279.5 127.5t-109.5 328.5z" />
<glyph unicode="&#x442;" horiz-adv-x="933" d="M63 666l9 256h790l8 -256h-36q-14 113 -47 146.5t-125 33.5h-109v-680q0 -76 24.5 -101.5t100.5 -33.5v-31h-426v31q49 4 65.5 6t36 15.5t23.5 39t4 74.5v680h-109q-92 0 -124.5 -34t-47.5 -146h-37z" />
<glyph unicode="&#x443;" d="M29 893v29h422v-31q-66 -2 -92.5 -14.5t-26.5 -40.5q0 -31 20 -78l236 -518l198 565q8 18 9 35q0 51 -99 51v31h277v-31q-37 -4 -57.5 -23.5t-41.5 -68.5l-315 -836q-82 -221 -163 -315t-183 -94q-66 0 -109 33.5t-43 84.5q0 37 27 63.5t62 26.5q47 0 108 -22 q29 -14 51.5 -14t52 26.5t50.5 65.5q27 45 54.5 121.5t27.5 99.5q0 45 -91 207l-30 61l-6 17l-234 503q-24 54 -104 66z" />
<glyph unicode="&#x444;" horiz-adv-x="1452" d="M55 420q0 223 121 373.5t311 150.5q53 0 79 -9t77 -38v250q0 72 -16.5 94.5t-67.5 22.5q-33 0 -51 -2v32q129 39 295 105l12 -4v-615q76 94 125 129t129 35q147 0 234.5 -123t87.5 -315q0 -225 -115 -375.5t-295 -150.5q-41 0 -64.5 8t-45.5 27l-56 53v-322 q0 -96 33 -124t147 -30v-36h-495v34q90 8 116.5 35t26.5 107v399q-74 -80 -135.5 -117t-145.5 -37q-141 0 -224 123t-83 320zM231 494q0 -102 30 -192.5t79 -135.5q61 -61 139 -62q31 0 55.5 9.5t38 19.5t41.5 35q29 23 29 92v422q0 111 -29.5 158t-119.5 47 q-129 0 -196 -104.5t-67 -288.5zM815 180q0 -49 51.5 -92t120.5 -43q109 0 168 103.5t59 277.5q0 182 -60 287.5t-171 105.5q-68 0 -118 -43t-50 -92v-504z" />
<glyph unicode="&#x445;" d="M35 0v31q51 4 76.5 22.5t72.5 81.5l234 338l-193 295q-47 72 -79.5 97.5t-77.5 25.5h-19v31h424v-31q-88 -2 -88 -45q0 -41 94 -182l29 -41q49 74 61 90q76 94 76 133t-82 45v31h324v-31q-104 -4 -166 -90l-170 -246l262 -401q49 -70 85 -96.5t83 -26.5v-31h-412v31 q51 4 66.5 13t15.5 36q0 18 -12 37l-186 286l-162 -251q-41 -63 -41 -84q0 -37 82 -37v-31h-297z" />
<glyph unicode="&#x446;" horiz-adv-x="1017" d="M31 0v31q76 8 100.5 33.5t24.5 101.5v590q0 76 -25 101.5t-100 33.5v31h426v-31q-78 -6 -103.5 -41t-25.5 -131v-643h358v680q0 76 -24.5 101.5t-100.5 33.5v31h426v-31q-78 -6 -103.5 -41t-25.5 -131v-516q0 -96 25.5 -131t103.5 -41l6 -287h-37q-31 256 -202 256h-723z " />
<glyph unicode="&#x447;" horiz-adv-x="983" d="M27 891v31h426v-31q-76 -8 -100.5 -34t-24.5 -101v-236q-2 -63 46 -104t105 -43q102 -2 176 98v248q0 96 -25.5 131t-103.5 41v31h426v-31q-76 -8 -100.5 -34t-24.5 -101v-590q0 -76 25 -101.5t100 -33.5v-31h-426v31q78 6 103.5 40.5t25.5 131.5v172q-92 -102 -237 -103 q-90 0 -177 62.5t-85 181.5v203q0 96 -25.5 131t-103.5 41z" />
<glyph unicode="&#x448;" horiz-adv-x="1429" d="M31 0v31q76 8 100.5 33.5t24.5 101.5v590q0 76 -25 101.5t-100 33.5v31h426v-31q-78 -6 -103.5 -41t-25.5 -131v-643h299v680q0 76 -24.5 101.5t-100.5 33.5v31h426v-31q-78 -6 -103.5 -41t-25.5 -131v-643h299v680q0 76 -24.5 101.5t-100.5 33.5v31h426v-31 q-78 -6 -103.5 -41t-25.5 -131v-516q0 -96 25.5 -131t103.5 -41v-31h-1368z" />
<glyph unicode="&#x449;" horiz-adv-x="1443" d="M31 0v31q76 8 100.5 33.5t24.5 101.5v590q0 76 -25 101.5t-100 33.5v31h426v-31q-78 -6 -103.5 -41t-25.5 -131v-643h299v680q0 76 -24.5 101.5t-100.5 33.5v31h426v-31q-78 -6 -103.5 -41t-25.5 -131v-643h299v680q0 76 -24.5 101.5t-100.5 33.5v31h426v-31 q-78 -6 -103.5 -41t-25.5 -131v-516q0 -96 25.5 -131t103.5 -41l6 -281h-37q-31 250 -203 250h-1134z" />
<glyph unicode="&#x44a;" horiz-adv-x="1013" d="M29 666l8 256h579v-33q-29 0 -50 -6t-34.5 -17.5t-22.5 -26t-13 -33t-6.5 -38.5t-2.5 -42v-44v-121h54q78 0 176 -8q133 -16 209 -92q57 -57 57 -170q0 -53 -31.5 -119t-83.5 -96q-123 -76 -340 -76h-342v31q70 4 99.5 33.5t29.5 107.5v674h-77q-92 0 -125 -34t-47 -146 h-37zM487 158q0 -31 1 -44.5t12.5 -26.5t36.5 -13q66 0 93 3t39 11l31 23q88 57 88 159q0 61 -33.5 118.5t-101.5 82.5q-10 8 -32.5 12t-133.5 4v-329z" />
<glyph unicode="&#x44b;" horiz-adv-x="1269" d="M31 0v31q70 4 99.5 33.5t29.5 107.5v510v44q0 22 -2 42t-6.5 38.5t-13.5 33t-22.5 26t-35 17.5t-49.5 6v33h430v-33q-29 0 -50.5 -6t-35 -17.5t-22.5 -26t-13 -33t-6 -38.5t-2 -42v-44v-121h53q78 0 176 -8q133 -16 209 -92q57 -57 57 -170q0 -53 -31.5 -119t-82.5 -96 q-123 -76 -340 -76h-342zM332 158q0 -31 1 -44.5t12 -26.5t36 -13q66 0 93.5 3t38.5 11l32 23q88 57 88 159q0 61 -34 118.5t-101 82.5q-10 8 -33 12t-133 4v-329zM813 0v31q78 6 103.5 40.5t25.5 131.5v516q0 96 -25.5 131t-103.5 41v31h426v-31q-76 -8 -100.5 -34 t-24.5 -101v-590q0 -76 24.5 -101.5t100.5 -33.5v-31h-426z" />
<glyph unicode="&#x44c;" horiz-adv-x="872" d="M31 0v31q70 4 99.5 33.5t29.5 107.5v510v44q0 22 -2 42t-6.5 38.5t-13.5 33t-22.5 26t-35 17.5t-49.5 6v33h430v-33q-29 0 -50.5 -6t-35 -17.5t-22.5 -26t-13 -33t-6 -38.5t-2 -42v-44v-121h53q78 0 176 -8q133 -16 209 -92q57 -57 57 -170q0 -53 -31.5 -119t-82.5 -96 q-123 -76 -340 -76h-342zM332 158q0 -31 1 -44.5t12 -26.5t36 -13q66 0 93.5 3t38.5 11l32 23q88 57 88 159q0 61 -34 118.5t-101 82.5q-10 8 -33 12t-133 4v-329z" />
<glyph unicode="&#x44d;" horiz-adv-x="913" d="M57 696q0 96 90.5 171t262.5 75q197 0 319.5 -134t122.5 -321q0 -217 -130 -361t-323 -144q-104 0 -176.5 60t-138.5 165l35 24q59 -88 139 -141t160 -53q119 0 184.5 98t65.5 266h-336v76h334q-18 184 -94 296t-201 112q-20 0 -37 -8.5t-26 -15.5t-19 -32.5t-12.5 -35 t-12.5 -43.5l-12 -45q-27 -94 -96 -95q-41 0 -70 25.5t-29 60.5z" />
<glyph unicode="&#x44e;" horiz-adv-x="1363" d="M31 0v31q78 6 103.5 40.5t25.5 131.5v516q0 96 -25.5 131t-103.5 41v31h426v-31q-76 -8 -100.5 -34t-24.5 -101v-238h135q16 193 125.5 308.5t292.5 115.5q193 0 306.5 -129t113.5 -334q0 -215 -117 -357t-307 -142q-184 0 -297 129t-121 333h-131v-276 q0 -76 24.5 -101.5t100.5 -33.5v-31h-426zM647 563q0 -526 258 -526q104 0 157.5 91t53.5 230q0 526 -258 527q-104 0 -157.5 -91.5t-53.5 -230.5z" />
<glyph unicode="&#x44f;" horiz-adv-x="1021" d="M27 0v33q35 2 52 6t32.5 12t29 23.5t37.5 40.5l238 295q-53 6 -88 21t-50.5 32.5t-37.5 38.5q-57 57 -58 149q0 53 31 110.5t84 90.5q113 70 307 70h387v-31q-70 -4 -99.5 -34t-29.5 -107v-510v-44q0 -22 2 -42.5t6 -39t13.5 -32.5t23 -25.5t35 -17.5t49.5 -6v-33h-430 v33q29 0 50.5 6t34.5 17.5t22.5 25.5t13.5 32.5t6 39t2 42.5v44v161h-96l-315 -401h-252zM344 672q0 -131 135 -180q47 -16 211 -17v289q0 31 -1 44t-12 26.5t-36 13.5q-98 0 -137 -7t-72 -30q-88 -57 -88 -139z" />
</font>
</defs>
</svg>
