<?xml version="1.0" standalone="no"?>
<!DOCTYPE svg PUBLIC "-//W3C//DTD SVG 1.1//EN" "http://www.w3.org/Graphics/SVG/1.1/DTD/svg11.dtd" >
<svg xmlns="http://www.w3.org/2000/svg">
<metadata>
This is a custom SVG webfont generated by Font Squirrel.
Copyright   : Copyright URW copyright 1999 by URW Design  Development Cyrillic glyphs added by Valek Filippov copyright 20012002 Vietnamese characters were added by Han The Thanh copyright 2006 2008 for TeX Gyre extensions by B Jackowski and JM Nowacki on behalf of TeX users groups This work is released under the GUST Font License   see httptugorgfontslicensesGUSTFONTLICENSEtxt for details
</metadata>
<defs>
<font id="webfontx00WWBUY" horiz-adv-x="1024" >
<font-face units-per-em="2048" ascent="1628" descent="-420" />
<missing-glyph horiz-adv-x="512" />
<glyph unicode="IJ" horiz-adv-x="1968" d="M90 0v51q115 10 153 39t38 107v991q0 78 -40 107.5t-151 37.5v51h717v-51q-113 -4 -154 -34.5t-41 -110.5v-991q0 -80 39 -109t156 -37v-51h-717zM903 74q0 59 43 103t101 44q59 0 104 -46t45 -107q0 -39 -31 -78q-25 -33 -24 -53q0 -29 25.5 -47.5t66.5 -18.5 q70 0 100.5 42t30.5 136v1139q0 82 -41 111.5t-166 33.5v51h721v-51q-115 -8 -148.5 -43t-33.5 -145v-893q0 -219 -111.5 -334t-327.5 -115q-129 0 -217 47q-59 35 -98 98t-39 126z" />
<glyph unicode="ij" horiz-adv-x="1249" d="M90 0v49q70 16 89.5 38t19.5 85v602q0 63 -20.5 85t-88.5 36v49h393v-778q0 -57 21.5 -83t75.5 -34v-49h-490zM180 1249.5q0 67.5 46 112.5t111.5 45t112 -45t46.5 -112.5t-46.5 -112.5t-112 -45t-111.5 45t-46 112.5zM510 -211q0 55 35 90t92 35q51 0 86 -32t35 -79 q0 -33 -29 -75q-18 -31 -18 -45q0 -35 65 -35q51 0 74.5 36.5t23.5 118.5v971q0 66 -25.5 90.5t-103.5 30.5v49h414v-940q0 -172 -55 -264q-88 -156 -307 -156q-127 0 -207 57.5t-80 147.5zM856 1249.5q0 67.5 46 112.5t111.5 45t111.5 -45t46 -112.5t-46 -112.5t-111.5 -45 t-111.5 45t-46 112.5z" />
<glyph unicode="fk" horiz-adv-x="1708" d="M29 0v49q72 8 94 32.5t22 90.5v682h-116v90h116q4 141 27 220t74 134q106 117 307 117q152 0 309 -63l96 61h39v-911l263 262q43 43 43 78q0 39 -72 47l-49 8v47h438v-47q-96 -12 -165 -59t-222 -209l397 -549q23 -31 51 -31v-49h-479v49q86 4 86 39q0 25 -49 92 l-195 275l-47 -49v-240q0 -109 76 -115l25 -2v-49h-482v49l17 2q80 8 80 115v688h-283v-688q0 -59 20.5 -84t75.5 -33v-49h-497zM430 944h283v201q-43 14 -43 72q0 23 16 53q10 25 10 37q0 41 -84 41q-104 0 -143 -59.5t-39 -217.5v-127z" />
<glyph unicode="&#xfb00;" horiz-adv-x="1249" d="M29 0v49q72 8 94 32.5t22 90.5v682h-116v90h116q2 137 29 218t88 143q113 111 340 110q162 0 256 -53q88 53 213 53q131 0 212 -57.5t81 -147.5q0 -57 -35 -92t-92 -35q-51 0 -87 33t-36 80q0 29 27 74q18 27 18 43q0 39 -59 39q-55 0 -79 -37t-24 -121v-250h179v-90 h-179v-643q0 -100 31 -130t137 -32v-49h-569v49q70 8 93.5 32.5t23.5 90.5v682h-283v-688q0 -59 20.5 -84t75.5 -33v-49h-497zM430 944h283q0 115 8 174q-41 37 -43 86q0 27 14 56q10 27 10 55q0 10 -26.5 24.5t-65.5 14.5q-111 0 -145.5 -78t-34.5 -332z" />
<glyph unicode="&#xfb01;" horiz-adv-x="1138" d="M29 0v49q72 8 94 32.5t22 90.5v682h-116v90h116q2 137 29 218t88 143q113 111 340 110q170 0 267.5 -50t97.5 -138q0 -55 -37 -89t-96 -34q-57 0 -94.5 30.5t-37.5 77.5q0 33 15 72l4 14q0 23 -33 39.5t-78 16.5q-111 0 -145.5 -78t-34.5 -332h217q102 0 350 25v-803 q0 -61 22.5 -87t78.5 -30v-49h-482v49q57 6 77 30.5t20 86.5v618q0 39 -14.5 54.5t-55.5 15.5h-213v-688q0 -59 20.5 -84t75.5 -33v-49h-497z" />
<glyph unicode="&#xfb02;" horiz-adv-x="1138" d="M29 0v49q72 8 94 32.5t22 90.5v682h-116v90h116q4 141 27 220t74 134q106 117 307 117q152 0 309 -63l96 61h39v-1247q0 -109 76 -115l25 -2v-49h-482v49l17 2q80 8 80 115v688h-283v-688q0 -59 20.5 -84t75.5 -33v-49h-497zM430 944h283v201q-43 14 -43 72q0 23 16 53 q10 25 10 37q0 41 -84 41q-104 0 -143 -59.5t-39 -217.5v-127z" />
<glyph unicode="&#xfb03;" horiz-adv-x="1705" d="M29 0v49q72 8 94 32.5t22 90.5v682h-116v90h116q2 137 29 218t88 143q113 111 340 110q162 0 256 -53q8 -4 25 -16q106 70 286 69q170 0 267.5 -50t97.5 -138q0 -55 -37 -89t-96 -34q-57 0 -94 30.5t-37 77.5q0 33 14 72l4 14q0 23 -31.5 39.5t-78.5 16.5 q-111 0 -146 -78t-35 -332h217q102 0 351 25v-803q0 -61 22.5 -87t77.5 -30v-49h-481v49q57 6 76.5 30.5t19.5 86.5v618q0 39 -15.5 54.5t-54.5 15.5h-213v-688q0 -59 20.5 -84t76.5 -33v-49h-498v49q72 8 94.5 32.5t22.5 90.5v682h-283v-688q0 -59 20.5 -84t75.5 -33v-49 h-497zM430 944h283q4 109 16 168q-49 39 -51 92q0 27 14 56q10 27 10 55q0 10 -26.5 24.5t-65.5 14.5q-111 0 -145.5 -78t-34.5 -332z" />
<glyph unicode="&#xfb04;" horiz-adv-x="1705" d="M29 0v49q72 8 94 32.5t22 90.5v682h-116v90h116q2 137 29 218t88 143q113 111 340 110q162 0 256 -53l16 -10q102 63 246 63q150 0 310 -63l96 61h39v-1247q0 -109 75 -115l25 -2v-49h-481v49l16 2q80 8 80 115v688h-283v-688q0 -59 20.5 -84t76.5 -33v-49h-498v49 q72 8 94.5 32.5t22.5 90.5v682h-283v-688q0 -59 20.5 -84t75.5 -33v-49h-497zM430 944h283q4 111 16 170q-47 27 -51 90q0 27 14 56q10 27 10 55q0 10 -26.5 24.5t-65.5 14.5q-111 0 -145.5 -78t-34.5 -332zM997 944h283v201q-43 14 -43 72q0 23 16 53q10 25 11 37 q0 41 -84 41q-104 0 -143.5 -59.5t-39.5 -217.5v-127z" />
<glyph unicode=" "  horiz-adv-x="512" />
<glyph unicode="&#x09;" horiz-adv-x="512" />
<glyph unicode="&#xa0;" horiz-adv-x="512" />
<glyph unicode="!" horiz-adv-x="681" d="M166 1210q0 96 46 150.5t128 54.5t127 -54t45 -155q0 -61 -37 -178q-74 -233 -106 -549h-60q-20 188 -40.5 295t-65.5 254q-37 119 -37 182zM168 147q0 70 51 121t121 51q72 0 123 -52t51 -123.5t-51 -121t-125 -49.5q-72 0 -121 50t-49 124z" />
<glyph unicode="&#x22;" horiz-adv-x="1136" d="M170 1270q0 66 36 105.5t95 39.5q57 0 95 -39t38 -98q0 -61 -90 -451h-84q-23 94 -22 99q-68 266 -68 344zM702 1270q0 66 36 105.5t96 39.5q57 0 95 -39t38 -98q0 -63 -90 -451h-84q-20 90 -23 99q-68 270 -68 344z" />
<glyph unicode="#" d="M8 430v150h219l37 274h-196v150h217l61 430h158l-60 -430h232l61 430h158l-59 -430h180v-150h-201l-37 -274h178v-150h-200l-60 -430h-159l59 430h-231l-60 -430h-160l60 430h-197zM387 580h231l37 274h-231z" />
<glyph unicode="$" d="M59 1016q0 201 177 303q80 45 202 57v160h113v-156q121 -20 187.5 -41.5t138.5 -64.5v-289h-43q-45 154 -110 228.5t-173 99.5v-441q150 -78 214 -120.5t118 -104.5q84 -94 84 -246q0 -174 -103 -272q-49 -49 -118.5 -77.5t-194.5 -51.5v-203h-113v203q-96 4 -157.5 20.5 t-186.5 67.5v320l43 -5q49 -166 117 -242.5t182 -99.5v514q-205 102 -291 203t-86 238zM254 1135q0 -141 182 -205v389q-96 -25 -139 -67.5t-43 -116.5zM551 61q190 37 190 213q0 84 -33.5 126t-156.5 112v-451z" />
<glyph unicode="%" horiz-adv-x="2048" d="M254 881q0 197 142.5 352.5t320.5 155.5q76 0 153 -56q80 -57 191 -57q94 0 191.5 36t129.5 83q16 23 31 22h78l-807 -1433h-113l713 1269q-129 -55 -235 -55q-43 0 -97 10q-2 -250 -121 -424q-125 -182 -313 -182q-117 0 -190.5 78t-73.5 201zM487 811q-4 -49 25 -82 t74 -33q94 0 180 125q119 174 119 344q0 66 -60 90q-10 4 -32 21q-20 12 -33 16q-53 6 -127 -102q-53 -80 -97.5 -193.5t-48.5 -185.5zM1096 256q0 188 144 347t319 159q109 0 173 -64.5t64 -171.5q0 -119 -48 -239.5t-132 -206.5q-102 -109 -248 -109q-123 0 -197.5 78 t-74.5 207zM1335 180q0 -115 101 -114q115 0 209 172q84 150 84 272q0 63 -31 105t-76 42q-76 0 -149 -106q-51 -76 -94.5 -192t-43.5 -179z" />
<glyph unicode="&#x26;" horiz-adv-x="1705" d="M127 330q0 145 92 251.5t309 213.5q-61 106 -83.5 167.5t-22.5 129.5q0 150 107.5 236.5t291.5 86.5q156 0 249 -68.5t93 -181.5q0 -96 -73.5 -167.5t-237.5 -131.5l309 -438q90 113 123 174.5t33 122.5q0 45 -22.5 59.5t-112.5 24.5v49h422v-49q-66 -6 -93.5 -21.5 t-56.5 -60.5l-55 -90q-63 -100 -191 -277q86 -111 135.5 -148.5t108.5 -37.5q70 0 119 78l41 -25l-33 -53q-66 -106 -111 -143q-84 -63 -190 -64q-82 0 -147.5 39t-157.5 141q-240 -178 -455 -178q-172 0 -281.5 101.5t-109.5 259.5zM412 541q0 -80 41 -170t106 -160 q82 -86 182 -86q74 0 185 80q-76 98 -264 381l-99 147q-84 -49 -117.5 -92t-33.5 -100zM662 1233q0 -119 151 -307q78 27 110.5 64.5t32.5 101.5q0 102 -56 179t-132 77q-49 0 -77.5 -31t-28.5 -84z" />
<glyph unicode="'" horiz-adv-x="569" d="M154 1270q0 66 35.5 105.5t95.5 39.5q57 0 95 -39t38 -98q0 -57 -90 -451h-84q-20 90 -23 99q-67 266 -67 344z" />
<glyph unicode="(" horiz-adv-x="681" d="M94 530q0 406 268 697q59 63 114.5 103t150.5 91v-55q-92 -61 -137.5 -109.5t-77.5 -115.5q-86 -184 -86 -613q0 -410 90 -596q33 -70 78 -116.5t133 -102.5v-57q-150 90 -231 165t-152 185q-150 237 -150 524z" />
<glyph unicode=")" horiz-adv-x="681" d="M55 -289q92 61 138.5 109.5t76.5 116.5q86 184 86 612q0 410 -90 596q-33 68 -78 115t-133 104v57q150 -90 231 -164.5t152 -185.5q150 -238 150 -526q0 -406 -271 -695q-100 -109 -262 -194v55z" />
<glyph unicode="*" d="M115 1141q0 45 26.5 72.5t71.5 27.5q41 0 68.5 -19.5t60.5 -72.5q39 -61 61.5 -83t79.5 -54l15 6q-2 66 -10.5 97.5t-41.5 88.5q-37 68 -36 109q0 43 30.5 72.5t75.5 29.5q43 0 70.5 -30.5t27.5 -81.5q0 -41 -32 -99q-45 -74 -45 -147v-39l16 -6q55 43 79.5 69.5 t65.5 85.5q31 47 53.5 63.5t57.5 16.5q41 0 73.5 -31.5t32.5 -70.5q0 -29 -21.5 -57.5t-51.5 -43.5q-35 -14 -92 -14q-66 -2 -97.5 -12t-83.5 -43v-17q88 -41 197 -51q82 -6 115.5 -29.5t33.5 -74.5q0 -43 -28.5 -73t-71.5 -30q-41 0 -72.5 26t-80.5 101q-47 68 -117 103 l-15 -10q12 -111 60 -205q29 -55 28 -86q0 -45 -29.5 -76t-74.5 -31t-71.5 32t-26.5 85q0 41 30 96q31 51 38.5 82t9.5 103l-15 10q-59 -43 -83.5 -68.5t-65.5 -85.5q-31 -47 -54.5 -64.5t-56.5 -17.5q-43 0 -72.5 30t-29.5 73q0 115 174 114q66 4 94.5 13.5t77.5 42.5v14 q-96 43 -209 53q-80 6 -109.5 29t-29.5 78z" />
<glyph unicode="+" horiz-adv-x="1167" d="M90 422v180h404v404h180v-404h403v-180h-403v-404h-180v404h-404z" />
<glyph unicode="," horiz-adv-x="512" d="M80 147q0 78 46 124t124 46q92 0 149.5 -65.5t57.5 -171.5q0 -133 -81 -239.5t-259 -209.5l-23 45q223 156 223 271q0 45 -38 45l-15 -2q-12 -2 -35 -2q-66 0 -107.5 44.5t-41.5 114.5z" />
<glyph unicode="-" horiz-adv-x="681" d="M90 350v238h498v-238h-498z" />
<glyph unicode="." horiz-adv-x="512" d="M84 147q0 70 51 121t121 51q72 0 123 -52t51 -123.5t-51 -121t-125 -49.5q-72 0 -121 50t-49 124z" />
<glyph unicode="/" horiz-adv-x="569" d="M-49 -39l483 1454h184l-483 -1454h-184z" />
<glyph unicode="0" d="M49 696q0 127 31 259t80 216q63 111 157.5 174.5t194.5 63.5q199 0 331 -206t132 -513q0 -309 -131 -513t-330 -204q-205 0 -335 203t-130 520zM373 455q0 -227 32.5 -325.5t108.5 -98.5q70 0 102 88q35 104 35 336v469q0 227 -32.5 327.5t-108.5 100.5 q-74 0 -105.5 -98.5t-31.5 -329.5v-469z" />
<glyph unicode="1" d="M133 1133v53l516 223h35v-1167q0 -119 41 -155t180 -38v-49h-768v49q152 2 198 40t46 165v788q0 141 -74 142q-39 0 -133 -35q-8 -6 -41 -16z" />
<glyph unicode="2" d="M35 0v47q223 238 310 341.5t165 223.5q104 160 104 303q0 76 -41 148q-70 113 -202 113q-158 0 -250 -185h-58q43 115 81 179.5t98 123.5q111 115 272 115q166 0 272.5 -105.5t106.5 -269.5q0 -225 -234 -446l-331 -316h309q158 0 203 25t90 135h49l-92 -432h-852z" />
<glyph unicode="3" d="M33 156q0 51 36.5 84.5t96.5 33.5q90 0 203 -112q90 -88 155 -88q92 0 146.5 65.5t54.5 175.5q0 156 -100 250q-55 51 -119 85t-193 79v35q145 47 206 107.5t61 160.5q0 96 -56.5 153.5t-152.5 57.5q-80 0 -136.5 -39t-115.5 -133l-43 25q168 313 469 313 q158 0 246 -74.5t88 -206.5q0 -90 -36 -145t-134 -115q104 -47 159 -110q90 -109 90 -254q0 -223 -178 -378t-434 -155q-141 0 -227 50.5t-86 134.5z" />
<glyph unicode="4" d="M39 295v231q166 262 520 725l121 158h164v-887h129v-227h-129v-295h-297v295h-508zM123 522h428v608z" />
<glyph unicode="5" d="M45 164q0 53 36 88t91 35q80 0 203 -92q115 -86 184 -86q86 0 145.5 59t59.5 145q0 102 -77 184.5t-214 125.5q-115 37 -369 55l199 706h660l-89 -260h-569l-45 -166q213 -12 309 -40q168 -47 261.5 -164t93.5 -277q0 -217 -162 -355t-416 -138q-137 0 -219 49t-82 131z " />
<glyph unicode="6" d="M57 559q0 418 351 660q117 80 234.5 120.5t320.5 69.5v-53q-223 -45 -355.5 -174t-189.5 -355q80 35 172 35q174 0 278.5 -110.5t104.5 -296.5q0 -209 -125 -345.5t-316 -136.5q-215 0 -345 160t-130 426zM377 496q0 -301 55 -408q31 -59 105 -59q76 0 100.5 60.5 t24.5 242.5q0 244 -41 341t-144 97q-47 0 -74 -20q-26 -18 -26 -254z" />
<glyph unicode="7" d="M35 930l90 454h852l-481 -1384h-195l410 1104h-424q-84 0 -128 -38t-73 -136h-51z" />
<glyph unicode="8" d="M57 322q0 139 90 225q70 68 218 117q-152 90 -218.5 181t-66.5 206q0 162 126 260t333 98q182 0 290.5 -80t108.5 -217q0 -98 -65.5 -165.5t-213.5 -119.5q164 -104 236 -207.5t72 -236.5q0 -184 -131 -297t-344 -113q-195 0 -315 96.5t-120 252.5zM305 330 q0 -137 52.5 -214t146.5 -77q82 0 130 59.5t48 161.5q0 113 -52 183.5t-220 183.5q-61 -90 -83 -151.5t-22 -145.5zM344 1180q0 -178 266 -316q51 68 67.5 115t16.5 119q0 121 -47 186.5t-133 65.5q-72 0 -121 -49t-49 -121z" />
<glyph unicode="9" d="M53 926q0 211 124 347t317 136q215 0 345 -159.5t130 -426.5q0 -395 -320 -637q-121 -90 -245.5 -136t-340.5 -77v54q221 45 352.5 172t196.5 360q-76 -39 -186 -39q-168 0 -270.5 112t-102.5 294zM365 1055q0 -242 39.5 -342.5t134.5 -100.5q57 0 84 19q8 4 10 41l6 53 q10 154 10 213q0 250 -51 346q-33 70 -108.5 70t-100 -60.5t-24.5 -238.5z" />
<glyph unicode=":" horiz-adv-x="681" d="M168 147q0 70 51 121t121 51q72 0 123 -52t51 -123.5t-51 -121t-125 -49.5q-72 0 -121 50t-49 124zM168 797q0 70 51 120t121 50q72 0 123 -51.5t51 -123t-51 -121.5t-123 -50q-74 0 -123 50t-49 126z" />
<glyph unicode=";" horiz-adv-x="681" d="M168 147q0 78 47 124t123 46q92 0 149.5 -65.5t57.5 -171.5q0 -133 -81 -239.5t-259 -209.5l-23 45q223 156 224 273q0 16 -11.5 29.5t-25.5 13.5h-15l-24 -4h-17q-53 0 -92 35q-53 42 -53 124zM168 797q0 70 51 120t121 50q72 0 123 -51.5t51 -123t-51 -121.5t-123 -50 q-74 0 -123 50t-49 126z" />
<glyph unicode="&#x3c;" horiz-adv-x="1167" d="M137 432v160l850 455v-205l-616 -330l616 -330v-205z" />
<glyph unicode="=" horiz-adv-x="1167" d="M90 250v180h987v-180h-987zM90 596v180h987v-180h-987z" />
<glyph unicode="&#x3e;" horiz-adv-x="1167" d="M137 -23v205l617 330l-617 330v205l850 -455v-160z" />
<glyph unicode="?" d="M117 1116q0 129 108.5 212t276.5 83q184 0 296.5 -93t112.5 -247q0 -106 -54 -180t-193 -160q-96 -59 -121 -102t-25 -156h-61q-4 61 -4 94q0 74 65 199q88 166 88 305q0 127 -45 196.5t-127 69.5q-55 0 -90 -22.5t-35 -59.5q0 -27 31 -59q45 -51 45 -104q0 -59 -36 -95 t-93 -36q-59 0 -99 43.5t-40 111.5zM315 147q0 70 52.5 121t122 51t121 -51t51.5 -122.5t-50.5 -122t-122.5 -50.5q-74 0 -124 50t-50 124z" />
<glyph unicode="@" horiz-adv-x="1904" d="M221 676q0 309 225.5 524t546.5 215q293 0 491.5 -178t198.5 -438q0 -205 -115.5 -355.5t-271.5 -150.5q-76 0 -129 42t-63 111q-53 -70 -123 -110.5t-135 -40.5q-82 0 -137.5 67.5t-55.5 167.5q0 113 46 227.5t126 198.5q102 106 244 107q55 0 86 -21.5t64 -87.5l22 82 h145l-135 -532q-4 -20 -4 -37q0 -98 78 -98q102 0 182 129t80 290q0 221 -176 384t-416 163q-256 0 -420.5 -189.5t-164.5 -479.5q0 -268 172 -439.5t440 -171.5q184 0 408 101l26 -72q-150 -70 -247 -96.5t-212 -26.5q-328 0 -552 207t-224 508zM811 567q0 -82 33 -129 t88 -47q96 0 168 139q76 147 82 301q6 127 -86 134q-84 6 -178 -105q-107 -119 -107 -293z" />
<glyph unicode="A" horiz-adv-x="1478" d="M18 0v51q74 14 109 55t92 185l455 1122h57l457 -1077q82 -193 118.5 -239t104.5 -46v-51h-663v51l65 6q53 2 75.5 17.5t22.5 50.5q0 59 -94 278h-461l-30 -81q-59 -147 -59.5 -186.5t38.5 -59t129 -25.5v-51h-416zM387 483h399l-206 498z" />
<glyph unicode="B" horiz-adv-x="1366" d="M33 0v51q113 12 146.5 40t33.5 106v991q0 78 -37 108.5t-143 36.5v51h633q256 0 394 -85t138 -242q0 -117 -73.5 -187.5t-252.5 -121.5q188 -41 285 -123q111 -98 111 -240q0 -174 -158 -279.5t-418 -105.5h-659zM541 190q0 -68 28.5 -96t96.5 -28q250 0 249 301 q0 336 -313 335h-61v-512zM541 764q188 4 253.5 60.5t65.5 217.5q0 145 -51 213t-158 68q-59 0 -84.5 -22.5t-25.5 -77.5v-459z" />
<glyph unicode="C" horiz-adv-x="1478" d="M100 680q0 315 204 525t509 210q143 0 317 -72q66 -29 94.5 -28.5t48 20t42.5 74.5h55v-479h-51q-53 117 -97 181.5t-110 121.5q-129 115 -272 115q-186 0 -281.5 -165t-95.5 -485q0 -299 88 -460q45 -80 134 -129.5t189 -49.5q96 0 185 37q76 29 136 75t151 140l61 -51 q-156 -170 -281 -234.5t-301 -64.5q-319 0 -522 201t-203 518z" />
<glyph unicode="D" horiz-adv-x="1478" d="M29 0v51q88 2 129 35t41 100v1010q0 70 -36 98.5t-134 38.5v51h624q354 0 557 -180t203 -497.5t-202.5 -512t-534.5 -194.5h-647zM530 190q0 -70 25 -94t94 -24q197 0 301 141q106 150 107 463q0 266 -84 430q-102 209 -322 209q-121 0 -121 -72v-1053z" />
<glyph unicode="E" horiz-adv-x="1366" d="M33 0v51q115 12 147.5 39t32.5 107v991q0 78 -37 108.5t-143 36.5v51h1181v-411h-51q-39 205 -137 273.5t-348 68.5q-80 0 -106.5 -19.5t-26.5 -76.5v-476h10q158 0 227 64q72 66 95 242h53v-693h-53q-18 178 -91 248t-241 70v-496q0 -66 35.5 -90.5t134.5 -24.5 q229 0 368 113q94 80 172 250h58l-82 -426h-1198z" />
<glyph unicode="F" horiz-adv-x="1251" d="M33 0v51q115 12 147.5 39t32.5 107v991q0 80 -37 109.5t-143 35.5v51h1161v-411h-49q-37 168 -96 235q-94 106 -373 107q-78 0 -104.5 -19.5t-26.5 -76.5v-476q154 0 219 64.5t94 241.5h51v-693h-51q-20 178 -88 246t-225 72v-477q0 -84 42 -112t183 -34v-51h-737z" />
<glyph unicode="G" horiz-adv-x="1593" d="M76 678q0 315 203.5 526t508.5 211q141 0 318 -72q63 -29 94 -28q29 0 49.5 20.5t40.5 73.5h56v-479h-52q-53 117 -97 181.5t-110 121.5q-133 115 -272 115q-186 0 -281.5 -167t-95.5 -489q0 -367 133 -536q98 -127 283 -127q102 0 149.5 35.5t47.5 113.5v215 q0 84 -38 109.5t-169 34.5v51h702v-51q-115 -12 -145.5 -45t-30.5 -144v-260q-98 -57 -251.5 -92t-313.5 -35q-322 0 -525.5 200t-203.5 517z" />
<glyph unicode="H" horiz-adv-x="1593" d="M43 0v51q106 14 140 42t34 104v991q0 76 -36 105.5t-138 39.5v51h690v-51q-106 -8 -145 -37.5t-39 -107.5v-424h493v424q0 78 -38.5 107.5t-145.5 37.5v51h696v-51q-104 -8 -142 -38.5t-38 -106.5v-991q0 -76 35 -103.5t145 -42.5v-51h-696v51q113 12 148.5 41t35.5 105 v471h-493v-471q0 -76 36 -105t148 -41v-51h-690z" />
<glyph unicode="I" horiz-adv-x="796" d="M41 0v51q115 10 152.5 39t37.5 107v991q0 78 -39.5 107.5t-150.5 37.5v51h717v-51q-113 -4 -154 -34.5t-41 -110.5v-991q0 -80 39 -109t156 -37v-51h-717z" />
<glyph unicode="J" d="M6 74q0 59 43 103t101 44q59 0 104 -46t45 -107q0 -39 -31 -78q-25 -33 -24 -53q0 -29 25.5 -47.5t66.5 -18.5q70 0 100.5 42t30.5 136v1139q0 82 -41 111.5t-166 33.5v51h721v-51q-115 -8 -148.5 -43t-33.5 -145v-893q0 -219 -112 -334t-327 -115q-129 0 -217 47 q-59 35 -98 98t-39 126z" />
<glyph unicode="K" horiz-adv-x="1593" d="M61 0v51q111 12 145 40t34 106v991q0 80 -36 109.5t-143 35.5v51h693v-51q-113 -8 -148 -44t-35 -144v-438l445 446q47 47 60.5 67.5t13.5 45.5q0 31 -23 45t-78 16q-12 2 -74 6v51h592v-51q-150 -12 -259 -90t-398 -375l625 -774q35 -41 100 -43v-51h-688v51q29 2 65 2 q96 6 97 41q0 29 -50 90l-372 465l-56 -51v-401q0 -76 35 -103.5t146 -42.5v-51h-691z" />
<glyph unicode="L" horiz-adv-x="1366" d="M39 0v51q113 14 144.5 41t31.5 105v991q0 78 -36 108.5t-140 36.5v51h715v-51q-133 -6 -170 -39.5t-37 -148.5v-967q0 -66 33.5 -90.5t128.5 -24.5q233 0 358 113q53 49 90 108.5t90 180.5h60l-84 -465h-1184z" />
<glyph unicode="M" horiz-adv-x="1933" d="M29 0v51q119 12 152.5 42t33.5 122v973q0 80 -35 108.5t-147 36.5v51h518l410 -966l409 966h516v-51q-113 -8 -146.5 -43t-33.5 -145v-905q0 -109 30.5 -141.5t149.5 -47.5v-51h-680v51q115 10 149 39t34 115v1042l-517 -1247h-55l-516 1217v-963q0 -115 41 -155t166 -48 v-51h-479z" />
<glyph unicode="N" horiz-adv-x="1478" d="M33 0v51q113 14 146.5 45t33.5 119v971q-74 88 -108.5 117.5t-65.5 29.5v51h432l715 -878v624q0 109 -39 151t-152 52v51h441v-51q-100 -16 -130 -46t-30 -118v-1206h-57l-916 1114v-823q0 -109 38 -148.5t157 -54.5v-51h-465z" />
<glyph unicode="O" horiz-adv-x="1593" d="M72 686q0 319 205.5 524t527.5 205q309 0 513 -207t204 -520q0 -317 -204 -522t-521.5 -205t-521 204t-203.5 521zM434 668q0 -311 93.5 -475t269.5 -164t269 164.5t93 480.5q0 319 -93 496.5t-263 177.5q-180 0 -274.5 -174t-94.5 -506z" />
<glyph unicode="P" horiz-adv-x="1251" d="M33 0v51q45 8 49 8q72 8 97.5 46t25.5 135v905q0 109 -33 144.5t-139 43.5v51h659q256 0 396.5 -97t140.5 -275q0 -119 -66.5 -209t-189.5 -137q-68 -27 -148 -35t-288 -10v-381q0 -113 29.5 -142.5t150.5 -46.5v-51h-684zM537 692q197 0 262 56q78 70 78 253 q0 166 -55.5 239t-182.5 73q-102 0 -102 -72v-549z" />
<glyph unicode="Q" horiz-adv-x="1593" d="M72 678q0 319 205.5 528t519.5 209q317 0 521 -205.5t204 -525.5q0 -303 -193 -508q-66 -70 -133.5 -108.5t-191.5 -79.5q47 -96 96 -146q106 -106 258 -106q49 0 137 24l12 -49q-199 -72 -366 -71q-287 0 -467 180q-59 59 -115 176q-117 43 -179.5 83t-125.5 109 q-182 201 -182 490zM434 678q0 -319 92 -484t271 -165q176 0 269 165.5t93 481.5q0 319 -94 495.5t-266 176.5q-176 0 -270.5 -174t-94.5 -496z" />
<glyph unicode="R" horiz-adv-x="1478" d="M53 0v51q121 14 150.5 45t29.5 144v905q0 111 -33.5 145.5t-146.5 42.5v51h660q281 0 429 -94t148 -270q0 -143 -92 -229q-76 -68 -229 -117l411 -584q31 -39 84 -39v-51h-420l-423 641h-56v-401q0 -109 31 -141.5t149 -47.5v-51h-692zM565 707q205 2 279 51 q96 63 96 254q0 162 -61.5 232.5t-202.5 70.5q-78 0 -96 -31q-14 -29 -15 -55v-522z" />
<glyph unicode="S" horiz-adv-x="1138" d="M72 -39v506h59q27 -111 52.5 -172.5t70.5 -118.5q117 -147 295 -147q119 0 188.5 62.5t69.5 168.5q0 82 -47 133t-182 115l-138 65q-264 127 -327 289q-23 63 -23 135q0 195 120 306.5t329 111.5q113 0 239 -47q61 -20 86 -20q29 0 42.5 14t23.5 55h61v-444h-57 q-31 100 -60.5 155.5t-82.5 108.5q-111 115 -252 115q-104 0 -165 -55.5t-61 -149.5q0 -76 43 -123t168 -109l301 -149q100 -49 163 -153.5t63 -219.5q0 -193 -140.5 -312.5t-367.5 -119.5q-125 0 -267 49q-63 20 -83 21q-25 0 -39.5 -15.5t-22.5 -54.5h-59z" />
<glyph unicode="T" horiz-adv-x="1366" d="M63 973l7 411h1228l5 -411h-60q-27 182 -116 261t-277 85v-1079q0 -117 34 -148t167 -41v-51h-732v51q131 10 165 42t34 147v1079q-190 -6 -279 -85t-116 -261h-60z" />
<glyph unicode="U" horiz-adv-x="1478" d="M33 1333v51h692v-51q-127 -6 -163 -39.5t-36 -148.5v-684q0 -209 72 -304.5t227 -95.5q184 0 272.5 109t88.5 336v624q0 113 -40 153t-161 50v51h451v-51q-98 -14 -129 -49t-31 -125v-653q0 -309 -156 -432q-139 -113 -372 -113q-231 0 -383 111q-90 68 -127 153.5 t-37 235.5v684q0 111 -29.5 144.5t-138.5 43.5z" />
<glyph unicode="V" horiz-adv-x="1478" d="M33 1333v51h688v-51q-61 -4 -68 -4q-109 -6 -108 -74q0 -37 47 -147l282 -684l261 674q41 104 41 145q0 49 -33 65.5t-144 24.5v51h437v-51q-80 -10 -114 -40.5t-71 -127.5l-467 -1202h-55l-524 1227q-39 84 -67.5 108.5t-104.5 34.5z" />
<glyph unicode="W" horiz-adv-x="2048" d="M39 1333v51h602v-51q-80 -6 -105.5 -23.5t-25.5 -62.5q0 -23 14 -67l246 -746l242 631l-72 197q-31 66 -147 71v51h639v-51l-27 -2q-68 -4 -94.5 -20.5t-26.5 -53.5q0 -23 29 -114l221 -688l229 702q14 41 15 86q0 47 -30 66.5t-112 23.5v51h373v-51q-102 -10 -141 -131 l-410 -1233h-55l-350 977l-381 -977h-58l-434 1233q-27 76 -51 98.5t-90 32.5z" />
<glyph unicode="X" horiz-adv-x="1478" d="M33 0v51q76 8 121 33t92 82l358 452l-405 596q-47 70 -78 92.5t-86 26.5v51h708v-51q-57 -4 -63 -4q-55 -2 -76.5 -16.5t-21.5 -46.5q0 -29 30 -76l199 -307l115 157q119 162 118 217q0 37 -22.5 53.5t-83.5 18.5q-2 0 -8 1t-16.5 2t-16.5 1v51h512v-51 q-115 -10 -182.5 -63t-202.5 -236l-164 -227l373 -580q74 -111 109.5 -142.5t89.5 -33.5v-51h-697v51q53 4 58 4q106 6 106 58q0 43 -43 110l-207 332l-78 -104q-115 -156 -153.5 -219.5t-38.5 -96.5q0 -39 36 -56.5t130 -27.5v-51h-512z" />
<glyph unicode="Y" horiz-adv-x="1478" d="M31 1333v51h686v-51l-51 -2q-63 0 -89 -14t-26 -47q0 -31 37 -96l12 -25l246 -475l227 379q80 131 80 194q0 45 -35 61.5t-137 24.5v51h451v-51q-96 -14 -140 -80l-391 -637v-376q0 -113 32 -145t157 -44v-51h-711v51q125 12 157.5 44t32.5 145v301l-374 680 q-64 106 -164 112z" />
<glyph unicode="Z" horiz-adv-x="1366" d="M57 0v33l783 1280l-170 -6q-229 0 -323.5 -65.5t-168.5 -278.5h-57l43 421h1073v-32l-776 -1280h151q322 0 435 80q72 51 114.5 123.5t83.5 218.5h53l-53 -494h-1188z" />
<glyph unicode="[" horiz-adv-x="681" d="M137 -305v1694h479v-68h-129q-86 0 -111.5 -26.5t-25.5 -116.5v-1307q0 -66 19.5 -87.5t83.5 -21.5h163v-67h-479z" />
<glyph unicode="\" horiz-adv-x="569" d="M-51 1415h190l482 -1454h-189z" />
<glyph unicode="]" horiz-adv-x="681" d="M66 -238h163q63 0 83 20.5t20 88.5v1307q0 90 -25.5 116.5t-111.5 26.5h-129v68h479v-1694h-479v67z" />
<glyph unicode="^" horiz-adv-x="1189" d="M150 637l364 747h164l364 -747h-182l-264 557l-264 -557h-182z" />
<glyph unicode="_" d="M0 -154h1024v-102h-1024v102z" />
<glyph unicode="`" horiz-adv-x="681" d="M18 1348q0 41 27 65.5t72 24.5q57 0 108 -58l281 -321h-115l-291 180q-49 31 -65.5 52.5t-16.5 56.5z" />
<glyph unicode="a" d="M51 188q0 131 137 224q98 66 414 161v150q0 94 -41 137t-131 43q-55 0 -92 -21.5t-37 -54.5q0 -18 25 -45q37 -45 36 -88q0 -53 -38.5 -86t-100.5 -33q-63 0 -98 36t-35 100q0 115 106.5 186.5t280.5 71.5q188 0 297 -75t109 -206v-534q0 -51 43 -52q14 0 22 9l21 20 l30 -43q-109 -117 -229 -117q-76 0 -114 33t-54 111q-158 -143 -326 -144q-98 0 -161.5 61.5t-63.5 155.5zM350 254q0 -61 29 -99t76 -38q70 0 145 88v297q-250 -70 -250 -248z" />
<glyph unicode="b" horiz-adv-x="1138" d="M35 1335v49h397v-530q109 115 250 115q170 0 277.5 -133.5t107.5 -346.5q0 -229 -129 -373.5t-334 -144.5q-139 0 -270 117l-162 -115h-25v1244q0 61 -20 82.5t-92 35.5zM432 199q0 -74 39 -118t102 -44q193 0 193 416q0 406 -191 405q-96 0 -143 -121v-538z" />
<glyph unicode="c" horiz-adv-x="909" d="M51 457q0 223 137.5 367.5t348.5 144.5q133 0 224 -64.5t91 -161.5q0 -59 -37 -94t-102 -35q-113 0 -115 148q0 86 -10 104q-20 39 -76 39q-80 0 -126 -91t-46 -249q0 -209 79 -332.5t212 -123.5q63 0 109 25.5t104 88.5l37 -37q-90 -115 -181.5 -165t-210.5 -50 q-193 0 -315.5 136.5t-122.5 349.5z" />
<glyph unicode="d" horiz-adv-x="1138" d="M51 453q0 223 111.5 369.5t281.5 146.5q70 0 124.5 -28t119.5 -99v375q0 72 -26.5 91t-129.5 27v49h441v-1177q0 -66 25.5 -90.5t95.5 -28.5v-47l-127 -16q-152 -16 -273 -52v133q-72 -76 -131 -105.5t-141 -29.5q-162 0 -266.5 136.5t-104.5 345.5zM354 469 q0 -383 160 -383q68 0 129 70q45 49 45 73v498q-20 57 -64 92t-96 35q-174 0 -174 -385z" />
<glyph unicode="e" horiz-adv-x="909" d="M51 467q0 225 118 363.5t310 138.5q176 0 277 -123q90 -113 106 -344h-516q10 -190 64 -279q61 -104 180 -104q66 0 118 30.5t115 106.5l49 -29q-100 -143 -187 -199.5t-212 -56.5q-190 0 -306 136.5t-116 359.5zM336 578h274v30q-6 154 -18 201q-25 96 -113 96 q-76 0 -107.5 -71.5t-35.5 -255.5z" />
<glyph unicode="f" horiz-adv-x="681" d="M29 0v49q70 8 93 32.5t23 90.5v682h-116v90h116q0 238 60 332q86 139 299 139q131 0 212 -57.5t81 -147.5q0 -57 -35 -92t-92 -35q-51 0 -87 33t-36 80q0 29 26 74q18 27 19 43q0 39 -60 39q-55 0 -78.5 -37t-23.5 -121v-250h178v-90h-178v-643q0 -100 31 -130t137 -32 v-49h-569z" />
<glyph unicode="g" d="M57 -233q0 125 197 153q-98 35 -133 70t-35 98q0 156 244 240q-121 51 -180 116q-74 90 -74 195q0 145 116.5 237.5t299.5 92.5q106 0 229 -45h266v-109h-166q82 -82 82 -201q0 -166 -139 -245q-90 -53 -217 -54l-92 2q-61 0 -100.5 -29.5t-39.5 -76.5q0 -43 41 -57.5 t164 -14.5h133q158 0 247 -66.5t89 -185.5q0 -152 -132 -230.5t-388 -78.5q-195 0 -303.5 50.5t-108.5 138.5zM238 -219q0 -137 274 -137q152 0 233.5 37.5t81.5 109.5q0 102 -163 103h-355q-43 -35 -57 -57.5t-14 -55.5zM356 637q0 -143 31 -203.5t105 -60.5 q72 0 103.5 60.5t31.5 203.5t-32 205.5t-103.5 62.5t-103.5 -62.5t-32 -205.5z" />
<glyph unicode="h" horiz-adv-x="1138" d="M33 0v49q70 14 89 37t19 86v1045q0 63 -19.5 83.5t-88.5 34.5v49h393v-575q80 88 144.5 124t146.5 36q127 0 201.5 -79t74.5 -210v-508q0 -63 22.5 -91t78.5 -32v-49h-482v49q51 6 74 33t23 84v496q0 170 -107 169q-74 0 -141 -71q-35 -31 -35 -47v-547q0 -57 21.5 -83 t78.5 -34v-49h-493z" />
<glyph unicode="i" horiz-adv-x="569" d="M33 0v49q70 16 89 38t19 85v602q0 63 -20.5 85t-87.5 36v49h393v-778q0 -57 21.5 -83t74.5 -34v-49h-489zM123 1249.5q0 67.5 46 112.5t111.5 45t111.5 -45t46 -112.5t-46 -112.5t-111.5 -45t-111.5 45t-46 112.5z" />
<glyph unicode="j" horiz-adv-x="681" d="M-117 -211q0 55 35 90t92 35q51 0 86 -32t35 -79q0 -33 -29 -75q-18 -31 -18 -45q0 -35 66 -35q51 0 74.5 36.5t23.5 118.5v971q0 66 -25.5 90.5t-103.5 30.5v49h413v-940q0 -172 -55 -264q-88 -156 -307 -156q-127 0 -207 57.5t-80 147.5zM229 1249.5q0 67.5 46.5 112.5 t112 45t111.5 -45t46 -112.5t-46 -112.5t-111.5 -45t-112 45t-46.5 112.5z" />
<glyph unicode="k" horiz-adv-x="1138" d="M45 0v49q98 8 98 123v1045q0 111 -98 118v49h383v-882l262 262q43 43 43 78q0 39 -71 47q-4 2 -21.5 4t-28.5 4v47h439v-47q-96 -12 -165 -59t-222 -209l397 -549q23 -31 51 -31v-49h-479v49q86 4 86 39q0 20 -49 92l-195 275l-47 -49v-234q0 -72 17.5 -92.5t89.5 -30.5 v-49h-490z" />
<glyph unicode="l" horiz-adv-x="569" d="M33 0v49q104 8 104 123v1045q0 111 -104 118v49h389v-1212q0 -121 100 -123v-49h-489z" />
<glyph unicode="m" horiz-adv-x="1705" d="M33 0v49q68 12 90 36t22 87v602q0 63 -22.5 88t-89.5 33v49h391v-153q113 178 301 178q96 0 155.5 -41t106.5 -137q80 98 146.5 138t154.5 40q127 0 202 -79t75 -210v-514q0 -66 21.5 -89.5t80.5 -27.5v-49h-487v49q59 4 79.5 28.5t20.5 88.5v496q0 90 -25.5 129.5 t-83.5 39.5q-51 0 -114 -49q-20 -14 -40 -37.5t-20 -31.5v-547q0 -59 21.5 -85t75.5 -32v-49h-480v49q57 4 78 28.5t21 88.5v496q0 92 -25.5 130.5t-85.5 38.5q-51 0 -113 -47q-20 -16 -39.5 -39.5t-19.5 -31.5v-547q0 -59 20.5 -84t73.5 -33v-49h-491z" />
<glyph unicode="n" horiz-adv-x="1138" d="M43 0v49q70 14 89.5 37t19.5 86v602q0 63 -20.5 87t-88.5 34v49h391v-153q113 178 293 178q127 0 202 -79t75 -210v-514q0 -66 20 -89.5t80 -27.5v-49h-481v49q51 6 73.5 33t22.5 84v496q0 170 -107 169q-74 0 -141 -71q-35 -31 -35 -47v-547q0 -57 21.5 -83t79.5 -34 v-49h-494z" />
<glyph unicode="o" d="M51 475q0 209 134 351.5t329 142.5q199 0 330 -142.5t131 -357.5q0 -213 -131 -355.5t-330 -142.5q-201 0 -332 142.5t-131 361.5zM352 438q0 -225 36 -314t126 -89t125 93t35 329q0 252 -35 350t-123 98q-94 0 -129 -98.5t-35 -368.5z" />
<glyph unicode="p" horiz-adv-x="1138" d="M39 -371q74 12 94.5 34t20.5 85v1026q0 63 -21.5 87t-89.5 34v49h391v-141q47 88 107.5 127t150.5 39q170 0 275.5 -133.5t105.5 -346.5q0 -227 -110.5 -371.5t-282.5 -144.5q-68 0 -118 26t-124 97v-289q0 -102 33 -141t127 -43v-43h-559v49zM438 211q49 -125 158 -125 q174 0 174 375q0 391 -156 391q-70 0 -133 -70q-43 -47 -43 -73v-498z" />
<glyph unicode="q" horiz-adv-x="1138" d="M70 449q0 229 127 374.5t327 145.5q76 0 133.5 -24.5t137.5 -92.5l159 115h31v-1219q0 -61 20.5 -82.5t92.5 -36.5v-49h-547v51q100 18 124.5 47t24.5 123v285q-117 -115 -251 -115q-168 0 -273.5 133.5t-105.5 344.5zM369 483q0 -401 190 -401q109 0 141 119v538 q0 74 -37.5 119t-99.5 45q-194 0 -194 -420z" />
<glyph unicode="r" horiz-adv-x="909" d="M59 0v49q68 12 89.5 36t21.5 87v602q0 61 -22.5 87t-88.5 34v49h387v-168q72 102 136.5 147.5t140.5 45.5q72 0 119 -45t47 -115q0 -59 -36 -98t-93 -39q-72 0 -123 73q-33 47 -57 48q-51 0 -88 -57.5t-37 -137.5v-387q0 -96 27.5 -126t121.5 -36v-49h-545z" />
<glyph unicode="s" horiz-adv-x="796" d="M51 -27v338h58q66 -270 280 -270q70 0 112 37t42 96q0 49 -45 91t-152 87q-154 66 -222.5 140.5t-68.5 177.5q0 129 91.5 214t230.5 85q70 0 160 -31q45 -14 63 -14q35 0 51 41h45v-297h-51q-39 115 -96 168q-70 66 -154 65q-57 0 -96 -33.5t-39 -85t46 -93.5t151 -87 q154 -63 218 -137t64 -182q0 -137 -88 -224.5t-227 -87.5q-106 0 -221 47q-31 12 -47 13q-23 0 -54 -58h-51z" />
<glyph unicode="t" horiz-adv-x="681" d="M41 854v55q100 84 173 166t167 215h51v-346h193v-90h-193v-616q0 -61 18.5 -89t61.5 -28q61 0 117 106l51 -22q-63 -125 -132 -177.5t-171 -52.5q-106 0 -168 57.5t-62 157.5v664h-106z" />
<glyph unicode="u" horiz-adv-x="1138" d="M33 895v49h385v-694q0 -78 25.5 -112t88.5 -34q78 0 168 91v579q0 66 -25.5 90.5t-101.5 30.5v49h412v-737q0 -66 23.5 -91.5t91.5 -27.5v-47l-127 -14q-170 -18 -271 -54v133q-90 -78 -153.5 -106.5t-142.5 -28.5q-127 0 -200 76t-73 211v516q0 63 -18.5 86t-81.5 35z " />
<glyph unicode="v" d="M43 895v49h512v-49l-37 -4q-72 -6 -72 -49q0 -14 19 -64l162 -416l147 373q23 57 23 92q0 37 -23.5 50.5t-89.5 17.5v49h309v-49q-47 -4 -68.5 -24.5t-50.5 -88.5l-327 -811h-53l-246 607q-25 61 -77 174.5t-56 111.5q-17 23 -72 31z" />
<glyph unicode="w" horiz-adv-x="1478" d="M47 895v49h455v-49q-78 -10 -78 -57q0 -35 80 -236l43 -110l49 -132l139 351l-12 39q-29 100 -45 119.5t-76 25.5v49h479v-49q-57 -4 -77.5 -14.5t-20.5 -34.5q0 -27 55 -217l70 -260l72 192q90 229 90 262q0 35 -20.5 50.5t-78.5 21.5v49h277v-49q-39 -8 -58.5 -26.5 t-43.5 -75.5l-318 -822h-47l-209 635l-256 -635h-49l-303 766q-41 102 -59.5 126t-57.5 32z" />
<glyph unicode="x" d="M25 895v49h512v-49q-96 -2 -97 -39q0 -45 119 -201q23 -31 27 -34q51 72 73 94q78 88 78 131t-63 45q-4 0 -41 4v49h344v-49q-90 -14 -143 -80l-207 -258l303 -467q16 -27 61 -41v-49h-493v49q92 6 92 41t-68 131l-86 129q-6 -8 -18 -22.5t-15 -18.5q-131 -158 -131 -211 q0 -43 103 -49v-49h-346v49q57 2 101 39t130 152q8 12 133 172l-262 403q-31 47 -49 60.5t-57 19.5z" />
<glyph unicode="y" d="M33 -258q0 57 36.5 94t94.5 37q53 0 86 -27.5t33 -72.5q0 -8 -4 -29l-3 -12q0 -14 10.5 -24.5t24.5 -10.5q35 0 72 46t63 122l37 108l-245 605q-27 68 -78 177t-56 109q-16 23 -71 31v49h512v-49l-33 -2q-76 -6 -76 -51q0 -16 41 -121l148 -379l139 393q23 63 22 92 q0 37 -23.5 50.5t-88.5 17.5v49h309v-49q-47 -4 -69.5 -25.5t-49.5 -87.5l-305 -813q-94 -256 -156 -321q-68 -68 -172 -68q-88 0 -143 45t-55 117z" />
<glyph unicode="z" horiz-adv-x="909" d="M43 0v51l479 828q-150 0 -220.5 -17.5t-107 -61.5t-63.5 -147h-53l14 291h760v-53l-473 -825h59q123 0 185.5 24.5t111.5 91.5q43 55 68 146h57l-33 -328h-784z" />
<glyph unicode="{" horiz-adv-x="806" d="M45 535q131 33 175 81t44 156v367q0 168 103 231q86 57 329 60v-25q-123 -27 -170 -82t-47 -172v-350q0 -129 -48 -182.5t-193 -83.5q145 -31 193 -84.5t48 -182.5v-350q0 -117 48 -172t169 -80v-24q-268 2 -352 75q-80 66 -80 213v367q0 109 -44 157t-175 81z" />
<glyph unicode="|" horiz-adv-x="450" d="M135 -305v1694h180v-1694h-180z" />
<glyph unicode="}" horiz-adv-x="806" d="M111 -334q123 27 170 82t47 172v350q0 127 49 181.5t192 85.5q-145 31 -193 84t-48 182v350q0 115 -48.5 171t-168.5 81v25q244 -2 329 -60q102 -63 103 -229v-367q0 -109 44 -157t175 -80q-131 -33 -175 -81t-44 -157v-367q0 -168 -103 -231q-86 -57 -329 -59v24z" />
<glyph unicode="~" horiz-adv-x="1064" d="M59 506q98 172 254 172q84 0 275 -86q123 -53 166 -53q68 0 139 92l113 -99q-70 -96 -125.5 -135t-126.5 -39q-90 0 -215 68q-131 72 -230 72q-45 0 -75.5 -18.5t-65.5 -67.5z" />
<glyph unicode="&#xa1;" horiz-adv-x="681" d="M168 800.5q0 71.5 51 121t125 49.5q72 0 121 -50.5t49 -123.5q0 -70 -51 -121t-121 -51q-72 0 -123 52t-51 123.5zM170 -262q0 61 37 178q74 233 106 549h60q20 -188 40.5 -295t65.5 -254q37 -119 37 -182q0 -96 -46 -150.5t-128 -54.5t-127 54.5t-45 154.5z" />
<glyph unicode="&#xa2;" d="M109 457q0 219 135 365.5t340 146.5q57 0 123 -17l90 252h82l-99 -278q129 -70 129 -181q0 -57 -37.5 -94t-97.5 -37q-55 0 -90 41l-168 -471q76 -76 170 -75q121 0 215 114l37 -37q-94 -115 -166 -155q-106 -59 -225 -60q-47 0 -103 15l-96 -273h-82l105 297 q-80 39 -131 90q-131 136 -131 357zM397 561q0 -166 64 -299l196 551v6q0 37 -24.5 61.5t-63.5 24.5q-78 0 -125 -94t-47 -250z" />
<glyph unicode="&#xa3;" d="M43 147q0 188 217 189q47 0 105 -14q-4 88 -84 309h-201v133h164q-29 160 -29 237q0 98 42 185.5t116 140.5q102 74 258 74q143 0 226 -62.5t83 -169.5q0 -68 -38 -107.5t-101 -39.5q-59 0 -94 38t-33 95l4 90v6q0 88 -90 88q-51 0 -83 -35.5t-32 -93.5q0 -90 80 -446 h233v-133h-223q4 -78 4 -111q0 -127 -41 -246q121 -45 199 -45q94 0 138 31t67 115h47q-18 -219 -78 -305q-68 -98 -190 -99q-66 0 -120 27t-136 102q-98 -127 -230 -127q-86 0 -133 45t-47 129zM109 135q0 -45 31.5 -72.5t82.5 -27.5q57 0 92 32.5t56 108.5q-74 66 -148 66 q-53 0 -83.5 -29t-30.5 -78z" />
<glyph unicode="&#xa4;" d="M-53 244l200 200q-76 113 -75.5 246t75.5 250l-200 201l119 114l196 -196q115 72 250 71.5t250 -71.5l196 196l119 -114l-200 -201q76 -121 75 -250q0 -141 -75 -246l200 -200l-119 -119l-196 201q-123 -76 -250 -76t-250 76l-196 -201zM252 692q0 -115 74.5 -194.5 t183.5 -79.5q111 0 186.5 80t75.5 194q0 113 -77 192t-187 79q-106 0 -181 -80t-75 -191z" />
<glyph unicode="&#xa5;" d="M-131 1331v53h616v-53q-92 -4 -124.5 -15t-32.5 -44q0 -45 155 -342l36 -70q32 -61 50 -100l31 -60l244 471q16 37 16 72q0 49 -30.5 66.5t-129.5 21.5v53h420v-53q-94 -8 -131 -76l-295 -555h228v-102h-269l-8 -23v-137h277v-102h-277v-100q0 -104 38 -139.5t165 -45.5 v-51h-678v51q131 10 170 45t39 140v100h-277v102h277v117l-23 43h-254v102h203l-266 523q-53 100 -170 108z" />
<glyph unicode="&#xa6;" horiz-adv-x="450" d="M135 -305v678h180v-678h-180zM135 711v678h180v-678h-180z" />
<glyph unicode="&#xa7;" d="M117 600q0 121 65.5 185.5t186.5 64.5h39q-127 111 -166 168t-39 131q0 117 86 191.5t219 74.5q119 0 208 -60.5t89 -142.5q0 -51 -41 -91t-92 -40q-45 0 -84 38t-39 79q0 45 55 88q31 27 31 39q0 16 -34 29.5t-77 13.5q-76 0 -123 -39t-47 -102q0 -102 213 -244 q205 -133 299 -293q41 -70 41 -166q0 -115 -78 -176q-61 -51 -211 -53q113 -80 161 -148.5t48 -152.5q0 -115 -95 -189.5t-240 -74.5q-127 0 -217.5 60t-90.5 144q0 57 38 95.5t91.5 38.5t93 -34t39.5 -81t-63 -86q-31 -20 -31 -31q0 -23 43 -41t97 -18q162 0 161 145 q0 47 -16 78t-59 66l-117 94q-217 176 -280.5 257t-63.5 183zM270 688q0 -55 26 -93t118 -118q94 -82 139 -108.5t90 -26.5q47 0 78 34t31 85q0 76 -88 157q-193 184 -283 185q-47 0 -79 -33t-32 -82z" />
<glyph unicode="&#xa8;" horiz-adv-x="681" d="M-4 1251q0 51 39 91t92 40t93 -39.5t40 -95.5q0 -53 -39 -91t-94 -38q-53 0 -92 40t-39 93zM426 1253q0 51 39 90t90 39q55 0 95 -39.5t40 -95.5q0 -53 -39 -91t-96 -38q-53 0 -91 39t-38 96z" />
<glyph unicode="&#xa9;" horiz-adv-x="1529" d="M43 686q0 299 212 512t511 213t512 -213t213 -512t-213 -511t-512 -212t-511 212t-212 511zM121 686q0 -268 189.5 -456.5t455.5 -188.5q268 0 457.5 189.5t189.5 455.5q0 268 -190.5 457.5t-456.5 189.5t-455.5 -189.5t-189.5 -457.5zM367 682q0 172 124.5 286.5 t311.5 114.5q86 0 190 -39q37 -14 54 -14q27 0 49 49h43v-270h-54q-66 131 -110 166q-76 59 -156 59q-207 0 -207 -342q0 -162 52 -246q25 -41 72.5 -65.5t103.5 -24.5q53 0 106 19q78 29 170 119l47 -35q-94 -96 -169.5 -132t-182.5 -36q-195 0 -319.5 109.5t-124.5 281.5z " />
<glyph unicode="&#xaa;" horiz-adv-x="614" d="M-2 715v61h618v-61h-618zM-2 948q0 78 74.5 125t281.5 101v81q0 57 -23.5 82t-78.5 25q-35 0 -59.5 -13.5t-24.5 -31.5q0 -10 18 -29q23 -23 23 -43q0 -33 -27.5 -52t-70.5 -19q-41 0 -63.5 21.5t-22.5 59.5q0 70 71.5 112t192.5 42q119 0 189.5 -45t70.5 -123v-319 q0 -31 22 -31l13 4l12 12l20 -24q-68 -70 -149 -70q-49 0 -73.5 18.5t-35.5 65.5q-100 -84 -208 -84q-68 0 -110 38t-42 97zM199 981q0 -35 18.5 -58.5t46.5 -23.5q47 0 88 53v178q-153 -45 -153 -149z" />
<glyph unicode="&#xab;" d="M47 461v8l416 336l12 10q41 35 64 35q25 0 24 -23q0 -66 -188 -301q-8 -8 -49 -61q45 -66 82 -111q160 -184 159 -250q0 -31 -24 -30q-23 0 -58 32l-16 15zM449 461v8l415 336l13 10q41 35 63 35q25 0 25 -23q0 -68 -191 -301l-47 -61q45 -66 82 -111q160 -184 160 -250 q0 -31 -25 -30q-23 0 -57 32l-17 15z" />
<glyph unicode="&#xac;" horiz-adv-x="1167" d="M90 596v180h987v-436h-180v254z" />
<glyph unicode="&#xad;" horiz-adv-x="681" d="M90 350v238h498v-238h-498z" />
<glyph unicode="&#xae;" horiz-adv-x="1529" d="M43 686q0 299 212 512t511 213t512 -213t213 -512t-213 -511t-512 -212t-511 212t-212 511zM121 686q0 -268 189.5 -456.5t455.5 -188.5q268 0 457.5 189.5t189.5 455.5q0 268 -190.5 457.5t-456.5 189.5t-455.5 -189.5t-189.5 -457.5zM340 309v41q63 6 77.5 22.5 t14.5 71.5v486q0 55 -16.5 73.5t-75.5 20.5v41h391q358 0 359 -203q0 -76 -56 -125q-45 -37 -131 -63l238 -307q18 -23 51 -15v-43h-277l-253 350v-215q0 -55 15 -71.5t79 -22.5v-41h-416zM662 702q90 0 135 23q53 33 53 133q0 82 -32 119t-107 37q-33 0 -41 -10 q-8 -12 -8 -29v-273z" />
<glyph unicode="&#xaf;" horiz-adv-x="681" d="M2 1176v147h676v-147h-676z" />
<glyph unicode="&#xb0;" horiz-adv-x="819" d="M117 1116q0 123 85 208t207.5 85t207.5 -85t85 -208q0 -125 -85 -209t-211 -84q-119 0 -204 86t-85 207zM201 1116q0 -90 61.5 -154.5t145.5 -64.5q88 0 149 64.5t61 154.5q0 88 -62 153.5t-146 65.5q-86 0 -147.5 -64.5t-61.5 -154.5z" />
<glyph unicode="&#xb1;" horiz-adv-x="1167" d="M90 0v180h987v-180h-987zM90 602v180h404v404h180v-404h403v-180h-403v-260h-180v260h-404z" />
<glyph unicode="&#xb2;" horiz-adv-x="614" d="M0 563v29q229 229 303 331.5t74 190.5q0 66 -45 111t-109 45q-96 0 -155 -111h-50q100 250 293 250q109 0 177.5 -63.5t68.5 -163.5q0 -68 -35 -128.5t-116 -138.5l-203 -188h188q102 0 132 15.5t59 80.5h32l-61 -260h-553z" />
<glyph unicode="&#xb3;" horiz-adv-x="614" d="M6 659q0 57 82 84q45 -4 67.5 -15t69.5 -52q55 -53 101 -53q57 0 93 36.5t36 96.5q0 90 -59.5 145t-207.5 103v20q94 29 133 64.5t39 97.5q0 57 -36.5 91t-96.5 34q-47 0 -80.5 -22.5t-72.5 -80.5l-41 15q111 186 305 186q102 0 159.5 -44t57.5 -122q0 -55 -23.5 -88 t-87.5 -68q164 -68 164 -219q0 -133 -115.5 -226t-281.5 -93q-94 0 -149.5 29.5t-55.5 80.5z" />
<glyph unicode="&#xb4;" horiz-adv-x="681" d="M176 1059l281 321q51 57 108 58q45 0 72 -24.5t27 -65.5q0 -35 -16.5 -56.5t-65.5 -52.5l-291 -180h-115z" />
<glyph unicode="&#xb5;" horiz-adv-x="1138" d="M68 -264q0 33 20 117q47 170 47 327v764h285v-639q0 -68 32.5 -109.5t84.5 -41.5q66 0 151 55v735h285v-737q0 -41 23.5 -68.5t58.5 -27.5q20 0 43 12v-49q-68 -61 -110 -81t-107 -20q-141 0 -207 107q-49 -59 -94 -83t-109 -24q-115 0 -209 72q8 -74 39 -166 q29 -98 29 -143q0 -158 -129 -158q-63 0 -98 41t-35 117z" />
<glyph unicode="&#xb6;" horiz-adv-x="1105" d="M0 985q0 205 108.5 302t340.5 97h614v-51q-45 -4 -53 -4q-76 -10 -94.5 -26.5t-18.5 -75.5l-2 -21v-78v-1253v-78l2 -20q2 -61 18.5 -77.5t90.5 -25.5q6 0 47 -4v-51h-351v1714h-102v-1714h-358v51q113 10 138.5 26.5t25.5 80.5l2 20v78v668q-135 6 -220 55 q-188 111 -188 387zM184 989q0 -315 224 -395v739q-74 -18 -110 -40.5t-62 -67.5q-52 -84 -52 -236z" />
<glyph unicode="&#xb7;" horiz-adv-x="512" d="M84 512q0 70 50 121t122 51t122 -51t50 -121t-50 -121t-122 -51t-122 51t-50 121z" />
<glyph unicode="&#xb8;" horiz-adv-x="681" d="M139 -410l33 76l12 -4q63 -25 111 -24q117 0 117 83q0 74 -95 74q-27 0 -57 -8l-22 16l88 207h86l-58 -141q31 10 68 10q84 0 132 -38t48 -105q0 -84 -71.5 -133t-194.5 -49q-95 -1 -197 36z" />
<glyph unicode="&#xb9;" horiz-adv-x="614" d="M57 1233v43l336 133h23v-690q0 -72 26.5 -92.5t116.5 -22.5v-41h-498v41q98 0 128 23.5t30 99.5v453q0 84 -47 84q-27 0 -88 -21q-9 -4 -27 -10z" />
<glyph unicode="&#xba;" horiz-adv-x="675" d="M37 715v61h602v-61h-602zM37 1110q0 129 86 214t215 85t215 -85t86 -212q0 -131 -86 -215t-219 -84q-127 0 -212 85t-85 212zM236 1102q0 -137 22.5 -192.5t77.5 -55.5q57 0 79.5 53.5t22.5 190.5q0 154 -21.5 211t-78.5 57t-79.5 -57t-22.5 -207z" />
<glyph unicode="&#xbb;" d="M55 819q0 31 23 31q25 0 59 -33l17 -14l421 -340v-8l-415 -336l-13 -10q-39 -35 -63.5 -35t-24.5 22q0 68 191 301l47 62q-45 66 -82 108q-160 189 -160 252zM457 819q0 31 24 31q18 0 58 -33q12 -12 16 -14l422 -340v-8l-416 -336l-14 -10q-39 -35 -62 -35q-25 0 -24 22 q0 70 188 301l49 62q-45 66 -82 108q-159 189 -159 252z" />
<glyph unicode="&#xbc;" horiz-adv-x="1536" d="M57 1233v43l336 133h23v-690q0 -72 26.5 -92.5t116.5 -22.5v-41h-498v41q98 0 128 23.5t30 99.5v453q0 84 -47 84q-27 0 -88 -21q-9 -4 -27 -10zM356 -25l904 1434h114l-899 -1434h-119zM915 178v137q100 150 336 437l80 94h107v-533h84v-135h-84v-178h-193v178h-330z M967 313h280v359z" />
<glyph unicode="&#xbd;" horiz-adv-x="1536" d="M-14 1233v43l336 133h22v-690q0 -72 26.5 -92.5t116.5 -22.5v-41h-497v41q98 0 127.5 23.5t29.5 99.5v453q0 84 -47 84q-27 0 -88 -21q-8 -4 -26 -10zM270 -25l904 1434h114l-899 -1434h-119zM973 0v29q229 229 303 331.5t74 190.5q0 66 -45 111t-109 45q-96 0 -156 -111 h-49q100 250 293 250q109 0 177.5 -63.5t68.5 -164.5q0 -68 -35 -129t-117 -137l-190 -178v-10h176q102 0 132 15.5t58 80.5h33l-61 -260h-553z" />
<glyph unicode="&#xbe;" horiz-adv-x="1536" d="M47 659q0 57 82 84q45 -4 67.5 -15t69.5 -52q55 -53 101 -53q57 0 93 36.5t36 96.5q0 90 -59.5 145t-207.5 103v20q94 29 133 64.5t39 97.5q0 57 -36.5 91t-96.5 34q-47 0 -80.5 -22.5t-72.5 -80.5l-41 15q111 186 305 186q102 0 159.5 -44t57.5 -122q0 -53 -22.5 -87 t-79.5 -64v-9q156 -61 155 -215q0 -133 -115.5 -226t-281.5 -93q-94 0 -149.5 29.5t-55.5 80.5zM352 -25l903 1434h115l-899 -1434h-119zM895 178v137q100 150 336 437l80 94h106v-533h84v-135h-84v-178h-192v178h-330zM946 313h281v359z" />
<glyph unicode="&#xbf;" d="M113 -127q0 106 54 180t193 160q96 59 121 102t25 156h61q4 -61 4 -94q0 -74 -65 -199q-88 -166 -88 -305q0 -127 45 -196.5t127 -69.5q55 0 90 22.5t35 59.5q0 27 -31 59q-45 51 -45 105q0 59 36 95t93 36q59 0 99 -44t40 -112q0 -129 -108.5 -212t-276.5 -83 q-184 0 -296.5 93t-112.5 247zM362 798.5q0 71.5 50.5 122t122.5 50.5q74 0 124 -50.5t50 -123.5q0 -70 -52.5 -121t-122 -51t-121 51t-51.5 122.5z" />
<glyph unicode="&#xc0;" horiz-adv-x="1478" d="M18 0v51q74 14 109 55t92 185l455 1122h57l457 -1077q82 -193 118.5 -239t104.5 -46v-51h-663v51l65 6q53 2 75.5 17.5t22.5 50.5q0 59 -94 278h-461l-30 -81q-59 -147 -59.5 -186.5t38.5 -59t129 -25.5v-51h-416zM342 1737q0 35 33 58.5t86 23.5q70 0 131 -54l336 -288 h-137l-351 161q-59 29 -78.5 47.5t-19.5 51.5zM387 483h399l-206 498z" />
<glyph unicode="&#xc1;" horiz-adv-x="1478" d="M18 0v51q74 14 109 55t92 185l455 1122h57l457 -1077q82 -193 118.5 -239t104.5 -46v-51h-663v51l65 6q53 2 75.5 17.5t22.5 50.5q0 59 -94 278h-461l-30 -81q-59 -147 -59.5 -186.5t38.5 -59t129 -25.5v-51h-416zM387 483h399l-206 498zM479 1477l336 288q61 53 131 54 q53 0 86 -23.5t33 -58.5q0 -33 -19.5 -51.5t-78.5 -47.5l-351 -161h-137z" />
<glyph unicode="&#xc2;" horiz-adv-x="1478" d="M18 0v51q74 14 109 55t92 185l455 1122h57l457 -1077q82 -193 118.5 -239t104.5 -46v-51h-663v51l65 6q53 2 75.5 17.5t22.5 50.5q0 59 -94 278h-461l-30 -81q-59 -147 -59.5 -186.5t38.5 -59t129 -25.5v-51h-416zM291 1487l299 325h227l301 -325h-139l-274 180 l-277 -180h-137zM387 483h399l-206 498z" />
<glyph unicode="&#xc3;" horiz-adv-x="1478" d="M18 0v51q74 14 109 55t92 185l455 1122h57l457 -1077q82 -193 118.5 -239t104.5 -46v-51h-663v51l65 6q53 2 75.5 17.5t22.5 50.5q0 59 -94 278h-461l-30 -81q-59 -147 -59.5 -186.5t38.5 -59t129 -25.5v-51h-416zM330 1524q29 133 86 194.5t151 61.5q66 0 150 -39 l82 -37q53 -25 80 -25q41 0 65.5 22.5t44.5 78.5h88q-70 -260 -239 -260q-63 0 -131 28l-60 27q-102 45 -131 45q-39 0 -66.5 -26.5t-33.5 -69.5h-86zM387 483h399l-206 498z" />
<glyph unicode="&#xc4;" horiz-adv-x="1478" d="M18 0v51q74 14 109 55t92 185l455 1122h57l457 -1077q82 -193 118.5 -239t104.5 -46v-51h-663v51l65 6q53 2 75.5 17.5t22.5 50.5q0 59 -94 278h-461l-30 -81q-59 -147 -59.5 -186.5t38.5 -59t129 -25.5v-51h-416zM358 1650.5q0 53.5 40 92.5t91 39q53 0 93.5 -40 t40.5 -95q0 -53 -39 -91t-95 -38q-53 0 -92 39.5t-39 93zM387 483h399l-206 498zM788 1653q0 51 39 90t91 39q55 0 95 -40t40 -95q0 -53 -39 -91t-96 -38q-53 0 -91.5 39t-38.5 96z" />
<glyph unicode="&#xc5;" horiz-adv-x="1478" d="M18 0v51q74 14 109 55t92 185l455 1122h57l457 -1077q82 -193 118.5 -239t104.5 -46v-51h-663v51l65 6q53 2 75.5 17.5t22.5 50.5q0 59 -94 278h-461l-30 -81q-59 -147 -59.5 -186.5t38.5 -59t129 -25.5v-51h-416zM387 483h399l-206 498zM485 1692q0 86 65.5 150.5 t154 64.5t153 -64.5t64.5 -155t-64.5 -154t-155 -63.5t-154 65t-63.5 157zM584 1688q0 -49 34.5 -84t81.5 -35q51 0 87 34.5t36 82.5q0 49 -35.5 85.5t-85.5 36.5q-47 0 -82.5 -36.5t-35.5 -83.5z" />
<glyph unicode="&#xc6;" horiz-adv-x="2048" d="M8 0v51q59 10 94 49t131 213l437 797l7 13.5l7 13.5q57 96 57 127q0 37 -38.5 53t-139.5 22v45h1299v-411h-52q-33 164 -90 233q-86 106 -368 107q-84 0 -112 -12.5t-28 -49.5v-508q180 14 227.5 60.5t90.5 245.5h47v-693h-47q-29 190 -87.5 251t-230.5 71v-498 q0 -66 32 -88t124 -22q258 0 377 125q53 55 98 123.5t58 113.5h47l-84 -432h-1159v51q113 6 146.5 43t33.5 150v377h-389l-205 -385q-31 -55 -31 -93q0 -41 27.5 -60.5t107.5 -27.5l35 -4v-51h-422zM541 702h344v594h-15z" />
<glyph unicode="&#xc7;" horiz-adv-x="1478" d="M100 680q0 315 204 525t509 210q143 0 317 -72q66 -29 94.5 -28.5t48 20t42.5 74.5h55v-479h-51q-53 117 -97 181.5t-110 121.5q-129 115 -272 115q-186 0 -281.5 -165t-95.5 -485q0 -299 88 -460q45 -80 134 -129.5t189 -49.5q96 0 185 37q76 29 136 75t151 140l61 -51 q-143 -164 -274.5 -230.5t-311.5 -68.5l-41 -92q31 10 66 10q86 0 134 -38t48 -105q0 -84 -71.5 -133t-192.5 -49q-94 0 -199 36l33 76l12 -4q63 -25 109 -24q119 0 119 83q0 74 -95 74q-27 0 -57 -8l-22 16l71 162l-6 2q-279 27 -454 225.5t-175 487.5z" />
<glyph unicode="&#xc8;" horiz-adv-x="1366" d="M33 0v51q115 12 147.5 39t32.5 107v991q0 78 -37 108.5t-143 36.5v51h1181v-411h-51q-39 205 -137 273.5t-348 68.5q-80 0 -106.5 -19.5t-26.5 -76.5v-476q166 -2 237.5 63.5t94.5 242.5h53v-693h-53q-18 178 -91 248t-241 70v-496q0 -66 35.5 -90.5t134.5 -24.5 q229 0 368 113q94 80 172 250h58l-82 -426h-1198zM270 1737q0 35 33 58.5t86 23.5q70 0 131 -54l336 -288h-137l-350 161q-59 29 -79 47.5t-20 51.5z" />
<glyph unicode="&#xc9;" horiz-adv-x="1366" d="M33 0v51q115 12 147.5 39t32.5 107v991q0 78 -37 108.5t-143 36.5v51h1181v-411h-51q-39 205 -137 273.5t-348 68.5q-80 0 -106.5 -19.5t-26.5 -76.5v-476q166 -2 237.5 63.5t94.5 242.5h53v-693h-53q-18 178 -91 248t-241 70v-496q0 -66 35.5 -90.5t134.5 -24.5 q229 0 368 113q94 80 172 250h58l-82 -426h-1198zM408 1477l335 288q61 53 131 54q53 0 86 -23.5t33 -58.5q0 -33 -19.5 -51.5t-78.5 -47.5l-350 -161h-137z" />
<glyph unicode="&#xca;" horiz-adv-x="1366" d="M33 0v51q115 12 147.5 39t32.5 107v991q0 78 -37 108.5t-143 36.5v51h1181v-411h-51q-39 205 -137 273.5t-348 68.5q-80 0 -106.5 -19.5t-26.5 -76.5v-476q166 -2 237.5 63.5t94.5 242.5h53v-693h-53q-18 178 -91 248t-241 70v-496q0 -66 35.5 -90.5t134.5 -24.5 q229 0 368 113q94 80 172 250h58l-82 -426h-1198zM219 1487l299 325h227l302 -325h-140l-274 180l-277 -180h-137z" />
<glyph unicode="&#xcb;" horiz-adv-x="1366" d="M33 0v51q115 12 147.5 39t32.5 107v991q0 78 -37 108.5t-143 36.5v51h1181v-411h-51q-39 205 -137 273.5t-348 68.5q-80 0 -106.5 -19.5t-26.5 -76.5v-476q166 -2 237.5 63.5t94.5 242.5h53v-693h-53q-18 178 -91 248t-241 70v-496q0 -66 35.5 -90.5t134.5 -24.5 q229 0 368 113q94 80 172 250h58l-82 -426h-1198zM287 1650.5q0 53.5 39 92.5t92 39t93 -40t40 -95q0 -53 -39 -91t-94 -38q-53 0 -92 39.5t-39 93zM717 1653q0 51 39 90t90 39q55 0 95 -40t40 -95q0 -53 -39 -91t-96 -38q-53 0 -91 39t-38 96z" />
<glyph unicode="&#xcc;" horiz-adv-x="796" d="M37 1737q0 35 32.5 58.5t86.5 23.5q70 0 131 -54l336 -288h-138l-350 161q-59 29 -78.5 47.5t-19.5 51.5zM41 0v51q115 10 152.5 39t37.5 107v991q0 78 -39.5 107.5t-150.5 37.5v51h717v-51q-113 -4 -154 -34.5t-41 -110.5v-991q0 -80 39 -109t156 -37v-51h-717z" />
<glyph unicode="&#xcd;" horiz-adv-x="796" d="M41 0v51q115 10 152.5 39t37.5 107v991q0 78 -39.5 107.5t-150.5 37.5v51h717v-51q-113 -4 -154 -34.5t-41 -110.5v-991q0 -80 39 -109t156 -37v-51h-717zM174 1477l336 288q61 53 131 54q53 0 86 -23.5t33 -58.5q0 -33 -19.5 -51.5t-78.5 -47.5l-351 -161h-137z" />
<glyph unicode="&#xce;" horiz-adv-x="796" d="M-14 1487l299 325h227l301 -325h-139l-275 180l-276 -180h-137zM41 0v51q115 10 152.5 39t37.5 107v991q0 78 -39.5 107.5t-150.5 37.5v51h717v-51q-113 -4 -154 -34.5t-41 -110.5v-991q0 -80 39 -109t156 -37v-51h-717z" />
<glyph unicode="&#xcf;" horiz-adv-x="796" d="M41 0v51q115 10 152.5 39t37.5 107v991q0 78 -39.5 107.5t-150.5 37.5v51h717v-51q-113 -4 -154 -34.5t-41 -110.5v-991q0 -80 39 -109t156 -37v-51h-717zM53 1650.5q0 53.5 39 92.5t92.5 39t93 -40t39.5 -95q0 -53 -38.5 -91t-94.5 -38q-53 0 -92 39.5t-39 93zM483 1653 q0 51 39 90t90 39q55 0 95.5 -40t40.5 -95q0 -53 -39 -91t-97 -38q-53 0 -91 39t-38 96z" />
<glyph unicode="&#xd0;" horiz-adv-x="1478" d="M12 668v96h187v432q0 70 -36 98.5t-134 38.5v51h624q354 0 557 -180t203 -497.5t-202.5 -512t-534.5 -194.5h-647v51q88 2 129 35t41 100v482h-187zM530 190q0 -70 25 -94t94 -24q197 0 301 141q106 150 107 463q0 266 -84 430q-102 209 -320 209q-88 0 -112 -35 q-10 -12 -11 -61v-455h234v-96h-234v-478z" />
<glyph unicode="&#xd1;" horiz-adv-x="1478" d="M33 0v51q113 14 146.5 45t33.5 119v971q-74 88 -108.5 117.5t-65.5 29.5v51h432l715 -878v624q0 109 -39 151t-152 52v51h441v-51q-100 -16 -130 -46t-30 -118v-1206h-57l-916 1114v-823q0 -109 38 -148.5t157 -54.5v-51h-465zM371 1524q29 133 86 194.5t151 61.5 q66 0 150 -39l82 -37q53 -25 80 -25q41 0 65.5 22.5t44.5 78.5h88q-70 -260 -239 -260q-63 0 -131 28l-60 27q-102 45 -131 45q-39 0 -66.5 -26.5t-33.5 -69.5h-86z" />
<glyph unicode="&#xd2;" horiz-adv-x="1593" d="M72 686q0 319 205.5 524t527.5 205q309 0 513 -207t204 -520q0 -317 -204 -522t-521.5 -205t-521 204t-203.5 521zM434 668q0 -311 93.5 -475t269.5 -164t269 164.5t93 480.5q0 319 -93 496.5t-263 177.5q-180 0 -274.5 -174t-94.5 -506zM444 1737q0 35 33 58.5t86 23.5 q70 0 131 -54l336 -288h-137l-350 161q-59 29 -79 47.5t-20 51.5z" />
<glyph unicode="&#xd3;" horiz-adv-x="1593" d="M72 686q0 319 205.5 524t527.5 205q309 0 513 -207t204 -520q0 -317 -204 -522t-521.5 -205t-521 204t-203.5 521zM434 668q0 -311 93.5 -475t269.5 -164t269 164.5t93 480.5q0 319 -93 496.5t-263 177.5q-180 0 -274.5 -174t-94.5 -506zM582 1477l336 288q61 53 131 54 q53 0 85.5 -23.5t32.5 -58.5q0 -33 -19.5 -51.5t-78.5 -47.5l-350 -161h-137z" />
<glyph unicode="&#xd4;" horiz-adv-x="1593" d="M72 686q0 319 205.5 524t527.5 205q309 0 513 -207t204 -520q0 -317 -204 -522t-521.5 -205t-521 204t-203.5 521zM393 1487l299 325h228l301 -325h-140l-274 180l-277 -180h-137zM434 668q0 -311 93.5 -475t269.5 -164t269 164.5t93 480.5q0 319 -93 496.5t-263 177.5 q-180 0 -274.5 -174t-94.5 -506z" />
<glyph unicode="&#xd5;" horiz-adv-x="1593" d="M72 686q0 319 205.5 524t527.5 205q309 0 513 -207t204 -520q0 -317 -204 -522t-521.5 -205t-521 204t-203.5 521zM432 1524q29 133 86 194.5t152 61.5q66 0 149 -39l82 -37q53 -25 80 -25q41 0 65.5 22.5t45.5 78.5h88q-70 -260 -240 -260q-63 0 -131 28l-59 27 q-102 45 -132 45q-39 0 -66.5 -26.5t-33.5 -69.5h-86zM434 668q0 -311 93.5 -475t269.5 -164t269 164.5t93 480.5q0 319 -93 496.5t-263 177.5q-180 0 -274.5 -174t-94.5 -506z" />
<glyph unicode="&#xd6;" horiz-adv-x="1593" d="M72 686q0 319 205.5 524t527.5 205q309 0 513 -207t204 -520q0 -317 -204 -522t-521.5 -205t-521 204t-203.5 521zM434 668q0 -311 93.5 -475t269.5 -164t269 164.5t93 480.5q0 319 -93 496.5t-263 177.5q-180 0 -274.5 -174t-94.5 -506zM461 1650.5q0 53.5 40 92.5 t91 39q53 0 93 -40t40 -95q0 -53 -39 -91t-94 -38q-53 0 -92 39.5t-39 93zM891 1653q0 51 39 90t90 39q55 0 95 -40t40 -95q0 -53 -39 -91t-96 -38q-53 0 -91 39t-38 96z" />
<glyph unicode="&#xd7;" horiz-adv-x="1167" d="M170 227l287 285l-287 285l129 129l285 -287l284 287l129 -129l-286 -285l286 -285l-129 -129l-284 287l-285 -287z" />
<glyph unicode="&#xd8;" horiz-adv-x="1593" d="M72 686q0 317 204.5 523t522.5 206q195 0 372 -96l129 190h103l-160 -235q74 -61 112 -103.5t70 -99.5q96 -170 97 -383q0 -319 -204 -523t-521 -204q-203 0 -383 100l-146 -213h-102l176 258q-90 78 -136 139.5t-81 153.5q-53 137 -53 287zM434 672q0 -201 45 -363 l586 856q-53 98 -115.5 140.5t-152.5 42.5q-174 0 -268.5 -176t-94.5 -500zM518 213q53 -98 117.5 -141t161.5 -43q178 0 270 165.5t92 483.5q0 223 -53 395z" />
<glyph unicode="&#xd9;" horiz-adv-x="1478" d="M33 1333v51h692v-51q-127 -6 -163 -39.5t-36 -148.5v-684q0 -209 72 -304.5t227 -95.5q184 0 272.5 109t88.5 336v624q0 113 -40 153t-161 50v51h451v-51q-98 -14 -129 -49t-31 -125v-653q0 -309 -156 -432q-139 -113 -372 -113q-231 0 -383 111q-90 68 -127 153.5 t-37 235.5v684q0 111 -29.5 144.5t-138.5 43.5zM496 1737q0 35 32.5 58.5t85.5 23.5q70 0 131 -54l336 -288h-137l-350 161q-59 29 -78.5 47.5t-19.5 51.5z" />
<glyph unicode="&#xda;" horiz-adv-x="1478" d="M33 1333v51h692v-51q-127 -6 -163 -39.5t-36 -148.5v-684q0 -209 72 -304.5t227 -95.5q184 0 272.5 109t88.5 336v624q0 113 -40 153t-161 50v51h451v-51q-98 -14 -129 -49t-31 -125v-653q0 -309 -156 -432q-139 -113 -372 -113q-231 0 -383 111q-90 68 -127 153.5 t-37 235.5v684q0 111 -29.5 144.5t-138.5 43.5zM633 1477l336 288q61 53 131 54q53 0 86 -23.5t33 -58.5q0 -33 -19.5 -51.5t-79.5 -47.5l-350 -161h-137z" />
<glyph unicode="&#xdb;" horiz-adv-x="1478" d="M33 1333v51h692v-51q-127 -6 -163 -39.5t-36 -148.5v-684q0 -209 72 -304.5t227 -95.5q184 0 272.5 109t88.5 336v624q0 113 -40 153t-161 50v51h451v-51q-98 -14 -129 -49t-31 -125v-653q0 -309 -156 -432q-139 -113 -372 -113q-231 0 -383 111q-90 68 -127 153.5 t-37 235.5v684q0 111 -29.5 144.5t-138.5 43.5zM444 1487l299 325h228l301 -325h-139l-275 180l-276 -180h-138z" />
<glyph unicode="&#xdc;" horiz-adv-x="1478" d="M33 1333v51h692v-51q-127 -6 -163 -39.5t-36 -148.5v-684q0 -209 72 -304.5t227 -95.5q184 0 272.5 109t88.5 336v624q0 113 -40 153t-161 50v51h451v-51q-98 -14 -129 -49t-31 -125v-653q0 -309 -156 -432q-139 -113 -372 -113q-231 0 -383 111q-90 68 -127 153.5 t-37 235.5v684q0 111 -29.5 144.5t-138.5 43.5zM512 1650.5q0 53.5 39 92.5t92 39t93 -40t40 -95q0 -53 -39 -91t-94 -38q-53 0 -92 39.5t-39 93zM942 1653q0 51 39 90t90 39q55 0 95 -40t40 -95q0 -53 -39 -91t-96 -38q-53 0 -91 39t-38 96z" />
<glyph unicode="&#xdd;" horiz-adv-x="1478" d="M31 1333v51h686v-51l-51 -2q-63 0 -89 -14t-26 -47q0 -31 37 -96l12 -25l246 -475l227 379q80 131 80 194q0 45 -35 61.5t-137 24.5v51h451v-51q-96 -14 -140 -80l-391 -637v-376q0 -113 32 -145t157 -44v-51h-711v51q125 12 157.5 44t32.5 145v301l-374 680 q-64 106 -164 112zM512 1477l336 288q61 53 131 54q53 0 86 -23.5t33 -58.5q0 -33 -19.5 -51.5t-79.5 -47.5l-350 -161h-137z" />
<glyph unicode="&#xde;" horiz-adv-x="1251" d="M33 0v51q45 8 49 8q72 8 97.5 46t25.5 135v905q0 109 -33 144.5t-139 43.5v51h684v-51q-123 -16 -151.5 -47t-28.5 -143v-25h135q274 0 415.5 -95t141.5 -280q0 -199 -180 -309q-84 -49 -176.5 -63.5t-335.5 -16.5v-114q0 -113 29.5 -142.5t150.5 -46.5v-51h-684z M537 426q197 0 262 55q78 70 78 254q0 166 -55.5 239t-182.5 73q-102 0 -102 -72v-549z" />
<glyph unicode="&#xdf;" horiz-adv-x="1138" d="M39 0v49q66 10 85 33.5t19 95.5v860q0 164 119 270.5t305 106.5q174 0 291 -90t117 -225t-121 -217q-72 -49 -199 -78q217 -63 301 -146q102 -96 103 -262q0 -176 -112.5 -299t-274.5 -123q-47 0 -131 31l28 70l21 -15q20 -14 45 -14q72 0 98.5 75t26.5 277 q0 256 -78 326q-41 33 -131 39v70q88 2 115.5 51t27.5 200q0 143 -33.5 208t-111.5 65q-121 0 -121 -158v-1200h-389z" />
<glyph unicode="&#xe0;" d="M51 188q0 131 137 224q98 66 414 161v150q0 94 -41 137t-131 43q-55 0 -92 -21.5t-37 -54.5q0 -18 25 -45q37 -45 36 -88q0 -53 -38.5 -86t-100.5 -33q-63 0 -98 36t-35 100q0 115 106.5 186.5t280.5 71.5q188 0 297 -75t109 -206v-534q0 -51 43 -52q14 0 22 9l21 20 l30 -43q-109 -117 -229 -117q-76 0 -114 33t-54 111q-158 -143 -326 -144q-98 0 -161.5 61.5t-63.5 155.5zM156 1348q0 41 26.5 65.5t71.5 24.5q57 0 108 -58l281 -321h-115l-290 180q-49 31 -65.5 52.5t-16.5 56.5zM350 254q0 -61 29 -99t76 -38q70 0 145 88v297 q-250 -70 -250 -248z" />
<glyph unicode="&#xe1;" d="M51 188q0 131 137 224q98 66 414 161v150q0 94 -41 137t-131 43q-55 0 -92 -21.5t-37 -54.5q0 -18 25 -45q37 -45 36 -88q0 -53 -38.5 -86t-100.5 -33q-63 0 -98 36t-35 100q0 115 106.5 186.5t280.5 71.5q188 0 297 -75t109 -206v-534q0 -51 43 -52q14 0 22 9l21 20 l30 -43q-109 -117 -229 -117q-76 0 -114 33t-54 111q-158 -143 -326 -144q-98 0 -161.5 61.5t-63.5 155.5zM313 1059l281 321q51 57 108 58q45 0 72 -24.5t27 -65.5q0 -35 -16.5 -56.5t-65.5 -52.5l-291 -180h-115zM350 254q0 -61 29 -99t76 -38q70 0 145 88v297 q-250 -70 -250 -248z" />
<glyph unicode="&#xe2;" d="M51 188q0 131 137 224q98 66 414 161v150q0 94 -41 137t-131 43q-55 0 -92 -21.5t-37 -54.5q0 -18 25 -45q37 -45 36 -88q0 -53 -38.5 -86t-100.5 -33q-63 0 -98 36t-35 100q0 115 106.5 186.5t280.5 71.5q188 0 297 -75t109 -206v-534q0 -51 43 -52q14 0 22 9l21 20 l30 -43q-109 -117 -229 -117q-76 0 -114 33t-54 111q-158 -143 -326 -144q-98 0 -161.5 61.5t-63.5 155.5zM133 1069l250 361h188l252 -361h-116l-230 201l-229 -201h-115zM350 254q0 -61 29 -99t76 -38q70 0 145 88v297q-250 -70 -250 -248z" />
<glyph unicode="&#xe3;" d="M51 188q0 131 137 224q98 66 414 161v150q0 94 -41 137t-131 43q-55 0 -92 -21.5t-37 -54.5q0 -18 25 -45q37 -45 36 -88q0 -53 -38.5 -86t-100.5 -33q-63 0 -98 36t-35 100q0 115 106.5 186.5t280.5 71.5q188 0 297 -75t109 -206v-534q0 -51 43 -52q14 0 22 9l21 20 l30 -43q-109 -117 -229 -117q-76 0 -114 33t-54 111q-158 -143 -326 -144q-98 0 -161.5 61.5t-63.5 155.5zM104 1124q29 133 86.5 194.5t151.5 61.5q66 0 150 -39l81 -36q53 -25 80 -25q41 0 65.5 22.5t45.5 77.5h88q-70 -260 -240 -260q-63 0 -131 29l-59 27 q-102 45 -131 45q-39 0 -66.5 -27t-34.5 -70h-86zM350 254q0 -61 29 -99t76 -38q70 0 145 88v297q-250 -70 -250 -248z" />
<glyph unicode="&#xe4;" d="M51 188q0 131 137 224q98 66 414 161v150q0 94 -41 137t-131 43q-55 0 -92 -21.5t-37 -54.5q0 -18 25 -45q37 -45 36 -88q0 -53 -38.5 -86t-100.5 -33q-63 0 -98 36t-35 100q0 115 106.5 186.5t280.5 71.5q188 0 297 -75t109 -206v-534q0 -51 43 -52q14 0 22 9l21 20 l30 -43q-109 -117 -229 -117q-76 0 -114 33t-54 111q-158 -143 -326 -144q-98 0 -161.5 61.5t-63.5 155.5zM133 1251q0 51 40 91t91 40q53 0 93 -39.5t40 -95.5q0 -53 -39 -91t-94 -38q-53 0 -92 40t-39 93zM350 254q0 -61 29 -99t76 -38q70 0 145 88v297 q-250 -70 -250 -248zM563 1253q0 51 39 90t90 39q55 0 95 -39.5t40 -95.5q0 -53 -38.5 -91t-96.5 -38q-53 0 -91 39t-38 96z" />
<glyph unicode="&#xe5;" d="M51 188q0 131 137 224q98 66 414 161v150q0 94 -41 137t-131 43q-55 0 -92 -21.5t-37 -54.5q0 -18 25 -45q37 -45 36 -88q0 -53 -38.5 -86t-100.5 -33q-63 0 -98 36t-35 100q0 115 106.5 186.5t280.5 71.5q188 0 297 -75t109 -206v-534q0 -51 43 -52q14 0 22 9l21 20 l30 -43q-109 -117 -229 -117q-76 0 -114 33t-54 111q-158 -143 -326 -144q-98 0 -161.5 61.5t-63.5 155.5zM260 1253q0 86 65.5 150.5t153.5 64.5t152.5 -64.5t64.5 -154.5t-64.5 -153.5t-154.5 -63.5t-153.5 64.5t-63.5 156.5zM350 254q0 -61 29 -99t76 -38q70 0 145 88 v297q-250 -70 -250 -248zM358 1249q0 -49 35 -84t82 -35q51 0 87 35t36 82q0 49 -36 86t-85 37q-47 0 -83 -37t-36 -84z" />
<glyph unicode="&#xe6;" horiz-adv-x="1478" d="M68 193q0 133 116 213q78 55 422 167v164q0 90 -37 128t-123 38q-57 0 -95 -20.5t-38 -51.5q0 -18 25 -45q35 -41 35 -88q0 -55 -34 -85.5t-95 -30.5q-66 0 -104 35.5t-38 95.5q0 111 105.5 183.5t267.5 72.5q184 0 291 -105q106 104 260 105q113 0 202 -53.5t136 -147.5 q45 -92 45 -260h-520v-47q0 -176 55 -256t180 -80q141 0 252 137l43 -31q-90 -137 -186 -193t-242 -56q-109 0 -176 38.5t-125 133.5l-12 -13q-170 -170 -369 -170q-119 0 -180 56.5t-61 165.5zM362 248q0 -147 117 -148q63 0 127 66v342q-135 -49 -189.5 -107.5 t-54.5 -152.5zM889 584h272v67q0 143 -28.5 199.5t-100.5 56.5q-80 0 -111.5 -71.5t-31.5 -251.5z" />
<glyph unicode="&#xe7;" horiz-adv-x="909" d="M51 457q0 223 137.5 367.5t348.5 144.5q133 0 224 -64.5t91 -161.5q0 -59 -37 -94t-102 -35q-113 0 -115 148q0 86 -10 104q-20 39 -76 39q-80 0 -126 -91t-46 -249q0 -209 79 -332.5t212 -123.5q63 0 109 25.5t104 88.5l37 -37q-137 -184 -338 -213l-47 -104 q31 10 65 10q86 0 134 -38t48 -105q0 -84 -71.5 -133t-192.5 -49q-94 0 -198 36l32 76l13 -4q63 -25 108 -24q119 0 119 83q0 74 -94 74q-27 0 -58 -8l-22 16l76 170q-182 16 -293 148.5t-111 335.5z" />
<glyph unicode="&#xe8;" horiz-adv-x="909" d="M51 467q0 225 118 363.5t310 138.5q176 0 277 -123q90 -113 106 -344h-516q10 -190 64 -279q61 -104 180 -104q66 0 118 30.5t115 106.5l49 -29q-100 -143 -187 -199.5t-212 -56.5q-190 0 -306 136.5t-116 359.5zM158 1348q0 41 26.5 65.5t71.5 24.5q57 0 109 -58 l280 -321h-115l-290 180q-49 31 -65.5 52.5t-16.5 56.5zM336 578h274v30q-6 154 -18 201q-25 96 -113 96q-76 0 -107.5 -71.5t-35.5 -255.5z" />
<glyph unicode="&#xe9;" horiz-adv-x="909" d="M51 467q0 225 118 363.5t310 138.5q176 0 277 -123q90 -113 106 -344h-516q10 -190 64 -279q61 -104 180 -104q66 0 118 30.5t115 106.5l49 -29q-100 -143 -187 -199.5t-212 -56.5q-190 0 -306 136.5t-116 359.5zM315 1059l281 321q51 57 109 58q45 0 71.5 -24.5 t26.5 -65.5q0 -35 -16.5 -56.5t-65.5 -52.5l-291 -180h-115zM336 578h274v30q-6 154 -18 201q-25 96 -113 96q-76 0 -107.5 -71.5t-35.5 -255.5z" />
<glyph unicode="&#xea;" horiz-adv-x="909" d="M51 467q0 225 118 363.5t310 138.5q176 0 277 -123q90 -113 106 -344h-516q10 -190 64 -279q61 -104 180 -104q66 0 118 30.5t115 106.5l49 -29q-100 -143 -187 -199.5t-212 -56.5q-190 0 -306 136.5t-116 359.5zM135 1069l250 361h188l252 -361h-116l-230 201l-229 -201 h-115zM336 578h274v30q-6 154 -18 201q-25 96 -113 96q-76 0 -107.5 -71.5t-35.5 -255.5z" />
<glyph unicode="&#xeb;" horiz-adv-x="909" d="M51 467q0 225 118 363.5t310 138.5q176 0 277 -123q90 -113 106 -344h-516q10 -190 64 -279q61 -104 180 -104q66 0 118 30.5t115 106.5l49 -29q-100 -143 -187 -199.5t-212 -56.5q-190 0 -306 136.5t-116 359.5zM135 1251q0 51 39 91t92 40t93 -39.5t40 -95.5 q0 -53 -38.5 -91t-94.5 -38q-53 0 -92 40t-39 93zM336 578h274v30q-6 154 -18 201q-25 96 -113 96q-76 0 -107.5 -71.5t-35.5 -255.5zM565 1253q0 51 39 90t90 39q55 0 95 -39.5t40 -95.5q0 -53 -38.5 -91t-96.5 -38q-53 0 -91 39t-38 96z" />
<glyph unicode="&#xec;" horiz-adv-x="569" d="M-39 1348q0 41 26.5 65.5t71.5 24.5q57 0 109 -58l281 -321h-115l-291 180q-49 31 -65.5 52.5t-16.5 56.5zM33 0v49q70 16 89 38t19 85v602q0 63 -20.5 85t-87.5 36v49h393v-778q0 -57 21.5 -83t74.5 -34v-49h-489z" />
<glyph unicode="&#xed;" horiz-adv-x="569" d="M33 0v49q70 16 89 38t19 85v602q0 63 -20.5 85t-87.5 36v49h393v-778q0 -57 21.5 -83t74.5 -34v-49h-489zM119 1059l280 321q51 57 109 58q45 0 71.5 -24.5t26.5 -65.5q0 -35 -16.5 -56.5t-65.5 -52.5l-291 -180h-114z" />
<glyph unicode="&#xee;" horiz-adv-x="569" d="M-61 1069l249 361h189l252 -361h-117l-229 201l-230 -201h-114zM33 0v49q70 16 89 38t19 85v602q0 63 -20.5 85t-87.5 36v49h393v-778q0 -57 21.5 -83t74.5 -34v-49h-489z" />
<glyph unicode="&#xef;" horiz-adv-x="569" d="M-61 1251q0 51 38.5 91t92 40t93.5 -39.5t40 -95.5q0 -53 -39 -91t-94 -38q-53 0 -92 40t-39 93zM33 0v49q70 16 89 38t19 85v602q0 63 -20.5 85t-87.5 36v49h393v-778q0 -57 21.5 -83t74.5 -34v-49h-489zM369 1253q0 51 38.5 90t90.5 39q55 0 95 -39.5t40 -95.5 q0 -53 -39 -91t-96 -38q-53 0 -91 39t-38 96z" />
<glyph unicode="&#xf0;" d="M51 469q0 213 132 356.5t327 143.5q63 0 104 -18.5t82 -65.5l4 6q-53 164 -176 285l-225 -115l-98 63l239 121q-129 92 -272 119l94 51q180 -18 328 -94l184 94l100 -61l-188 -97q92 -76 139 -137t86 -155q63 -158 64 -365q0 -297 -121 -463t-340 -166q-201 0 -332 141.5 t-131 356.5zM352 455q0 -268 45 -353q41 -68 119 -67q90 0 124 95t34 347q0 238 -35 333t-123 95q-94 0 -129 -97t-35 -353z" />
<glyph unicode="&#xf1;" horiz-adv-x="1138" d="M43 0v49q70 14 89.5 37t19.5 86v602q0 63 -20.5 87t-88.5 34v49h391v-153q113 178 293 178q127 0 202 -79t75 -210v-514q0 -66 20 -89.5t80 -27.5v-49h-481v49q51 6 73.5 33t22.5 84v496q0 170 -107 169q-74 0 -141 -71q-35 -31 -35 -47v-547q0 -57 21.5 -83t79.5 -34 v-49h-494zM205 1124q29 133 86 194.5t151 61.5q66 0 150 -39l82 -36q53 -25 80 -25q41 0 65.5 22.5t44.5 77.5h88q-70 -260 -239 -260q-63 0 -131 29l-60 27q-102 45 -131 45q-39 0 -66.5 -27t-33.5 -70h-86z" />
<glyph unicode="&#xf2;" d="M51 475q0 209 134 351.5t329 142.5q199 0 330 -142.5t131 -357.5q0 -213 -131 -355.5t-330 -142.5q-201 0 -332 142.5t-131 361.5zM193 1348q0 41 26.5 65.5t71.5 24.5q57 0 108 -58l281 -321h-115l-291 180q-49 31 -65 52.5t-16 56.5zM352 438q0 -225 36 -314t126 -89 t125 93t35 329q0 252 -35 350t-123 98q-94 0 -129 -98.5t-35 -368.5z" />
<glyph unicode="&#xf3;" d="M51 475q0 209 134 351.5t329 142.5q199 0 330 -142.5t131 -357.5q0 -213 -131 -355.5t-330 -142.5q-201 0 -332 142.5t-131 361.5zM350 1059l281 321q51 57 108 58q45 0 72 -24.5t27 -65.5q0 -35 -16.5 -56.5t-65.5 -52.5l-291 -180h-115zM352 438q0 -225 36 -314 t126 -89t125 93t35 329q0 252 -35 350t-123 98q-94 0 -129 -98.5t-35 -368.5z" />
<glyph unicode="&#xf4;" d="M51 475q0 209 134 351.5t329 142.5q199 0 330 -142.5t131 -357.5q0 -213 -131 -355.5t-330 -142.5q-201 0 -332 142.5t-131 361.5zM170 1069l250 361h188l252 -361h-117l-229 201l-229 -201h-115zM352 438q0 -225 36 -314t126 -89t125 93t35 329q0 252 -35 350t-123 98 q-94 0 -129 -98.5t-35 -368.5z" />
<glyph unicode="&#xf5;" d="M51 475q0 209 134 351.5t329 142.5q199 0 330 -142.5t131 -357.5q0 -213 -131 -355.5t-330 -142.5q-201 0 -332 142.5t-131 361.5zM141 1124q29 133 86.5 194.5t151.5 61.5q66 0 149 -39l82 -36q53 -25 80 -25q41 0 65.5 22.5t45.5 77.5h88q-70 -260 -240 -260 q-63 0 -131 29l-59 27q-102 45 -131 45q-39 0 -67 -27t-34 -70h-86zM352 438q0 -225 36 -314t126 -89t125 93t35 329q0 252 -35 350t-123 98q-94 0 -129 -98.5t-35 -368.5z" />
<glyph unicode="&#xf6;" d="M51 475q0 209 134 351.5t329 142.5q199 0 330 -142.5t131 -357.5q0 -213 -131 -355.5t-330 -142.5q-201 0 -332 142.5t-131 361.5zM170 1251q0 51 40 91t91 40q53 0 93 -39.5t40 -95.5q0 -53 -39 -91t-94 -38q-53 0 -92 40t-39 93zM352 438q0 -225 36 -314t126 -89 t125 93t35 329q0 252 -35 350t-123 98q-94 0 -129 -98.5t-35 -368.5zM600 1253q0 51 39 90t90 39q55 0 95 -39.5t40 -95.5q0 -53 -39 -91t-96 -38q-53 0 -91 39t-38 96z" />
<glyph unicode="&#xf7;" horiz-adv-x="1167" d="M90 422v180h987v-180h-987zM412 166q0 72 50 122t121.5 50t122 -50t50.5 -122t-50.5 -122t-122 -50t-121.5 50t-50 122zM412 858q0 72 50 122t121.5 50t122 -50t50.5 -122t-50.5 -122t-122 -50t-121.5 50t-50 122z" />
<glyph unicode="&#xf8;" d="M51 469q0 215 132 357.5t333 142.5q111 0 211 -51l123 206h94l-149 -252q180 -162 180 -403q0 -215 -131 -356.5t-330 -141.5q-115 0 -219 56l-129 -215h-96l155 262q-174 162 -174 395zM352 430q0 -102 2 -143l293 495q-20 66 -50 94.5t-81 28.5q-96 0 -130 -99.5 t-34 -375.5zM375 164q37 -129 139 -129q88 0 124 92t36 322l-4 215z" />
<glyph unicode="&#xf9;" horiz-adv-x="1138" d="M33 895v49h385v-694q0 -78 25.5 -112t88.5 -34q78 0 168 91v579q0 66 -25.5 90.5t-101.5 30.5v49h412v-737q0 -66 23.5 -91.5t91.5 -27.5v-47l-127 -14q-170 -18 -271 -54v133q-90 -78 -153.5 -106.5t-142.5 -28.5q-127 0 -200 76t-73 211v516q0 63 -18.5 86t-81.5 35z M238 1348q0 41 26.5 65.5t71.5 24.5q57 0 108 -58l281 -321h-115l-291 180q-49 31 -65 52.5t-16 56.5z" />
<glyph unicode="&#xfa;" horiz-adv-x="1138" d="M33 895v49h385v-694q0 -78 25.5 -112t88.5 -34q78 0 168 91v579q0 66 -25.5 90.5t-101.5 30.5v49h412v-737q0 -66 23.5 -91.5t91.5 -27.5v-47l-127 -14q-170 -18 -271 -54v133q-90 -78 -153.5 -106.5t-142.5 -28.5q-127 0 -200 76t-73 211v516q0 63 -18.5 86t-81.5 35z M395 1059l281 321q51 57 108 58q45 0 72 -24.5t27 -65.5q0 -35 -16.5 -56.5t-65.5 -52.5l-291 -180h-115z" />
<glyph unicode="&#xfb;" horiz-adv-x="1138" d="M33 895v49h385v-694q0 -78 25.5 -112t88.5 -34q78 0 168 91v579q0 66 -25.5 90.5t-101.5 30.5v49h412v-737q0 -66 23.5 -91.5t91.5 -27.5v-47l-127 -14q-170 -18 -271 -54v133q-90 -78 -153.5 -106.5t-142.5 -28.5q-127 0 -200 76t-73 211v516q0 63 -18.5 86t-81.5 35z M215 1069l250 361h188l252 -361h-117l-229 201l-229 -201h-115z" />
<glyph unicode="&#xfc;" horiz-adv-x="1138" d="M33 895v49h385v-694q0 -78 25.5 -112t88.5 -34q78 0 168 91v579q0 66 -25.5 90.5t-101.5 30.5v49h412v-737q0 -66 23.5 -91.5t91.5 -27.5v-47l-127 -14q-170 -18 -271 -54v133q-90 -78 -153.5 -106.5t-142.5 -28.5q-127 0 -200 76t-73 211v516q0 63 -18.5 86t-81.5 35z M215 1251q0 51 40 91t91 40q53 0 93 -39.5t40 -95.5q0 -53 -39 -91t-94 -38q-53 0 -92 40t-39 93zM645 1253q0 51 39 90t90 39q55 0 95 -39.5t40 -95.5q0 -53 -39 -91t-96 -38q-53 0 -91 39t-38 96z" />
<glyph unicode="&#xfd;" d="M33 -258q0 57 36.5 94t94.5 37q53 0 86 -27.5t33 -72.5q0 -8 -4 -29l-3 -12q0 -14 10.5 -24.5t24.5 -10.5q35 0 72 46t63 122l37 108l-245 605q-27 68 -78 177t-56 109q-16 23 -71 31v49h512v-49l-33 -2q-76 -6 -76 -51q0 -16 41 -121l148 -379l139 393q23 63 22 92 q0 37 -23.5 50.5t-88.5 17.5v49h309v-49q-47 -4 -69.5 -25.5t-49.5 -87.5l-305 -813q-94 -256 -156 -321q-68 -68 -172 -68q-88 0 -143 45t-55 117zM344 1059l281 321q51 57 108 58q45 0 71.5 -24.5t26.5 -65.5q0 -35 -16 -56.5t-65 -52.5l-291 -180h-115z" />
<glyph unicode="&#xfe;" horiz-adv-x="1138" d="M39 -371q74 12 94.5 34t20.5 85v1469q0 61 -20.5 82.5t-92.5 35.5v49h397v-583q45 90 103.5 129t150.5 39q170 0 275.5 -133.5t105.5 -346.5q0 -227 -110.5 -371.5t-282.5 -144.5q-68 0 -118 26t-124 97v-289q0 -102 33 -141t127 -43v-43h-559v49zM438 211 q57 -125 162 -125q170 0 170 375q0 391 -156 391q-70 0 -133 -70q-43 -47 -43 -73v-498z" />
<glyph unicode="&#xff;" d="M33 -258q0 57 36.5 94t94.5 37q53 0 86 -27.5t33 -72.5q0 -8 -4 -29l-3 -12q0 -14 10.5 -24.5t24.5 -10.5q35 0 72 46t63 122l37 108l-245 605q-27 68 -78 177t-56 109q-16 23 -71 31v49h512v-49l-33 -2q-76 -6 -76 -51q0 -16 41 -121l148 -379l139 393q23 63 22 92 q0 37 -23.5 50.5t-88.5 17.5v49h309v-49q-47 -4 -69.5 -25.5t-49.5 -87.5l-305 -813q-94 -256 -156 -321q-68 -68 -172 -68q-88 0 -143 45t-55 117zM164 1251q0 51 39 91t92 40t93 -39.5t40 -95.5q0 -53 -39 -91t-94 -38q-53 0 -92 40t-39 93zM594 1253q0 51 39 90t90 39 q55 0 95 -39.5t40 -95.5q0 -53 -39 -91t-96 -38q-53 0 -91 39t-38 96z" />
<glyph unicode="&#x100;" horiz-adv-x="1478" d="M18 0v51q74 14 109 55t92 185l455 1122h57l457 -1077q82 -193 118.5 -239t104.5 -46v-51h-663v51l65 6q53 2 75.5 17.5t22.5 50.5q0 59 -94 278h-461l-30 -81q-59 -147 -59.5 -186.5t38.5 -59t129 -25.5v-51h-416zM365 1575v147h675v-147h-675zM387 483h399l-206 498z " />
<glyph unicode="&#x101;" d="M51 188q0 131 137 224q98 66 414 161v150q0 94 -41 137t-131 43q-55 0 -92 -21.5t-37 -54.5q0 -18 25 -45q37 -45 36 -88q0 -53 -38.5 -86t-100.5 -33q-63 0 -98 36t-35 100q0 115 106.5 186.5t280.5 71.5q188 0 297 -75t109 -206v-534q0 -51 43 -52q14 0 22 9l21 20 l30 -43q-109 -117 -229 -117q-76 0 -114 33t-54 111q-158 -143 -326 -144q-98 0 -161.5 61.5t-63.5 155.5zM139 1176v147h676v-147h-676zM350 254q0 -61 29 -99t76 -38q70 0 145 88v297q-250 -70 -250 -248z" />
<glyph unicode="&#x102;" horiz-adv-x="1478" d="M18 0v51q74 14 109 55t92 185l455 1122h57l457 -1077q82 -193 118.5 -239t104.5 -46v-51h-663v51l65 6q53 2 75.5 17.5t22.5 50.5q0 59 -94 278h-461l-30 -81q-59 -147 -59.5 -186.5t38.5 -59t129 -25.5v-51h-416zM326 1817h98q18 -90 87 -127t193.5 -37t193.5 36.5 t87 127.5h98q0 -143 -101 -239.5t-277 -96.5q-178 0 -278.5 96.5t-100.5 239.5zM387 483h399l-206 498z" />
<glyph unicode="&#x103;" d="M51 188q0 131 137 224q98 66 414 161v150q0 94 -41 137t-131 43q-55 0 -92 -21.5t-37 -54.5q0 -18 25 -45q37 -45 36 -88q0 -53 -38.5 -86t-100.5 -33q-63 0 -98 36t-35 100q0 115 106.5 186.5t280.5 71.5q188 0 297 -75t109 -206v-534q0 -51 43 -52q14 0 22 9l21 20 l30 -43q-109 -117 -229 -117q-76 0 -114 33t-54 111q-158 -143 -326 -144q-98 0 -161.5 61.5t-63.5 155.5zM168 1417h90q16 -94 68.5 -136t150.5 -42q94 0 144.5 41t76.5 137h90q-16 -139 -61 -209q-80 -125 -250 -125q-168 0 -246 113q-55 74 -63 221zM350 254 q0 -61 29 -99t76 -38q70 0 145 88v297q-250 -70 -250 -248z" />
<glyph unicode="&#x104;" horiz-adv-x="1478" d="M18 0v51q74 14 109 55t92 185l455 1122h57l457 -1077q82 -193 118.5 -239t104.5 -46v-51q-125 0 -174 -66q-68 -96 -68 -188q0 -51 27 -84t68 -33q68 0 116 68l31 -25q-33 -82 -95.5 -133t-135.5 -51q-70 0 -129.5 49t-59.5 144q0 174 183 319h-426v51l65 6 q53 2 75.5 17.5t22.5 50.5q0 59 -94 278h-461l-30 -81q-59 -147 -59.5 -186.5t38.5 -59t129 -25.5v-51h-416zM387 483h399l-206 498z" />
<glyph unicode="&#x105;" d="M51 188q0 131 137 224q98 66 414 161v150q0 94 -41 137t-131 43q-55 0 -92 -21.5t-37 -54.5q0 -18 25 -45q37 -45 36 -88q0 -53 -38.5 -86t-100.5 -33q-63 0 -98 36t-35 100q0 115 106.5 186.5t280.5 71.5q188 0 297 -75t109 -206v-534q0 -51 43 -52q14 0 22 9l21 20 l30 -43q-20 -23 -55 -53q-119 -98 -137 -129q-49 -80 -49 -160q0 -51 26.5 -84t67.5 -33q68 0 117 68l30 -25q-33 -82 -95 -133t-136 -51q-70 0 -129 49t-59 144q0 160 149 292q-53 8 -83 41t-44 101q-158 -143 -326 -144q-98 0 -161.5 61.5t-63.5 155.5zM350 254 q0 -61 29 -99t76 -38q70 0 145 88v297q-250 -70 -250 -248z" />
<glyph unicode="&#x106;" horiz-adv-x="1478" d="M100 680q0 315 204 525t509 210q143 0 317 -72q66 -29 94.5 -28.5t48 20t42.5 74.5h55v-479h-51q-53 117 -97 181.5t-110 121.5q-129 115 -272 115q-186 0 -281.5 -165t-95.5 -485q0 -299 88 -460q45 -80 134 -129.5t189 -49.5q96 0 185 37q76 29 136 75t151 140l61 -51 q-156 -170 -281 -234.5t-301 -64.5q-319 0 -522 201t-203 518zM590 1477l336 288q61 53 131 54q53 0 86 -23.5t33 -58.5q0 -33 -19.5 -51.5t-79.5 -47.5l-350 -161h-137z" />
<glyph unicode="&#x107;" horiz-adv-x="909" d="M51 457q0 223 137.5 367.5t348.5 144.5q133 0 224 -64.5t91 -161.5q0 -59 -37 -94t-102 -35q-113 0 -115 148q0 86 -10 104q-20 39 -76 39q-80 0 -126 -91t-46 -249q0 -209 79 -332.5t212 -123.5q63 0 109 25.5t104 88.5l37 -37q-90 -115 -181.5 -165t-210.5 -50 q-193 0 -315.5 136.5t-122.5 349.5zM326 1059l280 321q51 57 109 58q45 0 71.5 -24.5t26.5 -65.5q0 -35 -16.5 -56.5t-65.5 -52.5l-291 -180h-114z" />
<glyph unicode="&#x108;" horiz-adv-x="1478" d="M100 680q0 315 204 525t509 210q143 0 317 -72q66 -29 94.5 -28.5t48 20t42.5 74.5h55v-479h-51q-53 117 -97 181.5t-110 121.5q-129 115 -272 115q-186 0 -281.5 -165t-95.5 -485q0 -299 88 -460q45 -80 134 -129.5t189 -49.5q96 0 185 37q76 29 136 75t151 140l61 -51 q-156 -170 -281 -234.5t-301 -64.5q-319 0 -522 201t-203 518zM401 1487l299 325h228l301 -325h-139l-275 180l-276 -180h-138z" />
<glyph unicode="&#x109;" horiz-adv-x="909" d="M51 457q0 223 137.5 367.5t348.5 144.5q133 0 224 -64.5t91 -161.5q0 -59 -37 -94t-102 -35q-113 0 -115 148q0 86 -10 104q-20 39 -76 39q-80 0 -126 -91t-46 -249q0 -209 79 -332.5t212 -123.5q63 0 109 25.5t104 88.5l37 -37q-90 -115 -181.5 -165t-210.5 -50 q-193 0 -315.5 136.5t-122.5 349.5zM145 1069l250 361h189l252 -361h-117l-230 201l-229 -201h-115z" />
<glyph unicode="&#x10a;" horiz-adv-x="1478" d="M100 680q0 315 204 525t509 210q143 0 317 -72q66 -29 94.5 -28.5t48 20t42.5 74.5h55v-479h-51q-53 117 -97 181.5t-110 121.5q-129 115 -272 115q-186 0 -281.5 -165t-95.5 -485q0 -299 88 -460q45 -80 134 -129.5t189 -49.5q96 0 185 37q76 29 136 75t151 140l61 -51 q-156 -170 -281 -234.5t-301 -64.5q-319 0 -522 201t-203 518zM653 1648.5q0 67.5 46 112.5t112 45t112 -45t46 -112.5t-46 -112.5t-112 -45t-112 45t-46 112.5z" />
<glyph unicode="&#x10b;" horiz-adv-x="909" d="M51 457q0 223 137.5 367.5t348.5 144.5q133 0 224 -64.5t91 -161.5q0 -59 -37 -94t-102 -35q-113 0 -115 148q0 86 -10 104q-20 39 -76 39q-80 0 -126 -91t-46 -249q0 -209 79 -332.5t212 -123.5q63 0 109 25.5t104 88.5l37 -37q-90 -115 -181.5 -165t-210.5 -50 q-193 0 -315.5 136.5t-122.5 349.5zM330 1249.5q0 67.5 46 112.5t111.5 45t111.5 -45t46 -112.5t-46 -112.5t-111.5 -45t-111.5 45t-46 112.5z" />
<glyph unicode="&#x10c;" horiz-adv-x="1478" d="M100 680q0 315 204 525t509 210q143 0 317 -72q66 -29 94.5 -28.5t48 20t42.5 74.5h55v-479h-51q-53 117 -97 181.5t-110 121.5q-129 115 -272 115q-186 0 -281.5 -165t-95.5 -485q0 -299 88 -460q45 -80 134 -129.5t189 -49.5q96 0 185 37q76 29 136 75t151 140l61 -51 q-156 -170 -281 -234.5t-301 -64.5q-319 0 -522 201t-203 518zM399 1812h140l274 -180l277 180h137l-299 -325h-228z" />
<glyph unicode="&#x10d;" horiz-adv-x="909" d="M51 457q0 223 137.5 367.5t348.5 144.5q133 0 224 -64.5t91 -161.5q0 -59 -37 -94t-102 -35q-113 0 -115 148q0 86 -10 104q-20 39 -76 39q-80 0 -126 -91t-46 -249q0 -209 79 -332.5t212 -123.5q63 0 109 25.5t104 88.5l37 -37q-90 -115 -181.5 -165t-210.5 -50 q-193 0 -315.5 136.5t-122.5 349.5zM145 1430h115l229 -203l230 203h117l-252 -361h-189z" />
<glyph unicode="&#x10e;" horiz-adv-x="1478" d="M29 0v51q88 2 129 35t41 100v1010q0 70 -36 98.5t-134 38.5v51h624q354 0 557 -180t203 -497.5t-202.5 -512t-534.5 -194.5h-647zM262 1812h139l275 -180l276 180h138l-299 -325h-228zM530 190q0 -70 25 -94t94 -24q197 0 301 141q106 150 107 463q0 266 -84 430 q-102 209 -322 209q-121 0 -121 -72v-1053z" />
<glyph unicode="&#x10f;" horiz-adv-x="1138" d="M51 453q0 223 111.5 369.5t281.5 146.5q70 0 124.5 -28t119.5 -99v375q0 72 -26.5 91t-129.5 27v49h441v-1177q0 -66 25.5 -90.5t95.5 -28.5v-47l-127 -16q-152 -16 -273 -52v133q-72 -76 -131 -105.5t-141 -29.5q-162 0 -266.5 136.5t-104.5 345.5zM354 469 q0 -383 160 -383q68 0 129 70q45 49 45 73v498q-20 57 -64 92t-96 35q-174 0 -174 -385zM1063 1233q0 70 42 110.5t112 40.5q82 0 133 -59t51 -156q0 -119 -73 -215t-232 -186l-21 39q201 141 201 246q0 16 -10.5 27.5t-24.5 11.5l-14 -2q-8 -2 -27 -3q-63 0 -100 40 t-37 106z" />
<glyph unicode="&#x110;" horiz-adv-x="1478" d="M12 668v96h187v432q0 70 -36 98.5t-134 38.5v51h624q354 0 557 -180t203 -497.5t-202.5 -512t-534.5 -194.5h-647v51q88 2 129 35t41 100v482h-187zM530 190q0 -70 25 -94t94 -24q197 0 301 141q106 150 107 463q0 266 -84 430q-102 209 -320 209q-88 0 -112 -35 q-10 -12 -11 -61v-455h234v-96h-234v-478z" />
<glyph unicode="&#x111;" horiz-adv-x="1138" d="M51 453q0 223 111.5 369.5t281.5 146.5q70 0 124.5 -28t119.5 -99v274h-188v90h188v11q0 72 -26.5 91t-129.5 27v49h441v-178h121v-90h-121v-909q0 -66 25.5 -90.5t95.5 -28.5v-47l-127 -16q-152 -16 -273 -52v133q-72 -76 -131 -105.5t-141 -29.5q-162 0 -266.5 136.5 t-104.5 345.5zM354 469q0 -383 160 -383q68 0 129 70q45 49 45 73v498q-20 57 -64 92t-96 35q-174 0 -174 -385z" />
<glyph unicode="&#x112;" horiz-adv-x="1366" d="M33 0v51q115 12 147.5 39t32.5 107v991q0 78 -37 108.5t-143 36.5v51h1181v-411h-51q-39 205 -137 273.5t-348 68.5q-80 0 -106.5 -19.5t-26.5 -76.5v-476q166 -2 237.5 63.5t94.5 242.5h53v-693h-53q-18 178 -91 248t-241 70v-496q0 -66 35.5 -90.5t134.5 -24.5 q229 0 368 113q94 80 172 250h58l-82 -426h-1198zM293 1575v147h676v-147h-676z" />
<glyph unicode="&#x113;" horiz-adv-x="909" d="M51 467q0 225 118 363.5t310 138.5q176 0 277 -123q90 -113 106 -344h-516q10 -190 64 -279q61 -104 180 -104q66 0 118 30.5t115 106.5l49 -29q-100 -143 -187 -199.5t-212 -56.5q-190 0 -306 136.5t-116 359.5zM141 1176v147h676v-147h-676zM336 578h274v30 q-6 154 -18 201q-25 96 -113 96q-76 0 -107.5 -71.5t-35.5 -255.5z" />
<glyph unicode="&#x114;" horiz-adv-x="1366" d="M33 0v51q115 12 147.5 39t32.5 107v991q0 78 -37 108.5t-143 36.5v51h1181v-411h-51q-39 205 -137 273.5t-348 68.5q-80 0 -106.5 -19.5t-26.5 -76.5v-476q166 -2 237.5 63.5t94.5 242.5h53v-693h-53q-18 178 -91 248t-241 70v-496q0 -66 35.5 -90.5t134.5 -24.5 q229 0 368 113q94 80 172 250h58l-82 -426h-1198zM254 1817h98q18 -90 87 -127t194 -37t193.5 36.5t86.5 127.5h99q0 -143 -101.5 -239.5t-277.5 -96.5q-178 0 -278.5 96.5t-100.5 239.5z" />
<glyph unicode="&#x115;" horiz-adv-x="909" d="M51 467q0 225 118 363.5t310 138.5q176 0 277 -123q90 -113 106 -344h-516q10 -190 64 -279q61 -104 180 -104q66 0 118 30.5t115 106.5l49 -29q-100 -143 -187 -199.5t-212 -56.5q-190 0 -306 136.5t-116 359.5zM170 1417h90q16 -94 68.5 -136t150.5 -42q94 0 144.5 41 t76.5 137h91q-16 -139 -62 -209q-80 -125 -250 -125q-168 0 -246 113q-55 74 -63 221zM336 578h274v30q-6 154 -18 201q-25 96 -113 96q-76 0 -107.5 -71.5t-35.5 -255.5z" />
<glyph unicode="&#x116;" horiz-adv-x="1366" d="M33 0v51q115 12 147.5 39t32.5 107v991q0 78 -37 108.5t-143 36.5v51h1181v-411h-51q-39 205 -137 273.5t-348 68.5q-80 0 -106.5 -19.5t-26.5 -76.5v-476q166 -2 237.5 63.5t94.5 242.5h53v-693h-53q-18 178 -91 248t-241 70v-496q0 -66 35.5 -90.5t134.5 -24.5 q229 0 368 113q94 80 172 250h58l-82 -426h-1198zM471 1648.5q0 67.5 46 112.5t111.5 45t111.5 -45t46 -112.5t-46 -112.5t-111.5 -45t-111.5 45t-46 112.5z" />
<glyph unicode="&#x117;" horiz-adv-x="909" d="M51 467q0 225 118 363.5t310 138.5q176 0 277 -123q90 -113 106 -344h-516q10 -190 64 -279q61 -104 180 -104q66 0 118 30.5t115 106.5l49 -29q-100 -143 -187 -199.5t-212 -56.5q-190 0 -306 136.5t-116 359.5zM319 1249.5q0 67.5 46.5 112.5t112 45t111.5 -45 t46 -112.5t-46 -112.5t-111.5 -45t-112 45t-46.5 112.5zM336 578h274v30q-6 154 -18 201q-25 96 -113 96q-76 0 -107.5 -71.5t-35.5 -255.5z" />
<glyph unicode="&#x118;" horiz-adv-x="1366" d="M33 0v51q115 12 147.5 39t32.5 107v991q0 78 -37 108.5t-143 36.5v51h1181v-411h-51q-39 205 -137 273.5t-348 68.5q-80 0 -106.5 -19.5t-26.5 -76.5v-476q166 -2 237.5 63.5t94.5 242.5h53v-693h-53q-18 178 -91 248t-241 70v-496q0 -66 35.5 -90.5t134.5 -24.5 q229 0 368 113q94 80 172 250h58l-82 -426h-33q-100 0 -160 -94q-49 -80 -49 -160q0 -51 26.5 -84t67.5 -33q68 0 117 68l31 -25q-33 -82 -95.5 -133t-136.5 -51q-70 0 -129 49t-59 144q0 174 182 319h-960z" />
<glyph unicode="&#x119;" horiz-adv-x="909" d="M51 467q0 225 118 363.5t310 138.5q176 0 277 -123q90 -113 106 -344h-516q10 -190 64 -279q61 -104 180 -104q66 0 118 30.5t115 106.5l49 -29q-78 -115 -149 -174q-104 -82 -145 -147q-49 -80 -50 -160q0 -51 27 -84t68 -33q68 0 116 68l31 -25q-33 -82 -95.5 -133 t-135.5 -51q-70 0 -129.5 49t-59.5 144q0 160 148 290h-25q-190 0 -306 136.5t-116 359.5zM336 578h274v30q-6 154 -18 201q-25 96 -113 96q-76 0 -107.5 -71.5t-35.5 -255.5z" />
<glyph unicode="&#x11a;" horiz-adv-x="1366" d="M33 0v51q115 12 147.5 39t32.5 107v991q0 78 -37 108.5t-143 36.5v51h1181v-411h-51q-39 205 -137 273.5t-348 68.5q-80 0 -106.5 -19.5t-26.5 -76.5v-476q166 -2 237.5 63.5t94.5 242.5h53v-693h-53q-18 178 -91 248t-241 70v-496q0 -66 35.5 -90.5t134.5 -24.5 q229 0 368 113q94 80 172 250h58l-82 -426h-1198zM217 1812h139l275 -180l276 180h137l-299 -325h-227z" />
<glyph unicode="&#x11b;" horiz-adv-x="909" d="M51 467q0 225 118 363.5t310 138.5q176 0 277 -123q90 -113 106 -344h-516q10 -190 64 -279q61 -104 180 -104q66 0 118 30.5t115 106.5l49 -29q-100 -143 -187 -199.5t-212 -56.5q-190 0 -306 136.5t-116 359.5zM135 1430h115l229 -203l230 203h116l-252 -361h-188z M336 578h274v30q-6 154 -18 201q-25 96 -113 96q-76 0 -107.5 -71.5t-35.5 -255.5z" />
<glyph unicode="&#x11c;" horiz-adv-x="1593" d="M76 678q0 315 203.5 526t508.5 211q141 0 318 -72q63 -29 94 -28q29 0 49.5 20.5t40.5 73.5h56v-479h-52q-53 117 -97 181.5t-110 121.5q-133 115 -272 115q-186 0 -281.5 -167t-95.5 -489q0 -367 133 -536q98 -127 283 -127q102 0 149.5 35.5t47.5 113.5v215 q0 84 -38 109.5t-169 34.5v51h702v-51q-115 -12 -145.5 -45t-30.5 -144v-260q-98 -57 -251.5 -92t-313.5 -35q-322 0 -525.5 200t-203.5 517zM377 1487l299 325h227l301 -325h-139l-274 180l-277 -180h-137z" />
<glyph unicode="&#x11d;" d="M57 -233q0 125 197 153q-98 35 -133 70t-35 98q0 156 244 240q-121 51 -180 116q-74 90 -74 195q0 145 116.5 237.5t299.5 92.5q106 0 229 -45h266v-109h-166q82 -82 82 -201q0 -166 -139 -245q-90 -53 -217 -54l-92 2q-61 0 -100.5 -29.5t-39.5 -76.5q0 -43 41 -57.5 t164 -14.5h133q158 0 247 -66.5t89 -185.5q0 -152 -132 -230.5t-388 -78.5q-195 0 -303.5 50.5t-108.5 138.5zM147 1069l250 361h189l252 -361h-117l-229 201l-230 -201h-115zM238 -219q0 -137 274 -137q152 0 233.5 37.5t81.5 109.5q0 102 -163 103h-355q-43 -35 -57 -57.5 t-14 -55.5zM356 637q0 -143 31 -203.5t105 -60.5q72 0 103.5 60.5t31.5 203.5t-32 205.5t-103.5 62.5t-103.5 -62.5t-32 -205.5z" />
<glyph unicode="&#x11e;" horiz-adv-x="1593" d="M76 678q0 315 203.5 526t508.5 211q141 0 318 -72q63 -29 94 -28q29 0 49.5 20.5t40.5 73.5h56v-479h-52q-53 117 -97 181.5t-110 121.5q-133 115 -272 115q-186 0 -281.5 -167t-95.5 -489q0 -367 133 -536q98 -127 283 -127q102 0 149.5 35.5t47.5 113.5v215 q0 84 -38 109.5t-169 34.5v51h702v-51q-115 -12 -145.5 -45t-30.5 -144v-260q-98 -57 -251.5 -92t-313.5 -35q-322 0 -525.5 200t-203.5 517zM412 1817h98q18 -90 87 -127t193.5 -37t193.5 36.5t87 127.5h98q0 -143 -101 -239.5t-277 -96.5q-178 0 -278.5 96.5t-100.5 239.5 z" />
<glyph unicode="&#x11f;" d="M57 -233q0 125 197 153q-98 35 -133 70t-35 98q0 156 244 240q-121 51 -180 116q-74 90 -74 195q0 145 116.5 237.5t299.5 92.5q106 0 229 -45h266v-109h-166q82 -82 82 -201q0 -166 -139 -245q-90 -53 -217 -54l-92 2q-61 0 -100.5 -29.5t-39.5 -76.5q0 -43 41 -57.5 t164 -14.5h133q158 0 247 -66.5t89 -185.5q0 -152 -132 -230.5t-388 -78.5q-195 0 -303.5 50.5t-108.5 138.5zM182 1417h90q16 -94 68.5 -136t151.5 -42q94 0 144 41t77 137h90q-16 -139 -62 -209q-80 -125 -249 -125q-168 0 -246 113q-56 74 -64 221zM238 -219 q0 -137 274 -137q152 0 233.5 37.5t81.5 109.5q0 102 -163 103h-355q-43 -35 -57 -57.5t-14 -55.5zM356 637q0 -143 31 -203.5t105 -60.5q72 0 103.5 60.5t31.5 203.5t-32 205.5t-103.5 62.5t-103.5 -62.5t-32 -205.5z" />
<glyph unicode="&#x120;" horiz-adv-x="1593" d="M76 678q0 315 203.5 526t508.5 211q141 0 318 -72q63 -29 94 -28q29 0 49.5 20.5t40.5 73.5h56v-479h-52q-53 117 -97 181.5t-110 121.5q-133 115 -272 115q-186 0 -281.5 -167t-95.5 -489q0 -367 133 -536q98 -127 283 -127q102 0 149.5 35.5t47.5 113.5v215 q0 84 -38 109.5t-169 34.5v51h702v-51q-115 -12 -145.5 -45t-30.5 -144v-260q-98 -57 -251.5 -92t-313.5 -35q-322 0 -525.5 200t-203.5 517zM629 1648.5q0 67.5 46 112.5t111.5 45t111.5 -45t46 -112.5t-46 -112.5t-111.5 -45t-111.5 45t-46 112.5z" />
<glyph unicode="&#x121;" d="M57 -233q0 125 197 153q-98 35 -133 70t-35 98q0 156 244 240q-121 51 -180 116q-74 90 -74 195q0 145 116.5 237.5t299.5 92.5q106 0 229 -45h266v-109h-166q82 -82 82 -201q0 -166 -139 -245q-90 -53 -217 -54l-92 2q-61 0 -100.5 -29.5t-39.5 -76.5q0 -43 41 -57.5 t164 -14.5h133q158 0 247 -66.5t89 -185.5q0 -152 -132 -230.5t-388 -78.5q-195 0 -303.5 50.5t-108.5 138.5zM238 -219q0 -137 274 -137q152 0 233.5 37.5t81.5 109.5q0 102 -163 103h-355q-43 -35 -57 -57.5t-14 -55.5zM332 1249.5q0 67.5 46 112.5t111.5 45t111.5 -45 t46 -112.5t-46 -112.5t-111.5 -45t-111.5 45t-46 112.5zM356 637q0 -143 31 -203.5t105 -60.5q72 0 103.5 60.5t31.5 203.5t-32 205.5t-103.5 62.5t-103.5 -62.5t-32 -205.5z" />
<glyph unicode="&#x122;" horiz-adv-x="1593" d="M76 678q0 315 203.5 526t508.5 211q141 0 318 -72q63 -29 94 -28q29 0 49.5 20.5t40.5 73.5h56v-479h-52q-53 117 -97 181.5t-110 121.5q-133 115 -272 115q-186 0 -281.5 -167t-95.5 -489q0 -367 133 -536q98 -127 283 -127q102 0 149.5 35.5t47.5 113.5v215 q0 84 -38 109.5t-169 34.5v51h702v-51q-115 -12 -145.5 -45t-30.5 -144v-260q-98 -57 -251.5 -92t-313.5 -35q-322 0 -525.5 200t-203.5 517zM621 -233q0 70 42 110.5t111 40.5q82 0 133 -59.5t51 -155.5q0 -119 -72.5 -215t-232.5 -186l-20 39q201 141 201 245 q0 16 -10.5 27.5t-24.5 11.5l-15 -2q-8 -2 -26 -2q-63 0 -100 40t-37 106z" />
<glyph unicode="&#x123;" d="M57 -233q0 125 197 153q-98 35 -133 70t-35 98q0 156 244 240q-121 51 -180 116q-74 90 -74 195q0 145 116.5 237.5t299.5 92.5q106 0 229 -45h266v-109h-166q82 -82 82 -201q0 -166 -139 -245q-90 -53 -217 -54l-92 2q-61 0 -100.5 -29.5t-39.5 -76.5q0 -43 41 -57.5 t164 -14.5h133q158 0 247 -66.5t89 -185.5q0 -152 -132 -230.5t-388 -78.5q-195 0 -303.5 50.5t-108.5 138.5zM238 -219q0 -137 274 -137q152 0 233.5 37.5t81.5 109.5q0 102 -163 103h-355q-43 -35 -57 -57.5t-14 -55.5zM324 1202q0 119 72.5 215t232.5 187l20 -39 q-201 -141 -200 -246q0 -16 10 -27.5t24 -11.5l15 2q8 2 26 2q63 0 100.5 -40t37.5 -105q0 -70 -42 -111t-112 -41q-82 0 -133 59.5t-51 155.5zM356 637q0 -143 31 -203.5t105 -60.5q72 0 103.5 60.5t31.5 203.5t-32 205.5t-103.5 62.5t-103.5 -62.5t-32 -205.5z" />
<glyph unicode="&#x124;" horiz-adv-x="1593" d="M43 0v51q106 14 140 42t34 104v991q0 76 -36 105.5t-138 39.5v51h690v-51q-106 -8 -145 -37.5t-39 -107.5v-424h493v424q0 78 -38.5 107.5t-145.5 37.5v51h696v-51q-104 -8 -142 -38.5t-38 -106.5v-991q0 -76 35 -103.5t145 -42.5v-51h-696v51q113 12 148.5 41t35.5 105 v471h-493v-471q0 -76 36 -105t148 -41v-51h-690zM383 1487l299 325h227l301 -325h-139l-274 180l-277 -180h-137z" />
<glyph unicode="&#x125;" horiz-adv-x="1138" d="M33 0v49q70 14 89 37t19 86v1045q0 63 -19.5 83.5t-88.5 34.5v49h393v-575q80 88 144.5 124t146.5 36q127 0 201.5 -79t74.5 -210v-508q0 -63 22.5 -91t78.5 -32v-49h-482v49q51 6 74 33t23 84v496q0 170 -107 169q-74 0 -141 -71q-35 -31 -35 -47v-547q0 -57 21.5 -83 t78.5 -34v-49h-493zM158 1487l299 325h227l301 -325h-139l-275 180l-276 -180h-137z" />
<glyph unicode="&#x126;" horiz-adv-x="1593" d="M43 0v51q106 14 140 42t34 104v811h-174v61h174v119q0 76 -36 105.5t-138 39.5v51h690v-51q-106 -8 -145 -37.5t-39 -107.5v-119h493v119q0 78 -38.5 107.5t-145.5 37.5v51h696v-51q-104 -8 -142 -38.5t-38 -106.5v-119h180v-61h-180v-811q0 -76 35 -103.5t145 -42.5v-51 h-696v51q113 12 148.5 41t35.5 105v471h-493v-471q0 -76 36 -105t148 -41v-51h-690zM549 764h493v244h-493v-244z" />
<glyph unicode="&#x127;" horiz-adv-x="1241" d="M90 0v49q70 14 89.5 37t19.5 86v963h-109v61h109v21q0 63 -19.5 83.5t-89.5 34.5v49h393v-190l144 2v-61h-144v-326q80 88 144.5 124t146.5 36q127 0 202 -79t75 -210v-508q0 -63 22.5 -91t77.5 -32v-49h-481v49q51 6 73.5 33t22.5 84v496q0 170 -107 169q-74 0 -141 -71 q-35 -31 -35 -47v-547q0 -57 21.5 -83t79.5 -34v-49h-494z" />
<glyph unicode="&#x128;" horiz-adv-x="796" d="M25 1524q29 133 86 194.5t151 61.5q66 0 150 -39l82 -37q53 -25 79 -25q41 0 66 22.5t45 78.5h88q-70 -260 -240 -260q-63 0 -131 28l-59 27q-102 45 -131 45q-39 0 -66.5 -26.5t-33.5 -69.5h-86zM41 0v51q115 10 152.5 39t37.5 107v991q0 78 -39.5 107.5t-150.5 37.5v51 h717v-51q-113 -4 -154 -34.5t-41 -110.5v-991q0 -80 39 -109t156 -37v-51h-717z" />
<glyph unicode="&#x129;" horiz-adv-x="569" d="M-90 1124q29 133 86 194.5t151 61.5q66 0 150 -39l82 -36q53 -25 80 -25q41 0 65.5 22.5t44.5 77.5h88q-70 -260 -239 -260q-63 0 -131 29l-60 27q-102 45 -131 45q-39 0 -66.5 -27t-33.5 -70h-86zM33 0v49q70 16 89 38t19 85v602q0 63 -20.5 85t-87.5 36v49h393v-778 q0 -57 21.5 -83t74.5 -34v-49h-489z" />
<glyph unicode="&#x12a;" horiz-adv-x="796" d="M41 0v51q115 10 152.5 39t37.5 107v991q0 78 -39.5 107.5t-150.5 37.5v51h717v-51q-113 -4 -154 -34.5t-41 -110.5v-991q0 -80 39 -109t156 -37v-51h-717zM59 1575v147h676v-147h-676z" />
<glyph unicode="&#x12b;" horiz-adv-x="569" d="M-55 1176v147h676v-147h-676zM33 0v49q70 16 89 38t19 85v602q0 63 -20.5 85t-87.5 36v49h393v-778q0 -57 21.5 -83t74.5 -34v-49h-489z" />
<glyph unicode="&#x12c;" horiz-adv-x="796" d="M20 1817h99q18 -90 86.5 -127t193.5 -37t194 36.5t87 127.5h98q0 -143 -101.5 -239.5t-277.5 -96.5q-178 0 -278.5 96.5t-100.5 239.5zM41 0v51q115 10 152.5 39t37.5 107v991q0 78 -39.5 107.5t-150.5 37.5v51h717v-51q-113 -4 -154 -34.5t-41 -110.5v-991 q0 -80 39 -109t156 -37v-51h-717z" />
<glyph unicode="&#x12d;" horiz-adv-x="569" d="M-27 1417h90q16 -94 68.5 -136t151.5 -42q94 0 144 41t77 137h90q-16 -139 -62 -209q-80 -125 -249 -125q-168 0 -246 113q-56 74 -64 221zM33 0v49q70 16 89 38t19 85v602q0 63 -20.5 85t-87.5 36v49h393v-778q0 -57 21.5 -83t74.5 -34v-49h-489z" />
<glyph unicode="&#x12e;" horiz-adv-x="796" d="M41 0v51q115 10 152.5 39t37.5 107v991q0 78 -39.5 107.5t-150.5 37.5v51h717v-51q-113 -4 -154 -34.5t-41 -110.5v-991q0 -80 39 -109t156 -37v-51h-72q-143 0 -203 -94q-49 -80 -49 -160q0 -51 26.5 -84t67.5 -33q68 0 117 68l31 -25q-33 -82 -95.5 -133t-136.5 -51 q-70 0 -129 49t-59 144q0 174 182 319h-397z" />
<glyph unicode="&#x12f;" horiz-adv-x="569" d="M33 0v49q70 16 89 38t19 85v602q0 63 -20.5 85t-87.5 36v49h393v-778q0 -57 21.5 -83t74.5 -34v-49h-49q-86 0 -143 -94q-49 -80 -49 -160q0 -51 26.5 -84t67.5 -33q68 0 117 68l30 -25q-33 -82 -95 -133t-136 -51q-70 0 -129.5 49t-59.5 144q0 174 183 319h-252z M125 1249.5q0 67.5 46 112.5t111.5 45t111.5 -45t46 -112.5t-46 -112.5t-111.5 -45t-111.5 45t-46 112.5z" />
<glyph unicode="&#x130;" horiz-adv-x="796" d="M41 0v51q115 10 152.5 39t37.5 107v991q0 78 -39.5 107.5t-150.5 37.5v51h717v-51q-113 -4 -154 -34.5t-41 -110.5v-991q0 -80 39 -109t156 -37v-51h-717zM238 1648.5q0 67.5 46 112.5t111.5 45t111.5 -45t46 -112.5t-46 -112.5t-111.5 -45t-111.5 45t-46 112.5z" />
<glyph unicode="&#x131;" horiz-adv-x="569" d="M33 0v49q70 16 89 38t19 85v602q0 63 -20.5 85t-87.5 36v49h393v-778q0 -57 21.5 -83t74.5 -34v-49h-489z" />
<glyph unicode="&#x134;" d="M6 74q0 59 43 103t101 44q59 0 104 -46t45 -107q0 -39 -31 -78q-25 -33 -24 -53q0 -29 25.5 -47.5t66.5 -18.5q70 0 100.5 42t30.5 136v1139q0 82 -41 111.5t-166 33.5v51h721v-51q-115 -8 -148.5 -43t-33.5 -145v-893q0 -219 -112 -334t-327 -115q-129 0 -217 47 q-59 35 -98 98t-39 126zM221 1487l299 325h228l301 -325h-140l-274 180l-277 -180h-137z" />
<glyph unicode="&#x135;" horiz-adv-x="681" d="M-117 -211q0 55 35 90t92 35q51 0 86 -32t35 -79q0 -33 -29 -75q-18 -31 -18 -45q0 -35 66 -35q51 0 74.5 36.5t23.5 118.5v971q0 66 -25.5 90.5t-103.5 30.5v49h413v-940q0 -172 -55 -264q-88 -156 -307 -156q-127 0 -207 57.5t-80 147.5zM45 1069l250 361h188l252 -361 h-117l-229 201l-229 -201h-115z" />
<glyph unicode="&#x136;" horiz-adv-x="1593" d="M61 0v51q111 12 145 40t34 106v991q0 80 -36 109.5t-143 35.5v51h693v-51q-113 -8 -148 -44t-35 -144v-438l445 446q47 47 60.5 67.5t13.5 45.5q0 31 -23 45t-78 16q-12 2 -74 6v51h592v-51q-150 -12 -259 -90t-398 -375l625 -774q35 -41 100 -43v-51h-688v51q29 2 65 2 q96 6 97 41q0 29 -50 90l-372 465l-56 -51v-401q0 -76 35 -103.5t146 -42.5v-51h-691zM651 -233q0 70 42 110.5t112 40.5q84 0 134 -59.5t50 -155.5q0 -119 -72.5 -215t-232.5 -186l-20 39q201 141 200 245q0 16 -10 27.5t-25 11.5l-14 -2q-8 -2 -27 -2q-63 0 -100 40 t-37 106z" />
<glyph unicode="&#x137;" horiz-adv-x="1138" d="M45 0v49q98 8 98 123v1045q0 111 -98 118v49h383v-882l262 262q43 43 43 78q0 39 -71 47q-4 2 -21.5 4t-28.5 4v47h439v-47q-96 -12 -165 -59t-222 -209l397 -549q23 -31 51 -31v-49h-479v49q86 4 86 39q0 20 -49 92l-195 275l-47 -49v-234q0 -72 17.5 -92.5t89.5 -30.5 v-49h-490zM416 -233q0 70 42 110.5t111 40.5q82 0 133.5 -59.5t51.5 -155.5q0 -119 -73 -215t-232 -186l-21 39q201 141 201 245q0 16 -10.5 27.5t-24.5 11.5l-14 -2q-8 -2 -27 -2q-63 0 -100 40t-37 106z" />
<glyph unicode="&#x139;" horiz-adv-x="1366" d="M39 0v51q113 14 144.5 41t31.5 105v991q0 78 -36 108.5t-140 36.5v51h715v-51q-133 -6 -170 -39.5t-37 -148.5v-967q0 -66 33.5 -90.5t128.5 -24.5q233 0 358 113q53 49 90 108.5t90 180.5h60l-84 -465h-1184zM172 1477l336 288q61 53 131 54q53 0 86 -23.5t33 -58.5 q0 -33 -19.5 -51.5t-79.5 -47.5l-350 -161h-137z" />
<glyph unicode="&#x13a;" horiz-adv-x="569" d="M33 0v49q104 8 104 123v1045q0 111 -104 118v49h389v-1212q0 -121 100 -123v-49h-489zM70 1477l336 288q61 53 131 54q53 0 85.5 -23.5t32.5 -58.5q0 -33 -19.5 -51.5t-78.5 -47.5l-350 -161h-137z" />
<glyph unicode="&#x13b;" horiz-adv-x="1366" d="M39 0v51q113 14 144.5 41t31.5 105v991q0 78 -36 108.5t-140 36.5v51h715v-51q-133 -6 -170 -39.5t-37 -148.5v-967q0 -66 33.5 -90.5t128.5 -24.5q233 0 358 113q53 49 90 108.5t90 180.5h60l-84 -465h-1184zM514 -233q0 70 42 110.5t112 40.5q82 0 133 -59.5t51 -155.5 q0 -119 -72.5 -215t-232.5 -186l-21 39q201 141 201 245q0 16 -10 27.5t-25 11.5l-14 -2q-8 -2 -27 -2q-63 0 -100 40t-37 106z" />
<glyph unicode="&#x13c;" horiz-adv-x="569" d="M33 0v49q104 8 104 123v1045q0 111 -104 118v49h389v-1212q0 -121 100 -123v-49h-489zM111 -233q0 70 42 110.5t111 40.5q84 0 134.5 -59.5t50.5 -155.5q0 -119 -73 -215t-233 -186l-20 39q201 141 201 245q0 16 -10.5 27.5t-24.5 11.5l-15 -2q-8 -2 -26 -2 q-63 0 -100 40t-37 106z" />
<glyph unicode="&#x13d;" horiz-adv-x="1366" d="M39 0v51q113 14 144.5 41t31.5 105v991q0 78 -36 108.5t-140 36.5v51h715v-51q-133 -6 -170 -39.5t-37 -148.5v-967q0 -66 33.5 -90.5t128.5 -24.5q233 0 358 113q53 49 90 108.5t90 180.5h60l-84 -465h-1184zM844 1233q0 70 42 110.5t111 40.5q84 0 134.5 -59t50.5 -156 q0 -119 -73 -215t-232 -186l-21 39q201 141 201 246q0 16 -10.5 27.5t-24.5 11.5l-14 -2q-8 -2 -27 -3q-63 0 -100 40t-37 106z" />
<glyph unicode="&#x13e;" horiz-adv-x="569" d="M33 0v49q104 8 104 123v1045q0 111 -104 118v49h389v-1212q0 -121 100 -123v-49h-489zM512 1233q0 70 42 110.5t112 40.5q84 0 134 -59t50 -156q0 -119 -72.5 -215t-232.5 -186l-21 39q201 141 201 246q0 16 -10 27.5t-25 11.5l-14 -2q-8 -2 -27 -3q-63 0 -100 40 t-37 106z" />
<glyph unicode="&#x13f;" horiz-adv-x="1366" d="M39 0v51q113 14 144.5 41t31.5 105v991q0 78 -36 108.5t-140 36.5v51h715v-51q-133 -6 -170 -39.5t-37 -148.5v-967q0 -66 33.5 -90.5t128.5 -24.5q233 0 358 113q53 49 90 108.5t90 180.5h60l-84 -465h-1184zM907 731.5q0 67.5 46 112.5t111.5 45t112 -45t46.5 -112.5 t-46.5 -113t-112 -45.5t-111.5 45.5t-46 113z" />
<glyph unicode="&#x140;" horiz-adv-x="720" d="M33 0v49q104 8 104 123v1045q0 111 -104 118v49h389v-1212q0 -121 100 -123v-49h-489zM483 731.5q0 67.5 46 112.5t112 45t112 -45t46 -112.5t-46 -113t-112 -45.5t-112 45.5t-46 113z" />
<glyph unicode="&#x141;" horiz-adv-x="1366" d="M39 0v51q113 14 144.5 41t31.5 105v311l-145 -121v129l145 121v551q0 78 -36 108.5t-140 36.5v51h715v-51q-133 -6 -170 -39.5t-37 -148.5v-293l334 278v-129l-334 -278v-545q0 -66 33.5 -90.5t128.5 -24.5q233 0 358 113q53 49 90 108.5t90 180.5h60l-84 -465h-1184z " />
<glyph unicode="&#x142;" horiz-adv-x="569" d="M8 528v123l129 121v445q0 111 -104 118v49h389v-399l139 131v-123l-139 -131v-690q0 -121 100 -123v-49h-489v49q104 8 104 123v477z" />
<glyph unicode="&#x143;" horiz-adv-x="1478" d="M33 0v51q113 14 146.5 45t33.5 119v971q-74 88 -108.5 117.5t-65.5 29.5v51h432l715 -878v624q0 109 -39 151t-152 52v51h441v-51q-100 -16 -130 -46t-30 -118v-1206h-57l-916 1114v-823q0 -109 38 -148.5t157 -54.5v-51h-465zM520 1477l336 288q61 53 131 54 q53 0 86 -23.5t33 -58.5q0 -33 -19.5 -51.5t-78.5 -47.5l-351 -161h-137z" />
<glyph unicode="&#x144;" horiz-adv-x="1138" d="M43 0v49q70 14 89.5 37t19.5 86v602q0 63 -20.5 87t-88.5 34v49h391v-153q113 178 293 178q127 0 202 -79t75 -210v-514q0 -66 20 -89.5t80 -27.5v-49h-481v49q51 6 73.5 33t22.5 84v496q0 170 -107 169q-74 0 -141 -71q-35 -31 -35 -47v-547q0 -57 21.5 -83t79.5 -34 v-49h-494zM414 1059l280 321q51 57 109 58q45 0 71.5 -24.5t26.5 -65.5q0 -35 -16.5 -56.5t-65.5 -52.5l-291 -180h-114z" />
<glyph unicode="&#x145;" horiz-adv-x="1478" d="M33 0v51q113 14 146.5 45t33.5 119v971q-74 88 -108.5 117.5t-65.5 29.5v51h432l715 -878v624q0 109 -39 151t-152 52v51h441v-51q-100 -16 -130 -46t-30 -118v-1206h-57l-916 1114v-823q0 -109 38 -148.5t157 -54.5v-51h-465zM575 -233q0 70 42 110.5t112 40.5 q82 0 133 -59.5t51 -155.5q0 -119 -72.5 -215t-232.5 -186l-20 39q201 141 200 245q0 16 -10 27.5t-24 11.5l-15 -2q-8 -2 -26 -2q-63 0 -100.5 40t-37.5 106z" />
<glyph unicode="&#x146;" horiz-adv-x="1138" d="M43 0v49q70 14 89.5 37t19.5 86v602q0 63 -20.5 87t-88.5 34v49h391v-153q113 178 293 178q127 0 202 -79t75 -210v-514q0 -66 20 -89.5t80 -27.5v-49h-481v49q51 6 73.5 33t22.5 84v496q0 170 -107 169q-74 0 -141 -71q-35 -31 -35 -47v-547q0 -57 21.5 -83t79.5 -34 v-49h-494zM410 -233q0 70 42 110.5t111 40.5q84 0 134.5 -59.5t50.5 -155.5q0 -119 -73 -215t-233 -186l-20 39q201 141 201 245q0 16 -10.5 27.5t-24.5 11.5l-15 -2q-8 -2 -26 -2q-63 0 -100 40t-37 106z" />
<glyph unicode="&#x147;" horiz-adv-x="1478" d="M33 0v51q113 14 146.5 45t33.5 119v971q-74 88 -108.5 117.5t-65.5 29.5v51h432l715 -878v624q0 109 -39 151t-152 52v51h441v-51q-100 -16 -130 -46t-30 -118v-1206h-57l-916 1114v-823q0 -109 38 -148.5t157 -54.5v-51h-465zM330 1812h139l274 -180l277 180h137 l-299 -325h-227z" />
<glyph unicode="&#x148;" horiz-adv-x="1138" d="M43 0v49q70 14 89.5 37t19.5 86v602q0 63 -20.5 87t-88.5 34v49h391v-153q113 178 293 178q127 0 202 -79t75 -210v-514q0 -66 20 -89.5t80 -27.5v-49h-481v49q51 6 73.5 33t22.5 84v496q0 170 -107 169q-74 0 -141 -71q-35 -31 -35 -47v-547q0 -57 21.5 -83t79.5 -34 v-49h-494zM233 1430h115l230 -203l229 203h117l-252 -361h-189z" />
<glyph unicode="&#x14a;" horiz-adv-x="1478" d="M33 0v51q113 14 146.5 45t33.5 119v971q-74 88 -108.5 117.5t-65.5 29.5v51h432l715 -878v624q0 109 -39 151t-152 52v51h441v-51q-100 -16 -130 -46t-30 -118v-1185q0 -96 -3 -151.5t-15.5 -120t-37 -98.5t-68.5 -56.5t-110 -22.5q-129 0 -217 47q-59 35 -98 97.5 t-39 125.5q0 59 43 103.5t100 44.5q59 0 104.5 -46t45.5 -108q0 -39 -31 -78q-25 -33 -24 -53q0 -29 25.5 -47t66.5 -18q76 0 125 44t49 134v219l-889 1077v-823q0 -109 38 -148.5t157 -54.5v-51h-465z" />
<glyph unicode="&#x14b;" horiz-adv-x="1138" d="M43 0v49q70 14 89.5 37t19.5 86v602q0 63 -20.5 87t-88.5 34v49h391v-153q113 178 293 178q127 0 202 -79t75 -210v-676q0 -172 -56 -264q-88 -156 -307 -156q-127 0 -207 57.5t-80 147.5q0 55 35 90t92 35q49 0 85 -33t36 -78q0 -31 -29 -75q-18 -31 -18 -45 q0 -35 66 -35q98 0 98 155v859q0 170 -107 169q-74 0 -141 -71q-35 -31 -35 -47v-547q0 -57 21.5 -83t79.5 -34v-49h-494z" />
<glyph unicode="&#x14c;" horiz-adv-x="1593" d="M72 686q0 319 205.5 524t527.5 205q309 0 513 -207t204 -520q0 -317 -204 -522t-521.5 -205t-521 204t-203.5 521zM434 668q0 -311 93.5 -475t269.5 -164t269 164.5t93 480.5q0 319 -93 496.5t-263 177.5q-180 0 -274.5 -174t-94.5 -506zM467 1575v147h676v-147h-676z " />
<glyph unicode="&#x14d;" d="M51 475q0 209 134 351.5t329 142.5q199 0 330 -142.5t131 -357.5q0 -213 -131 -355.5t-330 -142.5q-201 0 -332 142.5t-131 361.5zM176 1176v147h676v-147h-676zM352 438q0 -225 36 -314t126 -89t125 93t35 329q0 252 -35 350t-123 98q-94 0 -129 -98.5t-35 -368.5z" />
<glyph unicode="&#x14e;" horiz-adv-x="1593" d="M72 686q0 319 205.5 524t527.5 205q309 0 513 -207t204 -520q0 -317 -204 -522t-521.5 -205t-521 204t-203.5 521zM428 1817h98q18 -90 87 -127t194 -37t193.5 36.5t86.5 127.5h99q0 -143 -101.5 -239.5t-277.5 -96.5q-178 0 -278.5 96.5t-100.5 239.5zM434 668 q0 -311 93.5 -475t269.5 -164t269 164.5t93 480.5q0 319 -93 496.5t-263 177.5q-180 0 -274.5 -174t-94.5 -506z" />
<glyph unicode="&#x14f;" d="M51 475q0 209 134 351.5t329 142.5q199 0 330 -142.5t131 -357.5q0 -213 -131 -355.5t-330 -142.5q-201 0 -332 142.5t-131 361.5zM205 1417h90q16 -94 68.5 -136t150.5 -42q94 0 144.5 41t76.5 137h90q-16 -139 -61 -209q-80 -125 -250 -125q-168 0 -246 113 q-55 74 -63 221zM352 438q0 -225 36 -314t126 -89t125 93t35 329q0 252 -35 350t-123 98q-94 0 -129 -98.5t-35 -368.5z" />
<glyph unicode="&#x150;" horiz-adv-x="1593" d="M72 686q0 319 205.5 524t527.5 205q309 0 513 -207t204 -520q0 -317 -204 -522t-521.5 -205t-521 204t-203.5 521zM434 668q0 -311 93.5 -475t269.5 -164t269 164.5t93 480.5q0 319 -93 496.5t-263 177.5q-180 0 -274.5 -174t-94.5 -506zM549 1477l336 288q61 53 131 54 q53 0 86 -23.5t33 -58.5q0 -33 -19.5 -51.5t-79.5 -47.5l-350 -161h-137zM909 1477l336 288q61 53 131 54q53 0 86 -23.5t33 -58.5q0 -33 -19.5 -51.5t-78.5 -47.5l-350 -161h-138z" />
<glyph unicode="&#x151;" d="M51 475q0 209 134 351.5t329 142.5q199 0 330 -142.5t131 -357.5q0 -213 -131 -355.5t-330 -142.5q-201 0 -332 142.5t-131 361.5zM250 1061l280 321q51 57 109 58q45 0 71.5 -24.5t26.5 -65.5q0 -35 -16 -56.5t-66 -52.5l-290 -180h-115zM352 438q0 -225 36 -314 t126 -89t125 93t35 329q0 252 -35 350t-123 98q-94 0 -129 -98.5t-35 -368.5zM639 1061l281 321q51 57 108 58q45 0 71.5 -24.5t26.5 -65.5q0 -35 -16 -56.5t-66 -52.5l-290 -180h-115z" />
<glyph unicode="&#x152;" horiz-adv-x="2048" d="M45 684q0 319 194.5 518t505.5 199l326 -17h10h844v-411h-53q-23 123 -52.5 182t-93.5 98q-96 59 -329 60q-66 0 -89.5 -11.5t-23.5 -41.5v-510q164 4 216 56t93 247h47v-693h-47q-23 182 -85 248t-224 74v-512q0 -59 29.5 -78.5t120.5 -19.5q211 0 335 98 q55 45 94.5 100.5t90.5 161.5h55l-86 -432h-881q-147 0 -219 -6q-61 -4 -90 -4q-281 0 -452 141q-113 92 -174.5 236.5t-61.5 316.5zM393 655q0 -315 82 -458q80 -141 275 -142q125 0 174 64q27 33 35 96.5t8 218.5v596q0 188 -37 244q-43 61 -158 61q-379 0 -379 -680z" />
<glyph unicode="&#x153;" horiz-adv-x="1478" d="M45 469q0 219 130 359.5t333 140.5q156 0 256 -101q76 57 131 79t133 22q233 0 330 -185q51 -96 61 -282h-510v-35v-6q-6 -342 234 -342q72 0 122 28.5t119 108.5l41 -33q-100 -143 -188 -197.5t-217 -54.5q-150 0 -236 99q-115 -98 -282 -99q-203 0 -330 138.5 t-127 359.5zM342 508q0 -266 34 -370.5t120 -104.5q70 0 102.5 65.5t32.5 206.5v332q0 147 -33 209.5t-109 62.5q-84 0 -115.5 -86t-31.5 -315zM909 578h260l-4 114q-4 115 -32.5 166t-90.5 51q-133 0 -133 -221v-110z" />
<glyph unicode="&#x154;" horiz-adv-x="1478" d="M53 0v51q121 14 150.5 45t29.5 144v905q0 111 -33.5 145.5t-146.5 42.5v51h660q281 0 429 -94t148 -270q0 -143 -92 -229q-76 -68 -229 -117l411 -584q31 -39 84 -39v-51h-420l-423 641h-56v-401q0 -109 31 -141.5t149 -47.5v-51h-692zM489 1477l336 288q61 53 131 54 q53 0 86 -23.5t33 -58.5q0 -33 -19.5 -51.5t-78.5 -47.5l-350 -161h-138zM565 707q205 2 279 51q96 63 96 254q0 162 -61.5 232.5t-202.5 70.5q-78 0 -96 -31q-14 -29 -15 -55v-522z" />
<glyph unicode="&#x155;" horiz-adv-x="909" d="M59 0v49q68 12 89.5 36t21.5 87v602q0 61 -22.5 87t-88.5 34v49h387v-168q72 102 136.5 147.5t140.5 45.5q72 0 119 -45t47 -115q0 -59 -36 -98t-93 -39q-72 0 -123 73q-33 47 -57 48q-51 0 -88 -57.5t-37 -137.5v-387q0 -96 27.5 -126t121.5 -36v-49h-545zM283 1059 l280 321q51 57 109 58q45 0 71.5 -24.5t26.5 -65.5q0 -35 -16.5 -56.5t-65.5 -52.5l-291 -180h-114z" />
<glyph unicode="&#x156;" horiz-adv-x="1478" d="M53 0v51q121 14 150.5 45t29.5 144v905q0 111 -33.5 145.5t-146.5 42.5v51h660q281 0 429 -94t148 -270q0 -143 -92 -229q-76 -68 -229 -117l411 -584q31 -39 84 -39v-51h-420l-423 641h-56v-401q0 -109 31 -141.5t149 -47.5v-51h-692zM545 -233q0 70 42 110.5t111 40.5 q84 0 134.5 -59.5t50.5 -155.5q0 -119 -73 -215t-232 -186l-21 39q201 141 201 245q0 16 -10.5 27.5t-24.5 11.5l-14 -2q-8 -2 -27 -2q-63 0 -100 40t-37 106zM565 707q205 2 279 51q96 63 96 254q0 162 -61.5 232.5t-202.5 70.5q-78 0 -96 -31q-14 -29 -15 -55v-522z" />
<glyph unicode="&#x157;" horiz-adv-x="909" d="M59 0v49q68 12 89.5 36t21.5 87v602q0 61 -22.5 87t-88.5 34v49h387v-168q72 102 136.5 147.5t140.5 45.5q72 0 119 -45t47 -115q0 -59 -36 -98t-93 -39q-72 0 -123 73q-33 47 -57 48q-51 0 -88 -57.5t-37 -137.5v-387q0 -96 27.5 -126t121.5 -36v-49h-545zM164 -233 q0 70 42 110.5t111 40.5q84 0 134.5 -59.5t50.5 -155.5q0 -119 -73 -215t-232 -186l-21 39q201 141 201 245q0 16 -10.5 27.5t-24.5 11.5l-14 -2q-8 -2 -27 -2q-63 0 -100 40t-37 106z" />
<glyph unicode="&#x158;" horiz-adv-x="1478" d="M53 0v51q121 14 150.5 45t29.5 144v905q0 111 -33.5 145.5t-146.5 42.5v51h660q281 0 429 -94t148 -270q0 -143 -92 -229q-76 -68 -229 -117l411 -584q31 -39 84 -39v-51h-420l-423 641h-56v-401q0 -109 31 -141.5t149 -47.5v-51h-692zM299 1812h139l275 -180l276 180 h137l-299 -325h-227zM565 707q205 2 279 51q96 63 96 254q0 162 -61.5 232.5t-202.5 70.5q-78 0 -96 -31q-14 -29 -15 -55v-522z" />
<glyph unicode="&#x159;" horiz-adv-x="909" d="M59 0v49q68 12 89.5 36t21.5 87v602q0 61 -22.5 87t-88.5 34v49h387v-168q72 102 136.5 147.5t140.5 45.5q72 0 119 -45t47 -115q0 -59 -36 -98t-93 -39q-72 0 -123 73q-33 47 -57 48q-51 0 -88 -57.5t-37 -137.5v-387q0 -96 27.5 -126t121.5 -36v-49h-545zM102 1430h115 l229 -203l230 203h117l-252 -361h-189z" />
<glyph unicode="&#x15a;" horiz-adv-x="1138" d="M72 -39v506h59q27 -111 52.5 -172.5t70.5 -118.5q117 -147 295 -147q119 0 188.5 62.5t69.5 168.5q0 82 -47 133t-182 115l-138 65q-264 127 -327 289q-23 63 -23 135q0 195 120 306.5t329 111.5q113 0 239 -47q61 -20 86 -20q29 0 42.5 14t23.5 55h61v-444h-57 q-31 100 -60.5 155.5t-82.5 108.5q-111 115 -252 115q-104 0 -165 -55.5t-61 -149.5q0 -76 43 -123t168 -109l301 -149q100 -49 163 -153.5t63 -219.5q0 -193 -140.5 -312.5t-367.5 -119.5q-125 0 -267 49q-63 20 -83 21q-25 0 -39.5 -15.5t-22.5 -54.5h-59zM319 1477 l336 288q61 53 131 54q53 0 86 -23.5t33 -58.5q0 -33 -19.5 -51.5t-78.5 -47.5l-350 -161h-138z" />
<glyph unicode="&#x15b;" horiz-adv-x="796" d="M51 -27v338h58q66 -270 280 -270q70 0 112 37t42 96q0 49 -45 91t-152 87q-154 66 -222.5 140.5t-68.5 177.5q0 129 91.5 214t230.5 85q70 0 160 -31q45 -14 63 -14q35 0 51 41h45v-297h-51q-39 115 -96 168q-70 66 -154 65q-57 0 -96 -33.5t-39 -85t46 -93.5t151 -87 q154 -63 218 -137t64 -182q0 -137 -88 -224.5t-227 -87.5q-106 0 -221 47q-31 12 -47 13q-23 0 -54 -58h-51zM231 1059l281 321q51 57 109 58q45 0 71.5 -24.5t26.5 -65.5q0 -35 -16.5 -56.5t-65.5 -52.5l-291 -180h-115z" />
<glyph unicode="&#x15c;" horiz-adv-x="1138" d="M72 -39v506h59q27 -111 52.5 -172.5t70.5 -118.5q117 -147 295 -147q119 0 188.5 62.5t69.5 168.5q0 82 -47 133t-182 115l-138 65q-264 127 -327 289q-23 63 -23 135q0 195 120 306.5t329 111.5q113 0 239 -47q61 -20 86 -20q29 0 42.5 14t23.5 55h61v-444h-57 q-31 100 -60.5 155.5t-82.5 108.5q-111 115 -252 115q-104 0 -165 -55.5t-61 -149.5q0 -76 43 -123t168 -109l301 -149q100 -49 163 -153.5t63 -219.5q0 -193 -140.5 -312.5t-367.5 -119.5q-125 0 -267 49q-63 20 -83 21q-25 0 -39.5 -15.5t-22.5 -54.5h-59zM131 1487 l299 325h227l301 -325h-139l-274 180l-277 -180h-137z" />
<glyph unicode="&#x15d;" horiz-adv-x="796" d="M51 -27v338h58q66 -270 280 -270q70 0 112 37t42 96q0 49 -45 91t-152 87q-154 66 -222.5 140.5t-68.5 177.5q0 129 91.5 214t230.5 85q70 0 160 -31q45 -14 63 -14q35 0 51 41h45v-297h-51q-39 115 -96 168q-70 66 -154 65q-57 0 -96 -33.5t-39 -85t46 -93.5t151 -87 q154 -63 218 -137t64 -182q0 -137 -88 -224.5t-227 -87.5q-106 0 -221 47q-31 12 -47 13q-23 0 -54 -58h-51zM51 1069l250 361h188l252 -361h-116l-230 201l-229 -201h-115z" />
<glyph unicode="&#x15e;" horiz-adv-x="1138" d="M72 -39v506h59q27 -111 52.5 -172.5t70.5 -118.5q117 -147 295 -147q119 0 188.5 62.5t69.5 168.5q0 82 -47 133t-182 115l-138 65q-264 127 -327 289q-23 63 -23 135q0 195 120 306.5t329 111.5q113 0 239 -47q61 -20 86 -20q29 0 42.5 14t23.5 55h61v-444h-57 q-31 100 -60.5 155.5t-82.5 108.5q-111 115 -252 115q-104 0 -165 -55.5t-61 -149.5q0 -76 43 -123t168 -109l301 -149q100 -49 163 -153.5t63 -219.5q0 -180 -123 -296.5t-326 -133.5l-51 -115q31 10 65 11q86 0 134.5 -38t48.5 -106q0 -84 -72 -133t-192 -49 q-94 0 -199 37l33 76l12 -4q66 -25 108 -25q119 0 119 84q0 74 -94 74q-27 0 -57 -8l-23 16l80 178q-111 6 -238 49q-63 20 -83 21q-25 0 -39.5 -15.5t-22.5 -54.5h-59z" />
<glyph unicode="&#x15f;" horiz-adv-x="796" d="M51 -27v338h58q66 -270 280 -270q70 0 112 37t42 96q0 49 -45 91t-152 87q-154 66 -222.5 140.5t-68.5 177.5q0 129 91.5 214t230.5 85q70 0 160 -31q45 -14 63 -14q35 0 51 41h45v-297h-51q-39 115 -96 168q-70 66 -154 65q-57 0 -96 -33.5t-39 -85t46 -93.5t151 -87 q154 -63 218 -137t64 -182q0 -137 -88 -224.5t-227 -87.5h-8l-41 -102q31 10 67 10q84 0 132.5 -38t48.5 -105q0 -84 -72 -133t-195 -49q-94 0 -196 36l33 76l12 -4q63 -25 110 -24q117 0 117 83q0 74 -94 74q-27 0 -57 -8l-23 16l76 179q-72 12 -131 36q-31 12 -47 13 q-23 0 -54 -58h-51z" />
<glyph unicode="&#x160;" horiz-adv-x="1138" d="M72 -39v506h59q27 -111 52.5 -172.5t70.5 -118.5q117 -147 295 -147q119 0 188.5 62.5t69.5 168.5q0 82 -47 133t-182 115l-138 65q-264 127 -327 289q-23 63 -23 135q0 195 120 306.5t329 111.5q113 0 239 -47q61 -20 86 -20q29 0 42.5 14t23.5 55h61v-444h-57 q-31 100 -60.5 155.5t-82.5 108.5q-111 115 -252 115q-104 0 -165 -55.5t-61 -149.5q0 -76 43 -123t168 -109l301 -149q100 -49 163 -153.5t63 -219.5q0 -193 -140.5 -312.5t-367.5 -119.5q-125 0 -267 49q-63 20 -83 21q-25 0 -39.5 -15.5t-22.5 -54.5h-59zM129 1812h139 l275 -180l276 180h137l-299 -325h-227z" />
<glyph unicode="&#x161;" horiz-adv-x="796" d="M51 -27v338h58q66 -270 280 -270q70 0 112 37t42 96q0 49 -45 91t-152 87q-154 66 -222.5 140.5t-68.5 177.5q0 129 91.5 214t230.5 85q70 0 160 -31q45 -14 63 -14q35 0 51 41h45v-297h-51q-39 115 -96 168q-70 66 -154 65q-57 0 -96 -33.5t-39 -85t46 -93.5t151 -87 q154 -63 218 -137t64 -182q0 -137 -88 -224.5t-227 -87.5q-106 0 -221 47q-31 12 -47 13q-23 0 -54 -58h-51zM51 1430h115l229 -203l230 203h116l-252 -361h-188z" />
<glyph unicode="&#x162;" horiz-adv-x="1366" d="M63 973l7 411h1228l5 -411h-60q-27 182 -116 261t-277 85v-1079q0 -117 34 -148t167 -41v-51h-301l-68 -152q31 10 66 11q86 0 134 -38t48 -106q0 -84 -72 -133t-192 -49q-94 0 -199 37l33 76l12 -4q66 -25 109 -25q119 0 118 84q0 74 -94 74q-27 0 -57 -8l-23 16l99 217 h-345v51q131 10 165 42t34 147v1079q-190 -6 -279 -85t-116 -261h-60z" />
<glyph unicode="&#x163;" horiz-adv-x="681" d="M41 854v55q100 84 173 166t167 215h51v-346h193v-90h-193v-616q0 -61 18.5 -89t61.5 -28q61 0 117 106l51 -22q-55 -111 -115.5 -164t-142.5 -64l-47 -108q31 10 65 10q86 0 134.5 -38t48.5 -105q0 -84 -72 -133t-193 -49q-94 0 -198 36l33 76l12 -4q66 -25 108 -24 q119 0 119 83q0 74 -94 74q-27 0 -57 -8l-23 16l78 174q-88 10 -138.5 66.5t-50.5 146.5v664h-106z" />
<glyph unicode="&#x164;" horiz-adv-x="1366" d="M63 973l7 411h1228l5 -411h-60q-27 182 -116 261t-277 85v-1079q0 -117 34 -148t167 -41v-51h-732v51q131 10 165 42t34 147v1079q-190 -6 -279 -85t-116 -261h-60zM270 1812h140l274 -180l277 180h137l-299 -325h-228z" />
<glyph unicode="&#x165;" horiz-adv-x="681" d="M41 854v55q100 84 173 166t167 215h51v-346h193v-90h-193v-616q0 -61 18.5 -89t61.5 -28q61 0 117 106l51 -22q-63 -125 -132 -177.5t-171 -52.5q-106 0 -168 57.5t-62 157.5v664h-106zM477 1454q0 70 42 111t112 41q82 0 133 -59.5t51 -155.5q0 -119 -72.5 -215.5 t-232.5 -186.5l-21 39q201 141 201 246q0 16 -10 27.5t-25 11.5l-14 -2q-8 -2 -27 -2q-63 0 -100 39.5t-37 105.5z" />
<glyph unicode="&#x168;" horiz-adv-x="1478" d="M33 1333v51h692v-51q-127 -6 -163 -39.5t-36 -148.5v-684q0 -209 72 -304.5t227 -95.5q184 0 272.5 109t88.5 336v624q0 113 -40 153t-161 50v51h451v-51q-98 -14 -129 -49t-31 -125v-653q0 -309 -156 -432q-139 -113 -372 -113q-231 0 -383 111q-90 68 -127 153.5 t-37 235.5v684q0 111 -29.5 144.5t-138.5 43.5zM483 1524q29 133 86.5 194.5t151.5 61.5q66 0 149 -39l82 -37q53 -25 80 -25q41 0 65.5 22.5t45.5 78.5h88q-70 -260 -240 -260q-63 0 -131 28l-59 27q-102 45 -131 45q-39 0 -67 -26.5t-34 -69.5h-86z" />
<glyph unicode="&#x169;" horiz-adv-x="1138" d="M33 895v49h385v-694q0 -78 25.5 -112t88.5 -34q78 0 168 91v579q0 66 -25.5 90.5t-101.5 30.5v49h412v-737q0 -66 23.5 -91.5t91.5 -27.5v-47l-127 -14q-170 -18 -271 -54v133q-90 -78 -153.5 -106.5t-142.5 -28.5q-127 0 -200 76t-73 211v516q0 63 -18.5 86t-81.5 35z M186 1124q29 133 86.5 194.5t151.5 61.5q66 0 149 -39l82 -36q53 -25 80 -25q41 0 65.5 22.5t45.5 77.5h88q-70 -260 -240 -260q-63 0 -131 29l-59 27q-102 45 -131 45q-39 0 -66.5 -27t-34.5 -70h-86z" />
<glyph unicode="&#x16a;" horiz-adv-x="1478" d="M33 1333v51h692v-51q-127 -6 -163 -39.5t-36 -148.5v-684q0 -209 72 -304.5t227 -95.5q184 0 272.5 109t88.5 336v624q0 113 -40 153t-161 50v51h451v-51q-98 -14 -129 -49t-31 -125v-653q0 -309 -156 -432q-139 -113 -372 -113q-231 0 -383 111q-90 68 -127 153.5 t-37 235.5v684q0 111 -29.5 144.5t-138.5 43.5zM518 1575v147h676v-147h-676z" />
<glyph unicode="&#x16b;" horiz-adv-x="1138" d="M33 895v49h385v-694q0 -78 25.5 -112t88.5 -34q78 0 168 91v579q0 66 -25.5 90.5t-101.5 30.5v49h412v-737q0 -66 23.5 -91.5t91.5 -27.5v-47l-127 -14q-170 -18 -271 -54v133q-90 -78 -153.5 -106.5t-142.5 -28.5q-127 0 -200 76t-73 211v516q0 63 -18.5 86t-81.5 35z M221 1176v147h676v-147h-676z" />
<glyph unicode="&#x16c;" horiz-adv-x="1478" d="M33 1333v51h692v-51q-127 -6 -163 -39.5t-36 -148.5v-684q0 -209 72 -304.5t227 -95.5q184 0 272.5 109t88.5 336v624q0 113 -40 153t-161 50v51h451v-51q-98 -14 -129 -49t-31 -125v-653q0 -309 -156 -432q-139 -113 -372 -113q-231 0 -383 111q-90 68 -127 153.5 t-37 235.5v684q0 111 -29.5 144.5t-138.5 43.5zM479 1817h99q18 -90 86.5 -127t193.5 -37t193.5 36.5t87.5 127.5h98q0 -143 -101.5 -239.5t-277.5 -96.5q-178 0 -278.5 96.5t-100.5 239.5z" />
<glyph unicode="&#x16d;" horiz-adv-x="1138" d="M33 895v49h385v-694q0 -78 25.5 -112t88.5 -34q78 0 168 91v579q0 66 -25.5 90.5t-101.5 30.5v49h412v-737q0 -66 23.5 -91.5t91.5 -27.5v-47l-127 -14q-170 -18 -271 -54v133q-90 -78 -153.5 -106.5t-142.5 -28.5q-127 0 -200 76t-73 211v516q0 63 -18.5 86t-81.5 35z M250 1417h90q16 -94 68.5 -136t150.5 -42q94 0 144.5 41t76.5 137h90q-16 -139 -61 -209q-80 -125 -250 -125q-168 0 -246 113q-55 74 -63 221z" />
<glyph unicode="&#x16e;" horiz-adv-x="1478" d="M33 1333v51h692v-51q-127 -6 -163 -39.5t-36 -148.5v-684q0 -209 72 -304.5t227 -95.5q184 0 272.5 109t88.5 336v624q0 113 -40 153t-161 50v51h451v-51q-98 -14 -129 -49t-31 -125v-653q0 -309 -156 -432q-139 -113 -372 -113q-231 0 -383 111q-90 68 -127 153.5 t-37 235.5v684q0 111 -29.5 144.5t-138.5 43.5zM639 1692q0 86 65.5 150.5t153.5 64.5t152.5 -64.5t64.5 -155t-64.5 -154t-154.5 -63.5t-153.5 65t-63.5 157zM737 1688q0 -49 35 -84t82 -35q51 0 87 34.5t36 82.5q0 49 -36 85.5t-85 36.5q-47 0 -83 -36.5t-36 -83.5z" />
<glyph unicode="&#x16f;" horiz-adv-x="1138" d="M33 895v49h385v-694q0 -78 25.5 -112t88.5 -34q78 0 168 91v579q0 66 -25.5 90.5t-101.5 30.5v49h412v-737q0 -66 23.5 -91.5t91.5 -27.5v-47l-127 -14q-170 -18 -271 -54v133q-90 -78 -153.5 -106.5t-142.5 -28.5q-127 0 -200 76t-73 211v516q0 63 -18.5 86t-81.5 35z M342 1253q0 86 65.5 150.5t153.5 64.5t152.5 -64.5t64.5 -154.5t-64.5 -153.5t-154.5 -63.5t-153.5 64.5t-63.5 156.5zM440 1249q0 -49 35 -84t82 -35q51 0 87 35t36 82q0 49 -36 86t-85 37q-47 0 -83 -37t-36 -84z" />
<glyph unicode="&#x170;" horiz-adv-x="1478" d="M33 1333v51h692v-51q-127 -6 -163 -39.5t-36 -148.5v-684q0 -209 72 -304.5t227 -95.5q184 0 272.5 109t88.5 336v624q0 113 -40 153t-161 50v51h451v-51q-98 -14 -129 -49t-31 -125v-653q0 -309 -156 -432q-139 -113 -372 -113q-231 0 -383 111q-90 68 -127 153.5 t-37 235.5v684q0 111 -29.5 144.5t-138.5 43.5zM600 1477l336 288q61 53 131 54q53 0 86 -23.5t33 -58.5q0 -33 -19.5 -51.5t-79.5 -47.5l-350 -161h-137zM961 1477l335 288q61 53 131 54q53 0 86 -23.5t33 -58.5q0 -33 -19.5 -51.5t-78.5 -47.5l-350 -161h-137z" />
<glyph unicode="&#x171;" horiz-adv-x="1138" d="M33 895v49h385v-694q0 -78 25.5 -112t88.5 -34q78 0 168 91v579q0 66 -25.5 90.5t-101.5 30.5v49h412v-737q0 -66 23.5 -91.5t91.5 -27.5v-47l-127 -14q-170 -18 -271 -54v133q-90 -78 -153.5 -106.5t-142.5 -28.5q-127 0 -200 76t-73 211v516q0 63 -18.5 86t-81.5 35z M295 1061l280 321q51 57 109 58q45 0 71.5 -24.5t26.5 -65.5q0 -35 -16 -56.5t-66 -52.5l-290 -180h-115zM684 1061l281 321q51 57 108 58q45 0 71.5 -24.5t26.5 -65.5q0 -35 -16 -56.5t-65 -52.5l-291 -180h-115z" />
<glyph unicode="&#x172;" horiz-adv-x="1478" d="M33 1333v51h692v-51q-127 -6 -163 -39.5t-36 -148.5v-684q0 -209 72 -304.5t227 -95.5q184 0 272.5 109t88.5 336v624q0 113 -40 153t-161 50v51h451v-51q-98 -14 -129 -49t-31 -125v-653q0 -309 -156 -432q-63 -51 -164 -84q-92 -27 -129 -84q-49 -76 -49 -160 q0 -51 26.5 -84t67.5 -33q68 0 117 68l31 -25q-33 -82 -95.5 -133t-136.5 -51q-70 0 -129 49t-59 144q0 156 135 280q-221 4 -370 111q-90 68 -127 153.5t-37 235.5v684q0 111 -29.5 144.5t-138.5 43.5z" />
<glyph unicode="&#x173;" horiz-adv-x="1138" d="M33 895v49h385v-694q0 -78 25.5 -112t88.5 -34q78 0 168 91v579q0 66 -25.5 90.5t-101.5 30.5v49h412v-737q0 -66 23.5 -91.5t91.5 -27.5v-47l-25 -2q-88 -10 -168 -133q-49 -80 -49 -160q0 -51 26.5 -84t67.5 -33q68 0 117 68l31 -25q-33 -82 -95.5 -133t-136.5 -51 q-70 0 -129 49t-59 144q0 180 203 335q-94 -14 -181 -43v133q-90 -78 -153.5 -106.5t-142.5 -28.5q-127 0 -200 76t-73 211v516q0 63 -18.5 86t-81.5 35z" />
<glyph unicode="&#x174;" horiz-adv-x="2048" d="M39 1333v51h602v-51q-80 -6 -105.5 -23.5t-25.5 -62.5q0 -23 14 -67l246 -746l242 631l-72 197q-31 66 -147 71v51h639v-51l-27 -2q-68 -4 -94.5 -20.5t-26.5 -53.5q0 -23 29 -114l221 -688l229 702q14 41 15 86q0 47 -30 66.5t-112 23.5v51h373v-51q-102 -10 -141 -131 l-410 -1233h-55l-350 977l-381 -977h-58l-434 1233q-27 76 -51 98.5t-90 32.5zM700 1487l299 325h228l301 -325h-139l-275 180l-276 -180h-138z" />
<glyph unicode="&#x175;" horiz-adv-x="1478" d="M47 895v49h455v-49q-78 -10 -78 -57q0 -35 80 -236l43 -110l49 -132l139 351l-12 39q-29 100 -45 119.5t-76 25.5v49h479v-49q-57 -4 -77.5 -14.5t-20.5 -34.5q0 -27 55 -217l70 -260l72 192q90 229 90 262q0 35 -20.5 50.5t-78.5 21.5v49h277v-49q-39 -8 -58.5 -26.5 t-43.5 -75.5l-318 -822h-47l-209 635l-256 -635h-49l-303 766q-41 102 -59.5 126t-57.5 32zM403 1069l250 361h189l252 -361h-117l-229 201l-230 -201h-115z" />
<glyph unicode="&#x176;" horiz-adv-x="1478" d="M31 1333v51h686v-51l-51 -2q-63 0 -89 -14t-26 -47q0 -31 37 -96l12 -25l246 -475l227 379q80 131 80 194q0 45 -35 61.5t-137 24.5v51h451v-51q-96 -14 -140 -80l-391 -637v-376q0 -113 32 -145t157 -44v-51h-711v51q125 12 157.5 44t32.5 145v301l-374 680 q-64 106 -164 112zM324 1487l299 325h227l301 -325h-139l-275 180l-276 -180h-137z" />
<glyph unicode="&#x177;" d="M33 -258q0 57 36.5 94t94.5 37q53 0 86 -27.5t33 -72.5q0 -8 -4 -29l-3 -12q0 -14 10.5 -24.5t24.5 -10.5q35 0 72 46t63 122l37 108l-245 605q-27 68 -78 177t-56 109q-16 23 -71 31v49h512v-49l-33 -2q-76 -6 -76 -51q0 -16 41 -121l148 -379l139 393q23 63 22 92 q0 37 -23.5 50.5t-88.5 17.5v49h309v-49q-47 -4 -69.5 -25.5t-49.5 -87.5l-305 -813q-94 -256 -156 -321q-68 -68 -172 -68q-88 0 -143 45t-55 117zM164 1069l250 361h188l252 -361h-117l-229 201l-229 -201h-115z" />
<glyph unicode="&#x178;" horiz-adv-x="1478" d="M31 1333v51h686v-51l-51 -2q-63 0 -89 -14t-26 -47q0 -31 37 -96l12 -25l246 -475l227 379q80 131 80 194q0 45 -35 61.5t-137 24.5v51h451v-51q-96 -14 -140 -80l-391 -637v-376q0 -113 32 -145t157 -44v-51h-711v51q125 12 157.5 44t32.5 145v301l-374 680 q-64 106 -164 112zM391 1650.5q0 53.5 40 92.5t91 39q53 0 93 -40t40 -95q0 -53 -38.5 -91t-94.5 -38q-53 0 -92 39.5t-39 93zM821 1653q0 51 39 90t90 39q55 0 95 -40t40 -95q0 -53 -38.5 -91t-96.5 -38q-53 0 -91 39t-38 96z" />
<glyph unicode="&#x179;" horiz-adv-x="1366" d="M57 0v33l783 1280l-170 -6q-229 0 -323.5 -65.5t-168.5 -278.5h-57l43 421h1073v-32l-776 -1280h151q322 0 435 80q72 51 114.5 123.5t83.5 218.5h53l-53 -494h-1188zM477 1477l336 288q61 53 131 54q53 0 86 -23.5t33 -58.5q0 -33 -19.5 -51.5t-78.5 -47.5l-351 -161 h-137z" />
<glyph unicode="&#x17a;" horiz-adv-x="909" d="M43 0v51l479 828q-150 0 -220.5 -17.5t-107 -61.5t-63.5 -147h-53l14 291h760v-53l-473 -825h59q123 0 185.5 24.5t111.5 91.5q43 55 68 146h57l-33 -328h-784zM307 1059l281 321q51 57 108 58q45 0 72 -24.5t27 -65.5q0 -35 -16.5 -56.5t-65.5 -52.5l-291 -180h-115z " />
<glyph unicode="&#x17b;" horiz-adv-x="1366" d="M57 0v33l783 1280l-170 -6q-229 0 -323.5 -65.5t-168.5 -278.5h-57l43 421h1073v-32l-776 -1280h151q322 0 435 80q72 51 114.5 123.5t83.5 218.5h53l-53 -494h-1188zM541 1648.5q0 67.5 46 112.5t111.5 45t111.5 -45t46 -112.5t-46 -112.5t-111.5 -45t-111.5 45 t-46 112.5z" />
<glyph unicode="&#x17c;" horiz-adv-x="909" d="M43 0v51l479 828q-150 0 -220.5 -17.5t-107 -61.5t-63.5 -147h-53l14 291h760v-53l-473 -825h59q123 0 185.5 24.5t111.5 91.5q43 55 68 146h57l-33 -328h-784zM311 1249.5q0 67.5 46 112.5t112 45t112 -45t46 -112.5t-46 -112.5t-112 -45t-112 45t-46 112.5z" />
<glyph unicode="&#x17d;" horiz-adv-x="1366" d="M57 0v33l783 1280l-170 -6q-229 0 -323.5 -65.5t-168.5 -278.5h-57l43 421h1073v-32l-776 -1280h151q322 0 435 80q72 51 114.5 123.5t83.5 218.5h53l-53 -494h-1188zM287 1812h139l274 -180l277 180h137l-299 -325h-227z" />
<glyph unicode="&#x17e;" horiz-adv-x="909" d="M43 0v51l479 828q-150 0 -220.5 -17.5t-107 -61.5t-63.5 -147h-53l14 291h760v-53l-473 -825h59q123 0 185.5 24.5t111.5 91.5q43 55 68 146h57l-33 -328h-784zM127 1430h115l229 -203l229 203h117l-252 -361h-188z" />
<glyph unicode="&#x17f;" horiz-adv-x="681" d="M29 0v49q70 8 93 32.5t23 90.5v682h-116v90h116q0 238 60 332q86 139 299 139q129 0 211 -57.5t82 -147.5q0 -57 -35 -92t-92 -35q-51 0 -87 33t-36 80q0 29 26 74q18 31 19 43q0 39 -60 39q-53 0 -77.5 -37t-24.5 -121v-983q0 -100 31 -130t137 -32v-49h-569z" />
<glyph unicode="&#x18e;" horiz-adv-x="1366" d="M33 426h57q78 -170 172 -250q139 -113 369 -113q98 0 134 25t36 90v496q-168 0 -241 -69.5t-91 -248.5h-53v693h53q23 -176 94.5 -242t237.5 -64v476q0 57 -26.5 76.5t-106.5 19.5q-250 0 -348.5 -68.5t-137.5 -273.5h-51v411h1182v-51q-106 -6 -143 -36.5t-37 -108.5 v-991q0 -80 32.5 -107t147.5 -39v-51h-1198z" />
<glyph unicode="&#x192;" d="M0 -158q0 53 30.5 85t82.5 32q47 0 77.5 -27.5t30.5 -72.5q0 -29 -22 -58q-14 -16 -15 -24q0 -12 14.5 -22.5t30.5 -10.5q57 0 94 63.5t39 167.5l27 832h-237v94h245q47 283 146 412q102 133 268 133q94 0 151.5 -44t57.5 -116q0 -51 -32 -88t-79 -37q-43 0 -75.5 28 t-32.5 66q0 35 26 76l11 23q0 12 -14.5 21t-32.5 9q-131 0 -132 -299v-184h250v-94h-250q-29 -498 -47 -604q-45 -256 -152.5 -388t-269.5 -132q-88 0 -139 42.5t-51 116.5z" />
<glyph unicode="&#x1a0;" horiz-adv-x="1593" d="M72 686q0 319 205.5 524t527.5 205q229 0 405 -110q12 6 24.5 41.5t12.5 52.5q0 12 -33.5 46t-33.5 68q0 53 37.5 87t87.5 34q51 0 90 -44t39 -95q0 -70 -54.5 -141.5t-103.5 -93.5q246 -205 246 -572q0 -317 -204 -522t-521.5 -205t-521 204t-203.5 521zM434 668 q0 -311 93.5 -475t269.5 -164t269 164.5t93 480.5q0 319 -93 496.5t-263 177.5q-180 0 -274.5 -174t-94.5 -506z" />
<glyph unicode="&#x1a1;" d="M51 475q0 209 134 351.5t329 142.5q180 0 299 -92q10 4 17.5 34.5t7.5 46.5q0 12 -34 46t-34 69q0 53 38 87t87 34q51 0 90 -44t39 -95q0 -63 -55.5 -137t-100.5 -97q106 -133 107 -352q0 -213 -131 -355.5t-330 -142.5q-201 0 -332 142.5t-131 361.5zM352 438 q0 -225 36 -314t126 -89t125 93t35 329q0 252 -35 350t-123 98q-94 0 -129 -98.5t-35 -368.5z" />
<glyph unicode="&#x1af;" horiz-adv-x="1521" d="M33 1333v51h692v-51q-74 -2 -114 -12t-59.5 -37t-22.5 -53.5t-3 -85.5v-684q0 -209 72 -304.5t229 -95.5q182 0 270.5 109t88.5 336v624q0 113 -40 153t-161 50v51h289v-81q20 8 40.5 40.5t20.5 53.5q0 12 -33.5 47t-33.5 67q0 55 36.5 89t88 34t90.5 -44t39 -95 q0 -82 -77 -163t-171 -87v-739q0 -545 -526 -545q-229 0 -379 109q-94 68 -131 153.5t-37 237.5v684q0 111 -29.5 144.5t-138.5 43.5z" />
<glyph unicode="&#x1b0;" horiz-adv-x="1234" d="M33 895v49h385v-694q0 -78 25.5 -112t88.5 -34q78 0 168 91v579q0 66 -25.5 90.5t-101.5 30.5v49h412v-82q23 6 43.5 40t20.5 54q0 23 -34 55.5t-34 59.5q0 55 37 89t88 34q49 0 89 -44t40 -95q0 -82 -78 -164t-172 -86v-598q0 -66 23.5 -91.5t91.5 -27.5v-47l-127 -14 q-170 -18 -271 -54v133q-90 -78 -153.5 -106.5t-142.5 -28.5q-127 0 -200 76t-73 211v516q0 63 -18.5 86t-81.5 35z" />
<glyph unicode="&#x1dd;" horiz-adv-x="909" d="M51 713q100 143 187.5 199.5t212.5 56.5q190 0 305.5 -136.5t115.5 -359.5q0 -225 -117.5 -363.5t-310.5 -138.5q-176 0 -276 123q-90 113 -107 344h517q-10 190 -64 279q-61 104 -180 104q-66 0 -118 -30.5t-116 -106.5zM313 332q6 -154 19 -201q25 -96 112 -96 q76 0 108 71.5t36 255.5h-275v-30z" />
<glyph unicode="&#x1e6;" horiz-adv-x="1593" d="M76 678q0 315 203.5 526t508.5 211q141 0 318 -72q63 -29 94 -28q29 0 49.5 20.5t40.5 73.5h56v-479h-52q-53 117 -97 181.5t-110 121.5q-133 115 -272 115q-186 0 -281.5 -167t-95.5 -489q0 -367 133 -536q98 -127 283 -127q102 0 149.5 35.5t47.5 113.5v215 q0 84 -38 109.5t-169 34.5v51h702v-51q-115 -12 -145.5 -45t-30.5 -144v-260q-98 -57 -251.5 -92t-313.5 -35q-322 0 -525.5 200t-203.5 517zM375 1812h139l274 -180l277 180h137l-299 -325h-227z" />
<glyph unicode="&#x1e7;" d="M57 -233q0 125 197 153q-98 35 -133 70t-35 98q0 156 244 240q-121 51 -180 116q-74 90 -74 195q0 145 116.5 237.5t299.5 92.5q106 0 229 -45h266v-109h-166q82 -82 82 -201q0 -166 -139 -245q-90 -53 -217 -54l-92 2q-61 0 -100.5 -29.5t-39.5 -76.5q0 -43 41 -57.5 t164 -14.5h133q158 0 247 -66.5t89 -185.5q0 -152 -132 -230.5t-388 -78.5q-195 0 -303.5 50.5t-108.5 138.5zM147 1430h115l230 -203l229 203h117l-252 -361h-189zM238 -219q0 -137 274 -137q152 0 233.5 37.5t81.5 109.5q0 102 -163 103h-355q-43 -35 -57 -57.5t-14 -55.5 zM356 637q0 -143 31 -203.5t105 -60.5q72 0 103.5 60.5t31.5 203.5t-32 205.5t-103.5 62.5t-103.5 -62.5t-32 -205.5z" />
<glyph unicode="&#x1ea;" horiz-adv-x="1593" d="M72 686q0 319 205.5 524t527.5 205q309 0 513 -207t204 -520q0 -252 -132.5 -437t-355.5 -255q-147 -47 -172 -90q-51 -78 -51 -160q0 -51 26.5 -84t67.5 -33q68 0 117 68l31 -25q-33 -82 -95.5 -133t-136.5 -51q-70 0 -129 49t-59 144q0 156 137 280q-307 10 -502.5 212 t-195.5 513zM434 668q0 -311 93.5 -475t269.5 -164t269 164.5t93 480.5q0 319 -93 496.5t-263 177.5q-180 0 -274.5 -174t-94.5 -506z" />
<glyph unicode="&#x1eb;" d="M51 475q0 209 134 351.5t329 142.5q199 0 330 -142.5t131 -357.5q0 -152 -69.5 -271.5t-188.5 -179.5q-115 -57 -150 -112q-49 -80 -49 -160q0 -51 26.5 -84t67.5 -33q68 0 117 68l31 -25q-33 -82 -95.5 -133t-136.5 -51q-70 0 -129 49t-59 144q0 160 147 290 q-190 10 -313 151.5t-123 352.5zM352 438q0 -225 36 -314t126 -89t125 93t35 329q0 252 -35 350t-123 98q-94 0 -129 -98.5t-35 -368.5z" />
<glyph unicode="&#x1f4;" horiz-adv-x="1593" d="M76 678q0 315 203.5 526t508.5 211q141 0 318 -72q63 -29 94 -28q29 0 49.5 20.5t40.5 73.5h56v-479h-52q-53 117 -97 181.5t-110 121.5q-133 115 -272 115q-186 0 -281.5 -167t-95.5 -489q0 -367 133 -536q98 -127 283 -127q102 0 149.5 35.5t47.5 113.5v215 q0 84 -38 109.5t-169 34.5v51h702v-51q-115 -12 -145.5 -45t-30.5 -144v-260q-98 -57 -251.5 -92t-313.5 -35q-322 0 -525.5 200t-203.5 517zM565 1477l336 288q61 53 131 54q53 0 86 -23.5t33 -58.5q0 -33 -19.5 -51.5t-78.5 -47.5l-351 -161h-137z" />
<glyph unicode="&#x1f5;" d="M57 -233q0 125 197 153q-98 35 -133 70t-35 98q0 156 244 240q-121 51 -180 116q-74 90 -74 195q0 145 116.5 237.5t299.5 92.5q106 0 229 -45h266v-109h-166q82 -82 82 -201q0 -166 -139 -245q-90 -53 -217 -54l-92 2q-61 0 -100.5 -29.5t-39.5 -76.5q0 -43 41 -57.5 t164 -14.5h133q158 0 247 -66.5t89 -185.5q0 -152 -132 -230.5t-388 -78.5q-195 0 -303.5 50.5t-108.5 138.5zM238 -219q0 -137 274 -137q152 0 233.5 37.5t81.5 109.5q0 102 -163 103h-355q-43 -35 -57 -57.5t-14 -55.5zM328 1059l280 321q51 57 109 58q45 0 71.5 -24.5 t26.5 -65.5q0 -35 -16.5 -56.5t-65.5 -52.5l-291 -180h-114zM356 637q0 -143 31 -203.5t105 -60.5q72 0 103.5 60.5t31.5 203.5t-32 205.5t-103.5 62.5t-103.5 -62.5t-32 -205.5z" />
<glyph unicode="&#x1fa;" horiz-adv-x="1478" d="M18 0v51q74 14 109 55t92 185l455 1122h57l457 -1077q82 -193 118.5 -239t104.5 -46v-51h-663v51l65 6q53 2 75.5 17.5t22.5 50.5q0 59 -94 278h-461l-30 -81q-59 -147 -59.5 -186.5t38.5 -59t129 -25.5v-51h-416zM387 483h399l-206 498zM479 1948l336 288q61 53 131 54 q53 0 86 -23.5t33 -58.5q0 -33 -19.5 -51.5t-78.5 -47.5l-351 -161h-137zM485 1692q0 86 65.5 150.5t154 64.5t153 -64.5t64.5 -155t-64.5 -154t-155 -63.5t-154 65t-63.5 157zM584 1688q0 -49 34.5 -84t81.5 -35q51 0 87 34.5t36 82.5q0 49 -35.5 85.5t-85.5 36.5 q-47 0 -82.5 -36.5t-35.5 -83.5z" />
<glyph unicode="&#x1fb;" d="M51 188q0 131 137 224q98 66 414 161v150q0 94 -41 137t-131 43q-55 0 -92 -21.5t-37 -54.5q0 -18 25 -45q37 -45 36 -88q0 -53 -38.5 -86t-100.5 -33q-63 0 -98 36t-35 100q0 115 106.5 186.5t280.5 71.5q188 0 297 -75t109 -206v-534q0 -51 43 -52q14 0 22 9l21 20 l30 -43q-109 -117 -229 -117q-76 0 -114 33t-54 111q-158 -143 -326 -144q-98 0 -161.5 61.5t-63.5 155.5zM254 1507l336 289q61 53 131 53q53 0 86 -23.5t33 -58.5q0 -33 -19.5 -51t-79.5 -47l-350 -162h-137zM260 1251q0 86 65.5 150.5t153.5 64.5t152.5 -64.5 t64.5 -154.5t-64.5 -153.5t-154.5 -63.5t-153.5 64.5t-63.5 156.5zM350 254q0 -61 29 -99t76 -38q70 0 145 88v297q-250 -70 -250 -248zM358 1247q0 -49 35 -84t82 -35q51 0 87 35t36 82q0 49 -36 86t-85 37q-47 0 -83 -37t-36 -84z" />
<glyph unicode="&#x1fc;" horiz-adv-x="2048" d="M8 0v51q59 10 94 49t131 213l437 797l7 13.5l7 13.5q57 96 57 127q0 37 -38.5 53t-139.5 22v45h1299v-411h-52q-33 164 -90 233q-86 106 -368 107q-84 0 -112 -12.5t-28 -49.5v-508q180 14 227.5 60.5t90.5 245.5h47v-693h-47q-29 190 -87.5 251t-230.5 71v-498 q0 -66 32 -88t124 -22q258 0 377 125q53 55 98 123.5t58 113.5h47l-84 -432h-1159v51q113 6 146.5 43t33.5 150v377h-389l-205 -385q-31 -55 -31 -93q0 -41 27.5 -60.5t107.5 -27.5l35 -4v-51h-422zM541 702h344v594h-15zM825 1477l336 288q61 53 131 54q53 0 86 -23.5 t33 -58.5q0 -33 -19.5 -51.5t-78.5 -47.5l-350 -161h-138z" />
<glyph unicode="&#x1fd;" horiz-adv-x="1478" d="M68 193q0 133 116 213q78 55 422 167v164q0 90 -37 128t-123 38q-57 0 -95 -20.5t-38 -51.5q0 -18 25 -45q35 -41 35 -88q0 -55 -34 -85.5t-95 -30.5q-66 0 -104 35.5t-38 95.5q0 111 105.5 183.5t267.5 72.5q184 0 291 -105q106 104 260 105q113 0 202 -53.5t136 -147.5 q45 -92 45 -260h-520v-47q0 -176 55 -256t180 -80q141 0 252 137l43 -31q-90 -137 -186 -193t-242 -56q-109 0 -176 38.5t-125 133.5l-12 -13q-170 -170 -369 -170q-119 0 -180 56.5t-61 165.5zM362 248q0 -147 117 -148q63 0 127 66v342q-135 -49 -189.5 -107.5 t-54.5 -152.5zM602 1059l281 321q51 57 108 58q45 0 72 -24.5t27 -65.5q0 -35 -16.5 -56.5t-65.5 -52.5l-291 -180h-115zM889 584h272v67q0 143 -28.5 199.5t-100.5 56.5q-80 0 -111.5 -71.5t-31.5 -251.5z" />
<glyph unicode="&#x1fe;" horiz-adv-x="1593" d="M72 686q0 317 204.5 523t522.5 206q195 0 372 -96l129 190h103l-160 -235q74 -61 112 -103.5t70 -99.5q96 -170 97 -383q0 -319 -204 -523t-521 -204q-203 0 -383 100l-146 -213h-102l176 258q-90 78 -136 139.5t-81 153.5q-53 137 -53 287zM434 672q0 -201 45 -363 l586 856q-53 98 -115.5 140.5t-152.5 42.5q-174 0 -268.5 -176t-94.5 -500zM518 213q53 -98 117.5 -141t161.5 -43q178 0 270 165.5t92 483.5q0 223 -53 395zM575 1477l336 288q61 53 131 54q53 0 86 -23.5t33 -58.5q0 -33 -19.5 -51.5t-78.5 -47.5l-350 -161h-138z" />
<glyph unicode="&#x1ff;" d="M51 469q0 215 132 357.5t333 142.5q111 0 211 -51l123 206h94l-149 -252q180 -162 180 -403q0 -215 -131 -356.5t-330 -141.5q-115 0 -219 56l-129 -215h-96l155 262q-174 162 -174 395zM352 430q0 -102 2 -143l293 495q-20 66 -50 94.5t-81 28.5q-96 0 -130 -99.5 t-34 -375.5zM352 1059l281 321q51 57 108 58q45 0 72 -24.5t27 -65.5q0 -35 -16.5 -56.5t-65.5 -52.5l-291 -180h-115zM375 164q37 -129 139 -129q88 0 124 92t36 322l-4 215z" />
<glyph unicode="&#x200;" horiz-adv-x="1478" d="M14 1737q0 35 33 58.5t86 23.5q70 0 131 -54l336 -288h-137l-350 161q-59 29 -79 47.5t-20 51.5zM18 0v51q74 14 109 55t92 185l455 1122h57l457 -1077q82 -193 118.5 -239t104.5 -46v-51h-663v51l65 6q53 2 75.5 17.5t22.5 50.5q0 59 -94 278h-461l-30 -81 q-59 -147 -59.5 -186.5t38.5 -59t129 -25.5v-51h-416zM375 1737q0 35 32.5 58.5t86.5 23.5q70 0 131 -54l336 -288h-138l-350 161q-59 29 -78.5 47.5t-19.5 51.5zM387 483h399l-206 498z" />
<glyph unicode="&#x201;" d="M-133 1350q0 41 26.5 65.5t71.5 24.5q57 0 109 -58l280 -321h-114l-291 180q-49 31 -65.5 52.5t-16.5 56.5zM51 188q0 131 137 224q98 66 414 161v150q0 94 -41 137t-131 43q-55 0 -92 -21.5t-37 -54.5q0 -18 25 -45q37 -45 36 -88q0 -53 -38.5 -86t-100.5 -33 q-63 0 -98 36t-35 100q0 115 106.5 186.5t280.5 71.5q188 0 297 -75t109 -206v-534q0 -51 43 -52q14 0 22 9l21 20l30 -43q-109 -117 -229 -117q-76 0 -114 33t-54 111q-158 -143 -326 -144q-98 0 -161.5 61.5t-63.5 155.5zM256 1350q0 41 26.5 65.5t71.5 24.5q57 0 109 -58 l280 -321h-114l-291 180q-49 31 -65.5 52.5t-16.5 56.5zM350 254q0 -61 29 -99t76 -38q70 0 145 88v297q-250 -70 -250 -248z" />
<glyph unicode="&#x204;" horiz-adv-x="1366" d="M-57 1737q0 35 32.5 58.5t85.5 23.5q70 0 132 -54l335 -288h-137l-350 161q-59 29 -78.5 47.5t-19.5 51.5zM33 0v51q115 12 147.5 39t32.5 107v991q0 78 -37 108.5t-143 36.5v51h1181v-411h-51q-39 205 -137 273.5t-348 68.5q-80 0 -106.5 -19.5t-26.5 -76.5v-476 q166 -2 237.5 63.5t94.5 242.5h53v-693h-53q-18 178 -91 248t-241 70v-496q0 -66 35.5 -90.5t134.5 -24.5q229 0 368 113q94 80 172 250h58l-82 -426h-1198zM303 1737q0 35 33 58.5t86 23.5q70 0 131 -54l336 -288h-137l-351 161q-59 29 -78.5 47.5t-19.5 51.5z" />
<glyph unicode="&#x205;" horiz-adv-x="909" d="M-131 1350q0 41 26.5 65.5t71.5 24.5q57 0 109 -58l280 -321h-114l-291 180q-49 31 -65.5 52.5t-16.5 56.5zM51 467q0 225 118 363.5t310 138.5q176 0 277 -123q90 -113 106 -344h-516q10 -190 64 -279q61 -104 180 -104q66 0 118 30.5t115 106.5l49 -29 q-100 -143 -187 -199.5t-212 -56.5q-190 0 -306 136.5t-116 359.5zM258 1350q0 41 26.5 65.5t71.5 24.5q57 0 109 -58l280 -321h-114l-291 180q-49 31 -65.5 52.5t-16.5 56.5zM336 578h274v30q-6 154 -18 201q-25 96 -113 96q-76 0 -107.5 -71.5t-35.5 -255.5z" />
<glyph unicode="&#x208;" horiz-adv-x="796" d="M-291 1737q0 35 33 58.5t86 23.5q70 0 131 -54l336 -288h-137l-351 161q-59 29 -78.5 47.5t-19.5 51.5zM41 0v51q115 10 152.5 39t37.5 107v991q0 78 -39.5 107.5t-150.5 37.5v51h717v-51q-113 -4 -154 -34.5t-41 -110.5v-991q0 -80 39 -109t156 -37v-51h-717zM70 1737 q0 35 32.5 58.5t85.5 23.5q70 0 131 -54l336 -288h-137l-350 161q-59 29 -78.5 47.5t-19.5 51.5z" />
<glyph unicode="&#x209;" horiz-adv-x="569" d="M-328 1350q0 41 27 65.5t72 24.5q57 0 108 -58l281 -321h-115l-291 180q-49 31 -65.5 52.5t-16.5 56.5zM33 0v49q70 16 89 38t19 85v602q0 63 -20.5 85t-87.5 36v49h393v-778q0 -57 21.5 -83t74.5 -34v-49h-489zM61 1350q0 41 27 65.5t72 24.5q57 0 108 -58l281 -321 h-115l-291 180q-49 31 -65.5 52.5t-16.5 56.5z" />
<glyph unicode="&#x20c;" horiz-adv-x="1593" d="M72 686q0 319 205.5 524t527.5 205q309 0 513 -207t204 -520q0 -317 -204 -522t-521.5 -205t-521 204t-203.5 521zM117 1737q0 35 32.5 58.5t86.5 23.5q70 0 131 -54l335 -288h-137l-350 161q-59 29 -78.5 47.5t-19.5 51.5zM434 668q0 -311 93.5 -475t269.5 -164 t269 164.5t93 480.5q0 319 -93 496.5t-263 177.5q-180 0 -274.5 -174t-94.5 -506zM477 1737q0 35 33 58.5t86 23.5q70 0 131 -54l336 -288h-137l-351 161q-59 29 -78.5 47.5t-19.5 51.5z" />
<glyph unicode="&#x20d;" d="M-96 1350q0 41 26.5 65.5t71.5 24.5q57 0 109 -58l280 -321h-115l-290 180q-49 31 -65.5 52.5t-16.5 56.5zM51 475q0 209 134 351.5t329 142.5q199 0 330 -142.5t131 -357.5q0 -213 -131 -355.5t-330 -142.5q-201 0 -332 142.5t-131 361.5zM293 1350q0 41 26.5 65.5 t71.5 24.5q57 0 109 -58l280 -321h-114l-291 180q-49 31 -65.5 52.5t-16.5 56.5zM352 438q0 -225 36 -314t126 -89t125 93t35 329q0 252 -35 350t-123 98q-94 0 -129 -98.5t-35 -368.5z" />
<glyph unicode="&#x210;" horiz-adv-x="1478" d="M25 1737q0 35 32.5 58.5t85.5 23.5q70 0 131 -54l336 -288h-137l-350 161q-59 29 -78.5 47.5t-19.5 51.5zM53 0v51q121 14 150.5 45t29.5 144v905q0 111 -33.5 145.5t-146.5 42.5v51h660q281 0 429 -94t148 -270q0 -143 -92 -229q-76 -68 -229 -117l411 -584 q31 -39 84 -39v-51h-420l-423 641h-56v-401q0 -109 31 -141.5t149 -47.5v-51h-692zM385 1737q0 35 33 58.5t86 23.5q70 0 131 -54l336 -288h-137l-351 161q-59 29 -78.5 47.5t-19.5 51.5zM565 707q205 2 279 51q96 63 96 254q0 162 -61.5 232.5t-202.5 70.5q-78 0 -96 -31 q-14 -29 -15 -55v-522z" />
<glyph unicode="&#x211;" horiz-adv-x="909" d="M-164 1350q0 41 26.5 65.5t71.5 24.5q57 0 109 -58l281 -321h-115l-291 180q-49 31 -65.5 52.5t-16.5 56.5zM59 0v49q68 12 89.5 36t21.5 87v602q0 61 -22.5 87t-88.5 34v49h387v-168q72 102 136.5 147.5t140.5 45.5q72 0 119 -45t47 -115q0 -59 -36 -98t-93 -39 q-72 0 -123 73q-33 47 -57 48q-51 0 -88 -57.5t-37 -137.5v-387q0 -96 27.5 -126t121.5 -36v-49h-545zM225 1350q0 41 27 65.5t72 24.5q57 0 108 -58l281 -321h-115l-291 180q-49 31 -65.5 52.5t-16.5 56.5z" />
<glyph unicode="&#x214;" horiz-adv-x="1478" d="M33 1333v51h692v-51q-127 -6 -163 -39.5t-36 -148.5v-684q0 -209 72 -304.5t227 -95.5q184 0 272.5 109t88.5 336v624q0 113 -40 153t-161 50v51h451v-51q-98 -14 -129 -49t-31 -125v-653q0 -309 -156 -432q-139 -113 -372 -113q-231 0 -383 111q-90 68 -127 153.5 t-37 235.5v684q0 111 -29.5 144.5t-138.5 43.5zM168 1737q0 35 32.5 58.5t86.5 23.5q70 0 131 -54l336 -288h-138l-350 161q-59 29 -78.5 47.5t-19.5 51.5zM528 1737q0 35 33 58.5t86 23.5q70 0 131 -54l336 -288h-137l-350 161q-59 29 -79 47.5t-20 51.5z" />
<glyph unicode="&#x215;" horiz-adv-x="1138" d="M-51 1350q0 41 26.5 65.5t71.5 24.5q57 0 109 -58l280 -321h-114l-291 180q-49 31 -65.5 52.5t-16.5 56.5zM33 895v49h385v-694q0 -78 25.5 -112t88.5 -34q78 0 168 91v579q0 66 -25.5 90.5t-101.5 30.5v49h412v-737q0 -66 23.5 -91.5t91.5 -27.5v-47l-127 -14 q-170 -18 -271 -54v133q-90 -78 -153.5 -106.5t-142.5 -28.5q-127 0 -200 76t-73 211v516q0 63 -18.5 86t-81.5 35zM338 1350q0 41 26.5 65.5t71.5 24.5q57 0 109 -58l280 -321h-114l-291 180q-49 31 -65.5 52.5t-16.5 56.5z" />
<glyph unicode="&#x218;" horiz-adv-x="1138" d="M72 -39v506h59q27 -111 52.5 -172.5t70.5 -118.5q117 -147 295 -147q119 0 188.5 62.5t69.5 168.5q0 82 -47 133t-182 115l-138 65q-264 127 -327 289q-23 63 -23 135q0 195 120 306.5t329 111.5q113 0 239 -47q61 -20 86 -20q29 0 42.5 14t23.5 55h61v-444h-57 q-31 100 -60.5 155.5t-82.5 108.5q-111 115 -252 115q-104 0 -165 -55.5t-61 -149.5q0 -76 43 -123t168 -109l301 -149q100 -49 163 -153.5t63 -219.5q0 -193 -140.5 -312.5t-367.5 -119.5q-125 0 -267 49q-63 20 -83 21q-25 0 -39.5 -15.5t-22.5 -54.5h-59zM375 -233 q0 70 42 110.5t111 40.5q82 0 133.5 -59.5t51.5 -155.5q0 -119 -73 -215t-232 -186l-21 39q201 141 201 245q0 16 -10.5 27.5t-24.5 11.5l-14 -2q-8 -2 -27 -2q-63 0 -100 40t-37 106z" />
<glyph unicode="&#x219;" horiz-adv-x="796" d="M51 -27v338h58q66 -270 280 -270q70 0 112 37t42 96q0 49 -45 91t-152 87q-154 66 -222.5 140.5t-68.5 177.5q0 129 91.5 214t230.5 85q70 0 160 -31q45 -14 63 -14q35 0 51 41h45v-297h-51q-39 115 -96 168q-70 66 -154 65q-57 0 -96 -33.5t-39 -85t46 -93.5t151 -87 q154 -63 218 -137t64 -182q0 -137 -88 -224.5t-227 -87.5q-106 0 -221 47q-31 12 -47 13q-23 0 -54 -58h-51zM227 -233q0 70 42 110.5t112 40.5q84 0 134 -59.5t50 -155.5q0 -119 -72.5 -215t-232.5 -186l-20 39q201 141 200 245q0 16 -10 27.5t-24 11.5l-15 -2 q-8 -2 -26 -2q-63 0 -100.5 40t-37.5 106z" />
<glyph unicode="&#x21a;" horiz-adv-x="1366" d="M63 973l7 411h1228l5 -411h-60q-27 182 -116 261t-277 85v-1079q0 -117 34 -148t167 -41v-51h-732v51q131 10 165 42t34 147v1079q-190 -6 -279 -85t-116 -261h-60zM516 -233q0 70 42 110.5t112 40.5q84 0 134 -59.5t50 -155.5q0 -119 -72.5 -215t-232.5 -186l-21 39 q201 141 201 245q0 16 -10 27.5t-25 11.5l-14 -2q-8 -2 -27 -2q-63 0 -100 40t-37 106z" />
<glyph unicode="&#x21b;" horiz-adv-x="681" d="M41 854v55q100 84 173 166t167 215h51v-346h193v-90h-193v-616q0 -61 18.5 -89t61.5 -28q61 0 117 106l51 -22q-63 -125 -132 -177.5t-171 -52.5q-106 0 -168 57.5t-62 157.5v664h-106zM209 -233q0 70 42 110.5t111 40.5q84 0 134.5 -59.5t50.5 -155.5q0 -119 -73 -215 t-232 -186l-21 39q201 141 201 245q0 16 -10.5 27.5t-24.5 11.5l-14 -2q-8 -2 -27 -2q-63 0 -100 40t-37 106z" />
<glyph unicode="&#x258;" horiz-adv-x="909" d="M51 227l49 29q63 -76 115.5 -106.5t118.5 -30.5q119 0 180 104q53 88 64 279h-517q16 231 107 344q100 123 276 123q193 0 310.5 -138.5t117.5 -363.5q0 -223 -115.5 -359.5t-305.5 -136.5q-125 0 -212.5 56.5t-187.5 199.5zM313 578h275q-4 184 -36 255.5t-108 71.5 q-88 0 -112 -96q-12 -47 -19 -201v-30z" />
<glyph unicode="&#x259;" horiz-adv-x="909" d="M51 713q100 143 187.5 199.5t212.5 56.5q190 0 305.5 -136.5t115.5 -359.5q0 -225 -117.5 -363.5t-310.5 -138.5q-176 0 -276 123q-90 113 -107 344h517q-10 190 -64 279q-61 104 -180 104q-66 0 -118 -30.5t-116 -106.5zM313 332q6 -154 19 -201q25 -96 112 -96 q76 0 108 71.5t36 255.5h-275v-30z" />
<glyph unicode="&#x2be;" horiz-adv-x="765" d="M90 1196q0 2 4 10q117 150 273 150q135 0 222 -95.5t87 -244.5q0 -156 -96.5 -257.5t-243.5 -101.5q-96 0 -161.5 48.5t-65.5 117.5q0 47 29.5 75t80.5 28q90 0 92 -115q0 -53 4 -61q10 -16 37 -17q98 0 99 209q0 133 -47.5 211t-131.5 78q-66 0 -129 -72q-4 -4 -12 -4 q-4 0 -12 4l-25 25q-4 4 -4 12z" />
<glyph unicode="&#x2bf;" horiz-adv-x="765" d="M90 997q0 156 96.5 257.5t243.5 101.5q96 0 161.5 -48t65.5 -118q0 -47 -29.5 -75t-80.5 -28q-90 0 -92 115q0 53 -4 62q-10 16 -37 16q-98 0 -99 -209q0 -133 47.5 -211t131.5 -78q66 0 129 72q4 4 12 4q4 0 12 -4l25 -25q4 -4 4 -12q0 -2 -4 -10q-117 -150 -273 -150 q-135 0 -222 95t-87 245z" />
<glyph unicode="&#x2c6;" horiz-adv-x="681" d="M-4 1069l250 361h188l252 -361h-117l-229 201l-229 -201h-115z" />
<glyph unicode="&#x2c7;" horiz-adv-x="681" d="M-4 1430h115l229 -203l229 203h117l-252 -361h-188z" />
<glyph unicode="&#x2d8;" horiz-adv-x="681" d="M31 1417h90q16 -94 68.5 -136t150.5 -42q94 0 144.5 41t76.5 137h90q-16 -139 -61 -209q-80 -125 -250 -125q-168 0 -246 113q-55 74 -63 221z" />
<glyph unicode="&#x2d9;" horiz-adv-x="681" d="M180 1249.5q0 67.5 46 112.5t111.5 45t112 -45t46.5 -112.5t-46.5 -112.5t-112 -45t-111.5 45t-46 112.5z" />
<glyph unicode="&#x2da;" horiz-adv-x="681" d="M123 1253q0 86 65.5 150.5t153.5 64.5t152.5 -64.5t64.5 -154.5t-64.5 -153.5t-154.5 -63.5t-153.5 64.5t-63.5 156.5zM221 1249q0 -49 35 -84t82 -35q51 0 87 35t36 82q0 49 -36 86t-85 37q-47 0 -83 -37t-36 -84z" />
<glyph unicode="&#x2db;" horiz-adv-x="681" d="M156 -319q0 190 227 354h106q-49 -53 -75.5 -86t-53 -89.5t-26.5 -113.5q0 -51 26.5 -84t67.5 -33q68 0 117 68l30 -25q-33 -82 -95 -133t-136 -51q-70 0 -129 49.5t-59 143.5z" />
<glyph unicode="&#x2dc;" horiz-adv-x="681" d="M-33 1124q29 133 86.5 194.5t151.5 61.5q66 0 149 -39l82 -36q53 -25 80 -25q41 0 65.5 22.5t45.5 77.5h88q-70 -260 -240 -260q-63 0 -131 29l-59 27q-102 45 -131 45q-39 0 -67 -27t-34 -70h-86z" />
<glyph unicode="&#x2dd;" horiz-adv-x="681" d="M76 1061l280 321q51 57 109 58q45 0 71.5 -24.5t26.5 -65.5q0 -35 -16.5 -56.5t-65.5 -52.5l-291 -180h-114zM465 1061l280 321q51 57 109 58q45 0 71.5 -24.5t26.5 -65.5q0 -35 -16 -56.5t-66 -52.5l-290 -180h-115z" />
<glyph unicode="&#x300;" horiz-adv-x="0" d="M-834 1348q0 41 27 65.5t72 24.5q57 0 108 -58l281 -321h-115l-291 180q-49 31 -65.5 52.5t-16.5 56.5z" />
<glyph unicode="&#x301;" horiz-adv-x="0" d="M-676 1059l281 321q51 57 108 58q45 0 72 -24.5t27 -65.5q0 -35 -16.5 -56.5t-65.5 -52.5l-291 -180h-115z" />
<glyph unicode="&#x302;" horiz-adv-x="0" d="M-856 1069l250 361h188l252 -361h-117l-229 201l-229 -201h-115z" />
<glyph unicode="&#x303;" horiz-adv-x="0" d="M-885 1124q29 133 86.5 194.5t151.5 61.5q66 0 149 -39l82 -36q53 -25 80 -25q41 0 65.5 22.5t45.5 77.5h88q-70 -260 -240 -260q-63 0 -131 29l-59 27q-102 45 -131 45q-39 0 -67 -27t-34 -70h-86z" />
<glyph unicode="&#x304;" horiz-adv-x="0" d="M-850 1176v147h676v-147h-676z" />
<glyph unicode="&#x306;" horiz-adv-x="0" d="M-821 1417h90q16 -94 68.5 -136t150.5 -42q94 0 144.5 41t76.5 137h90q-16 -139 -61 -209q-80 -125 -250 -125q-168 0 -246 113q-55 74 -63 221z" />
<glyph unicode="&#x307;" horiz-adv-x="0" d="M-672 1249.5q0 67.5 46 112.5t111.5 45t112 -45t46.5 -112.5t-46.5 -112.5t-112 -45t-111.5 45t-46 112.5z" />
<glyph unicode="&#x308;" horiz-adv-x="0" d="M-856 1251q0 51 39 91t92 40t93 -39.5t40 -95.5q0 -53 -39 -91t-94 -38q-53 0 -92 40t-39 93zM-426 1253q0 51 39 90t90 39q55 0 95 -39.5t40 -95.5q0 -53 -39 -91t-96 -38q-53 0 -91 39t-38 96z" />
<glyph unicode="&#x309;" horiz-adv-x="0" d="M-737 1343q0 61 63.5 101.5t159.5 40.5q119 0 180 -51q49 -43 49 -101q0 -70 -96 -149q-20 -18 -46 -37t-48.5 -55.5t-22.5 -75.5h-61q12 147 72 217q41 53 41 92q0 74 -95 74q-74 0 -77 -15l16 -20q18 -33 18 -47q0 -66 -63 -66q-41 0 -65.5 25.5t-24.5 66.5z" />
<glyph unicode="&#x30a;" horiz-adv-x="0" d="M-729 1253q0 86 65.5 150.5t153.5 64.5t152.5 -64.5t64.5 -154.5t-64.5 -153.5t-154.5 -63.5t-153.5 64.5t-63.5 156.5zM-631 1249q0 -49 35 -84t82 -35q51 0 87 35t36 82q0 49 -36 86t-85 37q-47 0 -83 -37t-36 -84z" />
<glyph unicode="&#x30b;" horiz-adv-x="0" d="M-776 1061l280 321q51 57 109 58q45 0 71.5 -24.5t26.5 -65.5q0 -35 -16.5 -56.5t-65.5 -52.5l-291 -180h-114zM-387 1061l281 321q51 57 108 58q45 0 71.5 -24.5t26.5 -65.5q0 -35 -16 -56.5t-66 -52.5l-290 -180h-115z" />
<glyph unicode="&#x30c;" horiz-adv-x="0" d="M-856 1430h115l229 -203l229 203h117l-252 -361h-188z" />
<glyph unicode="&#x30f;" horiz-adv-x="0" d="M-1122 1350q0 41 26.5 65.5t71.5 24.5q57 0 109 -58l280 -321h-115l-290 180q-49 31 -65.5 52.5t-16.5 56.5zM-733 1350q0 41 26.5 65.5t71.5 24.5q57 0 109 -58l280 -321h-114l-291 180q-49 31 -65.5 52.5t-16.5 56.5z" />
<glyph unicode="&#x311;" horiz-adv-x="0" d="M-821 1083q16 139 61 209q80 125 250 125q168 0 246 -112q55 -74 63 -222h-90q-16 94 -68.5 136.5t-150.5 42.5q-94 0 -144.5 -41t-76.5 -138h-90z" />
<glyph unicode="&#x323;" horiz-adv-x="0" d="M-672 -305.5q0 67.5 46 113t111.5 45.5t112 -45.5t46.5 -113t-46.5 -112.5t-112 -45t-111.5 45t-46 112.5z" />
<glyph unicode="&#x326;" horiz-adv-x="0" d="M-680 -233q0 70 42 110.5t112 40.5q84 0 134 -59.5t50 -155.5q0 -119 -72.5 -215t-232.5 -186l-21 39q201 141 201 245q0 16 -10 27.5t-25 11.5l-14 -2q-8 -2 -27 -2q-63 0 -100 40t-37 106z" />
<glyph unicode="&#x32e;" horiz-adv-x="0" d="M-889 -137h98q18 -90 87 -127t194 -37t193.5 37t87.5 127h98q0 -143 -101.5 -239.5t-277.5 -96.5q-178 0 -278.5 96.5t-100.5 239.5z" />
<glyph unicode="&#x32f;" horiz-adv-x="0" d="M-889 -473q0 143 101.5 239.5t277.5 96.5q178 0 278.5 -96.5t100.5 -239.5h-98q-18 90 -87 127t-194 37t-193.5 -37t-87.5 -127h-98z" />
<glyph unicode="&#x330;" horiz-adv-x="0" d="M-885 -430q29 133 86.5 194.5t151.5 61.5q66 0 149 -39l82 -37q53 -25 80 -24q41 0 65.5 22.5t45.5 77.5h88q-70 -260 -240 -260q-63 0 -131 28l-59 27q-102 45 -131 45q-39 0 -67 -26.5t-34 -69.5h-86z" />
<glyph unicode="&#x331;" horiz-adv-x="0" d="M-850 -231h676v-148h-676v148z" />
<glyph unicode="&#x332;" horiz-adv-x="0" d="M-850 -231h676v-148h-676v148z" />
<glyph unicode="&#x391;" horiz-adv-x="1478" d="M18 0v51q74 14 109 55t92 185l455 1122h57l457 -1077q82 -193 118.5 -239t104.5 -46v-51h-663v51l65 6q53 2 75.5 17.5t22.5 50.5q0 59 -94 278h-461l-30 -81q-59 -147 -59.5 -186.5t38.5 -59t129 -25.5v-51h-416zM387 483h399l-206 498z" />
<glyph unicode="&#x392;" horiz-adv-x="1366" d="M33 0v51q113 12 146.5 40t33.5 106v991q0 78 -37 108.5t-143 36.5v51h633q256 0 394 -85t138 -242q0 -117 -73.5 -187.5t-252.5 -121.5q188 -41 285 -123q111 -98 111 -240q0 -174 -158 -279.5t-418 -105.5h-659zM541 190q0 -68 28.5 -96t96.5 -28q250 0 249 301 q0 336 -313 335h-61v-512zM541 764q188 4 253.5 60.5t65.5 217.5q0 145 -51 213t-158 68q-59 0 -84.5 -22.5t-25.5 -77.5v-459z" />
<glyph unicode="&#x393;" horiz-adv-x="1251" d="M33 0v51q115 12 147.5 39t32.5 107v991q0 80 -37 109.5t-143 35.5v51h1161v-411h-49q-37 168 -96 235q-94 106 -373 107q-78 0 -104.5 -19.5t-26.5 -76.5v-1022q0 -84 42 -112t183 -34v-51h-737z" />
<glyph unicode="&#x394;" horiz-adv-x="1349" d="M-53 0l700 1497h70l690 -1497h-1460zM166 289h766l-385 827z" />
<glyph unicode="&#x395;" horiz-adv-x="1366" d="M33 0v51q115 12 147.5 39t32.5 107v991q0 78 -37 108.5t-143 36.5v51h1181v-411h-51q-39 205 -137 273.5t-348 68.5q-80 0 -106.5 -19.5t-26.5 -76.5v-476q166 -2 237.5 63.5t94.5 242.5h53v-693h-53q-18 178 -91 248t-241 70v-496q0 -66 35.5 -90.5t134.5 -24.5 q229 0 368 113q94 80 172 250h58l-82 -426h-1198z" />
<glyph unicode="&#x396;" horiz-adv-x="1366" d="M57 0v33l783 1280l-170 -6q-229 0 -323.5 -65.5t-168.5 -278.5h-57l43 421h1073v-32l-776 -1280h151q322 0 435 80q72 51 114.5 123.5t83.5 218.5h53l-53 -494h-1188z" />
<glyph unicode="&#x397;" horiz-adv-x="1593" d="M43 0v51q106 14 140 42t34 104v991q0 76 -36 105.5t-138 39.5v51h690v-51q-106 -8 -145 -37.5t-39 -107.5v-424h493v424q0 78 -38.5 107.5t-145.5 37.5v51h696v-51q-104 -8 -142 -38.5t-38 -106.5v-991q0 -76 35 -103.5t145 -42.5v-51h-696v51q113 12 148.5 41t35.5 105 v471h-493v-471q0 -76 36 -105t148 -41v-51h-690z" />
<glyph unicode="&#x398;" horiz-adv-x="1593" d="M72 686q0 319 205.5 524t527.5 205q309 0 513 -207t204 -520q0 -317 -204 -522t-521.5 -205t-521 204t-203.5 521zM434 668q0 -311 93.5 -475t269.5 -164t269 164.5t93 480.5q0 319 -93 496.5t-263 177.5q-180 0 -274.5 -174t-94.5 -506zM586 420h39q0 98 67 121 q33 12 123 12q156 0 156 -133h37v498h-37q0 -72 -38 -101t-136 -29q-100 0 -136 28t-36 102h-39v-498z" />
<glyph unicode="&#x399;" horiz-adv-x="796" d="M41 0v51q115 10 152.5 39t37.5 107v991q0 78 -39.5 107.5t-150.5 37.5v51h717v-51q-113 -4 -154 -34.5t-41 -110.5v-991q0 -80 39 -109t156 -37v-51h-717z" />
<glyph unicode="&#x39a;" horiz-adv-x="1593" d="M61 0v51q111 12 145 40t34 106v991q0 80 -36 109.5t-143 35.5v51h693v-51q-113 -8 -148 -44t-35 -144v-438l445 446q47 47 60.5 67.5t13.5 45.5q0 31 -23 45t-78 16q-12 2 -74 6v51h592v-51q-150 -12 -259 -90t-398 -375l625 -774q35 -41 100 -43v-51h-688v51q29 2 65 2 q96 6 97 41q0 29 -50 90l-372 465l-56 -51v-401q0 -76 35 -103.5t146 -42.5v-51h-691z" />
<glyph unicode="&#x39b;" horiz-adv-x="1478" d="M18 0v51q74 14 109 55t92 185l455 1122h57l457 -1077q82 -193 118.5 -239t104.5 -46v-51h-663v51l65 6q53 2 75.5 17.5t22.5 50.5q0 59 -94 278l-237 578l-254 -659q-59 -147 -59.5 -186.5t38.5 -59t129 -25.5v-51h-416z" />
<glyph unicode="&#x39c;" horiz-adv-x="1933" d="M29 0v51q119 12 152.5 42t33.5 122v973q0 80 -35 108.5t-147 36.5v51h518l410 -966l409 966h516v-51q-113 -8 -146.5 -43t-33.5 -145v-905q0 -109 30.5 -141.5t149.5 -47.5v-51h-680v51q115 10 149 39t34 115v1042l-517 -1247h-55l-516 1217v-963q0 -115 41 -155t166 -48 v-51h-479z" />
<glyph unicode="&#x39d;" horiz-adv-x="1478" d="M33 0v51q113 14 146.5 45t33.5 119v971q-74 88 -108.5 117.5t-65.5 29.5v51h432l715 -878v624q0 109 -39 151t-152 52v51h441v-51q-100 -16 -130 -46t-30 -118v-1206h-57l-916 1114v-823q0 -109 38 -148.5t157 -54.5v-51h-465z" />
<glyph unicode="&#x39e;" horiz-adv-x="1386" d="M115 0v455h37q2 -102 16 -136q14 -29 52 -41t124 -12h729q78 0 109 19q33 18 43 51t12 119h37v-455h-1159zM139 969v387h1112v-387h-39q-4 63 -38.5 92t-108.5 29h-741q-74 0 -109 -28t-39 -93h-37zM332 442v496h37q2 -53 28 -92q29 -35 131 -35h346q76 0 109 28.5 t39 98.5h37v-496h-37q-4 70 -37 99.5t-111 29.5h-342q-90 0 -123.5 -26.5t-39.5 -102.5h-37z" />
<glyph unicode="&#x39f;" horiz-adv-x="1593" d="M72 686q0 319 205.5 524t527.5 205q309 0 513 -207t204 -520q0 -317 -204 -522t-521.5 -205t-521 204t-203.5 521zM434 668q0 -311 93.5 -475t269.5 -164t269 164.5t93 480.5q0 319 -93 496.5t-263 177.5q-180 0 -274.5 -174t-94.5 -506z" />
<glyph unicode="&#x3a0;" horiz-adv-x="1593" d="M43 0v51q106 14 140 42t34 104v991q0 76 -36 105.5t-138 39.5v51h1511v-51q-104 -8 -142 -38.5t-38 -106.5v-991q0 -76 35 -103.5t145 -42.5v-51h-696v51q113 12 148.5 41t35.5 105v991q0 78 -38.5 107.5t-145.5 37.5h-125q-106 -8 -145 -37.5t-39 -107.5v-991 q0 -76 36 -105t148 -41v-51h-690z" />
<glyph unicode="&#x3a1;" horiz-adv-x="1251" d="M33 0v51q45 8 49 8q72 8 97.5 46t25.5 135v905q0 109 -33 144.5t-139 43.5v51h659q256 0 396.5 -97t140.5 -275q0 -119 -66.5 -209t-189.5 -137q-68 -27 -148 -35t-288 -10v-381q0 -113 29.5 -142.5t150.5 -46.5v-51h-684zM537 692q197 0 262 56q78 70 78 253 q0 166 -55.5 239t-182.5 73q-102 0 -102 -72v-549z" />
<glyph unicode="&#x3a3;" horiz-adv-x="1345" d="M45 0l444 645l-428 739h1104l19 -260h-49q-27 121 -83.5 158t-213.5 37h-496l348 -586l-371 -555h605q160 0 221 29t106 125h47l-98 -332h-1155z" />
<glyph unicode="&#x3a4;" horiz-adv-x="1366" d="M63 973l7 411h1228l5 -411h-60q-27 182 -116 261t-277 85v-1079q0 -117 34 -148t167 -41v-51h-732v51q131 10 165 42t34 147v1079q-190 -6 -279 -85t-116 -261h-60z" />
<glyph unicode="&#x3a5;" horiz-adv-x="1478" d="M31 924q0 461 225 460q104 0 187 -51t134.5 -134t84 -198.5t46 -235.5t13.5 -253h29q0 170 23.5 316.5t74.5 276.5t146.5 204.5t226.5 74.5q227 0 227 -460h-62q0 74 -48 126t-117 52q-88 0 -154 -51.5t-100.5 -138.5t-50 -186t-15.5 -214v-272q0 -113 32 -145t157 -44 v-51h-711v51q125 12 157.5 44t32.5 145v272q0 115 -15 213t-49 186t-97.5 139.5t-151.5 51.5q-70 0 -117 -52.5t-47 -125.5h-61z" />
<glyph unicode="&#x3a6;" horiz-adv-x="1497" d="M90 692q0 162 138.5 252t353.5 115v129q0 78 -40 107.5t-151 37.5v51h717v-51q-113 -4 -154 -34.5t-41 -110.5v-127q217 -25 356.5 -116t139.5 -253t-139.5 -253t-356.5 -115v-127q0 -80 39 -109t156 -37v-51h-717v51q115 10 153 39t38 107v129q-215 25 -353.5 114.5 t-138.5 251.5zM389 692q0 -92 53.5 -165.5t139.5 -112.5v557q-86 -39 -139.5 -113t-53.5 -166zM913 412q88 39 142.5 113.5t54.5 166.5t-54.5 167t-142.5 114v-561z" />
<glyph unicode="&#x3a7;" horiz-adv-x="1478" d="M33 0v51q76 8 121 33t92 82l358 452l-405 596q-47 70 -78 92.5t-86 26.5v51h708v-51q-57 -4 -63 -4q-55 -2 -76.5 -16.5t-21.5 -46.5q0 -29 30 -76l199 -307l115 157q119 162 118 217q0 37 -22.5 53.5t-83.5 18.5q-2 0 -8 1t-16.5 2t-16.5 1v51h512v-51 q-115 -10 -182.5 -63t-202.5 -236l-164 -227l373 -580q74 -111 109.5 -142.5t89.5 -33.5v-51h-697v51q53 4 58 4q106 6 106 58q0 43 -43 110l-207 332l-78 -104q-115 -156 -153.5 -219.5t-38.5 -96.5q0 -39 36 -56.5t130 -27.5v-51h-512z" />
<glyph unicode="&#x3a8;" horiz-adv-x="1699" d="M90 1077v62q168 0 289 -107.5t121 -267.5q0 -106 49 -198.5t133 -141.5v764q0 78 -40 107.5t-150 37.5v51h716v-51q-113 -4 -153.5 -34.5t-40.5 -110.5v-766q86 49 136 141t50 201q0 160 121 267.5t289 107.5v-62q-39 0 -63.5 -25.5t-34 -81t-11.5 -94t-2 -112.5 q0 -172 -137 -285.5t-348 -150.5v-131q0 -80 39 -109t155 -37v-51h-716v51q115 10 152.5 39t37.5 107v133q-209 35 -345 148.5t-136 285.5q0 74 -2 112.5t-11.5 94t-34 81t-63.5 25.5z" />
<glyph unicode="&#x3a9;" horiz-adv-x="1568" d="M72 0v389h34q0 -59 44.5 -99t103.5 -36h309l-6 82q-221 39 -334 186q-109 150 -108 330q0 244 196.5 403.5t467 159.5t468 -159.5t197.5 -403.5q0 -172 -105 -324q-104 -145 -338 -192l-6 -82h308q59 -6 104 34t45 101h35v-389h-580l31 383q59 27 98 74q72 96 72 391 q0 176 -33 272q-35 98 -111.5 157.5t-185.5 59.5q-143 0 -235 -108q-94 -113 -94 -389q0 -238 43 -336q51 -100 129 -121l30 -383h-579z" />
<glyph unicode="&#x3b1;" horiz-adv-x="1447" d="M90 477q0 209 146.5 357.5t353.5 148.5q131 0 242.5 -63.5t181.5 -171.5q66 170 127 229l127 -127q-154 -158 -197 -219q27 -74 29 -148q6 -137 13 -215t30.5 -161.5t60.5 -83.5q92 0 92 167h62q0 -92 -41 -160.5t-113 -68.5q-209 0 -317 227q-115 -227 -297 -227 q-209 0 -354.5 151.5t-145.5 364.5zM389 477q0 -96 6 -163.5t24.5 -141.5t61.5 -111.5t109 -37.5q164 0 266 243q-33 92 -39 203q-4 94 -14 162.5t-32.5 141.5t-69 111t-111.5 38q-63 0 -106.5 -38t-63 -108.5t-25.5 -138.5t-6 -160z" />
<glyph unicode="&#x3b2;" horiz-adv-x="1204" d="M4 -481q86 252 86 481v944q0 199 137.5 339t333.5 140q170 0 295 -97t125 -247q0 -102 -70.5 -184t-181.5 -123q168 -39 280.5 -143.5t112.5 -249.5q0 -188 -167 -303t-394 -115q-98 0 -188 45v-6q0 -270 -70 -481h-299zM373 76q84 -53 188 -53q119 0 190.5 105 t71.5 250.5t-88 251t-221 105.5v62q84 0 126 83t42 199q0 61 -3 102.5t-14.5 87.5t-37 69.5t-66.5 23.5q-59 0 -99 -36t-58.5 -101.5t-24.5 -130t-6 -150.5v-868z" />
<glyph unicode="&#x3b3;" horiz-adv-x="1171" d="M90 520q0 123 20.5 221.5t79 170t148.5 71.5q102 0 174 -59.5t111 -170t57 -233.5t25 -287l12 19q184 283 184 692h180q0 -113 -53 -252t-107.5 -231t-152.5 -242l-59 -90l2 -256q0 -72 -1 -112t-9.5 -99t-23.5 -92t-46 -57.5t-74 -24.5q-76 0 -118 61.5t-34.5 155.5 t64.5 184q8 14 176 256q-6 121 -21.5 212.5t-48 173t-92 125.5t-145.5 44q-78 0 -132 -52t-54 -128h-62zM463 -351.5q10 -99.5 94 -99.5q33 0 52.5 28t27.5 83t10 98t2 115l-2 170q-86 -123 -127 -188q-67 -107 -57 -206.5z" />
<glyph unicode="&#x3b4;" horiz-adv-x="1067" d="M90 424q0 147 122 238.5t306 115.5q-186 190 -186 375q0 111 66.5 190.5t164.5 79.5q127 0 226.5 -57t121.5 -162l-176 -41q-18 84 -62 141.5t-110 57.5q-61 0 -90 -60.5t-29 -148.5q0 -51 39 -114.5t72 -98.5t102 -100l149 -145q52 -52 111.5 -136t59.5 -135 q0 -190 -129 -326.5t-313 -136.5q-186 0 -315.5 136.5t-129.5 326.5zM389 424q0 -94 3 -144.5t15.5 -121t44 -103t83.5 -32.5q35 0 60.5 15t40.5 49t24.5 65.5t12.5 87t4 89t1 95.5q0 182 -98 293q-84 -25 -137.5 -108t-53.5 -185z" />
<glyph unicode="&#x3b5;" horiz-adv-x="1058" d="M90 301q0 158 184 217q-123 61 -122.5 184t123 182.5t296.5 59.5q172 0 297 -119l-41 -45q-109 102 -256 103q-61 0 -99 -54.5t-38 -126.5q0 -98 107 -145l170 2v-98q-135 0 -199 6q-139 -53 -139 -166q0 -102 82 -170t194 -68q84 0 154.5 41t111.5 113l54 -31 q-49 -86 -135 -135t-185 -49q-109 0 -203 14.5t-177 47t-131 93t-48 144.5z" />
<glyph unicode="&#x3b6;" horiz-adv-x="944" d="M90 346q0 281 98.5 514.5t280.5 329.5q-102 78 -96 194h180q-4 -90 39 -151q55 10 98 10q51 0 81 -2t58.5 -17.5t28.5 -43.5q0 -41 -44 -51.5t-124 -10.5q-70 0 -133 23q-59 -43 -96 -123t-51.5 -208t-17.5 -216t-3 -248q0 -129 79 -222t196 -93q104 0 169.5 -91.5 t65.5 -215.5q0 -236 -119 -236q-43 0 -76.5 27.5t-41.5 68.5l59 13q10 -47 59 -48q39 0 48.5 45.5t9.5 129.5q0 100 -47.5 172.5t-126.5 72.5q-150 0 -277 40t-212 128t-85 209z" />
<glyph unicode="&#x3b7;" horiz-adv-x="1243" d="M90 709q0 115 38 194.5t120 79.5q94 0 172 -50t121 -132q61 182 211 182q164 0 282.5 -95t118.5 -241q0 -111 -43 -323.5t-43 -323.5q0 -229 86 -481h-299q-70 211 -70 481q0 109 35 324t35 323q0 66 -2 99.5t-10 82t-31 71t-59 22.5q-84 0 -129 -82t-45 -193v-647h-283 v647q0 274 -47 275q-59 0 -77.5 -58.5t-18.5 -154.5h-62z" />
<glyph unicode="&#x3b8;" horiz-adv-x="1015" d="M90 696q0 139 22.5 264t69.5 231.5t131 169t194.5 62.5t194.5 -62.5t131.5 -169t70 -231t22.5 -264.5q0 -141 -22.5 -267t-69 -233.5t-130 -171t-196.5 -63.5t-197 63.5t-130 171t-68.5 233.5t-22.5 267zM389 666q0 -109 1 -179.5t8.5 -168t18.5 -155t34.5 -99 t56.5 -41.5t56.5 41.5t34.5 99t18.5 155t8.5 168t1 179.5h-238zM389 727h238q0 88 -1 146.5t-4.5 141.5t-11.5 137t-20 106.5t-32.5 78t-49.5 25.5t-49.5 -25.5t-32.5 -78t-20.5 -106.5t-11.5 -137t-4 -141.5t-1 -146.5z" />
<glyph unicode="&#x3b9;" horiz-adv-x="864" d="M180 236v708h283v-708q0 -213 112 -213q66 0 102 63.5t36 149.5h61q0 -111 -54 -193t-145 -82q-162 0 -278.5 74t-116.5 201z" />
<glyph unicode="&#x3ba;" horiz-adv-x="1148" d="M90 0v944h283v-299q25 35 51 103q102 236 252 235q84 0 152.5 -53t89.5 -135l-62 -15q-16 61 -66.5 101.5t-113.5 40.5q-68 0 -112 -53.5t-83 -145.5q-49 -113 -108 -172v-4q109 -4 192.5 -24.5t147 -74t63.5 -133.5q0 -88 2 -137t15.5 -102t37.5 -53q74 0 120 63.5 t46 149.5h62q0 -111 -64.5 -193t-163.5 -82q-141 0 -239 104.5t-98 249.5q0 100 -121 148v-463h-283z" />
<glyph unicode="&#x3bb;" horiz-adv-x="1220" d="M90 31l451 934l-23 73q-59 182 -156 183q-39 0 -65.5 -32t-26.5 -75h-61q0 121 36 204t117 83q37 0 70 -29t60.5 -90t43 -103t39.5 -122l226 -721q57 -172 168 -172q43 0 71.5 31.5t28.5 74.5h61q0 -119 -38.5 -202.5t-122.5 -83.5q-43 0 -78 27.5t-63.5 87t-44 100.5 t-40.5 118l-79 252l-258 -538h-316z" />
<glyph unicode="&#x3bc;" horiz-adv-x="1392" d="M180 -512q39 362 39 748v708h283v-708q0 -86 38 -149.5t105 -63.5q106 0 180 88q-37 59 -37 125v708h283v-708q0 -49 1 -76t6 -65t19.5 -55t37.5 -17q106 0 106 213h62q0 -113 -42 -194t-126 -81q-166 0 -271 100q-90 -100 -219 -100q-158 0 -272 57q27 -266 129 -530 h-322z" />
<glyph unicode="&#x3bd;" horiz-adv-x="1132" d="M90 621q0 76 5 130t20.5 112.5t49.5 89t87 30.5q113 0 196.5 -84t120.5 -209l154 -530l117 65q141 84 141 369q0 33 -43 81t-83 80.5l-107 84.5l172 225q57 -43 85.5 -131t32.5 -154.5t4 -185.5q0 -322 -172 -422l-374 -215l-172 594q-10 49 -3 113.5t19 121t-7.5 96.5 t-80.5 40q-35 0 -57.5 -25t-30.5 -78t-10 -91t-2 -107h-62z" />
<glyph unicode="&#x3be;" horiz-adv-x="1056" d="M90 238q0 236 289 333q-240 63 -240 256q0 147 106.5 243.5t280.5 139.5q-86 68 -110 174h184q25 -96 78 -149q82 8 127 8q55 0 88 -2t64.5 -17.5t31.5 -43.5q0 -23 -15.5 -36.5t-47 -18.5t-55 -6t-66.5 -1q-88 0 -162 27q-92 -43 -148.5 -128t-56.5 -190 q0 -147 201 -204q115 12 227 12v-98l-217 2q-119 -39 -189.5 -116t-70.5 -185q0 -96 81 -159t198 -79q143 -20 243.5 -92t100.5 -184q0 -236 -119 -236q-43 0 -76 27.5t-43 68.5l62 13q8 -47 57 -48q39 0 48 45.5t9 129.5q0 92 -84 144t-207 71q-88 12 -135 20t-127 24.5 t-124 37t-92 50t-69.5 72t-21.5 95.5z" />
<glyph unicode="&#x3bf;" d="M51 475q0 209 134 351.5t329 142.5q199 0 330 -142.5t131 -357.5q0 -213 -131 -355.5t-330 -142.5q-201 0 -332 142.5t-131 361.5zM352 438q0 -225 36 -314t126 -89t125 93t35 329q0 252 -35 350t-123 98q-94 0 -129 -98.5t-35 -368.5z" />
<glyph unicode="&#x3c0;" horiz-adv-x="1382" d="M90 709q0 125 65.5 216t170.5 91q98 0 291.5 -40t291.5 -40q139 4 256 63l127 -251q-113 -57 -241 -80v-494q0 -72 69.5 -111.5t165.5 -39.5v-62q-78 0 -124 1t-115.5 7t-111.5 20.5t-85 37t-62.5 59.5t-19.5 88v492q-49 6 -139 24.5t-129 24.5v-279q0 -199 -105.5 -346 t-273.5 -147v180q133 0 225 91t92 222v289q-74 8 -112 8q-174 0 -174 -24h-62z" />
<glyph unicode="&#x3c1;" horiz-adv-x="1220" d="M90 477q0 209 152.5 357.5t367.5 148.5t367.5 -148.5t152.5 -357.5q0 -215 -152.5 -365.5t-367.5 -150.5q-86 0 -161 31q10 -92 10 -162q0 -188 -99 -354l-241 147q57 96 57 207q0 109 -43 322.5t-43 324.5zM389 477q0 -88 16.5 -207.5t32.5 -208.5q84 -39 172 -38 q221 0 221 454q0 444 -221 444t-221 -444z" />
<glyph unicode="&#x3c2;" horiz-adv-x="931" d="M90 571q0 176 139.5 294t331.5 118q70 0 109 -2t92 -17.5t80 -45.5l-135 -121q-111 125 -146 125q-100 0 -144 -101.5t-44 -249.5q0 -90 3 -138t27.5 -114.5t71.5 -103.5l86 -61q72 -51 107 -84q106 -94 106 -197q0 -66 -36 -113t-91 -47q-152 0 -295 64l25 57 q129 -59 270 -59q31 0 48.5 29.5t17.5 68.5q0 74 -86 152q-27 25 -58.5 48l-71.5 50t-61 43l-121 97q-41 34 -104.5 94.5t-92 112.5t-28.5 101z" />
<glyph unicode="&#x3c3;" horiz-adv-x="1140" d="M90 475q0 209 134 351.5t329 142.5q23 0 59 -4q168 14 402 114l37 -86q-133 -55 -295 -71q119 -59 188.5 -179t69.5 -274q0 -213 -131 -355.5t-330 -142.5q-201 0 -332 142.5t-131 361.5zM391 438q0 -225 36 -314t126 -89t125 93t35 329q0 252 -35 350t-123 98 q-94 0 -129 -98.5t-35 -368.5z" />
<glyph unicode="&#x3c4;" horiz-adv-x="1183" d="M90 709q0 125 65.5 216t170.5 91q45 0 272 -88q78 -33 163 -18.5t148 71.5l185 -215q-158 -135 -361 -141v-389q0 -213 113 -213q66 0 101.5 63.5t35.5 149.5h61q0 -111 -54 -193t-144 -82q-162 0 -278.5 74t-116.5 201v450q-25 14 -60 30.5t-65 16.5q-174 0 -174 -24 h-62z" />
<glyph unicode="&#x3c5;" horiz-adv-x="1163" d="M90 709q0 115 38 194.5t120 79.5q133 0 231.5 -78t98.5 -196q0 -68 -15.5 -198t-15.5 -196q0 -63 3 -105t15.5 -90t39 -72.5t69.5 -24.5q158 0 248 145t90 344q0 106 -84 176t-228 135l119 258q254 -119 254 -569q0 -223 -108.5 -387t-290.5 -164q-172 0 -299 100.5 t-127 253.5q0 66 23.5 196t23.5 198q0 213 -47 213q-59 0 -77.5 -58.5t-18.5 -154.5h-62z" />
<glyph unicode="&#x3c6;" horiz-adv-x="1425" d="M90 473q0 78 28.5 148.5t91 138t112 109.5t135.5 108l39 -49q-49 -39 -75 -125t-29 -150.5t-3 -179.5q0 -143 56.5 -261t154.5 -165l-12 146q-8 98 -12.5 173.5t-4.5 145.5q0 190 106.5 330.5t272.5 140.5q172 0 278.5 -152.5t106.5 -357.5q0 -180 -126 -312t-320 -179 q4 -102 4 -152q0 -223 -158 -381l-200 201q76 72 75 180q0 45 -4 139q-219 31 -367.5 168t-148.5 336zM854 512q0 -57 27 -430q74 59 114.5 164.5t40.5 226.5q0 80 -1 123t-5 114.5t-12 110.5t-25.5 70t-42.5 31q-23 0 -40 -16.5t-27.5 -51.5t-16.5 -67.5t-8 -90t-3 -90.5 t-1 -94z" />
<glyph unicode="&#x3c7;" horiz-adv-x="1114" d="M90 653q0 129 37 218.5t125 89.5q35 0 67.5 -30t63.5 -90.5t49.5 -102.5t44.5 -117l74 -201q139 301 139 524h283q0 -88 -16.5 -175t-54.5 -183.5t-64.5 -157.5t-86 -176t-79.5 -160l112 -303q18 -47 64.5 -72.5t103.5 -25.5q45 0 73 38t28 89h61q0 -129 -37 -218 t-125 -89q-43 0 -78.5 21.5t-63.5 63.5t-45 78.5t-38 92.5l-92 247q-121 -279 -121 -487h-283q0 135 45.5 283.5t107.5 269.5l130 262l-94 256q-68 182 -168 182q-45 0 -72.5 -37.5t-27.5 -89.5h-62z" />
<glyph unicode="&#x3c8;" horiz-adv-x="1316" d="M90 709q0 115 38 194.5t120 79.5q133 0 231.5 -78t98.5 -196q0 -68 -15.5 -198t-15.5 -196q0 -84 32.5 -155.5t88.5 -108.5v422q0 463 -111 911h283q-111 -449 -111 -911v-446q25 -4 37 -4q174 0 286.5 145t112.5 344q0 106 -84 176t-227 135l119 258q254 -119 254 -569 q0 -223 -131 -387t-330 -164h-37v-473h-61v479q-180 20 -300 111.5t-120 236.5q0 66 23.5 196t23.5 198q0 213 -47 213q-59 0 -77.5 -58.5t-18.5 -154.5h-62z" />
<glyph unicode="&#x3c9;" horiz-adv-x="1437" d="M90 469q0 281 410 502l28 -53q-100 -55 -127.5 -166t-27.5 -283q0 -70 1 -106.5t5 -98t14 -96.5t26.5 -73t44.5 -55t66 -17q106 0 146 129q-47 137 -47 477h180q0 -182 3 -283.5t26.5 -212t68.5 -110.5q39 0 66.5 17t44 55t27 73t14.5 96.5t5 98t1 106.5q0 82 -4 135 t-17.5 121t-47 116t-87.5 77l29 53q410 -221 410 -502q0 -207 -126 -357.5t-315 -150.5q-133 0 -202 121q-57 -121 -175 -121q-188 0 -314 150.5t-126 357.5z" />
<glyph unicode="&#x3d1;" horiz-adv-x="1296" d="M90 709q0 113 44 193.5t128 80.5q129 0 222.5 -79t93.5 -195q0 -68 -35 -198t-35 -196q0 -61 4 -105t16.5 -91t40 -71.5t70.5 -24.5q31 0 54.5 27.5t37.5 87t22.5 113.5t11.5 150.5t4 150.5t1 157l-2 215q-41 14 -85 57t-68 78l-64 98q-57 92 -42 179t91 87 q166 0 277.5 -120.5t158.5 -317.5q57 4 162 21l8 -62q-45 -8 -155 -20q18 -104 18 -215q0 -145 -23.5 -273.5t-71.5 -237t-134 -173t-201 -64.5q-174 0 -302 100.5t-128 253.5q0 68 43 196t43 198q0 213 -33 213q-111 0 -110 -213h-62zM561 1335.5q-8 -26.5 4.5 -66.5 t38.5 -81q100 -158 160 -195q-18 369 -164 369q-31 0 -39 -26.5z" />
<glyph unicode="&#x3d5;" horiz-adv-x="1103" d="M90 475q0 195 118 333t296 159q-14 186 -41 417h180q-29 -209 -43 -417q180 -18 297 -157.5t117 -340.5q0 -205 -122 -345t-310 -153l2 -483h-62v483q-190 12 -311 153.5t-121 350.5zM391 438q0 -205 29 -296t102 -105v436q0 178 -14 426q-68 -20 -92.5 -121.5 t-24.5 -339.5zM582 37q72 14 101.5 109.5t29.5 310.5q0 223 -27 323.5t-90 118.5q-12 -211 -12 -426z" />
<glyph unicode="&#x3d6;" horiz-adv-x="1437" d="M90 469q0 281 410 502l28 -53q-100 -55 -127.5 -166t-27.5 -283q0 -70 1 -106.5t5 -98t14 -96.5t26.5 -73t44.5 -55t66 -17q106 0 146 129q-47 137 -47 477h180q0 -182 3 -283.5t26.5 -212t68.5 -110.5q39 0 66.5 17t44 55t27 73t14.5 96.5t5 98t1 106.5q0 80 -1 136.5 t-8 131t-17.5 126.5t-32 106.5t-51 88.5t-73.5 55.5t-100 21.5q-242 0 -475 -62l-14 60q248 63 489 63q250 0 408 -217t158 -510q0 -207 -126 -357.5t-315 -150.5q-133 0 -202 121q-57 -121 -175 -121q-188 0 -314 150.5t-126 357.5z" />
<glyph unicode="&#x3f5;" horiz-adv-x="995" d="M90 500q0 213 183.5 348t431.5 135h120v-61h-120q-137 0 -224.5 -120t-91.5 -284q35 8 89 29l88 33q34 12 88.5 18t86.5 -16l-75 -164q-55 27 -135 29t-142 -3q0 -74 4 -125t15.5 -111.5t31 -97t56 -62t88.5 -25.5q37 0 69.5 27.5t49 53t42.5 74.5l160 -86 q-72 -131 -321 -131q-209 0 -351.5 160t-142.5 379z" />
<glyph unicode="&#x400;" horiz-adv-x="1366" d="M33 0v51q115 12 147.5 39t32.5 107v991q0 78 -37 108.5t-143 36.5v51h1181v-411h-51q-39 205 -137 273.5t-348 68.5q-80 0 -106.5 -19.5t-26.5 -76.5v-476q166 -2 237.5 63.5t94.5 242.5h53v-693h-53q-18 178 -91 248t-241 70v-496q0 -66 35.5 -90.5t134.5 -24.5 q227 0 362 109q55 45 93 98.5t85 155.5h58l-82 -426h-1198zM430 1774q0 39 27.5 65.5t68.5 26.5q59 0 111 -58l281 -321h-115l-291 180q-82 52 -82 107z" />
<glyph unicode="&#x401;" horiz-adv-x="1366" d="M33 0v51q115 12 147.5 39t32.5 107v991q0 78 -37 108.5t-143 36.5v51h1181v-411h-51q-39 205 -137 273.5t-348 68.5q-80 0 -106.5 -19.5t-26.5 -76.5v-476q166 -2 237.5 63.5t94.5 242.5h53v-693h-53q-18 178 -91 248t-241 70v-496q0 -66 35.5 -90.5t134.5 -24.5 q227 0 362 109q55 45 93 98.5t85 155.5h58l-82 -426h-1198zM326 1620q0 51 40 91t91 40q53 0 93 -40t40 -95q0 -53 -39 -91t-94 -38q-53 0 -92 40t-39 93zM756 1622q0 51 39 90t90 39q55 0 95 -40t40 -95q0 -53 -39 -91t-96 -38q-53 0 -91 39t-38 96z" />
<glyph unicode="&#x402;" horiz-adv-x="1908" d="M63 973l7 411h1228l5 -411h-60q-27 182 -116 261t-277 85v-563q37 49 122 94t171 45q92 0 178 -15.5t170 -50t134 -103.5t50 -163v-475q0 -137 -82 -229t-193.5 -127t-242.5 -35q-70 0 -115 27.5t-45 76.5q0 92 90 93q41 0 73 -37t63 -37q59 0 89.5 57t30.5 207v483 q0 104 -66.5 160.5t-170.5 56.5q-76 0 -146.5 -44t-109.5 -101v-399q0 -117 34 -148t167 -41v-51h-732v51q131 10 165 42t34 147v1079q-190 -6 -279 -85t-116 -261h-60z" />
<glyph unicode="&#x403;" horiz-adv-x="1251" d="M33 0v51q115 12 147.5 39t32.5 107v991q0 80 -37 109.5t-143 35.5v51h1161v-411h-49q-37 168 -96 235q-94 106 -373 107q-74 0 -102.5 -30t-28.5 -91v-997q0 -84 42 -112t183 -34v-51h-737zM371 1487l280 321q51 57 109 58q45 0 71.5 -24.5t26.5 -65.5q0 -35 -16.5 -56.5 t-65.5 -52.5l-291 -180h-114z" />
<glyph unicode="&#x404;" horiz-adv-x="1478" d="M100 682q0 313 204 523t509 210q141 0 317 -72q63 -29 95 -28q29 0 49 20.5t41 73.5h55v-479h-51q-53 117 -96 180.5t-111 122.5q-129 115 -272 115q-176 0 -272.5 -149.5t-104.5 -434.5h514v-96h-516q2 -274 90 -430q45 -80 134 -129.5t189 -49.5q96 0 185 37 q76 29 136 75t151 140l61 -51q-117 -129 -203 -188q-164 -111 -379 -111q-317 0 -521 203t-204 518z" />
<glyph unicode="&#x405;" horiz-adv-x="1138" d="M72 -39v506h59q45 -186 119 -287q117 -152 299 -151q119 0 188.5 63.5t69.5 169.5q0 80 -47 131t-182 115l-138 65q-182 88 -266 189.5t-84 236.5q0 195 120 305.5t329 110.5q106 0 239 -45q61 -23 86 -22q27 0 41.5 15t24.5 54h61v-444h-57q-31 100 -60.5 155.5 t-82.5 108.5q-111 115 -252 115q-104 0 -165 -55.5t-61 -149.5q0 -74 44 -122t167 -110l301 -149q98 -49 162 -153.5t64 -219.5q0 -193 -140.5 -312.5t-367.5 -119.5q-121 0 -267 49q-63 20 -83 21q-45 0 -62 -70h-59z" />
<glyph unicode="&#x406;" horiz-adv-x="796" d="M33 0v51q115 10 152.5 39t37.5 107v991q0 78 -40 107.5t-150 37.5v51h717v-51q-113 -4 -154 -34.5t-41 -110.5v-991q0 -80 39 -109t156 -37v-51h-717z" />
<glyph unicode="&#x407;" horiz-adv-x="796" d="M33 0v51q115 10 152.5 39t37.5 107v991q0 78 -40 107.5t-150 37.5v51h717v-51q-113 -4 -154 -34.5t-41 -110.5v-991q0 -80 39 -109t156 -37v-51h-717zM45 1620q0 51 39 91t92 40t93 -40t40 -95q0 -53 -39 -91t-94 -38q-53 0 -92 40t-39 93zM475 1622q0 51 39 90t90 39 q55 0 95 -40t40 -95q0 -53 -38.5 -91t-96.5 -38q-53 0 -91 39t-38 96z" />
<glyph unicode="&#x408;" d="M6 74q0 59 43 103t101 44q59 0 104 -46t45 -107q0 -39 -31 -78q-25 -33 -24 -53q0 -29 25.5 -47.5t66.5 -18.5q70 0 100.5 42t30.5 136v1139q0 82 -41 111.5t-166 33.5v51h721v-51q-115 -8 -148.5 -43t-33.5 -145v-893q0 -219 -112 -334t-327 -115q-129 0 -217 47 q-59 35 -98 98t-39 126z" />
<glyph unicode="&#x409;" horiz-adv-x="2113" d="M37 98q0 59 36 101.5t91 42.5q35 0 57.5 -16.5t32.5 -37t27.5 -37t42.5 -16.5q53 0 91 126t49 245t11 192v490q0 76 -36 105.5t-138 39.5v51h1241v-51q-121 -16 -150.5 -46t-29.5 -142v-381q209 -2 289 -10.5t147 -34.5q123 -47 189.5 -137t66.5 -209q0 -178 -140 -275.5 t-396 -97.5h-660v51q113 12 148.5 41t35.5 105v1091h-409v-590q0 -43 -3 -90t-13.5 -141t-38 -172t-69.5 -156t-113.5 -123t-166.5 -45q-80 0 -136 29.5t-56 97.5zM1362 143q0 -72 102 -71q127 0 182.5 72.5t55.5 238.5q0 184 -78 254q-66 55 -262 55v-549z" />
<glyph unicode="&#x40a;" horiz-adv-x="2113" d="M43 0v51q106 14 140 42t34 104v991q0 76 -36 105.5t-138 39.5v51h690v-51q-106 -8 -145 -37.5t-39 -107.5v-424h493v424q0 78 -38.5 107.5t-145.5 37.5v51h684v-51q-121 -16 -150.5 -46t-29.5 -142v-381q209 -2 289 -10.5t147 -34.5q123 -47 189.5 -137t66.5 -209 q0 -178 -140 -275.5t-396 -97.5h-660v51q113 12 148.5 41t35.5 105v471h-493v-471q0 -76 36 -105t148 -41v-51h-690zM1362 143q0 -72 102 -71q127 0 182.5 72.5t55.5 238.5q0 184 -78 254q-14 12 -29.5 19.5t-44 9.5t-45 3t-66.5 0t-77 -1v-525z" />
<glyph unicode="&#x40b;" horiz-adv-x="1908" d="M63 973l7 411h1228l5 -411h-60q-27 182 -116 261t-277 85v-526q33 45 117 73.5t176 28.5q532 0 532 -254v-444q0 -76 36 -106t138 -40v-51h-690v51q106 8 145 38t39 108v448q0 139 -237 139q-182 0 -256 -108v-436q0 -117 34 -148t167 -41v-51h-732v51q131 10 165 42 t34 147v1079q-190 -6 -279 -85t-116 -261h-60z" />
<glyph unicode="&#x40c;" horiz-adv-x="1593" d="M61 0v51q111 12 145 40t34 106v991q0 80 -36 109.5t-143 35.5v51h693v-51q-113 -8 -148 -44t-35 -144v-385l76 2q76 2 171 128t116 294q10 80 86 150.5t176 68.5q86 -2 139.5 -37t53.5 -104q0 -59 -24 -90t-91 -33q-86 -2 -125 26.5t-76 28.5q-25 0 -45 -88t-65 -208 t-127 -177q57 -6 127.5 -41t111.5 -94l324 -492q35 -41 100 -43v-51h-405l-328 520q-37 57 -69.5 94t-69.5 37h-56v-454q0 -76 35 -103.5t146 -42.5v-51h-691zM537 1487l280 321q51 57 109 58q45 0 71.5 -24.5t26.5 -65.5q0 -35 -16.5 -56.5t-65.5 -52.5l-291 -180h-114z " />
<glyph unicode="&#x40d;" horiz-adv-x="1593" d="M43 0v51q106 14 140 42t34 104v991q0 76 -36 105.5t-138 39.5v51h690v-51q-106 -8 -145 -37.5t-39 -107.5v-690l493 573v117q0 78 -38.5 107.5t-145.5 37.5v51h696v-51q-104 -8 -142 -38.5t-38 -106.5v-991q0 -76 35 -103.5t145 -42.5v-51h-696v51q113 12 148.5 41 t35.5 105v737l-493 -574v-163q0 -76 36 -105t148 -41v-51h-690zM555 1774q0 39 27.5 65.5t68.5 26.5q59 0 111 -58l280 -321h-114l-291 180q-82 52 -82 107z" />
<glyph unicode="&#x40e;" horiz-adv-x="1478" d="M31 1333v51h655v-51q-57 -4 -63 -4q-55 -2 -77 -16.5t-22 -46.5l285 -674l221 436q39 70 55.5 118t14.5 67.5t0 43.5q0 37 -26.5 52.5t-88.5 19.5q-2 0 -8 1t-16.5 2t-16.5 1v51h518v-51q-111 -10 -165 -66.5t-150 -244.5l-479 -952q-25 -49 -102 -74t-173 -25 q-121 0 -169 34t-48 101q0 59 38 99.5t95 40.5q61 0 91 -24.5t32 -53.5t13.5 -52.5t39.5 -23.5q35 2 82 63.5t35 94.5l-407 964q-29 70 -65 91.5t-99 27.5zM436 1821h90q16 -94 68.5 -136.5t150.5 -42.5q94 0 144.5 41t77.5 138h90q-16 -139 -62 -209q-80 -125 -250 -125 q-168 0 -245 112q-56 75 -64 222z" />
<glyph unicode="&#x40f;" horiz-adv-x="1593" d="M43 0v51q104 8 142 39t38 107v991q0 76 -34.5 103.5t-145.5 41.5v51h696v-51q-113 -12 -148.5 -40.5t-35.5 -104.5v-1092h494v1092q0 76 -36 104.5t-149 40.5v51h690v-51q-106 -14 -140 -41.5t-34 -103.5v-991q0 -76 36 -106t138 -40v-51h-571q-33 -86 -51 -276l-19 -191 h-217l-20 191q-18 190 -58 276h-575z" />
<glyph unicode="&#x410;" horiz-adv-x="1478" d="M18 0v51q74 14 108 55t93 185l455 1122h57l457 -1077q76 -180 115.5 -232.5t99.5 -52.5h8v-51h-663v51q43 6 65 6q98 6 98 67.5t-94 278.5h-461l-30 -79q-59 -154 -60 -189q0 -39 39 -58.5t129 -25.5v-51h-416zM387 483h399l-206 498z" />
<glyph unicode="&#x411;" horiz-adv-x="1366" d="M33 0v51q113 12 146.5 40t33.5 106v991q0 78 -37 108.5t-143 36.5v51h1161v-411h-49q-37 168 -96 235q-94 106 -373 107q-78 0 -106.5 -19.5t-28.5 -76.5v-373q104 25 233 24q246 2 370 -100t124 -334q0 -436 -576 -436h-659zM541 190q0 -68 28.5 -96t96.5 -28 q121 0 185 94t64 248q0 170 -85 274t-228 102q-37 0 -61 -18v-576z" />
<glyph unicode="&#x412;" horiz-adv-x="1366" d="M33 0v51q113 12 146.5 40t33.5 106v991q0 78 -37 108.5t-143 36.5v51h633q256 0 394 -85t138 -242q0 -117 -73.5 -187.5t-252.5 -121.5q188 -41 285 -123q111 -98 111 -240q0 -174 -158 -279.5t-418 -105.5h-659zM541 190q0 -68 28.5 -96t96.5 -28q250 0 249 301 q0 336 -313 335h-61v-512zM541 764q188 4 253.5 60.5t65.5 217.5q0 145 -51 213t-158 68q-59 0 -84.5 -22.5t-25.5 -77.5v-459z" />
<glyph unicode="&#x413;" horiz-adv-x="1210" d="M33 0v51q115 12 147.5 39t32.5 107v991q0 80 -37 109.5t-143 35.5v51h1120v-411h-49q-37 168 -96 235q-49 57 -123 82t-209 25q-74 0 -102.5 -30t-28.5 -91v-997q0 -84 42 -112t183 -34v-51h-737z" />
<glyph unicode="&#x414;" horiz-adv-x="1593" d="M43 70q96 0 162.5 8t118.5 57q152 150 151 608v445q0 76 -36 105.5t-138 39.5v51h1253v-51q-104 -8 -142 -38.5t-38 -106.5v-973q0 -76 38 -106.5t142 -38.5v-480h-49l-20 95q-10 47 -21.5 86t-25 71.5t-29.5 51.5q-94 106 -373 106h-475q-279 0 -373 -106 q-16 -18 -29.5 -51t-24.5 -72t-21 -86l-21 -95h-49v480zM533.5 125q-3.5 -16 6 -22.5t29.5 -6.5h289q102 -2 143 33t41 113v1046h-389v-590q0 -311 -96 -510q-14 -29 -17 -38t-6.5 -25z" />
<glyph unicode="&#x415;" horiz-adv-x="1366" d="M33 0v51q115 12 147.5 39t32.5 107v991q0 78 -37 108.5t-143 36.5v51h1181v-411h-51q-39 205 -137 273.5t-348 68.5q-80 0 -106.5 -19.5t-26.5 -76.5v-476q166 -2 237.5 63.5t94.5 242.5h53v-693h-53q-18 178 -91 248t-241 70v-496q0 -66 35.5 -90.5t134.5 -24.5 q227 0 362 109q55 45 93 98.5t85 155.5h58l-82 -426h-1198z" />
<glyph unicode="&#x416;" horiz-adv-x="2267" d="M72 0v51q66 2 100 43l324 492q41 59 111.5 94t127.5 41q-82 57 -127 177t-65.5 208t-44.5 88q-37 0 -76 -28.5t-125 -26.5q-68 2 -91.5 32.5t-23.5 90.5q0 70 53.5 104.5t139.5 36.5q100 2 176 -68.5t86 -150.5q23 -170 111 -294t161 -128l60 -2v381q0 109 -36 147.5 t-142 44.5v51h692v-51q-113 -8 -148 -44t-35 -144v-385l60 2q74 4 162 128t110 294q10 80 86 150.5t176 68.5q86 -2 139.5 -37t53.5 -104q0 -59 -23.5 -90t-91.5 -33q-86 -2 -125 26.5t-75 28.5q-25 0 -45.5 -88t-65.5 -208t-127 -177q57 -6 128 -41t112 -94l323 -492 q35 -41 101 -43v-51h-406l-322 520q-37 57 -65.5 94t-65.5 37h-39v-454q0 -76 35 -103.5t146 -42.5v-51h-690v51q111 12 144.5 40t33.5 106v454h-39q-37 0 -65.5 -36.5t-65.5 -94.5l-322 -520h-405z" />
<glyph unicode="&#x417;" horiz-adv-x="1155" d="M29 276l77 68q154 -231 361 -231q297 0 297 258q0 295 -307 295h-119v118h125q158 0 208 65.5t50 207.5q0 111 -64.5 184.5t-181.5 73.5q-135 0 -205.5 -86t-109.5 -256h-76v436h68q23 -61 71 -61q29 0 96 22q135 45 213 45q215 0 366 -106.5t153 -288.5 q2 -225 -185 -287q252 -72 252 -362q0 -125 -48 -210t-138 -127t-187.5 -57.5t-226.5 -15.5q-90 0 -164.5 21.5t-122 49t-90.5 77t-63 81t-49 86.5z" />
<glyph unicode="&#x418;" horiz-adv-x="1583" d="M33 0v51q106 14 140 42t34 104v991q0 76 -36 105.5t-138 39.5v51h690v-51q-106 -8 -145 -37.5t-39 -107.5v-690l493 573v117q0 78 -39 107.5t-145 37.5v51h696v-51q-104 -8 -142 -38.5t-38 -106.5v-991q0 -76 35 -103.5t145 -42.5v-51h-696v51q113 12 148.5 41t35.5 105 v737l-493 -574v-163q0 -76 35.5 -105t148.5 -41v-51h-690z" />
<glyph unicode="&#x419;" horiz-adv-x="1583" d="M33 0v51q106 14 140 42t34 104v991q0 76 -36 105.5t-138 39.5v51h690v-51q-106 -8 -145 -37.5t-39 -107.5v-690l493 573v117q0 78 -39 107.5t-145 37.5v51h696v-51q-104 -8 -142 -38.5t-38 -106.5v-991q0 -76 35 -103.5t145 -42.5v-51h-696v51q113 12 148.5 41t35.5 105 v737l-493 -574v-163q0 -76 35.5 -105t148.5 -41v-51h-690zM477 1821h90q16 -94 68.5 -136.5t150.5 -42.5q94 0 144.5 41t77.5 138h90q-16 -139 -62 -209q-80 -125 -250 -125q-168 0 -245 112q-56 75 -64 222z" />
<glyph unicode="&#x41a;" horiz-adv-x="1564" d="M33 0v51q111 12 144.5 40t33.5 106v991q0 80 -36 109.5t-142 35.5v51h692v-51q-113 -8 -147.5 -44t-34.5 -144v-385l75 2q76 2 171.5 128t115.5 294q10 80 86 150.5t176 68.5q86 -2 139.5 -37t53.5 -104q0 -59 -23.5 -90t-91.5 -33q-86 -2 -125 26.5t-76 28.5 q-25 0 -45 -88t-65 -208t-127 -177q57 -6 128 -41t112 -94l323 -492q35 -41 100 -43v-51h-405l-328 520q-37 57 -69.5 94t-69.5 37h-55v-454q0 -76 34.5 -103.5t145.5 -42.5v-51h-690z" />
<glyph unicode="&#x41b;" horiz-adv-x="1593" d="M37 98q0 59 36 101.5t91 42.5q35 0 57.5 -16.5t32.5 -37t27.5 -37t42.5 -16.5q86 0 118.5 131t32.5 432v490q0 76 -36 105.5t-138 39.5v51h1223v-51q-104 -8 -142.5 -38.5t-38.5 -106.5v-991q0 -76 35 -103.5t146 -42.5v-51h-697v51q113 12 149 41t36 105v1091h-359v-670 q0 -111 -6 -188.5t-30.5 -170.5t-67.5 -150.5t-125 -97.5t-195 -40q-80 0 -136 29.5t-56 97.5z" />
<glyph unicode="&#x41c;" horiz-adv-x="1931" d="M33 0v51q119 12 152.5 42t33.5 122v973q0 80 -34.5 108.5t-147.5 36.5v51h518l410 -966l409 966h516v-51q-113 -8 -146.5 -43t-33.5 -145v-905q0 -109 31 -141.5t149 -47.5v-51h-680v51q115 10 149 39t34 115v1042l-516 -1247h-56l-516 1217v-963q0 -115 41 -155t166 -48 v-51h-479z" />
<glyph unicode="&#x41d;" horiz-adv-x="1585" d="M33 0v51q106 14 140 42t34 104v991q0 76 -36 105.5t-138 39.5v51h690v-51q-106 -8 -145 -37.5t-39 -107.5v-424h493v424q0 78 -39 107.5t-145 37.5v51h696v-51q-104 -8 -142 -38.5t-38 -106.5v-991q0 -76 35 -103.5t145 -42.5v-51h-696v51q113 12 148.5 41t35.5 105v471 h-493v-471q0 -76 35.5 -105t148.5 -41v-51h-690z" />
<glyph unicode="&#x41e;" horiz-adv-x="1593" d="M72 686q0 319 205.5 524t527.5 205q309 0 513 -207t204 -520q0 -317 -204 -522t-521.5 -205t-521 204t-203.5 521zM434 668q0 -311 93.5 -475t269.5 -164t269 164.5t93 480.5q0 319 -93 496.5t-263 177.5q-180 0 -274.5 -174t-94.5 -506z" />
<glyph unicode="&#x41f;" horiz-adv-x="1585" d="M33 0v51q106 14 140 42t34 104v991q0 76 -36 105.5t-138 39.5v51h1511v-51q-104 -8 -142 -38.5t-38 -106.5v-991q0 -76 35 -103.5t145 -42.5v-51h-696v51q113 12 148.5 41t35.5 105v1091h-493v-1091q0 -76 35.5 -105t148.5 -41v-51h-690z" />
<glyph unicode="&#x420;" horiz-adv-x="1251" d="M33 0v51q45 8 49 8q72 8 97.5 46t25.5 135v905q0 109 -33 144.5t-139 43.5v51h659q256 0 396.5 -97t140.5 -275q0 -119 -66.5 -209t-189.5 -137q-68 -27 -148 -35t-288 -10v-381q0 -113 29.5 -142.5t150.5 -46.5v-51h-684zM537 692q197 0 262 56q78 70 78 253 q0 166 -55.5 239t-182.5 73q-102 0 -102 -72v-549z" />
<glyph unicode="&#x421;" horiz-adv-x="1478" d="M100 682q0 313 204 523t509 210q141 0 317 -72q63 -29 95 -28q29 0 49 20.5t41 73.5h55v-479h-51q-53 117 -96 180.5t-111 122.5q-129 115 -272 115q-184 0 -280.5 -166t-96.5 -484q0 -299 88 -460q45 -80 134 -129.5t189 -49.5q96 0 185 37q76 29 136 75t151 140l61 -51 q-117 -129 -203 -188q-164 -111 -379 -111q-317 0 -521 203t-204 518z" />
<glyph unicode="&#x422;" horiz-adv-x="1366" d="M63 973l7 411h1228l5 -411h-60q-27 182 -116 261t-277 85v-1079q0 -117 34 -148t167 -41v-51h-732v51q131 10 165 42t34 147v1079q-190 -6 -279 -85t-116 -261h-60z" />
<glyph unicode="&#x423;" horiz-adv-x="1478" d="M31 1333v51h655v-51q-57 -4 -63 -4q-55 -2 -77 -16.5t-22 -46.5l285 -674l221 436q39 70 55.5 118t14.5 67.5t0 43.5q0 37 -26.5 52.5t-88.5 19.5q-2 0 -8 1t-16.5 2t-16.5 1v51h518v-51q-111 -10 -165 -66.5t-150 -244.5l-479 -952q-25 -49 -102 -74t-173 -25 q-121 0 -169 34t-48 101q0 59 38 99.5t95 40.5q61 0 91 -24.5t32 -53.5t13.5 -52.5t39.5 -23.5q35 2 82 63.5t35 94.5l-407 964q-29 70 -65 91.5t-99 27.5z" />
<glyph unicode="&#x424;" horiz-adv-x="1638" d="M25 711q0 109 39.5 193.5t105.5 135t136.5 85t147 49t122 19.5t75.5 5q0 74 -41 102.5t-153 32.5v51h717v-51q-113 -4 -154 -32.5t-41 -102.5q31 0 76 -5t121.5 -19.5t147.5 -49t136.5 -85t105.5 -135.5t40 -193q0 -129 -44 -227.5t-111 -153t-156 -89t-163.5 -45 t-152.5 -10.5q0 -72 39 -99.5t156 -35.5v-51h-717v51q117 8 155.5 36t38.5 99q-78 0 -152.5 10.5t-163.5 45t-155.5 89t-110.5 153t-44 227.5zM315 694q0 -102 23.5 -178t58.5 -117t83 -65.5t88 -30.5t83 -6v772q-43 0 -92 -15.5t-107.5 -52t-97.5 -116.5t-39 -191zM979 297 q43 0 83 6t88 30.5t83 65.5t58.5 117t23.5 178q0 111 -39 191t-97.5 116.5t-107.5 52t-92 15.5v-772z" />
<glyph unicode="&#x425;" horiz-adv-x="1478" d="M33 0v51q76 8 121 33t92 82l358 452l-405 596q-47 70 -78 92.5t-86 26.5v51h708v-51q-57 -4 -63 -4q-55 -2 -76.5 -16.5t-21.5 -46.5q0 -29 30 -76l199 -307l115 157q119 162 118 217q0 37 -22.5 53.5t-83.5 18.5q-2 0 -8 1t-16.5 2t-16.5 1v51h512v-51 q-115 -10 -182.5 -63t-202.5 -236l-164 -227l373 -580q74 -111 109.5 -142.5t89.5 -33.5v-51h-697v51q53 4 58 4q106 6 106 58q0 43 -43 110l-207 332l-78 -104q-115 -156 -153.5 -219.5t-38.5 -96.5q0 -39 36 -56.5t130 -27.5v-51h-512z" />
<glyph unicode="&#x426;" horiz-adv-x="1583" d="M33 0v51q102 10 138 40t36 106v991q0 76 -34 103.5t-140 41.5v51h690v-51q-113 -12 -148.5 -40.5t-35.5 -104.5v-1092h493v1092q0 76 -35.5 104.5t-148.5 40.5v51h696v-51q-111 -14 -145.5 -41.5t-34.5 -103.5v-973q0 -76 38 -106.5t142 -38.5v-480h-49l-20 95 q-10 47 -21.5 86t-25 71.5t-29.5 51.5q-94 106 -373 106h-993z" />
<glyph unicode="&#x427;" horiz-adv-x="1593" d="M43 1333v51h690v-51q-106 -8 -145 -37.5t-39 -107.5v-477q0 -66 67.5 -103t169.5 -37q74 0 150 36t106 73v508q0 78 -38.5 107.5t-145.5 37.5v51h696v-51q-104 -8 -142 -38.5t-38 -106.5v-991q0 -76 35 -103.5t145 -42.5v-51h-696v51q113 12 148.5 41t35.5 105v366 q-43 -37 -125.5 -69.5t-166.5 -32.5q-115 0 -236 30.5t-209 91t-88 132.5v473q0 76 -36 105.5t-138 39.5z" />
<glyph unicode="&#x428;" horiz-adv-x="2279" d="M33 0v51q102 10 138 40t36 106v991q0 76 -34 103.5t-140 41.5v51h690v-51q-113 -12 -148.5 -40.5t-35.5 -104.5v-1092h430v1092q0 76 -36 104.5t-149 40.5v51h697v-51q-111 -14 -146 -41.5t-35 -103.5v-1092h426v1092q0 76 -35.5 104.5t-148.5 40.5v51h696v-51 q-111 -14 -145.5 -41.5t-34.5 -103.5v-991q0 -76 38 -107t142 -39v-51h-2205z" />
<glyph unicode="&#x429;" horiz-adv-x="2277" d="M33 0v51q102 10 138 40t36 106v991q0 76 -34 103.5t-140 41.5v51h690v-51q-113 -12 -148.5 -40.5t-35.5 -104.5v-1092h430v1092q0 76 -36 104.5t-149 40.5v51h697v-51q-111 -14 -146 -41.5t-35 -103.5v-1092h426v1092q0 76 -35.5 104.5t-148.5 40.5v51h696v-51 q-111 -14 -145.5 -41.5t-34.5 -103.5v-973q0 -76 38 -106.5t142 -38.5v-480h-49l-20 95q-10 47 -21.5 86t-25 71.5t-29.5 51.5q-94 106 -373 106h-1687z" />
<glyph unicode="&#x42a;" horiz-adv-x="1775" d="M174 973l6 411h961v-51q-121 -16 -150.5 -46t-29.5 -142v-340q209 -2 288.5 -10.5t147.5 -34.5q121 -47 188.5 -146.5t67.5 -220.5q0 -180 -141.5 -286.5t-395.5 -106.5h-659v51q106 8 139 44t33 145v1079q-190 -6 -279.5 -85t-116.5 -261h-59zM961 143q0 -72 102 -71 q125 0 181 80.5t56 250.5q0 86 -20 146.5t-47 91.5t-79 46t-89 18.5t-104 3.5v-566z" />
<glyph unicode="&#x42b;" horiz-adv-x="1986" d="M33 0v51q106 8 139 44t33 145v905q0 96 -25.5 134t-97.5 46q-4 0 -49 8v51h684v-51q-121 -16 -150.5 -46t-29.5 -142v-340q209 -2 288.5 -10.5t147.5 -34.5q121 -47 188.5 -146.5t67.5 -220.5q0 -180 -141.5 -286.5t-395.5 -106.5h-659zM537 143q0 -72 102 -71 q125 0 181.5 80.5t56.5 250.5q0 86 -20.5 146.5t-47.5 91.5t-79 46t-89 18.5t-104 3.5v-566zM1229 0v51q115 10 152.5 39t37.5 107v991q0 78 -40 107.5t-150 37.5v51h717v-51q-113 -4 -154 -34.5t-41 -110.5v-991q0 -80 39 -109t156 -37v-51h-717z" />
<glyph unicode="&#x42c;" horiz-adv-x="1290" d="M33 0v51q106 8 139 44t33 145v905q0 96 -25.5 134t-97.5 46q-4 0 -49 8v51h684v-51q-121 -16 -150.5 -46t-29.5 -142v-340q209 -2 288.5 -10.5t147.5 -34.5q121 -47 188.5 -146.5t67.5 -220.5q0 -180 -141.5 -286.5t-395.5 -106.5h-659zM537 143q0 -72 102 -71 q125 0 181.5 80.5t56.5 250.5q0 86 -20.5 146.5t-47.5 91.5t-79 46t-89 18.5t-104 3.5v-566z" />
<glyph unicode="&#x42d;" horiz-adv-x="1478" d="M100 260l62 51q90 -94 150.5 -140t136.5 -75q88 -37 184 -37q100 0 189 49.5t134 129.5q88 156 91 430h-517v96h514q-8 285 -104 434.5t-272 149.5q-143 0 -273 -115q-68 -59 -110.5 -122.5t-96.5 -180.5h-51v479h56q20 -53 40.5 -73.5t49.5 -20.5q31 0 94 28 q176 72 317 72q305 0 509 -210t204 -523q0 -315 -204 -518t-521 -203q-215 0 -379 111q-86 59 -203 188z" />
<glyph unicode="&#x42e;" horiz-adv-x="2281" d="M33 0v51q106 14 140 42t34 104v991q0 76 -36 105.5t-138 39.5v51h690v-51q-106 -8 -145 -37.5t-39 -107.5v-424h200q29 287 230.5 469t498.5 182q309 0 513 -207t204 -520q0 -317 -203.5 -522t-521.5 -205q-313 0 -516 197.5t-209 509.5h-196v-471q0 -76 35.5 -105 t148.5 -41v-51h-690zM1098 668q0 -311 93 -475t269 -164t269.5 164.5t93.5 480.5q0 319 -93.5 496.5t-263.5 177.5q-180 0 -274 -174t-94 -506z" />
<glyph unicode="&#x42f;" horiz-adv-x="1505" d="M53 0v51q53 0 84 39l412 584q-154 49 -230 117q-92 86 -92 229q0 176 148.5 270t429.5 94h659v-51q-113 -8 -146.5 -43t-33.5 -145v-905q0 -113 29.5 -143.5t150.5 -45.5v-51h-692v51q119 14 149.5 47t30.5 142v401h-55l-424 -641h-420zM578 1012q0 -190 96 -254 q74 -49 278 -51v522q0 27 -14 55q-18 31 -96 31q-141 0 -202.5 -70.5t-61.5 -232.5z" />
<glyph unicode="&#x430;" d="M51 188q0 127 131 220q104 70 420 165v150q0 94 -41 137t-131 43q-53 0 -91 -21.5t-38 -54.5q0 -18 25 -45q37 -49 36 -88q0 -53 -38.5 -86t-100.5 -33q-63 0 -98 36t-35 100q0 115 106.5 186.5t280.5 71.5q186 0 296 -76t110 -205v-534q0 -51 43 -52q14 0 22 9l21 20 l30 -43q-109 -117 -229 -117q-76 0 -114 33t-54 111q-158 -143 -323 -144q-98 0 -163 61.5t-65 155.5zM350 254q0 -61 29 -99t76 -38q70 0 145 88v297q-250 -66 -250 -248z" />
<glyph unicode="&#x431;" d="M59 606q0 63 3.5 128t23.5 183.5t56 207.5t111 164t177 87l369 2q33 0 61 19l29 16h45q-12 -94 -83 -152.5t-151 -58.5h-303q-41 0 -73.5 -20.5t-52 -48t-38 -76.5t-26.5 -83l-20.5 -89.5t-18.5 -77.5q135 162 346 162q199 0 330 -142.5t131 -357.5q0 -213 -131 -355.5 t-330 -142.5q-217 0 -337 146.5t-118 488.5zM352 438q0 -225 36 -314t126 -89t125 93t35 329q0 252 -35 350t-123 98q-94 0 -129 -98.5t-35 -368.5z" />
<glyph unicode="&#x432;" horiz-adv-x="1028" d="M43 0v51q70 6 89.5 36t19.5 93v572q0 35 -2.5 53t-10.5 41.5t-28.5 34t-55.5 12.5v51h486q176 0 269 -58.5t93 -166.5q0 -172 -223 -211q270 -33 270 -246q0 -143 -100 -202.5t-293 -59.5h-514zM436 168q0 -84 105 -84q82 0 117.5 44t37.5 130q2 104 -44 148.5t-156 52.5 l-60 4v-295zM436 541q109 0 165 33.5t56 136.5q0 152 -127 151q-33 0 -53 -9t-28.5 -30.5t-10.5 -38t-2 -47.5v-196z" />
<glyph unicode="&#x433;" horiz-adv-x="907" d="M43 0v49q70 14 89.5 37t19.5 86v606q0 57 -23 84t-74 33v49h781l14 -291h-53q-29 109 -55.5 149t-91 58.5t-214.5 18.5v-713q0 -57 21.5 -83t79.5 -34v-49h-494z" />
<glyph unicode="&#x434;" horiz-adv-x="1138" d="M35 -291l14 357q117 14 172 47q51 33 74.5 109.5t20.5 144t-1 118.5v293q0 57 -22.5 84t-73.5 33v49h885v-49q-59 -4 -79.5 -27.5t-20.5 -89.5v-596q0 -57 22.5 -83.5t73.5 -32.5l14 -357h-53q-16 66 -32.5 107t-44.5 79.5t-67.5 59t-100 33t-146.5 12.5h-191 q-86 0 -146.5 -12.5t-100 -33t-67.5 -59t-44.5 -79.5t-32.5 -107h-53zM418 89q8 -7 39 -7h166q96 0 96 117v663h-262v-440q0 -182 -37 -281q-10 -45 -2 -52z" />
<glyph unicode="&#x435;" horiz-adv-x="909" d="M51 467q0 225 118 363.5t310 138.5q172 0 275 -121q92 -109 108 -346h-516q10 -184 62 -275q66 -109 182 -108q66 0 119 30.5t114 106.5l49 -29q-100 -143 -187 -199.5t-212 -56.5q-190 0 -306 136.5t-116 359.5zM336 578h274v30q-6 154 -18 201q-25 96 -113 96 q-76 0 -107.5 -71.5t-35.5 -255.5z" />
<glyph unicode="&#x436;" horiz-adv-x="1536" d="M25 0v49q41 0 59 31l203 330q51 84 155 88q-47 25 -73.5 103.5t-45 144t-49.5 65.5q-20 0 -42.5 -30.5t-69.5 -30.5q-41 0 -67.5 25.5t-28.5 64.5q-2 63 29.5 93t113.5 30q55 0 97 -25t64.5 -63.5t33 -66.5t16.5 -54q16 -80 58 -149.5t102 -69.5h43v237q0 115 -99 123v49 h490v-49q-72 -10 -89.5 -30.5t-17.5 -92.5v-237h43q59 0 101.5 69.5t58.5 149.5q6 27 16.5 54.5t33 66t64.5 63.5t97 25q82 0 113.5 -30t29.5 -93q-2 -39 -28.5 -64.5t-67.5 -25.5q-47 0 -69.5 30.5t-43.5 30.5q-31 0 -49 -65.5t-44.5 -144.5t-74.5 -103q104 -4 156 -88 l203 -330q18 -31 59 -31v-49h-297l-202 344l-13 25q-12 23 -31.5 46t-33.5 23h-21v-266q0 -72 17.5 -92.5t89.5 -30.5v-49h-490v49q98 8 99 123v266h-21q-14 0 -33.5 -23.5t-31.5 -45.5l-13 -25l-202 -344h-297z" />
<glyph unicode="&#x437;" horiz-adv-x="835" d="M31 186l53 45q104 -158 246 -157q203 0 202 176q0 201 -208 201h-82v81h86q106 0 141 47.5t35 145.5q0 74 -44 125t-124 51q-92 0 -140.5 -59.5t-74.5 -173.5h-51v297h45q16 -41 49 -41q20 0 65 14q92 31 146 31q147 0 254.5 -73t107.5 -196q0 -168 -114 -202 q162 -43 161 -248q0 -147 -119.5 -213t-299.5 -66q-61 0 -112.5 14.5t-83.5 33t-61.5 52t-43 55t-33.5 60.5z" />
<glyph unicode="&#x438;" horiz-adv-x="1138" d="M43 0v49q70 14 89.5 37t19.5 86v606q0 57 -23 84t-74 33v49h482v-49q-59 -4 -80 -27.5t-21 -89.5v-379l287 289v90q0 66 -20.5 89.5t-79.5 27.5v49h481v-49q-59 -4 -79.5 -27.5t-20.5 -89.5v-612q0 -66 20 -89.5t80 -27.5v-49h-481v49q51 6 73.5 33t22.5 84l4 401 l-287 -288v-113q0 -57 21.5 -83t79.5 -34v-49h-494z" />
<glyph unicode="&#x439;" horiz-adv-x="1138" d="M43 0v49q70 14 89.5 37t19.5 86v606q0 57 -23 84t-74 33v49h482v-49q-59 -4 -80 -27.5t-21 -89.5v-379l287 289v90q0 66 -20.5 89.5t-79.5 27.5v49h481v-49q-59 -4 -79.5 -27.5t-20.5 -89.5v-612q0 -66 20 -89.5t80 -27.5v-49h-481v49q51 6 73.5 33t22.5 84l4 401 l-287 -288v-113q0 -57 21.5 -83t79.5 -34v-49h-494zM262 1380h90q16 -94 68.5 -136t150.5 -42q94 0 144.5 41t77.5 137h90q-16 -139 -62 -209q-80 -125 -250 -124q-168 0 -245 112q-56 74 -64 221z" />
<glyph unicode="&#x43a;" horiz-adv-x="1093" d="M45 0v49q98 8 98 123v600q0 115 -98 123v49h490v-49q-72 -10 -89.5 -30.5t-17.5 -92.5v-237h43q74 0 119 69.5t61 149.5q6 27 16.5 54.5t33 66t64.5 63.5t97 25q82 0 114 -30t30 -93q-2 -39 -29 -64.5t-68 -25.5q-47 0 -69.5 30.5t-42.5 30.5q-31 0 -54.5 -65.5 t-55.5 -144.5t-79 -103q49 -2 100.5 -24.5t75.5 -63.5l209 -330q18 -31 60 -31v-49h-303l-209 344l-37 47q-35 47 -55 47h-21v-266q0 -72 17.5 -92.5t89.5 -30.5v-49h-490z" />
<glyph unicode="&#x43b;" horiz-adv-x="1114" d="M14 70q0 41 23.5 69.5t62.5 28.5q31 0 64 -27.5t57 -27.5q37 0 60.5 44t27.5 104.5t6 120.5t0 93v303q0 57 -22.5 84t-73.5 33v49h844v-49q-59 -4 -79.5 -27.5t-20.5 -89.5v-612q0 -66 20.5 -89.5t79.5 -27.5v-49h-481v49q51 6 73.5 33t22.5 84v696h-221v-334 q0 -115 -5.5 -187.5t-21.5 -148t-49 -117.5t-88 -68.5t-137 -26.5q-142 0 -142 90z" />
<glyph unicode="&#x43c;" horiz-adv-x="1384" d="M43 0v49q70 14 89.5 37t19.5 86v606q0 57 -23 84t-74 33v49h422l223 -582l230 582h401v-49q-59 -4 -79.5 -27.5t-20.5 -89.5v-612q0 -66 20.5 -89.5t79.5 -27.5v-49h-483v49q53 6 76.5 34t23.5 83v616l-327 -811h-54l-338 846v-651q0 -57 21.5 -83t79.5 -34v-49h-287z " />
<glyph unicode="&#x43d;" horiz-adv-x="1138" d="M43 0v49q70 14 89.5 37t19.5 86v606q0 57 -23 84t-74 33v49h482v-49q-59 -4 -80 -27.5t-21 -89.5v-254h287v254q0 66 -20.5 89.5t-79.5 27.5v49h481v-49q-59 -4 -79.5 -27.5t-20.5 -89.5v-612q0 -66 20 -89.5t80 -27.5v-49h-481v49q63 8 81.5 36t18.5 81v276h-287v-276 q0 -57 21.5 -83t79.5 -34v-49h-494z" />
<glyph unicode="&#x43e;" d="M51 475q0 209 134 351.5t329 142.5q199 0 330 -142.5t131 -357.5q0 -213 -131 -355.5t-330 -142.5q-201 0 -332 142.5t-131 361.5zM352 438q0 -225 36 -314t126 -89t125 93t35 329q0 252 -35 350t-123 98q-94 0 -129 -98.5t-35 -368.5z" />
<glyph unicode="&#x43f;" horiz-adv-x="1138" d="M43 0v49q70 14 89.5 37t19.5 86v606q0 57 -23 84t-74 33v49h1049v-49q-59 -4 -79.5 -27.5t-20.5 -89.5v-612q0 -66 20 -89.5t80 -27.5v-49h-481v49q51 6 73.5 33t22.5 84v696h-283v-696q0 -57 21.5 -83t79.5 -34v-49h-494z" />
<glyph unicode="&#x440;" horiz-adv-x="1138" d="M39 -371q74 12 94.5 34t20.5 85v1026q0 63 -21.5 87t-89.5 34v49h391v-141q47 88 107.5 127t150.5 39q170 0 275.5 -133.5t105.5 -346.5q0 -227 -110.5 -371.5t-282.5 -144.5q-68 0 -118 26t-124 97v-289q0 -102 33 -141t127 -43v-43h-559v49zM438 211q49 -125 158 -125 q174 0 174 375q0 391 -156 391q-70 0 -133 -70q-43 -47 -43 -73v-498z" />
<glyph unicode="&#x441;" horiz-adv-x="909" d="M51 457q0 221 137.5 366.5t346.5 145.5q135 0 226 -64.5t91 -161.5q0 -59 -37 -94t-102 -35q-113 0 -115 148q0 86 -10 104q-20 39 -76 39q-80 0 -126 -91t-46 -249q0 -209 79 -332.5t212 -123.5q63 0 109 25.5t104 88.5l37 -37q-90 -115 -181.5 -165t-210.5 -50 q-190 0 -314 137.5t-124 348.5z" />
<glyph unicode="&#x442;" horiz-adv-x="1011" d="M25 653l14 291h919l15 -291h-53q-37 139 -91.5 177t-187.5 38v-702q0 -57 21.5 -83t78.5 -34v-49h-493v49q70 14 89 37t19 86v696q-137 0 -189 -36.5t-89 -178.5h-53z" />
<glyph unicode="&#x443;" d="M33 -258q0 57 36.5 94t94.5 37q53 0 86 -27.5t33 -72.5q0 -8 -4 -29l-3 -12q0 -14 10.5 -24.5t24.5 -10.5q35 0 72 46t63 122l37 108l-245 605q-27 68 -78 177t-56 109q-16 23 -71 31v49h512v-49l-33 -2q-76 -6 -76 -51q0 -16 41 -121l148 -379l139 393q23 63 22 92 q0 37 -23.5 50.5t-88.5 17.5v49h309v-49q-47 -4 -69.5 -25.5t-49.5 -87.5l-305 -813q-94 -256 -156 -321q-68 -68 -172 -68q-88 0 -143 45t-55 117z" />
<glyph unicode="&#x444;" horiz-adv-x="1689" d="M70 489q0 213 105.5 346.5t275.5 133.5q90 0 148 -38t106 -128v426q0 63 -23 86.5t-90 34.5v49h393v-596q47 88 107.5 127t150.5 39q170 0 275.5 -133.5t105.5 -346.5q0 -227 -110.5 -371.5t-282.5 -144.5q-68 0 -118 26t-124 97v-289q0 -102 33 -141t127 -43v-43h-559 v49q74 12 94.5 34t20.5 85v348q-74 -72 -124.5 -97.5t-117.5 -25.5q-172 0 -282.5 144.5t-110.5 371.5zM373 461q0 -375 174 -375q109 0 158 125v498q0 27 -43 73q-63 70 -134 70q-155 0 -155 -391zM989 211q49 -125 158 -125q174 0 174 375q0 391 -156 391q-70 0 -133 -70 q-43 -47 -43 -73v-498z" />
<glyph unicode="&#x445;" d="M25 895v49h512v-49q-96 -2 -97 -39q0 -45 119 -201q23 -31 27 -34q51 72 73 94q78 88 78 131t-63 45q-4 0 -41 4v49h344v-49q-90 -14 -143 -80l-207 -258l303 -467q16 -27 61 -41v-49h-493v49q92 6 92 41t-68 131l-86 129q-6 -8 -18 -22.5t-15 -18.5q-131 -158 -131 -211 q0 -43 103 -49v-49h-346v49q57 2 101 39t130 152q8 12 133 172l-262 403q-31 47 -49 60.5t-57 19.5z" />
<glyph unicode="&#x446;" horiz-adv-x="1138" d="M43 0v49q59 4 79.5 27.5t20.5 89.5v612q0 66 -20.5 89.5t-79.5 27.5v49h481v-49q-51 -6 -73.5 -32.5t-22.5 -84.5v-696h283v696q0 57 -21.5 83t-79.5 34v49h494v-49q-70 -14 -89.5 -36.5t-19.5 -86.5v-590q0 -57 22.5 -83.5t74.5 -32.5l14 -357h-53q-16 66 -32.5 107 t-44.5 79.5t-68 59t-100 33t-146 12.5h-619z" />
<glyph unicode="&#x447;" horiz-adv-x="1138" d="M55 895v49h482v-49q-59 -4 -80 -27.5t-21 -89.5v-319q2 -29 44 -43.5t98 -16.5q39 -2 92 27l53 29v323q0 66 -20.5 89.5t-79.5 27.5v49h481v-49q-59 -4 -79.5 -27.5t-20.5 -89.5v-612q0 -66 20 -89.5t80 -27.5v-49h-481v49q51 6 73.5 33t22.5 84l4 207q-96 -57 -272 -56 q-121 2 -210 52.5t-89 144.5v264q0 57 -23 84t-74 33z" />
<glyph unicode="&#x448;" horiz-adv-x="1675" d="M43 0v49q59 4 79.5 27.5t20.5 89.5v612q0 66 -20.5 89.5t-79.5 27.5v49h481v-49q-51 -6 -73.5 -32.5t-22.5 -84.5v-696h258v696q0 57 -21.5 83t-78.5 34v49h493v-49q-70 -14 -89 -36.5t-19 -86.5v-690h280v696q0 57 -21.5 83t-78.5 34v49h494v-49q-70 -14 -89.5 -36.5 t-19.5 -86.5v-606q0 -57 22.5 -84t73.5 -33v-49h-1589z" />
<glyph unicode="&#x449;" horiz-adv-x="1675" d="M43 0v49q59 4 79.5 27.5t20.5 89.5v612q0 66 -20.5 89.5t-79.5 27.5v49h481v-49q-51 -6 -73.5 -32.5t-22.5 -84.5v-696h258v696q0 57 -21.5 83t-78.5 34v49h493v-49q-70 -14 -89 -36.5t-19 -86.5v-690h280v696q0 57 -21.5 83t-78.5 34v49h494v-49q-70 -14 -89.5 -36.5 t-19.5 -86.5v-590q0 -57 22.5 -83.5t73.5 -32.5l15 -357h-54q-16 66 -32.5 107t-44 79.5t-67.5 59t-100.5 33t-146.5 12.5h-1159z" />
<glyph unicode="&#x44a;" horiz-adv-x="1253" d="M25 653l14 291h698v-51q-35 -2 -55 -12.5t-28.5 -34t-10.5 -42t-2 -52.5v-170h121q150 0 244 -37t127 -80q76 -66 75 -182q0 -121 -109.5 -202t-283.5 -81h-567v51q70 6 89 36t19 93v688q-137 0 -189 -36.5t-89 -178.5h-53zM641 168q0 -41 50 -62.5t108 -21.5 q152 0 155 195q4 225 -200 225h-113v-336z" />
<glyph unicode="&#x44b;" horiz-adv-x="1560" d="M43 0v51q70 6 89.5 36t19.5 93v572q0 35 -2.5 53t-10.5 41.5t-28.5 34t-55.5 12.5v51h477v-51q-35 -2 -55 -12.5t-28.5 -34t-10.5 -42t-2 -52.5v-170h121q150 0 244 -37t127 -80q76 -66 76 -182q0 -121 -110 -202t-284 -81h-567zM436 168q0 -41 50.5 -62.5t107.5 -21.5 q152 0 156 195q4 225 -201 225h-113v-336zM1032 0v49q51 6 73.5 33t22.5 84l5 612q0 66 -20.5 89.5t-80.5 27.5v49h481v-49q-59 -4 -79.5 -27.5t-20.5 -89.5v-612q0 -66 20.5 -89.5t79.5 -27.5v-49h-481z" />
<glyph unicode="&#x44c;" horiz-adv-x="1048" d="M43 0v51q70 6 89.5 36t19.5 93v572q0 35 -2.5 53t-10.5 41.5t-28.5 34t-55.5 12.5v51h477v-51q-35 -2 -55 -12.5t-28.5 -34t-10.5 -42t-2 -52.5v-170h121q150 0 244 -37t127 -80q76 -66 76 -182q0 -121 -110 -202t-284 -81h-567zM436 168q0 -41 50.5 -62.5t107.5 -21.5 q152 0 156 195q4 225 -201 225h-113v-336z" />
<glyph unicode="&#x44d;" horiz-adv-x="909" d="M59 186l37 37q63 -72 155.5 -130t166.5 -58q27 0 49 9t37.5 25.5t27 40t17.5 51t11 59.5t7 66l4 68q2 35 2 68h-268v82h268q-4 217 -36.5 309t-118.5 92q-45 0 -66 -39q-10 -18 -10 -104q-2 -147 -115 -148q-66 0 -102.5 35t-36.5 94q0 90 103.5 158t216.5 68 q205 0 335.5 -142.5t130.5 -367.5q0 -190 -125.5 -339t-336.5 -149q-113 0 -186 47t-167 168z" />
<glyph unicode="&#x44e;" horiz-adv-x="1617" d="M59 0v49q70 14 89.5 37t19.5 86v606q0 57 -22.5 84t-73.5 33v49h481v-49q-59 -4 -79.5 -27.5t-20.5 -89.5v-254h168q16 190 147 317.5t313 127.5q199 0 330 -142.5t131 -357.5q0 -213 -131 -355.5t-330 -142.5q-193 0 -322.5 132.5t-140.5 338.5h-165v-276 q0 -57 21.5 -83t78.5 -34v-49h-494zM920 438q0 -225 35.5 -314t125.5 -89t125 93t35 329q0 252 -35 350t-123 98q-94 0 -128.5 -98.5t-34.5 -368.5z" />
<glyph unicode="&#x44f;" horiz-adv-x="1048" d="M25 0v49q43 0 59 31l201 348q-215 57 -215 254q0 121 95 191.5t271 70.5h568v-51q-70 -6 -89.5 -36t-19.5 -93v-571q0 -35 2 -53.5t10 -42t28.5 -34t55.5 -12.5v-51h-477v51q35 2 55.5 12.5t28.5 34t10 42t2 53.5v210h-53l-235 -403h-297zM307 686q-2 -106 41 -155.5 t150 -49.5h112v295q0 43 -40 63.5t-93 20.5q-166 0 -170 -174z" />
<glyph unicode="&#x450;" horiz-adv-x="909" d="M51 467q0 225 118 363.5t310 138.5q172 0 275 -121q92 -109 108 -346h-516q10 -184 62 -275q66 -109 182 -108q66 0 119 30.5t114 106.5l49 -29q-100 -143 -187 -199.5t-212 -56.5q-190 0 -306 136.5t-116 359.5zM219 1333q0 39 27.5 65.5t68.5 26.5q59 0 111 -57 l281 -321h-115l-291 180q-82 51 -82 106zM336 578h274v30q-6 154 -18 201q-25 96 -113 96q-76 0 -107.5 -71.5t-35.5 -255.5z" />
<glyph unicode="&#x451;" horiz-adv-x="909" d="M51 467q0 225 118 363.5t310 138.5q172 0 275 -121q92 -109 108 -346h-516q10 -184 62 -275q66 -109 182 -108q66 0 119 30.5t114 106.5l49 -29q-100 -143 -187 -199.5t-212 -56.5q-190 0 -306 136.5t-116 359.5zM115 1179.5q0 53.5 39 92.5t92 39t93 -40t40 -95 q0 -53 -39 -91t-94 -38q-53 0 -92 39.5t-39 93zM336 578h274v30q-6 154 -18 201q-25 96 -113 96q-76 0 -107.5 -71.5t-35.5 -255.5zM545 1182q0 51 39 90t90 39q55 0 95 -40t40 -95q0 -53 -39 -91t-96 -38q-53 0 -91 39t-38 96z" />
<glyph unicode="&#x452;" horiz-adv-x="1138" d="M27 1034v148h114v35q0 63 -19.5 83.5t-88.5 34.5v49h393v-202h276v-148h-276v-225q45 72 123 116t168 44q127 0 201.5 -79t74.5 -210v-676q0 -172 -55 -264q-88 -156 -307 -156q-127 0 -207 57.5t-80 147.5q0 55 35 90t92 35q49 0 85 -33t36 -78q0 -31 -29 -75 q-18 -31 -18 -45q0 -35 65 -35q98 0 99 155v859q0 170 -107 169q-74 0 -141 -71q-35 -31 -35 -47v-547q0 -57 21.5 -83t78.5 -34v-49h-493v49q70 14 89 37t19 86v862h-114z" />
<glyph unicode="&#x453;" horiz-adv-x="937" d="M43 0v49q70 14 89.5 37t19.5 86v606q0 57 -23 84t-74 33v49h811l15 -291h-54q-39 147 -107.5 187.5t-283.5 38.5v-713q0 -57 21.5 -83t79.5 -34v-49h-494zM219 1047l281 321q51 57 108 57q45 0 72 -24.5t27 -65.5q0 -35 -16.5 -56.5t-65.5 -51.5l-291 -180h-115z" />
<glyph unicode="&#x454;" horiz-adv-x="909" d="M51 457q0 221 137.5 366.5t346.5 145.5q135 0 226 -64.5t91 -161.5q0 -59 -37 -94t-102 -35q-113 0 -115 148q0 86 -10 104q-20 39 -76 39q-80 0 -126 -91t-46 -249v-41h295v-82h-287q23 -156 97.5 -244.5t185.5 -88.5q63 0 109 25.5t104 88.5l37 -37 q-90 -115 -181.5 -165t-210.5 -50q-190 0 -314 137.5t-124 348.5z" />
<glyph unicode="&#x455;" horiz-adv-x="796" d="M51 -27v338h58q66 -270 280 -270q70 0 112 37t42 96q0 49 -46 90t-151 88q-154 66 -222.5 140.5t-68.5 177.5q0 129 91.5 214t230.5 85q68 0 160 -31q45 -14 65 -14q33 0 49 41h45v-297h-51q-39 113 -96 168q-70 66 -154 65q-57 0 -96 -33.5t-39 -85t46 -93.5t151 -87 q154 -66 218 -138.5t64 -180.5q0 -137 -88 -224.5t-227 -87.5q-115 0 -221 47q-31 12 -47 13q-23 0 -54 -58h-51z" />
<glyph unicode="&#x456;" horiz-adv-x="569" d="M33 0v49q70 16 89 38t19 85v602q0 63 -20.5 85t-87.5 36v49h393v-778q0 -57 21.5 -83t74.5 -34v-49h-489zM123 1257q0 66 47 112t112.5 46t111.5 -47t46 -113q0 -68 -46 -112.5t-113.5 -44.5t-112.5 44.5t-45 114.5z" />
<glyph unicode="&#x457;" horiz-adv-x="569" d="M-70 1179.5q0 53.5 39 92.5t92.5 39t93.5 -40t40 -95q0 -53 -39 -91t-95 -38q-53 0 -92 39.5t-39 93zM33 0v49q70 16 89 38t19 85v602q0 63 -20.5 85t-87.5 36v49h393v-778q0 -57 21.5 -83t74.5 -34v-49h-489zM360 1182q0 51 39 90t90 39q55 0 95.5 -40t40.5 -95 q0 -53 -39 -91t-97 -38q-53 0 -91 39t-38 96z" />
</font>
</defs>
</svg>
